<svg width="40" height="40" viewBox="0 0 40 40" fill="none" xmlns="http://www.w3.org/2000/svg">
<g clip-path="url(#clip0_1378_79367)">
<path d="M27.8941 19.2668H23.2617V24.4321H27.8941V19.2668Z" fill="#FF7478"/>
<mask id="path-2-inside-1_1378_79367" fill="white">
<path d="M30.8499 8.35091C30.8499 8.35091 30.8458 8.33865 30.8417 8.33456C29.5495 5.26565 27.2456 3.48805 25.673 2.57269C24.3239 1.7881 22.4344 1.01985 21.1016 1.80036C19.2486 2.87918 17.4038 3.96208 15.5509 5.04499C15.5468 5.04499 15.5387 5.04907 15.5346 5.05316C15.2461 5.21253 14.986 5.43728 14.7585 5.74785L14.9942 6.20145C16.6765 9.43381 15.303 12.2902 15.242 12.4087L15.0876 12.7193L13.8848 10.4963L13.8767 10.39C13.8727 10.2715 13.8686 10.1489 13.8645 10.0304C13.7954 9.98957 13.7264 9.95688 13.6573 9.93644C12.9787 9.71169 12.5723 10.3819 12.743 11.4362C12.8852 12.2984 13.893 13.9003 14.5878 14.5582C14.9942 15.9925 15.5468 17.337 16.2051 18.5302C16.4245 18.9266 16.6521 19.3066 16.8918 19.6622C16.9812 19.7929 17.0706 19.9237 17.16 20.0463C18.0215 21.2477 18.9926 22.1998 20.0085 22.7883C20.9147 23.3154 21.7924 23.5157 22.5847 23.4053C22.6213 23.4012 22.6579 23.3972 22.6904 23.389H22.6985C22.8123 23.3685 22.922 23.344 23.0317 23.3113C23.0967 23.2909 23.1618 23.2705 23.2268 23.246C23.2308 23.246 23.2349 23.2419 23.239 23.2419C23.243 23.2419 23.2512 23.2378 23.2552 23.2337L24.1248 22.727C24.1248 22.727 24.1329 22.7229 24.137 22.7188C24.6612 22.2897 25.1082 21.6727 25.4536 20.8676C25.8396 20.9535 26.3272 20.8554 26.7051 20.6306L26.7498 20.602L30.7158 18.2891L32.3249 17.3492C32.6256 17.1735 32.8613 16.9161 32.9263 16.6096C33.0116 16.2091 32.971 15.731 32.8125 15.2611C32.6418 14.7625 32.3615 14.3334 32.0242 14.0556C31.9511 13.9943 31.882 13.9452 31.8088 13.9044H31.8048"/>
</mask>
<path d="M30.8499 8.35091C30.8499 8.35091 30.8458 8.33865 30.8417 8.33456C29.5495 5.26565 27.2456 3.48805 25.673 2.57269C24.3239 1.7881 22.4344 1.01985 21.1016 1.80036C19.2486 2.87918 17.4038 3.96208 15.5509 5.04499C15.5468 5.04499 15.5387 5.04907 15.5346 5.05316C15.2461 5.21253 14.986 5.43728 14.7585 5.74785L14.9942 6.20145C16.6765 9.43381 15.303 12.2902 15.242 12.4087L15.0876 12.7193L13.8848 10.4963L13.8767 10.39C13.8727 10.2715 13.8686 10.1489 13.8645 10.0304C13.7954 9.98957 13.7264 9.95688 13.6573 9.93644C12.9787 9.71169 12.5723 10.3819 12.743 11.4362C12.8852 12.2984 13.893 13.9003 14.5878 14.5582C14.9942 15.9925 15.5468 17.337 16.2051 18.5302C16.4245 18.9266 16.6521 19.3066 16.8918 19.6622C16.9812 19.7929 17.0706 19.9237 17.16 20.0463C18.0215 21.2477 18.9926 22.1998 20.0085 22.7883C20.9147 23.3154 21.7924 23.5157 22.5847 23.4053C22.6213 23.4012 22.6579 23.3972 22.6904 23.389H22.6985C22.8123 23.3685 22.922 23.344 23.0317 23.3113C23.0967 23.2909 23.1618 23.2705 23.2268 23.246C23.2308 23.246 23.2349 23.2419 23.239 23.2419C23.243 23.2419 23.2512 23.2378 23.2552 23.2337L24.1248 22.727C24.1248 22.727 24.1329 22.7229 24.137 22.7188C24.6612 22.2897 25.1082 21.6727 25.4536 20.8676C25.8396 20.9535 26.3272 20.8554 26.7051 20.6306L26.7498 20.602L30.7158 18.2891L32.3249 17.3492C32.6256 17.1735 32.8613 16.9161 32.9263 16.6096C33.0116 16.2091 32.971 15.731 32.8125 15.2611C32.6418 14.7625 32.3615 14.3334 32.0242 14.0556C31.9511 13.9943 31.882 13.9452 31.8088 13.9044H31.8048" fill="#EFA7AF"/>
<path d="M30.8417 8.33456L30.5652 8.45098L30.5879 8.50474L30.629 8.5461L30.8417 8.33456ZM25.673 2.57269L25.8239 2.31342L25.8238 2.31336L25.673 2.57269ZM21.1016 1.80036L21.2525 2.05962L21.2532 2.05924L21.1016 1.80036ZM15.5509 5.04499V5.34499H15.6321L15.7022 5.304L15.5509 5.04499ZM15.5346 5.05316L15.6797 5.31576L15.7172 5.29505L15.7473 5.26469L15.5346 5.05316ZM14.7585 5.74785L14.5165 5.57054L14.4064 5.72084L14.4923 5.88617L14.7585 5.74785ZM14.9942 6.20145L14.728 6.33976L14.7281 6.33994L14.9942 6.20145ZM15.242 12.4087L14.9752 12.2715L14.9734 12.2752L15.242 12.4087ZM15.0876 12.7193L14.8238 12.8621L15.0989 13.3705L15.3563 12.8529L15.0876 12.7193ZM13.8848 10.4963L13.5857 10.5192L13.5906 10.5829L13.621 10.639L13.8848 10.4963ZM13.8767 10.39L13.5766 10.4003L13.5776 10.4129L13.8767 10.39ZM13.8645 10.0304L14.1644 10.0202L14.1587 9.8559L14.0173 9.77223L13.8645 10.0304ZM13.6573 9.93644L13.5629 10.2214L13.5722 10.2241L13.6573 9.93644ZM12.743 11.4362L12.4469 11.4841L12.447 11.485L12.743 11.4362ZM14.5878 14.5582L14.8765 14.4764L14.854 14.3971L14.7941 14.3404L14.5878 14.5582ZM16.2051 18.5302L15.9424 18.6751L15.9426 18.6755L16.2051 18.5302ZM16.8918 19.6622L16.6431 19.8299L16.6442 19.8315L16.8918 19.6622ZM17.16 20.0463L17.4038 19.8715L17.4024 19.8695L17.16 20.0463ZM20.0085 22.7883L20.1594 22.529L20.1589 22.5287L20.0085 22.7883ZM22.5847 23.4053L22.5514 23.1071L22.5434 23.1082L22.5847 23.4053ZM22.6904 23.389V23.089H22.6533L22.6172 23.098L22.6904 23.389ZM22.6985 23.389V23.689H22.7252L22.7515 23.6843L22.6985 23.389ZM23.0317 23.3113L23.1174 23.5989L23.1217 23.5975L23.0317 23.3113ZM23.2268 23.246V22.946H23.1721L23.1209 22.9653L23.2268 23.246ZM23.2552 23.2337L23.1042 22.9745L23.0702 22.9943L23.0425 23.0222L23.2552 23.2337ZM24.1248 22.727L23.9901 22.4589L23.9818 22.4631L23.9738 22.4678L24.1248 22.727ZM24.137 22.7188L23.947 22.4867L23.9351 22.4964L23.9243 22.5073L24.137 22.7188ZM25.4536 20.8676L25.5187 20.5748L25.2759 20.5208L25.1779 20.7494L25.4536 20.8676ZM26.7051 20.6306L26.8585 20.8886L26.8668 20.8833L26.7051 20.6306ZM26.7498 20.602L26.5985 20.3427L26.5881 20.3493L26.7498 20.602ZM30.7158 18.2891L30.8669 18.5483L30.8671 18.5482L30.7158 18.2891ZM32.3249 17.3492L32.4762 17.6083L32.4763 17.6082L32.3249 17.3492ZM32.9263 16.6096L32.6329 16.5471L32.6328 16.5473L32.9263 16.6096ZM32.8125 15.2611L33.0968 15.1652L33.0963 15.1639L32.8125 15.2611ZM32.0242 14.0556L31.8315 14.2855L31.8334 14.2871L32.0242 14.0556ZM31.8088 13.9044L31.9552 13.6425L31.887 13.6044H31.8088V13.9044ZM30.8499 8.35091C31.1346 8.25651 31.1346 8.25648 31.1346 8.25645C31.1346 8.25645 31.1346 8.25642 31.1346 8.2564C31.1346 8.25636 31.1346 8.25632 31.1345 8.25629C31.1345 8.25621 31.1345 8.25613 31.1345 8.25605C31.1344 8.2559 31.1344 8.25573 31.1343 8.25557C31.1342 8.25523 31.1341 8.25488 31.1339 8.25451C31.1337 8.25377 31.1334 8.25294 31.1331 8.25205C31.1325 8.25027 31.1317 8.24814 31.1308 8.24572C31.1292 8.24113 31.1266 8.23444 31.1233 8.22665C31.1202 8.21947 31.1149 8.20753 31.1073 8.19377C31.102 8.18418 31.085 8.15375 31.0545 8.12303L30.629 8.5461C30.6005 8.51742 30.5855 8.49006 30.5821 8.48391C30.5764 8.4736 30.5729 8.46549 30.5713 8.46189C30.5695 8.45767 30.5683 8.45431 30.5675 8.45214C30.567 8.45094 30.5666 8.44979 30.5662 8.4487C30.566 8.44815 30.5659 8.44759 30.5657 8.44703C30.5656 8.44675 30.5655 8.44647 30.5654 8.44618C30.5653 8.44603 30.5653 8.44589 30.5652 8.44574C30.5652 8.44567 30.5652 8.4456 30.5652 8.44553C30.5652 8.44549 30.5651 8.44545 30.5651 8.44542C30.5651 8.4454 30.5651 8.44537 30.5651 8.44536C30.5651 8.44533 30.5651 8.44531 30.8499 8.35091ZM31.1182 8.21815C29.7919 5.06809 27.429 3.24769 25.8239 2.31342L25.5221 2.83197C27.0621 3.72842 29.3072 5.46322 30.5652 8.45098L31.1182 8.21815ZM25.8238 2.31336C25.1368 1.91383 24.2985 1.50993 23.4508 1.30779C22.6057 1.1063 21.7104 1.09615 20.95 1.54148L21.2532 2.05924C21.8255 1.72406 22.5414 1.70778 23.3116 1.89143C24.0791 2.07444 24.8601 2.44697 25.5222 2.83203L25.8238 2.31336ZM20.9506 1.5411C19.0975 2.62005 17.2517 3.70349 15.3995 4.78597L15.7022 5.304C17.5559 4.22067 19.3998 3.13831 21.2525 2.05962L20.9506 1.5411ZM15.5509 4.74499C15.4756 4.74499 15.4201 4.77341 15.408 4.77952C15.3862 4.79045 15.3535 4.8098 15.3219 4.84162L15.7473 5.26469C15.7198 5.29243 15.6932 5.3077 15.6775 5.31556C15.6679 5.3204 15.6548 5.32623 15.6386 5.33141C15.626 5.33544 15.5938 5.34499 15.5509 5.34499V4.74499ZM15.3896 4.79056C15.0614 4.97181 14.7688 5.22625 14.5165 5.57054L15.0005 5.92516C15.2033 5.64832 15.4308 5.45325 15.6797 5.31576L15.3896 4.79056ZM14.4923 5.88617L14.728 6.33976L15.2604 6.06313L15.0247 5.60953L14.4923 5.88617ZM14.7281 6.33994C16.3425 9.44189 15.0207 12.1831 14.9753 12.2715L15.5088 12.5459C15.5853 12.3973 17.0104 9.42574 15.2603 6.06295L14.7281 6.33994ZM14.9734 12.2752L14.819 12.5857L15.3563 12.8529L15.5107 12.5423L14.9734 12.2752ZM15.3515 12.5765L14.1487 10.3535L13.621 10.639L14.8238 12.8621L15.3515 12.5765ZM14.184 10.4734L14.1758 10.3672L13.5776 10.4129L13.5857 10.5192L14.184 10.4734ZM14.1765 10.3798C14.1745 10.3206 14.1725 10.2604 14.1705 10.2001C14.1684 10.1399 14.1664 10.0795 14.1644 10.0202L13.5647 10.0407C13.5667 10.0999 13.5688 10.1601 13.5708 10.2203C13.5728 10.2806 13.5749 10.341 13.5769 10.4003L14.1765 10.3798ZM14.0173 9.77223C13.934 9.72299 13.8419 9.6782 13.7424 9.64876L13.5722 10.2241C13.6108 10.2355 13.6569 10.2562 13.7118 10.2886L14.0173 9.77223ZM13.7516 9.65166C13.5303 9.57835 13.3071 9.57088 13.1014 9.64584C12.8958 9.72077 12.7369 9.86747 12.6254 10.0507C12.4083 10.4074 12.3557 10.921 12.4469 11.4841L13.0392 11.3882C12.9596 10.897 13.0249 10.5484 13.1379 10.3626C13.1915 10.2746 13.2507 10.23 13.3069 10.2096C13.3629 10.1891 13.445 10.1822 13.563 10.2212L13.7516 9.65166ZM12.447 11.485C12.5279 11.9754 12.8412 12.6324 13.2014 13.2289C13.5652 13.8315 14.007 14.4214 14.3816 14.776L14.7941 14.3404C14.4738 14.0371 14.0643 13.4971 13.715 12.9187C13.3621 12.3343 13.1003 11.7591 13.039 11.3873L12.447 11.485ZM14.2992 14.64C14.7115 16.0953 15.2726 17.461 15.9424 18.6751L16.4678 18.3853C15.821 17.213 15.2769 15.8898 14.8765 14.4764L14.2992 14.64ZM15.9426 18.6755C16.1651 19.0775 16.3973 19.4654 16.6431 19.8299L17.1405 19.4944C16.9069 19.1479 16.6839 18.7757 16.4676 18.3849L15.9426 18.6755ZM16.6442 19.8315C16.733 19.9615 16.825 20.0961 16.9176 20.223L17.4024 19.8695C17.3162 19.7513 17.2294 19.6244 17.1395 19.4928L16.6442 19.8315ZM16.9162 20.2211C17.7943 21.4457 18.795 22.4321 19.8581 23.0479L20.1589 22.5287C19.1902 21.9676 18.2486 21.0497 17.4038 19.8715L16.9162 20.2211ZM19.8576 23.0476C20.8071 23.6 21.7522 23.8242 22.6261 23.7025L22.5434 23.1082C21.8326 23.2072 21.0222 23.0309 20.1594 22.529L19.8576 23.0476ZM22.6181 23.7035C22.6498 23.6999 22.7076 23.694 22.7635 23.6799L22.6172 23.098C22.6081 23.1003 22.5928 23.1026 22.5514 23.1072L22.6181 23.7035ZM22.6904 23.689H22.6985V23.089H22.6904V23.689ZM22.7515 23.6843C22.8734 23.6624 22.9945 23.6355 23.1174 23.5988L22.9461 23.0238C22.8496 23.0526 22.7512 23.0747 22.6455 23.0937L22.7515 23.6843ZM23.1217 23.5975C23.1855 23.5775 23.2585 23.5546 23.3326 23.5267L23.1209 22.9653C23.0651 22.9863 23.008 23.0043 22.9418 23.0251L23.1217 23.5975ZM23.2268 23.546C23.2524 23.546 23.2748 23.5427 23.2927 23.5388C23.3105 23.5349 23.3251 23.53 23.3357 23.526C23.3461 23.5221 23.3544 23.5183 23.3592 23.516C23.3618 23.5148 23.3638 23.5138 23.3652 23.5132C23.3664 23.5126 23.3675 23.512 23.3676 23.5119C23.3687 23.5114 23.3658 23.5129 23.3623 23.5145C23.3585 23.5163 23.3512 23.5197 23.3417 23.5232C23.3322 23.5268 23.3187 23.5313 23.3019 23.535C23.2849 23.5388 23.2636 23.5419 23.239 23.5419V22.9419C23.2133 22.9419 23.191 22.9451 23.173 22.949C23.1552 22.953 23.1406 22.9578 23.1301 22.9618C23.1196 22.9657 23.1113 22.9695 23.1065 22.9718C23.104 22.973 23.1019 22.974 23.1006 22.9746C23.0993 22.9753 23.0982 22.9758 23.0981 22.9759C23.097 22.9764 23.0999 22.9749 23.1035 22.9733C23.1073 22.9715 23.1145 22.9682 23.124 22.9646C23.1335 22.961 23.1471 22.9565 23.1639 22.9528C23.1808 22.949 23.2021 22.946 23.2268 22.946V23.546ZM23.239 23.5419C23.3142 23.5419 23.3697 23.5134 23.3819 23.5073C23.4036 23.4964 23.4363 23.4771 23.4679 23.4452L23.0425 23.0222C23.0701 22.9944 23.0967 22.9792 23.1123 22.9713C23.1219 22.9664 23.135 22.9606 23.1512 22.9554C23.1638 22.9514 23.196 22.9419 23.239 22.9419V23.5419ZM23.4063 23.4929L24.2758 22.9862L23.9738 22.4678L23.1042 22.9745L23.4063 23.4929ZM24.1248 22.727C24.2595 22.995 24.2596 22.995 24.2596 22.995C24.2596 22.995 24.2596 22.995 24.2596 22.995C24.2597 22.995 24.2597 22.9949 24.2597 22.9949C24.2598 22.9949 24.2599 22.9948 24.26 22.9948C24.2601 22.9947 24.2603 22.9947 24.2604 22.9946C24.2607 22.9944 24.261 22.9943 24.2614 22.9941C24.262 22.9937 24.2628 22.9934 24.2636 22.993C24.2651 22.9922 24.2669 22.9912 24.2689 22.9901C24.2729 22.988 24.2782 22.985 24.2843 22.9813C24.2906 22.9775 24.3203 22.9599 24.3497 22.9303L23.9243 22.5073C23.9496 22.4818 23.9732 22.4683 23.9744 22.4675C23.978 22.4654 23.9811 22.4637 23.9833 22.4624C23.9845 22.4618 23.9857 22.4612 23.9868 22.4606C23.9873 22.4603 23.9879 22.4601 23.9884 22.4598C23.9887 22.4596 23.989 22.4595 23.9892 22.4594C23.9894 22.4593 23.9895 22.4592 23.9897 22.4591C23.9897 22.4591 23.9898 22.4591 23.9899 22.459C23.9899 22.459 23.9899 22.459 23.99 22.459C23.99 22.459 23.99 22.459 23.99 22.459C23.9901 22.4589 23.9901 22.4589 24.1248 22.727ZM24.327 22.9509C24.896 22.4852 25.3691 21.8254 25.7293 20.9859L25.1779 20.7494C24.8473 21.5199 24.4264 22.0942 23.947 22.4867L24.327 22.9509ZM25.3885 21.1605C25.8618 21.2657 26.4269 21.1451 26.8585 20.8885L26.5518 20.3728C26.2275 20.5657 25.8174 20.6412 25.5187 20.5748L25.3885 21.1605ZM26.8668 20.8833L26.9115 20.8547L26.5881 20.3493L26.5434 20.378L26.8668 20.8833ZM26.9009 20.8612L30.8669 18.5483L30.5646 18.03L26.5987 20.3429L26.9009 20.8612ZM30.8671 18.5482L32.4762 17.6083L32.1736 17.0902L30.5644 18.0301L30.8671 18.5482ZM32.4763 17.6082C32.8202 17.4073 33.1311 17.0896 33.2198 16.6718L32.6328 16.5473C32.5914 16.7425 32.431 16.9397 32.1735 17.0902L32.4763 17.6082ZM33.2197 16.6721C33.3184 16.2087 33.2688 15.6752 33.0968 15.1652L32.5282 15.3569C32.6732 15.7868 32.7048 16.2095 32.6329 16.5471L33.2197 16.6721ZM33.0963 15.1639C32.9114 14.6238 32.6033 14.1439 32.215 13.824L31.8334 14.2871C32.1197 14.5229 32.3722 14.9012 32.5287 15.3582L33.0963 15.1639ZM32.2169 13.8256C32.1325 13.7549 32.048 13.6943 31.9552 13.6425L31.6625 14.1663C31.7159 14.1961 31.7696 14.2336 31.8315 14.2855L32.2169 13.8256ZM31.8088 13.6044H31.8048V14.2044H31.8088V13.6044Z" fill="black" mask="url(#path-2-inside-1_1378_79367)"/>
<path d="M26.0242 17.2513C26.0231 17.2481 26.0221 17.2448 26.021 17.2416C25.9814 17.1188 25.9267 16.9412 25.8666 16.7229C25.7463 16.2858 25.6052 15.6873 25.5208 15.0399C25.4362 14.3914 25.4095 13.7003 25.5137 13.0756C25.618 12.4507 25.8511 11.9053 26.2747 11.5294C27.178 10.7278 28.4266 9.96807 29.4556 9.4066C29.9689 9.12651 30.4253 8.89696 30.7533 8.73748C30.9172 8.65776 31.049 8.59558 31.1396 8.5534C31.1573 8.54517 31.1735 8.5377 31.1879 8.53101C31.4001 8.74993 31.5709 9.08276 31.7022 9.49131C31.8465 9.94021 31.938 10.4642 31.9895 10.9905C32.0883 12.002 32.0366 12.9949 31.9425 13.4452L26.0242 17.2513Z" fill="#F4F4F6" stroke="black" stroke-width="0.3"/>
<path d="M20.9777 31.7058C21.1118 31.7835 21.2174 31.9714 21.2174 32.1226C21.2174 32.2779 21.1118 32.3351 20.9736 32.2575C20.8395 32.1798 20.7339 31.9959 20.7339 31.8407C20.7339 31.6895 20.8436 31.6282 20.9736 31.7017L20.9777 31.7058Z" fill="#09212A"/>
<path d="M19.114 25.1187V25.1394C19.114 25.1394 19.0974 25.127 19.085 25.1187C19.0974 25.1187 19.1057 25.1228 19.114 25.1187Z" fill="#E9BD88"/>
<path d="M20.9919 27.6929C21.126 27.7706 21.2316 27.9586 21.2316 28.1098C21.2316 28.2609 21.126 28.3263 20.9878 28.2487C20.8537 28.171 20.748 27.9831 20.748 27.8319C20.748 27.6807 20.8578 27.6194 20.9878 27.6929H20.9919Z" fill="#09212A"/>
<path d="M21.8106 24.2321C21.8106 24.2321 21.7903 24.2443 21.7578 24.2607C21.7741 24.2525 21.7944 24.2402 21.8106 24.2321Z" fill="#1D485F"/>
<path d="M23.4863 23.2469C23.4863 23.2469 21.7756 24.2521 21.7593 24.2603C21.6374 24.3298 21.5318 24.4238 21.4424 24.5464C21.1701 24.9182 21.0929 25.4944 21.223 26.1687C21.227 26.1891 21.2311 26.2096 21.2392 26.23C21.2595 26.2954 21.292 26.3567 21.3367 26.4098C21.353 26.4302 21.3652 26.4466 21.3814 26.4588C21.0157 26.3158 20.6419 26.136 20.2559 25.9112C19.9267 25.7192 19.6057 25.5067 19.2928 25.2738L19.114 25.1185C19.1709 25.1144 19.2115 25.0735 19.2278 25.0081C19.3619 24.4892 19.2888 23.8272 19.0206 23.1406C18.7524 22.4541 18.3216 21.8248 17.8056 21.3712L17.196 20.885C17.1961 20.8466 17.1514 19.6631 17.1514 19.6631C17.2408 19.7939 17.3302 19.9246 17.4196 20.0472C18.281 21.2486 19.2522 22.2008 20.2681 22.7892C21.1742 23.3164 22.0519 23.5166 22.8443 23.4063C22.8809 23.4022 22.9174 23.3981 22.9499 23.3899H22.9581C23.0719 23.3695 23.1816 23.345 23.2913 23.3123C23.3563 23.2918 23.4213 23.2714 23.4863 23.2469Z" fill="#FF7478"/>
<path d="M24.0827 22.9485L23.9648 23.022C24.0055 22.9975 24.042 22.973 24.0827 22.9485Z" fill="#E9BD88"/>
<mask id="path-11-inside-2_1378_79367" fill="white">
<path d="M30.1294 37.6313V38.5263L37.7159 33.3488C37.7159 33.3488 37.6915 26.1771 30.9339 23.9459L30.5235 21.8373C30.5073 21.7555 30.4666 21.6656 30.4097 21.5962C30.3732 21.5471 30.3285 21.5104 30.2838 21.4817C30.2635 21.4695 30.2431 21.4613 30.2188 21.4572L29.8083 21.3387L28.9428 21.0976L28.8047 21.0568L28.2805 20.9096C28.0407 20.8443 27.8213 20.832 27.6303 20.881L24.0829 22.9529L23.9651 23.0223C23.9651 23.0223 23.9447 23.0346 23.9326 23.0387C23.8716 23.0755 23.8066 23.1081 23.7416 23.1368C23.6684 23.1735 23.5912 23.2062 23.514 23.2348C23.51 23.2389 23.5018 23.243 23.4978 23.243C23.4937 23.243 23.4896 23.2471 23.4856 23.2471C23.4856 23.2471 21.7911 24.2442 21.7586 24.2605C21.6367 24.33 21.531 24.424 21.4416 24.5466C21.1694 24.9184 21.0922 25.4946 21.2222 26.1689C21.2263 26.1893 21.2303 26.2097 21.2385 26.2302C21.2629 26.2956 21.2954 26.3569 21.336 26.41C21.3522 26.4304 21.3644 26.4468 21.3807 26.459C21.4051 26.4835 21.4335 26.5081 21.462 26.5244L21.527 26.5489"/>
</mask>
<path d="M30.1294 37.6313V38.5263L37.7159 33.3488C37.7159 33.3488 37.6915 26.1771 30.9339 23.9459L30.5235 21.8373C30.5073 21.7555 30.4666 21.6656 30.4097 21.5962C30.3732 21.5471 30.3285 21.5104 30.2838 21.4817C30.2635 21.4695 30.2431 21.4613 30.2188 21.4572L29.8083 21.3387L28.9428 21.0976L28.8047 21.0568L28.2805 20.9096C28.0407 20.8443 27.8213 20.832 27.6303 20.881L24.0829 22.9529L23.9651 23.0223C23.9651 23.0223 23.9447 23.0346 23.9326 23.0387C23.8716 23.0755 23.8066 23.1081 23.7416 23.1368C23.6684 23.1735 23.5912 23.2062 23.514 23.2348C23.51 23.2389 23.5018 23.243 23.4978 23.243C23.4937 23.243 23.4896 23.2471 23.4856 23.2471C23.4856 23.2471 21.7911 24.2442 21.7586 24.2605C21.6367 24.33 21.531 24.424 21.4416 24.5466C21.1694 24.9184 21.0922 25.4946 21.2222 26.1689C21.2263 26.1893 21.2303 26.2097 21.2385 26.2302C21.2629 26.2956 21.2954 26.3569 21.336 26.41C21.3522 26.4304 21.3644 26.4468 21.3807 26.459C21.4051 26.4835 21.4335 26.5081 21.462 26.5244L21.527 26.5489" fill="#6B91FC"/>
<path d="M30.1294 38.5263H29.8294V39.0942L30.2985 38.774L30.1294 38.5263ZM37.7159 33.3488L37.885 33.5966L38.0165 33.5069L38.0159 33.3478L37.7159 33.3488ZM30.9339 23.9459L30.6395 24.0032L30.673 24.1757L30.8399 24.2307L30.9339 23.9459ZM30.5235 21.8373L30.818 21.78L30.8178 21.7787L30.5235 21.8373ZM30.4097 21.5962L30.169 21.7757L30.1776 21.7862L30.4097 21.5962ZM30.2838 21.4817L30.4455 21.229L30.4388 21.2249L30.2838 21.4817ZM30.2188 21.4572L30.1355 21.7455L30.1521 21.7502L30.1692 21.7531L30.2188 21.4572ZM29.8083 21.3387L29.8916 21.0505L29.8888 21.0497L29.8083 21.3387ZM28.9428 21.0976L28.8577 21.3853L28.8623 21.3866L28.9428 21.0976ZM28.8047 21.0568L28.8898 20.769L28.8857 20.7679L28.8047 21.0568ZM28.2805 20.9096L28.3615 20.6208L28.3594 20.6202L28.2805 20.9096ZM27.6303 20.881L27.5557 20.5905L27.5152 20.6009L27.479 20.622L27.6303 20.881ZM24.0829 22.9529L23.9316 22.6938L23.9306 22.6944L24.0829 22.9529ZM23.9651 23.0223L23.8127 22.7639L23.8101 22.7655L23.9651 23.0223ZM23.9326 23.0387L23.8372 22.7542L23.8059 22.7647L23.7776 22.7818L23.9326 23.0387ZM23.7416 23.1368L23.6208 22.8622L23.6137 22.8653L23.6068 22.8687L23.7416 23.1368ZM23.514 23.2348L23.4098 22.9535L23.3479 22.9765L23.3013 23.0233L23.514 23.2348ZM23.4856 23.2471V22.9471H23.4039L23.3334 22.9885L23.4856 23.2471ZM21.7586 24.2605L21.6238 23.9925L21.6168 23.996L21.6101 23.9999L21.7586 24.2605ZM21.4416 24.5466L21.6837 24.7238L21.684 24.7233L21.4416 24.5466ZM21.2222 26.1689L20.9276 26.2257L20.928 26.2274L21.2222 26.1689ZM21.2385 26.2302L21.5196 26.1253L21.5172 26.1193L21.2385 26.2302ZM21.336 26.41L21.0977 26.5923L21.1012 26.5967L21.336 26.41ZM21.3807 26.459L21.5934 26.2475L21.5784 26.2324L21.5613 26.2195L21.3807 26.459ZM21.462 26.5244L21.3125 26.7845L21.3335 26.7966L21.3561 26.8051L21.462 26.5244ZM29.8294 37.6313V38.5263H30.4294V37.6313H29.8294ZM30.2985 38.774L37.885 33.5966L37.5468 33.101L29.9602 38.2785L30.2985 38.774ZM37.7159 33.3488C38.0159 33.3478 38.0159 33.3476 38.0159 33.3474C38.0159 33.3473 38.0159 33.3471 38.0159 33.3469C38.0159 33.3465 38.0159 33.346 38.0159 33.3454C38.0159 33.3441 38.0159 33.3425 38.0159 33.3403C38.0158 33.3361 38.0157 33.3302 38.0156 33.3226C38.0153 33.3074 38.0148 33.2856 38.0138 33.2574C38.0119 33.2011 38.0082 33.1195 38.001 33.0156C37.9866 32.8079 37.9584 32.5108 37.9031 32.1481C37.7926 31.4235 37.5731 30.4332 37.1365 29.3701C36.2618 27.2399 34.5107 24.8109 31.028 23.661L30.8399 24.2307C34.1147 25.312 35.7547 27.5845 36.5815 29.598C36.9957 30.6067 37.2047 31.5488 37.31 32.2386C37.3625 32.5832 37.389 32.8638 37.4024 33.057C37.4091 33.1536 37.4125 33.2282 37.4142 33.2781C37.415 33.303 37.4155 33.3216 37.4157 33.3337C37.4158 33.3398 37.4159 33.3442 37.4159 33.3469C37.4159 33.3482 37.4159 33.3491 37.4159 33.3496C37.4159 33.3499 37.4159 33.35 37.4159 33.3501C37.4159 33.3501 37.4159 33.35 37.4159 33.35C37.4159 33.3499 37.4159 33.3498 37.7159 33.3488ZM31.2284 23.8886L30.818 21.78L30.229 21.8946L30.6395 24.0032L31.2284 23.8886ZM30.8178 21.7787C30.7923 21.6507 30.7312 21.5152 30.6418 21.4061L30.1776 21.7862C30.2021 21.8161 30.2222 21.8604 30.2293 21.8958L30.8178 21.7787ZM30.6502 21.4168C30.5864 21.3313 30.5116 21.2714 30.4455 21.2291L30.1221 21.7344C30.1453 21.7493 30.1599 21.763 30.1693 21.7755L30.6502 21.4168ZM30.4388 21.2249C30.3902 21.1956 30.3344 21.1724 30.2683 21.1614L30.1692 21.7531C30.1621 21.7519 30.1539 21.7498 30.1455 21.7466C30.1372 21.7434 30.1315 21.7402 30.1288 21.7386L30.4388 21.2249ZM30.302 21.169L29.8916 21.0505L29.7251 21.6269L30.1355 21.7455L30.302 21.169ZM29.8888 21.0497L29.0233 20.8086L28.8623 21.3866L29.7278 21.6277L29.8888 21.0497ZM29.0279 20.8099L28.8898 20.7691L28.7196 21.3444L28.8577 21.3853L29.0279 20.8099ZM28.8857 20.7679L28.3615 20.6208L28.1994 21.1985L28.7236 21.3456L28.8857 20.7679ZM28.3594 20.6202C28.0864 20.5458 27.8118 20.5247 27.5557 20.5905L27.7049 21.1716C27.8309 21.1393 27.9951 21.1428 28.2015 21.1991L28.3594 20.6202ZM27.479 20.622L23.9316 22.6938L24.2342 23.2119L27.7816 21.1401L27.479 20.622ZM23.9306 22.6944L23.8127 22.7639L24.1174 23.2808L24.2353 23.2113L23.9306 22.6944ZM23.9651 23.0223C23.8101 22.7655 23.8101 22.7655 23.8101 22.7655C23.8101 22.7655 23.8101 22.7654 23.8101 22.7654C23.8101 22.7654 23.8102 22.7654 23.8102 22.7654C23.8102 22.7654 23.8103 22.7654 23.8103 22.7653C23.8104 22.7653 23.8104 22.7653 23.8105 22.7652C23.8106 22.7651 23.8107 22.7651 23.8108 22.765C23.811 22.7649 23.8112 22.7648 23.8113 22.7648C23.8114 22.7646 23.8115 22.7646 23.8114 22.7647C23.8111 22.7649 23.8107 22.7651 23.8105 22.7652C23.8044 22.7685 23.8163 22.7612 23.8372 22.7542L24.0279 23.3231C24.061 23.312 24.0891 23.2966 24.0962 23.2928C24.1026 23.2893 24.1081 23.2862 24.112 23.2839C24.114 23.2828 24.1157 23.2818 24.1171 23.281C24.1177 23.2806 24.1183 23.2802 24.1188 23.2799C24.1191 23.2798 24.1193 23.2796 24.1195 23.2795C24.1196 23.2795 24.1197 23.2794 24.1198 23.2793C24.1199 23.2793 24.1199 23.2793 24.1199 23.2793C24.12 23.2793 24.12 23.2792 24.12 23.2792C24.12 23.2792 24.12 23.2792 24.12 23.2792C24.12 23.2792 24.1201 23.2792 23.9651 23.0223ZM23.7776 22.7818C23.7297 22.8107 23.6765 22.8376 23.6208 22.8622L23.8624 23.4113C23.9367 23.3787 24.0135 23.3402 24.0875 23.2955L23.7776 22.7818ZM23.6068 22.8687C23.5453 22.8996 23.4786 22.928 23.4098 22.9535L23.6182 23.5161C23.7039 23.4844 23.7915 23.4474 23.8763 23.4048L23.6068 22.8687ZM23.3013 23.0233C23.3289 22.9956 23.3555 22.9803 23.3711 22.9724C23.3808 22.9676 23.3938 22.9618 23.41 22.9566C23.4226 22.9525 23.4548 22.943 23.4978 22.943V23.543C23.573 23.543 23.6285 23.5146 23.6407 23.5085C23.6624 23.4975 23.6951 23.4782 23.7267 23.4464L23.3013 23.0233ZM23.4978 22.943C23.4721 22.943 23.4498 22.9462 23.4318 22.9502C23.414 22.9541 23.3994 22.959 23.3889 22.9629C23.3784 22.9669 23.3701 22.9706 23.3653 22.9729C23.3628 22.9741 23.3607 22.9751 23.3594 22.9758C23.3581 22.9764 23.357 22.977 23.3569 22.977C23.3558 22.9776 23.3587 22.9761 23.3622 22.9744C23.3661 22.9726 23.3733 22.9693 23.3828 22.9657C23.3923 22.9622 23.4059 22.9576 23.4227 22.9539C23.4396 22.9502 23.4609 22.9471 23.4856 22.9471V23.5471C23.5112 23.5471 23.5336 23.5439 23.5515 23.5399C23.5693 23.536 23.584 23.5311 23.5945 23.5272C23.6049 23.5232 23.6132 23.5194 23.6181 23.5172C23.6206 23.516 23.6226 23.515 23.624 23.5143C23.6252 23.5137 23.6263 23.5131 23.6264 23.5131C23.6275 23.5125 23.6246 23.514 23.6211 23.5157C23.6173 23.5175 23.61 23.5208 23.6006 23.5243C23.5911 23.5279 23.5775 23.5325 23.5607 23.5362C23.5437 23.5399 23.5224 23.543 23.4978 23.543V22.943ZM23.4856 23.2471C23.3334 22.9885 23.3334 22.9885 23.3334 22.9885C23.3334 22.9885 23.3334 22.9886 23.3334 22.9886C23.3333 22.9886 23.3332 22.9886 23.3331 22.9887C23.3329 22.9888 23.3326 22.989 23.3322 22.9892C23.3314 22.9897 23.3302 22.9904 23.3286 22.9914C23.3254 22.9933 23.3206 22.9961 23.3144 22.9997C23.302 23.007 23.2838 23.0177 23.2606 23.0314C23.2142 23.0587 23.1479 23.0977 23.0682 23.1445C22.9089 23.2383 22.6961 23.3634 22.4823 23.489C22.2685 23.6147 22.0537 23.7408 21.8905 23.8364C21.7175 23.9378 21.6205 23.9942 21.6238 23.9925L21.8934 24.5285C21.9213 24.5145 22.3691 24.2515 22.7863 24.0063C23.0002 23.8806 23.213 23.7555 23.3724 23.6617C23.4521 23.6149 23.5184 23.5758 23.5648 23.5485C23.588 23.5349 23.6062 23.5242 23.6187 23.5168C23.6249 23.5132 23.6296 23.5104 23.6329 23.5085C23.6345 23.5076 23.6357 23.5068 23.6365 23.5064C23.6369 23.5061 23.6372 23.5059 23.6374 23.5058C23.6375 23.5058 23.6376 23.5057 23.6376 23.5057C23.6377 23.5057 23.6377 23.5057 23.6377 23.5057C23.6377 23.5056 23.6377 23.5056 23.4856 23.2471ZM21.6101 23.9999C21.4502 24.091 21.3129 24.214 21.1992 24.3698L21.684 24.7233C21.7492 24.634 21.8232 24.569 21.9071 24.5212L21.6101 23.9999ZM21.1996 24.3694C20.858 24.836 20.7897 25.5103 20.9276 26.2257L21.5168 26.1121C21.3947 25.479 21.4808 25.0009 21.6837 24.7238L21.1996 24.3694ZM20.928 26.2274C20.9314 26.2443 20.9399 26.2913 20.9597 26.3411L21.5172 26.1193C21.5195 26.125 21.5203 26.1284 21.52 26.1272C21.5198 26.1265 21.5195 26.125 21.5188 26.1222C21.5182 26.1191 21.5175 26.1158 21.5165 26.1104L20.928 26.2274ZM20.9574 26.335C20.9906 26.4241 21.0366 26.5124 21.0977 26.5922L21.5743 26.2277C21.5541 26.2014 21.5351 26.167 21.5196 26.1254L20.9574 26.335ZM21.1012 26.5967C21.1059 26.6026 21.1457 26.6576 21.2 26.6985L21.5613 26.2195C21.5757 26.2304 21.5839 26.2398 21.5847 26.2406C21.585 26.241 21.5843 26.2402 21.5817 26.237C21.5804 26.2354 21.579 26.2336 21.5771 26.2313C21.5754 26.2291 21.5731 26.2261 21.5708 26.2232L21.1012 26.5967ZM21.168 26.6706C21.2011 26.7039 21.2511 26.7493 21.3125 26.7845L21.6114 26.2643C21.6151 26.2664 21.6146 26.2665 21.6099 26.2627C21.6056 26.2592 21.6 26.2541 21.5934 26.2475L21.168 26.6706ZM21.3561 26.8051L21.4211 26.8296L21.6328 26.2682L21.5678 26.2437L21.3561 26.8051Z" fill="black" mask="url(#path-11-inside-2_1378_79367)"/>
<path d="M29.9427 38.1635C29.9461 38.1952 29.9492 38.225 29.952 38.2529L10.4845 26.9497C10.4812 26.9263 10.4773 26.897 10.4732 26.8624C10.4612 26.7611 10.4475 26.6141 10.4412 26.4337C10.4285 26.0724 10.4453 25.58 10.5625 25.0533C10.7959 24.0035 11.4245 22.8231 13.0186 22.2566L13.0186 22.2567L13.0205 22.256C13.085 22.232 13.1496 22.1971 13.1984 22.1708C13.2147 22.162 13.2293 22.1541 13.2415 22.1479C13.3073 22.1168 13.3695 22.0894 13.4337 22.0612C13.4653 22.0481 13.494 22.0359 13.5212 22.0243C13.5574 22.009 13.591 21.9947 13.6258 21.9807C14.0049 21.8282 14.3392 21.7282 14.5717 21.6728L14.5718 21.673L14.5802 21.6705C14.6068 21.6624 14.63 21.6568 14.6551 21.6507C14.6633 21.6487 14.6717 21.6466 14.6805 21.6444C14.8117 21.6164 14.8978 21.6007 14.9193 21.5971L14.9193 21.5973L14.9256 21.596L14.9304 21.5949C14.9964 21.581 15.0731 21.5647 15.149 21.5379H15.2427L15.2715 21.425L15.4339 20.7879L15.434 20.7875L15.7041 19.7416C15.7106 19.7436 15.719 19.747 15.7289 19.7521C15.7302 19.753 15.7323 19.7545 15.7353 19.7566C15.7403 19.7602 15.7461 19.7645 15.7517 19.7688L15.7661 19.78L15.7692 19.7824L16.2371 20.1962L16.2377 20.1967L16.2736 20.2289L16.2736 20.2289L16.2749 20.23L16.6444 20.5526L16.6447 20.5529L17.7049 21.4842C18.2015 21.9207 18.619 22.5295 18.8792 23.1956C19.1369 23.8554 19.2031 24.4768 19.0853 24.9536C19.0826 24.9555 19.0794 24.9577 19.0757 24.9599C19.07 24.9634 19.0643 24.9664 19.0592 24.9688H18.5908L19.0004 25.2434C18.9997 25.243 19.0109 25.2509 19.0374 25.2697L19.1391 25.3417C19.2239 25.4015 19.3394 25.4826 19.4648 25.5695C19.7137 25.742 20.0081 25.9416 20.1786 26.0412L20.1787 26.0412C20.5614 26.264 20.933 26.4438 21.2973 26.5879C21.3225 26.611 21.3528 26.6354 21.3863 26.6546L21.3968 26.6606L21.4081 26.6649L21.4716 26.6889C25.531 28.3215 27.6556 31.2803 28.7673 33.8358C29.3234 35.1142 29.6255 36.2907 29.7884 37.1473C29.8698 37.5755 29.9164 37.9233 29.9427 38.1635ZM20.9732 32.4234L20.9822 32.4274L20.9916 32.4302C21.0828 32.4574 21.1864 32.4494 21.2672 32.3794C21.3441 32.3128 21.3713 32.2149 21.3713 32.123C21.3713 32.0152 21.3347 31.9049 21.282 31.8126C21.2293 31.7203 21.1523 31.6317 21.0567 31.5763C20.9634 31.5223 20.8435 31.4967 20.7363 31.5581C20.6302 31.6189 20.5906 31.7344 20.5878 31.8412L20.5878 31.8412V31.8451C20.5878 32.0047 20.6685 32.175 20.7753 32.2875L20.7752 32.2876L20.7777 32.29C20.8075 32.32 20.8521 32.3614 20.905 32.3892C20.9205 32.3982 20.9376 32.4066 20.9486 32.4119L20.9657 32.4199L20.9709 32.4223L20.9725 32.423L20.9729 32.4233L20.9731 32.4233L20.9731 32.4234L20.9732 32.4234L20.9732 32.4234L21.0344 32.2864L20.9732 32.4234ZM21.0695 27.5663L21.0695 27.5662L21.0666 27.5645C20.9753 27.51 20.8561 27.4829 20.7488 27.5419C20.64 27.6017 20.6 27.7186 20.6 27.8281C20.6 27.9374 20.6362 28.0485 20.6891 28.1417C20.7419 28.2348 20.8189 28.3235 20.9145 28.3788C21.0098 28.434 21.1299 28.4569 21.2361 28.3949C21.3403 28.3339 21.3806 28.2202 21.3835 28.1141L21.3835 28.1141V28.1101C21.3835 28.0689 21.3779 28.03 21.3685 27.9907C21.3607 27.9443 21.343 27.8999 21.3309 27.8715L21.3275 27.8636L21.3233 27.8562L21.2745 27.7704L21.2748 27.7702L21.2691 27.7616L21.268 27.7599C21.2599 27.7477 21.2449 27.7249 21.222 27.7019L21.1157 27.8077L21.222 27.7019C21.2214 27.7013 21.2205 27.7003 21.2149 27.6936L21.2142 27.6927C21.2099 27.6876 21.2025 27.6786 21.1933 27.669C21.1528 27.6234 21.1086 27.5908 21.0695 27.5663Z" fill="#3F6BE9" stroke="black" stroke-width="0.3"/>
<path d="M14.843 6.01881C14.7252 6.21496 14.6236 6.43563 14.5342 6.68081C14.648 6.36207 14.7821 6.09237 14.9365 5.86353L14.843 6.0229V6.01881Z" fill="#F7D19E"/>
<path d="M23.5132 23.2349C23.5904 23.2063 23.6676 23.1736 23.7407 23.1368C23.8058 23.1082 23.8708 23.0755 23.9317 23.0387C23.9439 23.0346 23.952 23.0265 23.9642 23.0224C24.0049 22.9979 24.0414 22.9733 24.0821 22.9488C24.1837 22.8834 24.2852 22.8099 24.3828 22.7281L23.5132 23.2349Z" fill="#F7D19E"/>
<path d="M14.9557 5.72995L15.1109 6.24597L15.115 6.25948L15.1215 6.27201C16.7494 9.39995 15.4551 12.1686 15.3716 12.3364L15.0114 12.9138L13.7502 10.5177V10.4485V10.4408L13.7494 10.4332C13.738 10.3218 13.734 10.2057 13.7299 10.0873L13.7298 10.0848C13.7298 10.0846 13.7298 10.0845 13.7298 10.0843C13.7258 9.93716 13.7218 9.78824 13.7218 9.64376C13.7262 8.3766 14.3082 6.87307 14.9557 5.72995Z" fill="#F4F4F6" stroke="black" stroke-width="0.3"/>
<path d="M22.8928 17.861C22.0192 18.053 21.0927 17.203 20.8245 15.9648C20.5563 14.7267 21.044 13.5661 21.9217 13.3781C22.7953 13.1861 23.7218 14.032 23.99 15.2742C24.2582 16.5124 23.7665 17.6689 22.8928 17.861Z" stroke="#121319" stroke-width="0.7" stroke-miterlimit="10"/>
<path d="M18.3092 15.6134C17.4315 15.8054 16.505 14.9554 16.2368 13.7172C15.9686 12.4791 16.4603 11.3185 17.3339 11.1265C18.2076 10.9344 19.1341 11.7844 19.4022 13.0226C19.6745 14.2607 19.1828 15.4213 18.3092 15.6134Z" stroke="#121319" stroke-width="0.7" stroke-miterlimit="10"/>
</g>
<path d="M8.9357 36.1744C13.0817 36.1744 16.4427 34.2343 16.4427 31.841C16.4427 29.4477 13.0817 27.5076 8.9357 27.5076C4.7897 27.5076 1.42871 29.4477 1.42871 31.841C1.42871 34.2343 4.7897 36.1744 8.9357 36.1744Z" fill="#B9E14A"/>
<path d="M8.9357 36.1744C13.0817 36.1744 16.4427 34.2343 16.4427 31.841C16.4427 29.4477 13.0817 27.5076 8.9357 27.5076C4.7897 27.5076 1.42871 29.4477 1.42871 31.841C1.42871 34.2343 4.7897 36.1744 8.9357 36.1744Z" stroke="#1C1E2C" stroke-width="0.3" stroke-miterlimit="10"/>
<path d="M8.9523 34.499C13.0983 34.499 16.4593 32.5589 16.4593 30.1656C16.4593 27.7723 13.0983 25.8322 8.9523 25.8322C4.80631 25.8322 1.44531 27.7723 1.44531 30.1656C1.44531 32.5589 4.80631 34.499 8.9523 34.499Z" fill="#728DF2"/>
<path d="M8.9523 34.499C13.0983 34.499 16.4593 32.5589 16.4593 30.1656C16.4593 27.7723 13.0983 25.8322 8.9523 25.8322C4.80631 25.8322 1.44531 27.7723 1.44531 30.1656C1.44531 32.5589 4.80631 34.499 8.9523 34.499Z" stroke="#1C1E2C" stroke-width="0.3" stroke-miterlimit="10"/>
<path d="M8.93471 33.1379C11.9953 33.1379 14.4763 31.7062 14.4763 29.9402C14.4763 28.1741 11.9953 26.7424 8.93471 26.7424C5.87414 26.7424 3.39307 28.1741 3.39307 29.9402C3.39307 31.7062 5.87414 33.1379 8.93471 33.1379Z" fill="#F1F1F3"/>
<path d="M8.93471 33.1379C11.9953 33.1379 14.4763 31.7062 14.4763 29.9402C14.4763 28.1741 11.9953 26.7424 8.93471 26.7424C5.87414 26.7424 3.39307 28.1741 3.39307 29.9402C3.39307 31.7062 5.87414 33.1379 8.93471 33.1379Z" stroke="#1C1E2C" stroke-width="0.3" stroke-miterlimit="10"/>
<path d="M8.9357 33.2504C13.0817 33.2504 16.4427 31.3102 16.4427 28.9169C16.4427 26.5236 13.0817 24.5835 8.9357 24.5835C4.7897 24.5835 1.42871 26.5236 1.42871 28.9169C1.42871 31.3102 4.7897 33.2504 8.9357 33.2504Z" fill="#B9E14A"/>
<path d="M8.9357 33.2504C13.0817 33.2504 16.4427 31.3102 16.4427 28.9169C16.4427 26.5236 13.0817 24.5835 8.9357 24.5835C4.7897 24.5835 1.42871 26.5236 1.42871 28.9169C1.42871 31.3102 4.7897 33.2504 8.9357 33.2504Z" stroke="#1C1E2C" stroke-width="0.3" stroke-miterlimit="10"/>
<path d="M8.9523 31.575C13.0983 31.575 16.4593 29.6348 16.4593 27.2415C16.4593 24.8482 13.0983 22.9081 8.9523 22.9081C4.80631 22.9081 1.44531 24.8482 1.44531 27.2415C1.44531 29.6348 4.80631 31.575 8.9523 31.575Z" fill="#728DF2"/>
<path d="M8.9523 31.575C13.0983 31.575 16.4593 29.6348 16.4593 27.2415C16.4593 24.8482 13.0983 22.9081 8.9523 22.9081C4.80631 22.9081 1.44531 24.8482 1.44531 27.2415C1.44531 29.6348 4.80631 31.575 8.9523 31.575Z" stroke="#1C1E2C" stroke-width="0.3" stroke-miterlimit="10"/>
<path d="M8.93471 30.2215C11.9953 30.2215 14.4763 28.7898 14.4763 27.0238C14.4763 25.2577 11.9953 23.826 8.93471 23.826C5.87414 23.826 3.39307 25.2577 3.39307 27.0238C3.39307 28.7898 5.87414 30.2215 8.93471 30.2215Z" fill="#F1F1F3"/>
<path d="M8.93471 30.2215C11.9953 30.2215 14.4763 28.7898 14.4763 27.0238C14.4763 25.2577 11.9953 23.826 8.93471 23.826C5.87414 23.826 3.39307 25.2577 3.39307 27.0238C3.39307 28.7898 5.87414 30.2215 8.93471 30.2215Z" stroke="#1C1E2C" stroke-width="0.3" stroke-miterlimit="10"/>
<path d="M8.944 30.343C13.09 30.343 16.451 28.4029 16.451 26.0096C16.451 23.6163 13.09 21.6761 8.944 21.6761C4.79801 21.6761 1.43701 23.6163 1.43701 26.0096C1.43701 28.4029 4.79801 30.343 8.944 30.343Z" fill="#B9E14A"/>
<path d="M8.944 30.343C13.09 30.343 16.451 28.4029 16.451 26.0096C16.451 23.6163 13.09 21.6761 8.944 21.6761C4.79801 21.6761 1.43701 23.6163 1.43701 26.0096C1.43701 28.4029 4.79801 30.343 8.944 30.343Z" stroke="#1C1E2C" stroke-width="0.3" stroke-miterlimit="10"/>
<path d="M8.9606 28.6676C13.1066 28.6676 16.4676 26.7275 16.4676 24.3342C16.4676 21.9409 13.1066 20.0007 8.9606 20.0007C4.81461 20.0007 1.45361 21.9409 1.45361 24.3342C1.45361 26.7275 4.81461 28.6676 8.9606 28.6676Z" fill="#728DF2"/>
<path d="M8.9606 28.6676C13.1066 28.6676 16.4676 26.7275 16.4676 24.3342C16.4676 21.9409 13.1066 20.0007 8.9606 20.0007C4.81461 20.0007 1.45361 21.9409 1.45361 24.3342C1.45361 26.7275 4.81461 28.6676 8.9606 28.6676Z" stroke="#1C1E2C" stroke-width="0.3" stroke-miterlimit="10"/>
<path d="M8.94301 27.3065C12.0036 27.3065 14.4847 25.8748 14.4847 24.1087C14.4847 22.3427 12.0036 20.911 8.94301 20.911C5.88245 20.911 3.40137 22.3427 3.40137 24.1087C3.40137 25.8748 5.88245 27.3065 8.94301 27.3065Z" fill="#F1F1F3"/>
<path d="M8.94301 27.3065C12.0036 27.3065 14.4847 25.8748 14.4847 24.1087C14.4847 22.3427 12.0036 20.911 8.94301 20.911C5.88245 20.911 3.40137 22.3427 3.40137 24.1087C3.40137 25.8748 5.88245 27.3065 8.94301 27.3065Z" stroke="#1C1E2C" stroke-width="0.3" stroke-miterlimit="10"/>
<defs>
<clipPath id="clip0_1378_79367">
<rect width="28.997" height="37.0517" fill="white" transform="translate(10.2876 1.47461)"/>
</clipPath>
</defs>
</svg>
