<svg width="40" height="40" viewBox="0 0 40 40" fill="none" xmlns="http://www.w3.org/2000/svg">
<g clip-path="url(#clip0_1378_79631)">
<path d="M11.4555 37.0354L9.80301 38.1397L6.20838 26.3298L6.53005 22.674L8.24326 21.6526L13.6392 30.2761L11.9429 31.4119L11.3793 31.1246C11.3697 31.1191 11.3578 31.1136 11.3437 31.1097C11.3244 31.1043 11.2971 31.101 11.2663 31.1089C11.2343 31.117 11.2092 31.1345 11.1916 31.1541C11.1613 31.1878 11.1557 31.2243 11.1544 31.2334C11.1533 31.2408 11.153 31.2471 11.1529 31.2516L11.1528 31.2581L11.1529 31.2608L11.153 31.262L11.153 31.2627L11.153 31.2629L11.153 31.2631C11.153 31.2631 11.153 31.2632 11.1677 31.2624L11.153 31.2632L11.4555 37.0354Z" fill="#B1E50E" stroke="#1C1E2D" stroke-width="0.3"/>
<path d="M6.39913 22.7149L1.50006 26.252C1.50006 26.252 1.50019 26.2545 1.50032 26.2569L4.16008 27.6135L4.58727 35.7649L9.71078 38.3759L9.71321 38.3758L9.28627 30.2293C9.28627 30.2293 9.28615 30.2269 9.28871 30.2292L11.9433 31.5812C11.9433 31.5812 11.9482 31.5809 11.9457 31.5786L6.40156 22.7147C6.40156 22.7147 6.40156 22.7147 6.39913 22.7149Z" fill="#6B91FC" stroke="#1C1E2D" stroke-width="0.3" stroke-miterlimit="10"/>
<path d="M22.6333 32.8958L20.2177 34.5101L15.1456 17.846L15.6008 12.6728L18.0826 11.193L25.7182 23.3957L23.2593 25.0421L22.4352 24.6221C22.4253 24.6163 22.4129 24.6104 22.3981 24.6063C22.3786 24.601 22.3513 24.5977 22.3204 24.6055C22.2884 24.6137 22.2632 24.6312 22.2456 24.6508C22.2152 24.6846 22.2097 24.7212 22.2083 24.7304C22.2073 24.7378 22.2069 24.7442 22.2068 24.7487L22.2068 24.7552L22.2069 24.7579L22.2069 24.7592L22.2069 24.7598L22.2069 24.7601L22.207 24.7602C22.207 24.7602 22.207 24.7603 22.2113 24.7601L22.207 24.7603L22.6333 32.8958Z" fill="#B1E50E" stroke="#1C1E2D" stroke-width="0.3"/>
<path d="M15.4757 12.7673L8.6 17.7316C8.6 17.7316 8.60018 17.735 8.60036 17.7385L12.3332 19.6424L12.9328 31.0826L20.1234 34.7471L20.1269 34.7469L19.5277 23.3136C19.5277 23.3136 19.5275 23.3102 19.5311 23.3134L23.2568 25.2109C23.2568 25.2109 23.2636 25.2105 23.26 25.2073L15.4791 12.7671C15.4791 12.7671 15.4791 12.7671 15.4757 12.7673Z" fill="#6B91FC" stroke="#1C1E2D" stroke-width="0.3" stroke-miterlimit="10"/>
<path d="M36.1163 27.4487L33.1675 29.4193L27.0631 9.36384L27.6116 3.13041L30.6306 1.33043L39.8308 16.0338L36.8391 18.037L35.8329 17.5242C35.8228 17.5181 35.81 17.512 35.7948 17.5078C35.7753 17.5025 35.7479 17.4992 35.717 17.507C35.685 17.5152 35.6598 17.5327 35.6421 17.5524C35.6117 17.5862 35.6061 17.6229 35.6048 17.6321C35.6037 17.6396 35.6034 17.6459 35.6032 17.6505L35.6032 17.657L35.6033 17.6597L35.6034 17.661L35.6034 17.6616L35.6034 17.6619L35.6034 17.662C35.6034 17.662 35.6034 17.6621 35.6124 17.6616L35.6034 17.6621L36.1163 27.4487Z" fill="#B1E50E" stroke="#1C1E2D" stroke-width="0.3"/>
<path d="M27.488 3.26089L19.2313 9.22228C19.2313 9.22228 19.2316 9.22639 19.2318 9.2305L23.7144 11.5169L24.4344 25.2547L33.0692 29.6553L33.0733 29.655L32.3538 15.9254C32.3538 15.9254 32.3536 15.9213 32.3579 15.9252L36.8319 18.2037C36.8319 18.2037 36.8401 18.2033 36.8358 18.1994L27.4921 3.26067C27.4921 3.26067 27.4921 3.26067 27.488 3.26089Z" fill="#6B91FC" stroke="#1C1E2D" stroke-width="0.3" stroke-miterlimit="10"/>
</g>
<defs>
<clipPath id="clip0_1378_79631">
<rect width="40" height="40" fill="white"/>
</clipPath>
</defs>
</svg>
