<svg width="40" height="40" viewBox="0 0 40 40" fill="none" xmlns="http://www.w3.org/2000/svg">
<path d="M20.751 21.0964L23.8724 24.275L26.4081 29.875L26.9224 31.1821L38.0081 24.1392C38.0081 24.1392 40.4795 19.3321 34.9938 16.2892L31.9581 14.5321L20.751 21.0964Z" fill="#94B4F8"/>
<path d="M16.7861 13.7463L20.7504 21.0963L31.9576 14.5321L26.8004 8.21777L16.7861 13.7463Z" fill="white"/>
<path fill-rule="evenodd" clip-rule="evenodd" d="M26.826 8.08105L32.1189 14.5615L20.708 21.2452L16.6406 13.7041L26.826 8.08105ZM16.93 13.7891L20.7912 20.9481L31.7946 14.5031L26.7731 8.35503L16.93 13.7891Z" fill="#1C1E2C"/>
<path d="M2.729 12.2035L14.2504 5.33926C14.2504 5.33926 14.6219 5.18211 15.2147 5.47497L16.4219 6.16783L5.38615 12.2035H2.729Z" fill="#94B4F8"/>
<path d="M1.46484 16.3824L2.41484 16.9396C2.4077 14.6682 3.67913 13.5682 5.2577 14.4896C6.83627 15.4039 8.12913 17.9967 8.13627 20.2682L19.7648 27.0253C19.7648 24.7467 21.0577 23.6467 22.6577 24.5753C24.2577 25.5039 25.5648 28.111 25.5648 30.3967L26.922 31.1824C27.5648 31.5539 27.822 25.3324 23.7863 22.8539L4.58627 11.7467C3.72913 11.2539 2.3577 12.0896 2.22913 13.2324L1.46484 16.3824Z" fill="#504ECD"/>
<path fill-rule="evenodd" clip-rule="evenodd" d="M3.0782 11.7849C3.56427 11.4823 4.16532 11.3806 4.64002 11.6535L23.8427 22.7622C25.8962 24.0234 26.8512 26.232 27.214 28.0658C27.3956 28.9837 27.4303 29.8143 27.3778 30.3957C27.3517 30.6845 27.3034 30.9202 27.2359 31.0753C27.2029 31.1512 27.1595 31.2217 27.0995 31.2643C27.0678 31.2869 27.0298 31.3028 26.9867 31.3049C26.9435 31.3071 26.9035 31.295 26.8687 31.2749L25.458 30.4582V30.3964C25.458 29.2726 25.1363 28.0657 24.6158 27.0247C24.0946 25.9823 23.3801 25.1179 22.6043 24.6676C21.8332 24.2201 21.1613 24.2716 20.6809 24.679C20.1915 25.0941 19.8723 25.9016 19.8723 27.025V27.2111L8.02966 20.3296L8.02947 20.2682C8.02596 19.1513 7.70593 17.9513 7.19072 16.9174C6.67477 15.882 5.96918 15.0249 5.20434 14.582C4.44425 14.1383 3.78332 14.1913 3.31197 14.5981C2.83112 15.0129 2.51881 15.8187 2.52233 16.9389L2.52292 17.1266L1.34229 16.4342L2.12378 13.2133C2.19464 12.6059 2.59206 12.0876 3.0782 11.7849ZM3.19146 11.9668C2.74727 12.2434 2.39585 12.7116 2.33594 13.2441L2.33519 13.2508L1.58809 16.33L2.31032 16.7535C2.34001 15.6935 2.65414 14.8826 3.17198 14.4358C3.72916 13.955 4.4935 13.919 5.31193 14.3966C6.12559 14.868 6.85564 15.7645 7.38251 16.8218C7.90078 17.8619 8.22834 19.0692 8.24326 20.2059L19.6609 26.8404C19.694 25.7759 20.0154 24.9625 20.5423 24.5156C21.1084 24.0355 21.8829 24.0012 22.7118 24.4823C23.536 24.9606 24.2751 25.8641 24.8074 26.9288C25.331 27.976 25.6605 29.1905 25.672 30.3344L26.9759 31.0893C26.9885 31.08 27.0122 31.0523 27.0394 30.9898C27.0933 30.8661 27.139 30.6573 27.1644 30.3764C27.2148 29.8182 27.1821 29.0082 27.0038 28.1074C26.6471 26.304 25.7131 24.1631 23.7317 22.9456L4.53321 11.8393C4.53315 11.8392 4.53326 11.8393 4.53321 11.8393C4.15078 11.6195 3.63747 11.6891 3.19146 11.9668Z" fill="#1C1E2C"/>
<path d="M7.66504 9.84667L15.865 4.9681C17.5436 4.03953 19.5865 4.06096 21.2508 5.0181L26.8008 8.2181L15.9508 14.2038L9.4579 10.4895L7.66504 9.84667Z" fill="#94B4F8"/>
<path fill-rule="evenodd" clip-rule="evenodd" d="M15.917 5.06077L7.91382 9.82226L9.50158 10.3916L15.9504 14.0806L26.5813 8.21576L21.196 5.1107C19.5645 4.17243 17.5623 4.15128 15.917 5.06077ZM15.8118 4.87407C17.5234 3.92724 19.6062 3.94921 21.3028 4.92494L27.0175 8.21988L15.9485 14.3264L9.41152 10.5869L7.41357 9.87053L15.8118 4.87407Z" fill="#1C1E2C"/>
<path d="M7.34329 19.9396C7.34329 21.7538 6.30758 22.6181 5.03615 21.8753C3.76472 21.1324 2.729 19.061 2.729 17.2538C2.729 15.4467 3.75758 14.5681 5.03615 15.311C6.31472 16.0538 7.34329 18.1253 7.34329 19.9396Z" fill="#504ECD"/>
<path fill-rule="evenodd" clip-rule="evenodd" d="M3.47349 15.4077C3.09038 15.7317 2.83733 16.3659 2.83733 17.2535C2.83733 18.138 3.09121 19.0914 3.50283 19.9155C3.91512 20.741 4.47971 21.4251 5.09138 21.7825C5.69855 22.1372 6.22416 22.0978 6.59889 21.7839C6.98254 21.4626 7.23733 20.8304 7.23733 19.9393C7.23733 19.051 6.98514 18.0958 6.57445 17.2709C6.16309 16.4447 5.59858 15.7607 4.98351 15.4033C4.37302 15.0486 3.84752 15.0913 3.47349 15.4077ZM3.3351 15.2441C3.79501 14.8551 4.42308 14.8299 5.09116 15.218C5.75466 15.6035 6.34372 16.3267 6.76628 17.1754C7.18952 18.0255 7.45162 19.0132 7.45162 19.9393C7.45162 20.8624 7.18855 21.5695 6.73649 21.9482C6.2755 22.3343 5.64755 22.3556 4.98328 21.9675C4.32353 21.582 3.73455 20.859 3.31112 20.0112C2.88703 19.1621 2.62305 18.1762 2.62305 17.2535C2.62305 16.334 2.88428 15.6254 3.3351 15.2441Z" fill="#1C1E2C"/>
<path d="M6.53516 19.4679C6.53516 20.6464 5.86373 21.2107 5.03516 20.7322C4.20658 20.2536 3.53516 18.9036 3.53516 17.725C3.53516 16.5464 4.20658 15.9822 5.03516 16.4607C5.86373 16.9393 6.53516 18.2893 6.53516 19.475V19.4679Z" fill="#1C1E2C"/>
<path fill-rule="evenodd" clip-rule="evenodd" d="M4.04464 16.5531C3.80721 16.753 3.64348 17.1514 3.64348 17.7247C3.64348 18.295 3.80635 18.9109 4.07152 19.443C4.33739 19.9765 4.70008 20.4139 5.08993 20.6391C5.47553 20.8618 5.79948 20.8317 6.02804 20.6392C6.26498 20.4397 6.42852 20.0425 6.4292 19.4711C6.42852 18.8982 6.26573 18.2819 6.00113 17.7501C5.73527 17.2158 5.37259 16.7784 4.98275 16.5532C4.59716 16.3305 4.27321 16.3606 4.04464 16.5531ZM6.64348 19.4676C6.64214 18.8579 6.4696 18.2106 6.19298 17.6547C5.91599 17.0979 5.52867 16.6211 5.08993 16.3677C4.64696 16.1118 4.2209 16.1245 3.90661 16.3892C3.60119 16.6464 3.4292 17.1194 3.4292 17.7247C3.4292 18.333 3.60204 18.9814 3.87973 19.5386C4.15672 20.0944 4.54403 20.5712 4.98275 20.8246C5.42573 21.0805 5.85178 21.0678 6.16607 20.8031C6.4703 20.5469 6.64213 20.0766 6.64348 19.4747H6.64349V19.4676H6.64348Z" fill="#504ECD"/>
<path d="M24.6231 29.7536C24.6231 31.5678 23.5874 32.4321 22.3159 31.6893C21.0445 30.9464 20.0088 28.875 20.0088 27.0678C20.0088 25.2536 21.0374 24.3821 22.3159 25.125C23.5945 25.8678 24.6231 27.9393 24.6231 29.7536Z" fill="#504ECD"/>
<path fill-rule="evenodd" clip-rule="evenodd" d="M20.7502 25.2191C20.3673 25.5422 20.1142 26.1762 20.1142 27.0675C20.1142 27.952 20.3681 28.9054 20.7797 29.7295C21.192 30.555 21.7566 31.2391 22.3682 31.5965C22.9754 31.9512 23.501 31.9118 23.8757 31.5979C24.2594 31.2766 24.5142 30.6444 24.5142 29.7533C24.5142 28.865 24.262 27.9098 23.8513 27.0849C23.4399 26.2587 22.8754 25.5747 22.2604 25.2173C21.6496 24.8625 21.1241 24.9037 20.7502 25.2191ZM20.6121 25.0553C21.0721 24.6671 21.7002 24.644 22.368 25.032C23.0315 25.4175 23.6206 26.1407 24.0431 26.9894C24.4664 27.8395 24.7285 28.8272 24.7285 29.7533C24.7285 30.6764 24.4654 31.3835 24.0133 31.7622C23.5524 32.1483 22.9244 32.1696 22.2601 31.7815C21.6004 31.396 21.0114 30.673 20.588 29.8252C20.1639 28.9761 19.8999 27.9902 19.8999 27.0675C19.8999 26.1446 20.1611 25.4358 20.6121 25.0553Z" fill="#1C1E2C"/>
<path d="M23.8149 29.2823C23.8149 30.4609 23.1435 31.0252 22.3149 30.5466C21.4864 30.068 20.8149 28.718 20.8149 27.5395C20.8149 26.3609 21.4864 25.7966 22.3149 26.2752C23.1435 26.7538 23.8149 28.1038 23.8149 29.2895V29.2823Z" fill="#1C1E2C"/>
<path fill-rule="evenodd" clip-rule="evenodd" d="M21.3244 26.3676C21.087 26.5675 20.9233 26.9659 20.9233 27.5392C20.9233 28.1095 21.0861 28.7254 21.3513 29.2575C21.6172 29.7909 21.9799 30.2284 22.3697 30.4535C22.7553 30.6762 23.0793 30.6461 23.3078 30.4536C23.5448 30.2541 23.7083 29.857 23.709 29.2856C23.7083 28.7126 23.5455 28.0964 23.2809 27.5646C23.0151 27.0302 22.6524 26.5928 22.2625 26.3677C21.8769 26.1449 21.553 26.1751 21.3244 26.3676ZM23.9233 29.282C23.9219 28.6724 23.7494 28.0251 23.4728 27.4691C23.1958 26.9124 22.8085 26.4355 22.3697 26.1821C21.9267 25.9262 21.5007 25.939 21.1864 26.2036C20.881 26.4608 20.709 26.9339 20.709 27.5392C20.709 28.1474 20.8818 28.7958 21.1595 29.353C21.4365 29.9088 21.8238 30.3857 22.2625 30.6391C22.7055 30.8949 23.1316 30.8822 23.4459 30.6176C23.7501 30.3614 23.9219 29.891 23.9233 29.2892H23.9233V29.282H23.9233Z" fill="#504ECD"/>
<path d="M10.1303 9.91042L16.7803 13.7461L20.7445 21.0961L4.5874 11.7461L7.05169 10.039C7.96597 9.40328 9.16597 9.36042 10.1303 9.91042Z" fill="#1C1E2C"/>
<path d="M30.5232 25.9749C30.5232 26.7178 30.0304 27.6107 29.4232 27.9607C28.8161 28.3107 28.3232 28.0035 28.3232 27.2535C28.3232 26.5035 28.8161 25.6178 29.4304 25.2678C30.0447 24.9178 30.5304 25.2321 30.5304 25.9749H30.5232Z" fill="#F1F1F3"/>
<path fill-rule="evenodd" clip-rule="evenodd" d="M30.151 25.3014C29.9979 25.2028 29.768 25.1976 29.4817 25.3607C29.1959 25.5235 28.9316 25.8157 28.7383 26.1626C28.5452 26.5091 28.4286 26.9002 28.4286 27.2533C28.4286 27.6082 28.5449 27.8294 28.7014 27.929C28.8553 28.027 29.0853 28.0305 29.368 27.8676C29.6501 27.705 29.9128 27.4111 30.1054 27.063C30.2978 26.7154 30.4144 26.3242 30.4144 25.9747V25.8676H30.4177C30.3968 25.5777 30.2904 25.3912 30.151 25.3014ZM30.6255 26.0819H30.6358V25.9747C30.6358 25.5834 30.5076 25.2762 30.267 25.1213C30.0237 24.9645 29.7036 24.9876 29.3756 25.1745C29.0471 25.3617 28.7578 25.6873 28.5511 26.0583C28.3442 26.4296 28.2144 26.8564 28.2144 27.2533C28.2144 27.6484 28.3445 27.9558 28.5863 28.1097C28.8305 28.2653 29.1505 28.2403 29.475 28.0533C29.8 27.8659 30.0873 27.5384 30.2929 27.1668C30.4802 26.8283 30.6046 26.4446 30.6255 26.0819Z" fill="#1C1E2C"/>
<path d="M37.5296 21.5035C37.5296 22.2464 37.0367 23.1392 36.4296 23.4892C35.8224 23.8392 35.3296 23.5321 35.3296 22.7821C35.3296 22.0321 35.8224 21.1464 36.4367 20.7964C37.051 20.4464 37.5367 20.7607 37.5367 21.5035H37.5296Z" fill="#F1F1F3"/>
<path fill-rule="evenodd" clip-rule="evenodd" d="M37.1603 20.8302C37.0072 20.7315 36.7772 20.7263 36.491 20.8894C36.2052 21.0522 35.9409 21.3445 35.7476 21.6913C35.5545 22.0378 35.4379 22.4289 35.4379 22.782C35.4379 23.137 35.5542 23.3581 35.7106 23.4577C35.8646 23.5558 36.0946 23.5593 36.3773 23.3964C36.6594 23.2337 36.9221 22.9398 37.1147 22.5918C37.3071 22.2441 37.4236 21.8529 37.4236 21.5035V21.3963H37.427C37.4061 21.1065 37.2997 20.9199 37.1603 20.8302ZM37.6348 21.6106H37.6451V21.5035C37.6451 21.1122 37.5168 20.805 37.2763 20.65C37.033 20.4933 36.7129 20.5163 36.3849 20.7032C36.0563 20.8904 35.7671 21.216 35.5604 21.587C35.3535 21.9584 35.2236 22.3851 35.2236 22.782C35.2236 23.1771 35.3538 23.4845 35.5955 23.6385C35.8398 23.794 36.1598 23.7691 36.4843 23.582C36.8093 23.3946 37.0966 23.0671 37.3022 22.6955C37.4895 22.3571 37.6139 21.9734 37.6348 21.6106Z" fill="#1C1E2C"/>
<path d="M9.80014 36.0678C14.4236 36.0678 18.1716 33.9028 18.1716 31.2321C18.1716 28.5614 14.4236 26.3964 9.80014 26.3964C5.17673 26.3964 1.42871 28.5614 1.42871 31.2321C1.42871 33.9028 5.17673 36.0678 9.80014 36.0678Z" fill="#B9E14A"/>
<path fill-rule="evenodd" clip-rule="evenodd" d="M3.93542 27.9052C2.4367 28.7709 1.53704 29.9509 1.53704 31.2318C1.53704 32.5127 2.4367 33.6927 3.93542 34.5584C5.43133 35.4225 7.505 35.9604 9.80133 35.9604C12.0976 35.9604 14.1713 35.4225 15.6672 34.5584C17.1659 33.6927 18.0656 32.5127 18.0656 31.2318C18.0656 29.9509 17.1659 28.7709 15.6672 27.9052C14.1713 27.0411 12.0976 26.5032 9.80133 26.5032C7.505 26.5032 5.43133 27.0411 3.93542 27.9052ZM3.82824 27.7197C5.3622 26.8336 7.47424 26.2889 9.80133 26.2889C12.1284 26.2889 14.2405 26.8336 15.7744 27.7197C17.3056 28.6041 18.2799 29.842 18.2799 31.2318C18.2799 32.6216 17.3056 33.8595 15.7744 34.7439C14.2405 35.63 12.1284 36.1747 9.80133 36.1747C7.47424 36.1747 5.3622 35.63 3.82824 34.7439C2.2971 33.8595 1.32275 32.6216 1.32275 31.2318C1.32275 29.842 2.2971 28.6041 3.82824 27.7197Z" fill="#1C1E2C"/>
<path d="M9.8226 34.1964C14.446 34.1964 18.194 32.0313 18.194 29.3606C18.194 26.69 14.446 24.5249 9.8226 24.5249C5.19919 24.5249 1.45117 26.69 1.45117 29.3606C1.45117 32.0313 5.19919 34.1964 9.8226 34.1964Z" fill="#6B8FFA"/>
<path fill-rule="evenodd" clip-rule="evenodd" d="M3.95788 26.0338C2.45916 26.8995 1.5595 28.0795 1.5595 29.3604C1.5595 30.6413 2.45916 31.8212 3.95788 32.687C5.45379 33.5511 7.52746 34.0889 9.82379 34.0889C12.1201 34.0889 14.1938 33.5511 15.6897 32.687C17.1884 31.8212 18.0881 30.6413 18.0881 29.3604C18.0881 28.0795 17.1884 26.8995 15.6897 26.0338C14.1938 25.1697 12.1201 24.6318 9.82379 24.6318C7.52746 24.6318 5.45379 25.1697 3.95788 26.0338ZM3.8507 25.8482C5.38466 24.9621 7.4967 24.4175 9.82379 24.4175C12.1509 24.4175 14.2629 24.9621 15.7969 25.8482C17.328 26.7327 18.3024 27.9706 18.3024 29.3604C18.3024 30.7502 17.328 31.9881 15.7969 32.8725C14.2629 33.7586 12.1509 34.3032 9.82379 34.3032C7.4967 34.3032 5.38466 33.7586 3.8507 32.8725C2.31956 31.9881 1.34521 30.7502 1.34521 29.3604C1.34521 27.9706 2.31956 26.7327 3.8507 25.8482Z" fill="#1C1E2C"/>
<path d="M9.80015 32.689C13.2125 32.689 15.9787 31.09 15.9787 29.1176C15.9787 27.1451 13.2125 25.5461 9.80015 25.5461C6.38782 25.5461 3.62158 27.1451 3.62158 29.1176C3.62158 31.09 6.38782 32.689 9.80015 32.689Z" fill="#F1F1F3"/>
<path fill-rule="evenodd" clip-rule="evenodd" d="M5.48605 26.6847C4.38418 27.3216 3.72991 28.1855 3.72991 29.1173C3.72991 30.0491 4.38418 30.913 5.48605 31.5499C6.58512 32.1852 8.11057 32.5816 9.80134 32.5816C11.4921 32.5816 13.0176 32.1852 14.1166 31.5499C15.2185 30.913 15.8728 30.0491 15.8728 29.1173C15.8728 28.1855 15.2185 27.3216 14.1166 26.6847C13.0176 26.0494 11.4921 25.653 9.80134 25.653C8.11057 25.653 6.58512 26.0494 5.48605 26.6847ZM5.37881 26.4991C6.51594 25.8418 8.07978 25.4387 9.80134 25.4387C11.5229 25.4387 13.0867 25.8418 14.2239 26.4991C15.3582 27.1548 16.0871 28.0766 16.0871 29.1173C16.0871 30.1579 15.3582 31.0798 14.2239 31.7354C13.0867 32.3927 11.5229 32.7959 9.80134 32.7959C8.07978 32.7959 6.51594 32.3927 5.37881 31.7354C4.24448 31.0798 3.51562 30.1579 3.51562 29.1173C3.51562 28.0766 4.24448 27.1548 5.37881 26.4991Z" fill="#1C1E2C"/>
<path d="M1.45117 31.5607V29.5535C1.45117 29.5535 1.60831 30.9178 2.31546 31.5178" fill="#B9E14A"/>
<path fill-rule="evenodd" clip-rule="evenodd" d="M1.5595 30.4735V31.5604H1.34521V29.5532L1.55823 29.541L1.55887 29.5416L1.55918 29.5441L1.56054 29.5548C1.56179 29.5644 1.56374 29.5787 1.56649 29.5974C1.57198 29.6346 1.58066 29.6889 1.59326 29.756C1.6185 29.8904 1.65936 30.0756 1.72175 30.2789C1.84789 30.69 2.05656 31.1563 2.38596 31.4358L2.24732 31.5992C1.90817 31.3114 1.69337 30.8662 1.5595 30.4735Z" fill="black"/>
<path d="M18.1582 31.5607V29.5535C18.1582 29.5535 18.0011 30.9178 17.2939 31.5178" fill="#B9E14A"/>
<path fill-rule="evenodd" clip-rule="evenodd" d="M18.0519 29.541L18.0512 29.5416L18.0509 29.5441L18.0495 29.5548C18.0483 29.5644 18.0463 29.5787 18.0436 29.5974C18.0381 29.6346 18.0294 29.6889 18.0168 29.756C17.9916 29.8904 17.9507 30.0756 17.8883 30.2789C17.7622 30.69 17.5535 31.1563 17.2241 31.4358L17.3628 31.5992C17.7019 31.3114 17.9167 30.8662 18.0506 30.4735V31.5604H18.2649V29.5532L18.0519 29.541Z" fill="black"/>
<path d="M9.80014 32.8389C14.4236 32.8389 18.1716 30.6739 18.1716 28.0032C18.1716 25.3325 14.4236 23.1674 9.80014 23.1674C5.17673 23.1674 1.42871 25.3325 1.42871 28.0032C1.42871 30.6739 5.17673 32.8389 9.80014 32.8389Z" fill="#B9E14A"/>
<path fill-rule="evenodd" clip-rule="evenodd" d="M3.93542 24.6763C2.4367 25.542 1.53704 26.722 1.53704 28.0029C1.53704 29.2838 2.4367 30.4637 3.93542 31.3295C5.43133 32.1936 7.505 32.7315 9.80133 32.7315C12.0976 32.7315 14.1713 32.1936 15.6672 31.3295C17.1659 30.4637 18.0656 29.2838 18.0656 28.0029C18.0656 26.722 17.1659 25.542 15.6672 24.6763C14.1713 23.8122 12.0976 23.2743 9.80133 23.2743C7.505 23.2743 5.43133 23.8122 3.93542 24.6763ZM3.82824 24.4907C5.3622 23.6047 7.47424 23.06 9.80133 23.06C12.1284 23.06 14.2405 23.6047 15.7744 24.4907C17.3056 25.3752 18.2799 26.6131 18.2799 28.0029C18.2799 29.3927 17.3056 30.6306 15.7744 31.515C14.2405 32.4011 12.1284 32.9457 9.80133 32.9457C7.47424 32.9457 5.3622 32.4011 3.82824 31.515C2.2971 30.6306 1.32275 29.3927 1.32275 28.0029C1.32275 26.6131 2.2971 25.3752 3.82824 24.4907Z" fill="#1C1E2C"/>
<path d="M9.8226 30.9674C14.446 30.9674 18.194 28.8024 18.194 26.1317C18.194 23.461 14.446 21.296 9.8226 21.296C5.19919 21.296 1.45117 23.461 1.45117 26.1317C1.45117 28.8024 5.19919 30.9674 9.8226 30.9674Z" fill="#6B8FFA"/>
<path fill-rule="evenodd" clip-rule="evenodd" d="M3.95788 22.8049C2.45916 23.6706 1.5595 24.8506 1.5595 26.1315C1.5595 27.4123 2.45916 28.5923 3.95788 29.458C5.45379 30.3221 7.52746 30.86 9.82379 30.86C12.1201 30.86 14.1938 30.3221 15.6897 29.458C17.1884 28.5923 18.0881 27.4123 18.0881 26.1315C18.0881 24.8506 17.1884 23.6706 15.6897 22.8049C14.1938 21.9408 12.1201 21.4029 9.82379 21.4029C7.52746 21.4029 5.45379 21.9408 3.95788 22.8049ZM3.8507 22.6193C5.38466 21.7332 7.4967 21.1886 9.82379 21.1886C12.1509 21.1886 14.2629 21.7332 15.7969 22.6193C17.328 23.5038 18.3024 24.7417 18.3024 26.1315C18.3024 27.5213 17.328 28.7591 15.7969 29.6436C14.2629 30.5297 12.1509 31.0743 9.82379 31.0743C7.4967 31.0743 5.38466 30.5297 3.8507 29.6436C2.31956 28.7591 1.34521 27.5213 1.34521 26.1315C1.34521 24.7417 2.31956 23.5038 3.8507 22.6193Z" fill="#1C1E2C"/>
<path d="M9.80015 29.4601C13.2125 29.4601 15.9787 27.8611 15.9787 25.8887C15.9787 23.9162 13.2125 22.3172 9.80015 22.3172C6.38782 22.3172 3.62158 23.9162 3.62158 25.8887C3.62158 27.8611 6.38782 29.4601 9.80015 29.4601Z" fill="#F1F1F3"/>
<path fill-rule="evenodd" clip-rule="evenodd" d="M5.48605 23.4558C4.38418 24.0927 3.72991 24.9566 3.72991 25.8884C3.72991 26.8202 4.38418 27.6841 5.48605 28.321C6.58512 28.9563 8.11057 29.3527 9.80134 29.3527C11.4921 29.3527 13.0176 28.9563 14.1166 28.321C15.2185 27.6841 15.8728 26.8202 15.8728 25.8884C15.8728 24.9566 15.2185 24.0927 14.1166 23.4558C13.0176 22.8205 11.4921 22.4241 9.80134 22.4241C8.11057 22.4241 6.58512 22.8205 5.48605 23.4558ZM5.37881 23.2702C6.51594 22.6129 8.07978 22.2098 9.80134 22.2098C11.5229 22.2098 13.0867 22.6129 14.2239 23.2702C15.3582 23.9259 16.0871 24.8477 16.0871 25.8884C16.0871 26.929 15.3582 27.8508 14.2239 28.5065C13.0867 29.1638 11.5229 29.567 9.80134 29.567C8.07978 29.567 6.51594 29.1638 5.37881 28.5065C4.24448 27.8508 3.51562 26.929 3.51562 25.8884C3.51562 24.8477 4.24448 23.9259 5.37881 23.2702Z" fill="#1C1E2C"/>
<path d="M1.45117 28.3318V26.3246C1.45117 26.3246 1.60831 27.6889 2.31546 28.2889" fill="#B9E14A"/>
<path fill-rule="evenodd" clip-rule="evenodd" d="M1.5595 27.2446V28.3314H1.34521V26.3243L1.55823 26.3121L1.55887 26.3126L1.55918 26.3152L1.56054 26.3259C1.56179 26.3355 1.56374 26.3498 1.56649 26.3685C1.57198 26.4057 1.58066 26.4599 1.59326 26.5271C1.6185 26.6615 1.65936 26.8467 1.72175 27.05C1.84789 27.4611 2.05656 27.9274 2.38596 28.2069L2.24732 28.3703C1.90817 28.0825 1.69337 27.6373 1.5595 27.2446Z" fill="black"/>
<path d="M18.1582 28.3318V26.3246C18.1582 26.3246 18.0011 27.6889 17.2939 28.2889" fill="#B9E14A"/>
<path fill-rule="evenodd" clip-rule="evenodd" d="M18.0519 26.3121L18.0512 26.3126L18.0509 26.3152L18.0495 26.3259C18.0483 26.3355 18.0463 26.3498 18.0436 26.3685C18.0381 26.4057 18.0294 26.4599 18.0168 26.5271C17.9916 26.6615 17.9507 26.8467 17.8883 27.05C17.7622 27.4611 17.5535 27.9274 17.2241 28.2069L17.3628 28.3703C17.7019 28.0825 17.9167 27.6373 18.0506 27.2446V28.3314H18.2649V26.3243L18.0519 26.3121Z" fill="black"/>
<path d="M9.80014 29.6106C14.4236 29.6106 18.1716 27.4456 18.1716 24.7749C18.1716 22.1042 14.4236 19.9392 9.80014 19.9392C5.17673 19.9392 1.42871 22.1042 1.42871 24.7749C1.42871 27.4456 5.17673 29.6106 9.80014 29.6106Z" fill="#B9E14A"/>
<path fill-rule="evenodd" clip-rule="evenodd" d="M3.93542 21.4481C2.4367 22.3138 1.53704 23.4938 1.53704 24.7746C1.53704 26.0555 2.4367 27.2355 3.93542 28.1012C5.43133 28.9653 7.505 29.5032 9.80133 29.5032C12.0976 29.5032 14.1713 28.9653 15.6672 28.1012C17.1659 27.2355 18.0656 26.0555 18.0656 24.7746C18.0656 23.4938 17.1659 22.3138 15.6672 21.4481C14.1713 20.584 12.0976 20.0461 9.80133 20.0461C7.505 20.0461 5.43133 20.584 3.93542 21.4481ZM3.82824 21.2625C5.3622 20.3764 7.47424 19.8318 9.80133 19.8318C12.1284 19.8318 14.2405 20.3764 15.7744 21.2625C17.3056 22.147 18.2799 23.3848 18.2799 24.7746C18.2799 26.1644 17.3056 27.4023 15.7744 28.2868C14.2405 29.1729 12.1284 29.7175 9.80133 29.7175C7.47424 29.7175 5.3622 29.1729 3.82824 28.2868C2.2971 27.4023 1.32275 26.1644 1.32275 24.7746C1.32275 23.3848 2.2971 22.147 3.82824 21.2625Z" fill="#1C1E2C"/>
<path d="M9.8226 27.7392C14.446 27.7392 18.194 25.5742 18.194 22.9035C18.194 20.2328 14.446 18.0678 9.8226 18.0678C5.19919 18.0678 1.45117 20.2328 1.45117 22.9035C1.45117 25.5742 5.19919 27.7392 9.8226 27.7392Z" fill="#6B8FFA"/>
<path fill-rule="evenodd" clip-rule="evenodd" d="M3.95788 19.5766C2.45916 20.4424 1.5595 21.6223 1.5595 22.9032C1.5595 24.1841 2.45916 25.3641 3.95788 26.2298C5.45379 27.0939 7.52746 27.6318 9.82379 27.6318C12.1201 27.6318 14.1938 27.0939 15.6897 26.2298C17.1884 25.3641 18.0881 24.1841 18.0881 22.9032C18.0881 21.6223 17.1884 20.4424 15.6897 19.5766C14.1938 18.7125 12.1201 18.1746 9.82379 18.1746C7.52746 18.1746 5.45379 18.7125 3.95788 19.5766ZM3.8507 19.3911C5.38466 18.505 7.4967 17.9604 9.82379 17.9604C12.1509 17.9604 14.2629 18.505 15.7969 19.3911C17.328 20.2755 18.3024 21.5134 18.3024 22.9032C18.3024 24.293 17.328 25.5309 15.7969 26.4154C14.2629 27.3014 12.1509 27.8461 9.82379 27.8461C7.4967 27.8461 5.38466 27.3014 3.8507 26.4154C2.31956 25.5309 1.34521 24.293 1.34521 22.9032C1.34521 21.5134 2.31956 20.2755 3.8507 19.3911Z" fill="#1C1E2C"/>
<path d="M9.80015 26.2318C13.2125 26.2318 15.9787 24.6329 15.9787 22.6604C15.9787 20.688 13.2125 19.089 9.80015 19.089C6.38782 19.089 3.62158 20.688 3.62158 22.6604C3.62158 24.6329 6.38782 26.2318 9.80015 26.2318Z" fill="#F1F1F3"/>
<path fill-rule="evenodd" clip-rule="evenodd" d="M5.48605 20.2275C4.38418 20.8644 3.72991 21.7283 3.72991 22.6601C3.72991 23.5919 4.38418 24.4558 5.48605 25.0928C6.58512 25.7281 8.11057 26.1244 9.80134 26.1244C11.4921 26.1244 13.0176 25.7281 14.1166 25.0928C15.2185 24.4558 15.8728 23.5919 15.8728 22.6601C15.8728 21.7283 15.2185 20.8644 14.1166 20.2275C13.0176 19.5922 11.4921 19.1959 9.80134 19.1959C8.11057 19.1959 6.58512 19.5922 5.48605 20.2275ZM5.37881 20.042C6.51594 19.3847 8.07978 18.9816 9.80134 18.9816C11.5229 18.9816 13.0867 19.3847 14.2239 20.042C15.3582 20.6977 16.0871 21.6195 16.0871 22.6601C16.0871 23.7008 15.3582 24.6226 14.2239 25.2783C13.0867 25.9356 11.5229 26.3387 9.80134 26.3387C8.07978 26.3387 6.51594 25.9356 5.37881 25.2783C4.24448 24.6226 3.51562 23.7008 3.51562 22.6601C3.51562 21.6195 4.24448 20.6977 5.37881 20.042Z" fill="#1C1E2C"/>
<path d="M1.45117 25.1035V23.0964C1.45117 23.0964 1.60831 24.4607 2.31546 25.0607" fill="#B9E14A"/>
<path fill-rule="evenodd" clip-rule="evenodd" d="M1.5595 24.0163V25.1032H1.34521V23.0961L1.55823 23.0838L1.55887 23.0844L1.55918 23.0869L1.56054 23.0977C1.56179 23.1072 1.56374 23.1216 1.56649 23.1402C1.57198 23.1775 1.58066 23.2317 1.59326 23.2988C1.6185 23.4332 1.65936 23.6185 1.72175 23.8218C1.84789 24.2328 2.05656 24.6992 2.38596 24.9786L2.24732 25.142C1.90817 24.8543 1.69337 24.409 1.5595 24.0163Z" fill="black"/>
<path d="M18.1582 25.1035V23.0964C18.1582 23.0964 18.0011 24.4607 17.2939 25.0607" fill="#B9E14A"/>
<path fill-rule="evenodd" clip-rule="evenodd" d="M18.0519 23.0838L18.0512 23.0844L18.0509 23.0869L18.0495 23.0977C18.0483 23.1072 18.0463 23.1216 18.0436 23.1402C18.0381 23.1775 18.0294 23.2317 18.0168 23.2988C17.9916 23.4332 17.9507 23.6185 17.8883 23.8218C17.7622 24.2328 17.5535 24.6992 17.2241 24.9786L17.3628 25.142C17.7019 24.8543 17.9167 24.409 18.0506 24.0163V25.1032H18.2649V23.0961L18.0519 23.0838Z" fill="black"/>
</svg>
