<svg width="40" height="40" viewBox="0 0 40 40" fill="none" xmlns="http://www.w3.org/2000/svg">
<path d="M33.745 22.6562C33.745 25.5321 30.8985 32.037 28.8932 33.1815C28.8932 33.1815 26.8096 32.0468 26.1543 31.5382C25.45 30.9904 25 29.8948 25 28.3982C25 25.5125 26.6238 22.2552 28.6388 21.1107C29.5094 20.6118 30.3213 20.602 30.9474 20.9835C31.7593 21.4726 33.745 22.6562 33.745 22.6562Z" fill="#EC7278"/>
<path fill-rule="evenodd" clip-rule="evenodd" d="M30.8928 21.0748C30.3078 20.7183 29.5386 20.719 28.6933 21.2034C27.7106 21.7616 26.813 22.8423 26.1608 24.1491C25.5094 25.4544 25.1083 26.9739 25.1083 28.3979C25.1083 29.8776 25.5535 30.9339 26.2211 31.4533C26.5419 31.7022 27.2197 32.1093 27.8242 32.4575C28.125 32.6308 28.4054 32.7882 28.6106 32.9024C28.7133 32.9594 28.797 33.0057 28.8552 33.0376L28.8923 33.058C29.3583 32.772 29.8818 32.1828 30.4095 31.3985C30.9542 30.5889 31.4952 29.5842 31.9746 28.5238C32.9218 26.4283 33.619 24.1361 33.6386 22.7166L33.3683 22.5554C33.1695 22.4368 32.8959 22.2736 32.5969 22.095C31.999 21.738 31.2989 21.3195 30.8928 21.0748ZM33.801 22.564L33.8533 22.5951V22.656C33.8533 24.1176 33.1336 26.48 32.1699 28.612C31.6869 29.6803 31.1403 30.6962 30.5873 31.5181C30.0367 32.3364 29.4714 32.9753 28.9475 33.2743L28.8956 33.3039L28.8431 33.2753L28.8194 33.2624L28.7519 33.2254C28.6936 33.1933 28.6095 33.1469 28.5065 33.0896C28.3006 32.9751 28.0192 32.8171 27.7172 32.6432C27.116 32.2968 26.4244 31.8823 26.0898 31.6225C25.3488 31.0463 24.894 29.9115 24.894 28.3979C24.894 26.9363 25.3049 25.3843 25.9691 24.0534C26.6325 22.7241 27.5547 21.6037 28.5869 21.0174C29.4826 20.5042 30.3371 20.4853 31.0041 20.8917C31.4099 21.1361 32.1089 21.5541 32.7067 21.9111C33.0057 22.0896 33.2792 22.2528 33.4781 22.3714L33.801 22.564Z" fill="#1C1E2C"/>
<path d="M34.7723 25.8154C34.7723 28.6913 33.1485 31.9486 31.1433 33.0931C29.1282 34.2474 27.4946 32.8486 27.4946 29.9629C27.4946 27.0773 29.1184 23.8199 31.1335 22.6755C33.1485 21.531 34.7723 22.9396 34.7723 25.8154Z" fill="#EFA7AF"/>
<path fill-rule="evenodd" clip-rule="evenodd" d="M33.6397 22.8186C33.0239 22.2863 32.1654 22.2129 31.1876 22.7683C30.2048 23.3265 29.3076 24.407 28.6555 25.7138C28.004 27.0191 27.603 28.5386 27.603 29.9626C27.603 31.3895 28.0073 32.4238 28.6342 32.9613C29.2522 33.4912 30.1131 33.5601 31.0912 32.9998L31.0913 32.9998C32.0693 32.4416 32.9641 31.3611 33.6151 30.0554C34.2653 28.7512 34.6664 27.2342 34.6664 25.8151C34.6664 24.3931 34.2645 23.3586 33.6397 22.8186ZM33.7798 22.6564C34.4707 23.2536 34.8806 24.3613 34.8806 25.8151C34.8806 27.2719 34.4698 28.8215 33.8068 30.151C33.1446 31.4792 32.2249 32.5995 31.1975 33.1859C30.1606 33.7798 29.1973 33.7264 28.4947 33.124C27.8011 32.5293 27.3887 31.4213 27.3887 29.9626C27.3887 28.501 27.7995 26.949 28.4637 25.6181C29.1272 24.2887 30.0494 23.1683 31.0817 22.582C32.119 21.9929 33.0799 22.0515 33.7798 22.6564Z" fill="#1C1E2C"/>
<path d="M15.1737 12.6562C15.1737 15.5321 12.3272 22.037 10.3219 23.1815C10.3219 23.1815 8.23835 22.0468 7.58297 21.5381C6.87868 20.9904 6.42871 19.8948 6.42871 18.3982C6.42871 15.5125 8.0525 12.2552 10.0676 11.1107C10.9381 10.6118 11.75 10.602 12.3761 10.9835C13.188 11.4726 15.1737 12.6562 15.1737 12.6562Z" fill="#EC7278"/>
<path fill-rule="evenodd" clip-rule="evenodd" d="M12.3215 11.0748C11.7365 10.7183 10.9674 10.719 10.122 11.2034C9.13927 11.7616 8.24171 12.8423 7.58954 14.1491C6.93808 15.4544 6.53704 16.9739 6.53704 18.3979C6.53704 19.8776 6.98223 20.9339 7.64985 21.4533C7.97059 21.7022 8.64845 22.1093 9.25286 22.4575C9.55367 22.6308 9.8341 22.7882 10.0394 22.9024C10.142 22.9594 10.2258 23.0057 10.2839 23.0376L10.321 23.058C10.7871 22.772 11.3105 22.1828 11.8382 21.3985C12.3829 20.5889 12.9239 19.5842 13.4033 18.5238C14.3505 16.4283 15.0477 14.1361 15.0673 12.7166L14.797 12.5554C14.5982 12.4368 14.3246 12.2736 14.0256 12.095C13.4277 11.738 12.7277 11.3195 12.3215 11.0748ZM15.2297 12.564L15.282 12.5951V12.656C15.282 14.1176 14.5623 16.48 13.5986 18.612C13.1157 19.6803 12.5691 20.6962 12.016 21.5181C11.4654 22.3364 10.9001 22.9753 10.3762 23.2743L10.3243 23.3039L10.2718 23.2753L10.2481 23.2624L10.1807 23.2254C10.1223 23.1933 10.0382 23.1469 9.9352 23.0896C9.72931 22.9751 9.4479 22.8171 9.1459 22.6432C8.5447 22.2968 7.8531 21.8823 7.51846 21.6225C6.77754 21.0463 6.32275 19.9115 6.32275 18.3979C6.32275 16.9363 6.7336 15.3843 7.39781 14.0534C8.06125 12.7241 8.9834 11.6037 10.0156 11.0174C10.9113 10.5042 11.7657 10.4853 12.4328 10.8916C12.8385 11.1361 13.5376 11.5541 14.1355 11.9111C14.4344 12.0896 14.708 12.2528 14.9068 12.3714L15.2297 12.564Z" fill="#1C1E2C"/>
<path d="M16.2123 15.8057C16.2123 18.6815 14.5885 21.9389 12.5832 23.0834C10.5681 24.2376 8.93457 22.8388 8.93457 19.9532C8.93457 17.0675 10.5584 13.8102 12.5734 12.6657C14.5885 11.5212 16.2123 12.9298 16.2123 15.8057Z" fill="#EFA7AF"/>
<path fill-rule="evenodd" clip-rule="evenodd" d="M15.0791 12.8088C14.4633 12.2766 13.6048 12.2032 12.627 12.7585C11.6443 13.3167 10.7471 14.3972 10.0949 15.704C9.44345 17.0094 9.04241 18.5288 9.04241 19.9529C9.04241 21.3798 9.44674 22.414 10.0737 22.9516C10.6916 23.4814 11.5526 23.5503 12.5306 22.9901L12.5308 22.99C13.5087 22.4319 14.4035 21.3513 15.0545 20.0457C15.7048 18.7415 16.1058 17.2244 16.1058 15.8053C16.1058 14.3833 15.7039 13.3488 15.0791 12.8088ZM15.2192 12.6467C15.9101 13.2438 16.3201 14.3515 16.3201 15.8053C16.3201 17.2621 15.9092 18.8117 15.2463 20.1413C14.5841 21.4694 13.6644 22.5897 12.637 23.1761C11.6001 23.77 10.6368 23.7166 9.93419 23.1142C9.24058 22.5195 8.82812 21.4116 8.82812 19.9529C8.82812 18.4912 9.23897 16.9392 9.90318 15.6083C10.5667 14.2789 11.4889 13.1585 12.5212 12.5722C13.5584 11.9831 14.5194 12.0418 15.2192 12.6467Z" fill="#1C1E2C"/>
<path d="M7.146 36.797L7.42967 31.5833C13.1227 29.3237 20.9991 23.2145 22.2394 4.33105L25.0663 5.50488C25.0663 23.5717 14.6095 33.5494 7.146 36.797Z" fill="#94B4F8"/>
<path fill-rule="evenodd" clip-rule="evenodd" d="M22.1415 4.17464L25.1727 5.43327V5.50479C25.1727 23.618 14.6871 33.6321 7.18797 36.8951L7.02881 36.9644L7.32564 31.5089L7.38937 31.4836C10.2196 30.3602 13.5933 28.2802 16.4149 24.1308C19.2373 19.9803 21.5125 13.7519 22.1317 4.32395L22.1415 4.17464ZM22.3356 4.48724C21.7004 13.8595 19.4262 20.0836 16.5921 24.2513C13.7634 28.4111 10.3817 30.5152 7.53216 31.6573L7.26168 36.6286C14.6686 33.3289 24.931 23.4233 24.9584 5.57629L22.3356 4.48724Z" fill="#1C1E2C"/>
<path d="M27.8932 7.6961L25.9173 10.2394L23.6186 5.52453L19.0798 11.3545L18.0723 8.27323L24.5968 0.907501L25.6043 2.97147L27.8932 7.6961Z" fill="#EC7278"/>
<path fill-rule="evenodd" clip-rule="evenodd" d="M24.6211 0.716377L25.6989 2.9243L28.017 7.70911L25.8947 10.4408L23.5959 5.72576L19.0389 11.5791L17.9497 8.24799L24.6211 0.716377ZM18.1916 8.29813L19.1174 11.1295L23.6379 5.32296L25.9366 10.0376L27.7662 7.68275L25.5064 3.0183L24.5691 1.09828L18.1916 8.29813Z" fill="#1C1E2C"/>
<path d="M30.4924 9.21186L28.5165 11.7551L27.3035 9.25099C26.0718 26.7856 16.8369 35.2218 9.75488 38.3031L10.0386 33.0893C15.1642 31.0449 22.5004 24.9999 24.1146 9.74986L21.6887 12.8703L20.6812 9.77921L27.2057 2.42326L28.2132 4.48723L30.5022 9.21186H30.4924Z" fill="#B9E14A"/>
<path fill-rule="evenodd" clip-rule="evenodd" d="M27.2334 2.23283L28.3112 4.44065L30.6748 9.31943H30.5465L28.4969 11.9575L27.3826 9.65704C26.0373 26.9623 16.8632 35.3283 9.7993 38.4017L9.64014 38.471L9.93696 33.0156L10.0005 32.9902C15.0444 30.9785 22.2785 25.0518 23.9686 10.1148L21.6511 13.0958L20.562 9.75446L27.2334 2.23283ZM30.3746 9.19135L28.1186 4.53465L27.1813 2.61454L20.8038 9.8048L21.7297 12.6456L24.2624 9.38778L24.2228 9.76156C22.6114 24.9854 15.3056 31.079 10.1435 33.1638L9.87301 38.1352C16.898 35.0128 25.9787 26.6064 27.1983 9.2439L27.2265 8.8431L28.5394 11.5536L30.3746 9.19135Z" fill="#1C1E2C"/>
<path d="M27.1958 2.41391L24.5938 0.907501L18.0693 8.27323L20.6713 9.77963L27.1958 2.41391Z" fill="white"/>
<path fill-rule="evenodd" clip-rule="evenodd" d="M24.5713 0.770782L27.3625 2.38674L20.6931 9.91614L17.9019 8.30018L24.5713 0.770782ZM24.6156 1.04401L18.2361 8.24606L20.6488 9.64291L27.0283 2.44086L24.6156 1.04401Z" fill="#1C1E2C"/>
<path d="M18.0693 8.27287L19.0769 11.3542L21.6788 12.8703L20.6713 9.77928L18.0693 8.27287Z" fill="#504ECD"/>
<path fill-rule="evenodd" clip-rule="evenodd" d="M17.8823 8.0399L20.7624 9.70734L21.8698 13.1047L18.9897 11.4264L17.8823 8.0399ZM18.2603 8.50633L19.168 11.2823L21.4918 12.6364L20.5841 9.8517L18.2603 8.50633Z" fill="#1C1E2C"/>
<path d="M7.42674 31.5737L10.0287 33.0899L9.74504 38.3036L7.14307 36.7972L7.42674 31.5737Z" fill="#504ECD"/>
<path fill-rule="evenodd" clip-rule="evenodd" d="M7.33092 31.3923L10.1409 33.0297L9.84419 38.4833L7.03418 36.8564L7.33092 31.3923ZM7.52588 31.7539L7.25528 36.7368L9.6492 38.1228L9.91983 33.1489L7.52588 31.7539Z" fill="#1C1E2C"/>
</svg>
