<svg width="40" height="40" viewBox="0 0 40 40" fill="none" xmlns="http://www.w3.org/2000/svg">
<g clip-path="url(#clip0_1378_77916)">
<path d="M35.2755 24.3044L27.4377 19.7765C27.0651 19.5616 26.7714 19.2392 26.5923 18.8595C26.4203 18.4869 26.3845 18.0857 26.492 17.749L31.0986 3.64954L15.9031 12.476L11.2964 26.5755C11.1817 26.9194 11.2176 27.3134 11.3967 27.686C11.5686 28.0657 11.8695 28.3881 12.2421 28.603L20.0799 33.1309C20.4023 33.3171 20.6673 33.353 20.8465 33.2527C25.9117 30.3081 30.9769 27.3636 36.0421 24.4262C35.8629 24.5336 35.5907 24.4906 35.2755 24.3044Z" fill="#1C1E2C"/>
<path d="M36.7859 23.4879L32.1506 3.58536L16.7329 12.1181C16.7329 12.1181 21.6906 33.5754 21.3969 33.8619C21.3539 33.9049 21.3109 33.9407 21.2608 33.9622C26.326 31.0177 31.3912 28.0731 36.4564 25.1357C36.5065 25.1071 36.5495 25.0713 36.5925 25.0354C36.8791 24.7489 36.9507 24.2044 36.7859 23.4951V23.4879Z" fill="#EC7278"/>
<path fill-rule="evenodd" clip-rule="evenodd" d="M32.2223 3.42282L36.8926 23.4755V23.4828C37.0559 24.1953 36.9938 24.7851 36.6678 25.1111L36.6609 25.118L36.658 25.1198C36.6167 25.1543 36.5676 25.1951 36.5094 25.2285C31.4675 28.1523 26.4256 31.0833 21.3837 34.0143C21.359 34.032 21.3321 34.0479 21.3025 34.0606L21.2065 33.8695L21.2164 33.8637C21.233 33.8541 21.2495 33.8444 21.2661 33.8348C21.2773 33.8263 21.289 33.8163 21.3014 33.8047C21.3018 33.7975 21.302 33.788 21.3018 33.7759C21.3011 33.7323 21.296 33.6681 21.286 33.5828C21.2662 33.413 21.2285 33.1702 21.1748 32.8637C21.0677 32.2512 20.8984 31.3908 20.6867 30.3651C20.2634 28.314 19.6713 25.6057 19.07 22.9057C18.4687 20.2059 17.8582 17.515 17.398 15.499C17.168 14.491 16.9755 13.6518 16.8405 13.0645C16.773 12.7709 16.7199 12.5403 16.6836 12.3831L16.6281 12.1423C16.6281 12.1422 16.6281 12.1421 16.7324 12.118L16.6281 12.1423L16.6099 12.0634L32.2223 3.42282ZM16.855 12.1726L16.8925 12.335C16.9287 12.4922 16.9818 12.7229 17.0493 13.0165C17.1843 13.6039 17.3768 14.4432 17.607 15.4513C18.0672 17.4675 18.6778 20.1588 19.2792 22.8591C19.8806 25.5593 20.4729 28.269 20.8965 30.3218C21.1083 31.348 21.2782 32.211 21.3859 32.8267C21.4397 33.1344 21.4784 33.382 21.4989 33.558C21.5047 33.6076 21.5091 33.6524 21.5121 33.6918C26.4754 30.8065 31.4388 27.9213 36.4022 25.0429C36.4416 25.0204 36.4773 24.9914 36.5196 24.9562C36.7623 24.7098 36.8432 24.2167 36.6811 23.5192L36.6783 23.5073V23.5001L32.078 3.74764L16.855 12.1726ZM21.4713 33.9385C21.4711 33.9386 21.4714 33.9383 21.4713 33.9385L21.3964 33.8618L21.4722 33.9376C21.472 33.9377 21.4714 33.9383 21.4713 33.9385Z" fill="#1C1E2C"/>
<path d="M15.48 11.5659L30.6756 2.73227L32.1514 3.58483L16.9558 12.4113L15.48 11.5659Z" fill="white"/>
<path fill-rule="evenodd" clip-rule="evenodd" d="M30.617 2.63105C30.6535 2.60982 30.6986 2.60976 30.7352 2.63089L32.2111 3.48344C32.2475 3.50448 32.2699 3.54331 32.27 3.58536C32.27 3.6274 32.2477 3.66629 32.2113 3.68741L17.0157 12.5139C16.9793 12.535 16.9344 12.5352 16.8979 12.5142L15.4221 11.6689C15.3855 11.6479 15.3629 11.6091 15.3628 11.567C15.3627 11.5248 15.385 11.4859 15.4214 11.4647L30.617 2.63105ZM30.6764 2.86916L15.7165 11.5658L16.9561 12.2759L31.917 3.58578L30.6764 2.86916Z" fill="#1C1E2C"/>
<path d="M21.5918 32.3211C21.7565 33.0304 21.6849 33.582 21.3983 33.8615C21.1117 34.148 20.6389 34.1265 20.0801 33.8041L12.2423 29.2763C11.6835 28.9539 11.2178 28.438 10.9312 27.8219C10.6446 27.2058 10.5801 26.5825 10.7449 26.0595L15.4806 11.566L16.9564 12.4185L21.5918 32.3211ZM20.9326 33.1952C21.1117 33.0232 21.1476 32.6722 21.0401 32.1993L16.5266 12.8341L15.9104 12.4759L11.3037 26.5753C11.1891 26.9192 11.2249 27.3132 11.404 27.6858C11.576 28.0655 11.8769 28.3879 12.2494 28.6028L20.0872 33.1307C20.4598 33.3456 20.7607 33.3671 20.9326 33.188" fill="#94B4F8"/>
<path fill-rule="evenodd" clip-rule="evenodd" d="M15.4026 11.365L17.0743 12.3307L21.723 32.2906C21.8078 32.6559 21.8337 32.988 21.798 33.2698C21.7623 33.5509 21.6641 33.7908 21.4927 33.9583C21.1378 34.3125 20.5846 34.2527 20.0113 33.9219L12.1735 29.3941C12.1735 29.394 12.1735 29.3941 12.1735 29.3941C11.5893 29.057 11.1049 28.5195 10.8072 27.8794C10.5097 27.2398 10.4373 26.5812 10.6145 26.0189L10.6149 26.0176L15.4026 11.365ZM15.5566 11.7674L10.8734 26.1005C10.8733 26.1007 10.8735 26.1003 10.8734 26.1005C10.7212 26.5841 10.7777 27.1724 11.0533 27.7649C11.3287 28.3571 11.7757 28.8512 12.3091 29.159L20.1469 33.6868C20.6909 34.0006 21.0831 33.984 21.3014 33.7657L21.3026 33.7645C21.4174 33.6526 21.4981 33.4772 21.5287 33.2357C21.5592 32.9945 21.5385 32.696 21.4586 32.3521C21.4586 32.3521 21.4586 32.3522 21.4586 32.3521L16.8366 12.5069L15.5566 11.7674ZM15.8326 12.2744L16.6444 12.7464L21.1715 32.1695C21.2272 32.4149 21.2478 32.6367 21.2278 32.8247C21.2079 33.0122 21.146 33.1777 21.0256 33.2933L21.0222 33.2897C20.9038 33.4083 20.7463 33.4545 20.5749 33.4427C20.4036 33.431 20.2149 33.3618 20.0184 33.2485L12.1806 28.7206C11.7856 28.4927 11.4646 28.1501 11.2801 27.7434C11.0887 27.3446 11.0468 26.9147 11.1739 26.5331C11.1738 26.5332 11.1739 26.5329 11.1739 26.5331L15.8326 12.2744ZM20.844 33.104L20.8377 33.0975C20.8964 33.0411 20.942 32.9452 20.9579 32.796C20.9737 32.6473 20.9585 32.4573 20.9069 32.23C20.9068 32.2299 20.9069 32.2302 20.9069 32.23L16.4067 12.9222L15.9863 12.6778L11.4318 26.6177L11.4315 26.6185C11.3296 26.9241 11.3592 27.2815 11.5254 27.6272L11.5267 27.63C11.6862 27.9822 11.9666 28.2838 12.3163 28.4855L20.1541 33.0134C20.3302 33.115 20.4782 33.164 20.5935 33.172C20.7051 33.1796 20.781 33.1492 20.8338 33.0943L20.844 33.104Z" fill="#1C1E2C"/>
<path d="M18.2954 12.7415L31.6068 5.01114L35.9484 23.6313L22.637 31.3688L18.2954 12.7415Z" fill="white"/>
<path fill-rule="evenodd" clip-rule="evenodd" d="M31.6542 4.90291C31.6885 4.91774 31.7138 4.94795 31.7222 4.98434L36.0638 23.6045C36.0756 23.6549 36.0531 23.7071 36.0083 23.7332L22.6969 31.4707C22.6646 31.4895 22.6253 31.4918 22.591 31.477C22.5566 31.4622 22.5314 31.4319 22.5229 31.3955L18.1813 12.7682C18.1695 12.7178 18.1921 12.6655 18.2369 12.6395L31.5483 4.90919C31.5806 4.89042 31.6199 4.88809 31.6542 4.90291ZM18.4307 12.7996L22.7163 31.1868L35.8145 23.5732L31.5289 5.19304L18.4307 12.7996Z" fill="#1F3596"/>
<path d="M31.6068 5.01114L18.2954 12.7415L19.3772 17.384L32.6886 9.64648L31.6068 5.01114Z" fill="#EC7278"/>
<path fill-rule="evenodd" clip-rule="evenodd" d="M31.6775 4.84583L32.8102 9.69935L19.3051 17.5495L18.1724 12.6887L31.6775 4.84583ZM18.417 12.7944L19.448 17.2186L32.5655 9.59373L31.5346 5.17658L18.417 12.7944Z" fill="#1C1E2C"/>
<path d="M18.8264 7.78372C18.2604 7.45416 17.7446 7.42551 17.372 7.64044L17.2288 7.72641C16.8634 7.94134 16.6341 8.39269 16.627 9.03749C16.627 9.55332 16.7702 10.1193 17.0282 10.671L17.2789 10.5277C17.0497 10.0262 16.9207 9.51033 16.9207 9.04465C16.9207 8.493 17.107 8.09179 17.4007 7.87686C17.7374 7.71924 18.1816 7.76223 18.6688 8.04164C19.7148 8.64345 20.5602 10.1121 20.553 11.3086C20.553 11.9964 20.2593 12.4835 19.7721 12.6125L19.8581 12.7988C19.9727 12.7701 20.0802 12.7128 20.1733 12.6483C20.1518 12.6626 20.1232 12.6841 20.1017 12.6985L20.245 12.6125C20.6247 12.3904 20.8396 11.9247 20.8468 11.3086C20.8468 10.019 19.9369 8.43568 18.8121 7.79089L18.8264 7.78372Z" fill="white"/>
<path d="M22.3225 5.75598C21.7565 5.42642 21.2407 5.39777 20.8681 5.6127L20.7249 5.69867C20.3595 5.9136 20.1302 6.36495 20.123 7.00975C20.123 7.52558 20.2663 8.09156 20.5243 8.64322L20.775 8.49993C20.5457 7.99843 20.4168 7.48259 20.4168 7.01691C20.4168 6.46525 20.6031 6.06405 20.8968 5.84912C21.2335 5.6915 21.6777 5.73449 22.1649 6.0139C23.2109 6.61571 24.0563 8.0844 24.0491 9.28085C24.0491 9.96862 23.7554 10.4558 23.2682 10.5848L23.3542 10.771C23.4688 10.7424 23.5763 10.6851 23.6694 10.6206C23.6479 10.6349 23.6193 10.6564 23.5978 10.6707L23.741 10.5848C24.1208 10.3627 24.3357 9.89698 24.3429 9.28085C24.3429 7.99126 23.433 6.40794 22.3082 5.76315L22.3225 5.75598Z" fill="white"/>
<path d="M25.8186 3.73587C25.2526 3.40631 24.7368 3.37765 24.3642 3.59259L24.2209 3.67856C23.8556 3.89349 23.6263 4.34484 23.6191 4.98963C23.6191 5.50547 23.7624 6.07145 24.0203 6.62311L24.2711 6.47982C24.0418 5.97832 23.9129 5.46248 23.9129 4.9968C23.9129 4.44514 24.0992 4.04394 24.3929 3.82901C24.7296 3.67139 25.1738 3.71438 25.661 3.99379C26.707 4.59559 27.5524 6.06429 27.5452 7.26074C27.5452 7.94851 27.2515 8.43569 26.7643 8.56465L26.8503 8.75092C26.9649 8.72226 27.0724 8.66495 27.1655 8.60047C27.144 8.6148 27.1153 8.63629 27.0939 8.65062L27.2371 8.56465C27.6168 8.34255 27.8318 7.87687 27.8389 7.26074C27.8389 5.97115 26.9291 4.38783 25.8043 3.74304L25.8186 3.73587Z" fill="white"/>
<path d="M29.3147 1.7081C28.7487 1.37854 28.2329 1.34988 27.8603 1.56481L27.717 1.65079C27.3517 1.86572 27.1224 2.31707 27.1152 2.9547C27.1152 3.47053 27.2585 4.03652 27.5164 4.58817L27.7672 4.44489C27.5379 3.94338 27.409 3.42755 27.409 2.96186C27.409 2.41021 27.5952 2.009 27.889 1.79407C28.2257 1.63646 28.6699 1.67944 29.1571 1.95885C30.2031 2.56066 31.0485 4.02935 31.0413 5.2258C31.0413 5.91358 30.7476 6.40075 30.2604 6.52971L30.3464 6.71599C30.461 6.68733 30.5685 6.63001 30.6616 6.56553C30.6401 6.57986 30.6114 6.60136 30.5899 6.61568L30.7332 6.52971C31.1129 6.30762 31.3279 5.84193 31.335 5.2258C31.335 3.93622 30.4252 2.35289 29.3004 1.7081H29.3147Z" fill="white"/>
<path d="M28.8984 19.0742L26.1545 20.6861L25.2876 16.7243L28.0244 15.1123L28.8984 19.0742Z" fill="#94B4F8"/>
<path d="M32.8306 16.7461L30.1081 18.3509L29.2412 14.4034L31.9708 12.7986L32.8306 16.7461Z" fill="#94B4F8"/>
<path d="M24.9356 21.4101L22.1844 23.0364L21.3032 19.0674L24.0615 17.4482L24.9356 21.4101Z" fill="#94B4F8"/>
<path d="M30.0939 24.5194L27.3571 26.1457L26.4902 22.191L29.227 20.579L30.0939 24.5194Z" fill="#94B4F8"/>
<path d="M34.0207 22.1837L31.3054 23.7957L30.4385 19.8553L33.1609 18.2505L34.0207 22.1837Z" fill="#94B4F8"/>
<path d="M26.1405 26.869L23.3965 28.4953L22.5225 24.5406L25.2736 22.9143L26.1405 26.869Z" fill="#94B4F8"/>
<path d="M11.23 38.5763C15.4598 38.5763 18.8887 36.5972 18.8887 34.1559C18.8887 31.7146 15.4598 29.7355 11.23 29.7355C7.0002 29.7355 3.57129 31.7146 3.57129 34.1559C3.57129 36.5972 7.0002 38.5763 11.23 38.5763Z" fill="#B9E14A"/>
<path fill-rule="evenodd" clip-rule="evenodd" d="M5.86921 31.1227C4.49945 31.9133 3.67962 32.9894 3.67962 34.1556C3.67962 35.3218 4.49945 36.3979 5.86921 37.1885C7.23614 37.9775 9.13165 38.4689 11.2312 38.4689C13.3307 38.4689 15.2262 37.9775 16.5931 37.1885C17.9629 36.3979 18.7827 35.3218 18.7827 34.1556C18.7827 32.9894 17.9629 31.9133 16.5931 31.1227C15.2262 30.3337 13.3307 29.8423 11.2312 29.8423C9.13165 29.8423 7.23614 30.3337 5.86921 31.1227ZM5.7621 30.9371C7.16707 30.1262 9.10091 29.6281 11.2312 29.6281C13.3614 29.6281 15.2953 30.1262 16.7002 30.9371C18.1024 31.7464 18.997 32.8804 18.997 34.1556C18.997 35.4308 18.1024 36.5648 16.7002 37.3741C15.2953 38.185 13.3614 38.6832 11.2312 38.6832C9.10091 38.6832 7.16707 38.185 5.7621 37.3741C4.35996 36.5648 3.46533 35.4308 3.46533 34.1556C3.46533 32.8804 4.35996 31.7464 5.7621 30.9371Z" fill="#1C1E2C"/>
<path d="M11.2441 36.8708C15.4739 36.8708 18.9028 34.8917 18.9028 32.4504C18.9028 30.0091 15.4739 28.03 11.2441 28.03C7.01436 28.03 3.58545 30.0091 3.58545 32.4504C3.58545 34.8917 7.01436 36.8708 11.2441 36.8708Z" fill="#6B8FFA"/>
<path fill-rule="evenodd" clip-rule="evenodd" d="M5.88337 29.4172C4.51361 30.2078 3.69378 31.2839 3.69378 32.4501C3.69378 33.6163 4.51361 34.6924 5.88337 35.483C7.2503 36.272 9.14581 36.7634 11.2453 36.7634C13.3449 36.7634 15.2404 36.272 16.6073 35.483C17.977 34.6924 18.7969 33.6163 18.7969 32.4501C18.7969 31.2839 17.977 30.2078 16.6073 29.4172C15.2404 28.6282 13.3449 28.1368 11.2453 28.1368C9.14581 28.1368 7.2503 28.6282 5.88337 29.4172ZM5.77626 29.2316C7.18123 28.4207 9.11507 27.9225 11.2453 27.9225C13.3756 27.9225 15.3094 28.4207 16.7144 29.2316C18.1165 30.0409 19.0112 31.1749 19.0112 32.4501C19.0112 33.7253 18.1165 34.8593 16.7144 35.6686C15.3094 36.4795 13.3756 36.9776 11.2453 36.9776C9.11507 36.9776 7.18123 36.4795 5.77626 35.6686C4.37412 34.8593 3.47949 33.7253 3.47949 32.4501C3.47949 31.1749 4.37412 30.0409 5.77626 29.2316Z" fill="#1C1E2C"/>
<path d="M11.2298 35.4881C14.3517 35.4881 16.8825 34.0255 16.8825 32.2212C16.8825 30.4169 14.3517 28.9543 11.2298 28.9543C8.10794 28.9543 5.57715 30.4169 5.57715 32.2212C5.57715 34.0255 8.10794 35.4881 11.2298 35.4881Z" fill="white"/>
<path fill-rule="evenodd" clip-rule="evenodd" d="M7.28758 30.0036C6.28087 30.5854 5.68548 31.3732 5.68548 32.2209C5.68548 33.0686 6.28087 33.8564 7.28758 34.4382C8.29148 35.0184 9.68546 35.3807 11.231 35.3807C12.7766 35.3807 14.1705 35.0184 15.1744 34.4382C16.1811 33.8564 16.7765 33.0686 16.7765 32.2209C16.7765 31.3732 16.1811 30.5854 15.1744 30.0036C14.1705 29.4234 12.7766 29.0611 11.231 29.0611C9.68546 29.0611 8.29148 29.4234 7.28758 30.0036ZM7.18035 29.8181C8.22232 29.2159 9.65467 28.8468 11.231 28.8468C12.8073 28.8468 14.2397 29.2159 15.2817 29.8181C16.3208 30.4187 16.9908 31.2644 16.9908 32.2209C16.9908 33.1775 16.3208 34.0232 15.2817 34.6238C14.2397 35.226 12.8073 35.595 11.231 35.595C9.65467 35.595 8.22232 35.226 7.18035 34.6238C6.14119 34.0232 5.47119 33.1775 5.47119 32.2209C5.47119 31.2644 6.14119 30.4187 7.18035 29.8181Z" fill="#1C1E2C"/>
<path d="M3.58789 34.4632V32.6219C3.58789 32.6219 3.73118 33.8685 4.37597 34.4202" fill="#B9E14A"/>
<path fill-rule="evenodd" clip-rule="evenodd" d="M3.69378 33.5196V34.4635H3.47949V32.6222L3.69249 32.61L3.69314 32.6105L3.69341 32.6128L3.69465 32.6225C3.69578 32.6312 3.69755 32.6443 3.70005 32.6613C3.70505 32.6952 3.71294 32.7447 3.72441 32.8059C3.74738 32.9285 3.78456 33.0976 3.84133 33.2832C3.95623 33.6588 4.1459 34.0837 4.44437 34.3391L4.30506 34.5019C4.00929 34.2489 3.81707 33.8661 3.69378 33.5196Z" fill="black"/>
<path d="M18.8769 34.4632V32.6219C18.8769 32.6219 18.7337 33.8685 18.0889 34.4202" fill="#B9E14A"/>
<path fill-rule="evenodd" clip-rule="evenodd" d="M18.7709 32.61L18.7703 32.6105L18.77 32.6128L18.7688 32.6225C18.7676 32.6312 18.7659 32.6443 18.7634 32.6613C18.7584 32.6952 18.7505 32.7447 18.739 32.8059C18.716 32.9285 18.6788 33.0976 18.6221 33.2832C18.5072 33.6588 18.3175 34.0837 18.019 34.3391L18.1583 34.5019C18.4541 34.2489 18.6463 33.8661 18.7696 33.5196V34.4635H18.9839V32.6222L18.7709 32.61Z" fill="black"/>
<path d="M11.23 35.6249C15.4598 35.6249 18.8887 33.6459 18.8887 31.2045C18.8887 28.7632 15.4598 26.7841 11.23 26.7841C7.0002 26.7841 3.57129 28.7632 3.57129 31.2045C3.57129 33.6459 7.0002 35.6249 11.23 35.6249Z" fill="#B9E14A"/>
<path fill-rule="evenodd" clip-rule="evenodd" d="M5.86921 28.1713C4.49945 28.9619 3.67962 30.0381 3.67962 31.2042C3.67962 32.3704 4.49945 33.4466 5.86921 34.2372C7.23614 35.0261 9.13165 35.5175 11.2312 35.5175C13.3307 35.5175 15.2262 35.0261 16.5931 34.2372C17.9629 33.4466 18.7827 32.3704 18.7827 31.2042C18.7827 30.0381 17.9629 28.9619 16.5931 28.1713C15.2262 27.3824 13.3307 26.891 11.2312 26.891C9.13165 26.891 7.23614 27.3824 5.86921 28.1713ZM5.7621 27.9858C7.16707 27.1748 9.10091 26.6767 11.2312 26.6767C13.3614 26.6767 15.2953 27.1748 16.7002 27.9858C18.1024 28.795 18.997 29.9291 18.997 31.2042C18.997 32.4794 18.1024 33.6135 16.7002 34.4227C15.2953 35.2337 13.3614 35.7318 11.2312 35.7318C9.10091 35.7318 7.16707 35.2337 5.7621 34.4227C4.35996 33.6135 3.46533 32.4794 3.46533 31.2042C3.46533 29.9291 4.35996 28.795 5.7621 27.9858Z" fill="#1C1E2C"/>
<path d="M11.2441 33.9125C15.4739 33.9125 18.9028 31.9334 18.9028 29.4921C18.9028 27.0507 15.4739 25.0717 11.2441 25.0717C7.01436 25.0717 3.58545 27.0507 3.58545 29.4921C3.58545 31.9334 7.01436 33.9125 11.2441 33.9125Z" fill="#6B8FFA"/>
<path fill-rule="evenodd" clip-rule="evenodd" d="M5.88337 26.4589C4.51361 27.2495 3.69378 28.3256 3.69378 29.4918C3.69378 30.6579 4.51361 31.7341 5.88337 32.5247C7.2503 33.3136 9.14581 33.805 11.2453 33.805C13.3449 33.805 15.2404 33.3136 16.6073 32.5247C17.977 31.7341 18.7969 30.6579 18.7969 29.4918C18.7969 28.3256 17.977 27.2495 16.6073 26.4589C15.2404 25.6699 13.3449 25.1785 11.2453 25.1785C9.14581 25.1785 7.2503 25.6699 5.88337 26.4589ZM5.77626 26.2733C7.18123 25.4624 9.11507 24.9642 11.2453 24.9642C13.3756 24.9642 15.3094 25.4624 16.7144 26.2733C18.1165 27.0826 19.0112 28.2166 19.0112 29.4918C19.0112 30.7669 18.1165 31.901 16.7144 32.7103C15.3094 33.5212 13.3756 34.0193 11.2453 34.0193C9.11507 34.0193 7.18123 33.5212 5.77626 32.7103C4.37412 31.901 3.47949 30.7669 3.47949 29.4918C3.47949 28.2166 4.37412 27.0826 5.77626 26.2733Z" fill="#1C1E2C"/>
<path d="M11.2298 32.5369C14.3517 32.5369 16.8825 31.0743 16.8825 29.27C16.8825 27.4657 14.3517 26.003 11.2298 26.003C8.10794 26.003 5.57715 27.4657 5.57715 29.27C5.57715 31.0743 8.10794 32.5369 11.2298 32.5369Z" fill="white"/>
<path fill-rule="evenodd" clip-rule="evenodd" d="M7.28758 27.0524C6.28087 27.6342 5.68548 28.422 5.68548 29.2697C5.68548 30.1174 6.28087 30.9052 7.28758 31.487C8.29148 32.0672 9.68546 32.4295 11.231 32.4295C12.7766 32.4295 14.1705 32.0672 15.1744 31.487C16.1812 30.9052 16.7765 30.1174 16.7765 29.2697C16.7765 28.422 16.1811 27.6342 15.1744 27.0524C14.1705 26.4722 12.7766 26.1099 11.231 26.1099C9.68546 26.1099 8.29148 26.4722 7.28758 27.0524ZM7.18035 26.8668C8.22232 26.2646 9.65467 25.8956 11.231 25.8956C12.8073 25.8956 14.2397 26.2646 15.2817 26.8668C16.3208 27.4674 16.9908 28.3131 16.9908 29.2697C16.9908 30.2263 16.3208 31.072 15.2817 31.6725C14.2397 32.2747 12.8073 32.6438 11.231 32.6438C9.65467 32.6438 8.22232 32.2747 7.18035 31.6725C6.14119 31.072 5.47119 30.2263 5.47119 29.2697C5.47119 28.3131 6.14119 27.4674 7.18035 26.8668Z" fill="#1C1E2C"/>
<path d="M3.58789 31.5048V29.6636C3.58789 29.6636 3.73118 30.9102 4.37597 31.4619" fill="#B9E14A"/>
<path fill-rule="evenodd" clip-rule="evenodd" d="M3.69378 30.5612V31.5052H3.47949V29.6639L3.69249 29.6517L3.69314 29.6522L3.69341 29.6545L3.69465 29.6642C3.69578 29.6729 3.69755 29.686 3.70005 29.703C3.70505 29.7369 3.71294 29.7864 3.72441 29.8476C3.74738 29.9702 3.78456 30.1393 3.84133 30.3248C3.95623 30.7005 4.1459 31.1254 4.44437 31.3808L4.30506 31.5436C4.00929 31.2906 3.81707 30.9078 3.69378 30.5612Z" fill="black"/>
<path d="M18.8769 31.5048V29.6636C18.8769 29.6636 18.7337 30.9102 18.0889 31.4619" fill="#B9E14A"/>
<path fill-rule="evenodd" clip-rule="evenodd" d="M18.7709 29.6517L18.7703 29.6522L18.77 29.6545L18.7688 29.6642C18.7676 29.6729 18.7659 29.686 18.7634 29.703C18.7584 29.7369 18.7505 29.7864 18.739 29.8476C18.716 29.9702 18.6788 30.1393 18.6221 30.3248C18.5072 30.7005 18.3175 31.1254 18.019 31.3808L18.1583 31.5436C18.4541 31.2906 18.6463 30.9078 18.7696 30.5612V31.5052H18.9839V29.6639L18.7709 29.6517Z" fill="black"/>
<path d="M11.23 32.6728C15.4598 32.6728 18.8887 30.6937 18.8887 28.2524C18.8887 25.8111 15.4598 23.832 11.23 23.832C7.0002 23.832 3.57129 25.8111 3.57129 28.2524C3.57129 30.6937 7.0002 32.6728 11.23 32.6728Z" fill="#B9E14A"/>
<path fill-rule="evenodd" clip-rule="evenodd" d="M5.86921 25.2192C4.49945 26.0098 3.67962 27.0859 3.67962 28.2521C3.67962 29.4183 4.49945 30.4944 5.86921 31.285C7.23614 32.074 9.13165 32.5654 11.2312 32.5654C13.3307 32.5654 15.2262 32.074 16.5931 31.285C17.9629 30.4944 18.7827 29.4183 18.7827 28.2521C18.7827 27.0859 17.9629 26.0098 16.5931 25.2192C15.2262 24.4302 13.3307 23.9388 11.2312 23.9388C9.13165 23.9388 7.23614 24.4302 5.86921 25.2192ZM5.7621 25.0336C7.16707 24.2227 9.10091 23.7245 11.2312 23.7245C13.3614 23.7245 15.2953 24.2227 16.7002 25.0336C18.1024 25.8429 18.997 26.9769 18.997 28.2521C18.997 29.5273 18.1024 30.6613 16.7002 31.4706C15.2953 32.2815 13.3614 32.7796 11.2312 32.7796C9.10091 32.7796 7.16707 32.2815 5.7621 31.4706C4.35996 30.6613 3.46533 29.5273 3.46533 28.2521C3.46533 26.9769 4.35996 25.8429 5.7621 25.0336Z" fill="#1C1E2C"/>
<path d="M11.2441 30.9605C15.4739 30.9605 18.9028 28.9814 18.9028 26.5401C18.9028 24.0987 15.4739 22.1197 11.2441 22.1197C7.01436 22.1197 3.58545 24.0987 3.58545 26.5401C3.58545 28.9814 7.01436 30.9605 11.2441 30.9605Z" fill="#6B8FFA"/>
<path fill-rule="evenodd" clip-rule="evenodd" d="M5.88337 23.5069C4.51361 24.2975 3.69378 25.3736 3.69378 26.5398C3.69378 27.7059 4.51361 28.7821 5.88337 29.5727C7.2503 30.3617 9.14581 30.8531 11.2453 30.8531C13.3449 30.8531 15.2404 30.3617 16.6073 29.5727C17.977 28.7821 18.7969 27.7059 18.7969 26.5398C18.7969 25.3736 17.977 24.2975 16.6073 23.5069C15.2404 22.7179 13.3449 22.2265 11.2453 22.2265C9.14581 22.2265 7.2503 22.7179 5.88337 23.5069ZM5.77626 23.3213C7.18123 22.5104 9.11507 22.0122 11.2453 22.0122C13.3756 22.0122 15.3094 22.5104 16.7144 23.3213C18.1165 24.1306 19.0112 25.2646 19.0112 26.5398C19.0112 27.8149 18.1165 28.949 16.7144 29.7583C15.3094 30.5692 13.3756 31.0673 11.2453 31.0673C9.11507 31.0673 7.18123 30.5692 5.77626 29.7583C4.37412 28.949 3.47949 27.8149 3.47949 26.5398C3.47949 25.2646 4.37412 24.1306 5.77626 23.3213Z" fill="#1C1E2C"/>
<path d="M11.2303 29.5848C14.3522 29.5848 16.883 28.1221 16.883 26.3178C16.883 24.5135 14.3522 23.0509 11.2303 23.0509C8.10843 23.0509 5.57764 24.5135 5.57764 26.3178C5.57764 28.1221 8.10843 29.5848 11.2303 29.5848Z" fill="white"/>
<path fill-rule="evenodd" clip-rule="evenodd" d="M7.28807 24.1002C6.28136 24.682 5.68597 25.4698 5.68597 26.3175C5.68597 27.1653 6.28136 27.953 7.28807 28.5349C8.29197 29.1151 9.68595 29.4773 11.2315 29.4773C12.777 29.4773 14.171 29.1151 15.1749 28.5349C16.1816 27.953 16.777 27.1653 16.777 26.3175C16.777 25.4698 16.1816 24.682 15.1749 24.1002C14.171 23.52 12.777 23.1577 11.2315 23.1577C9.68595 23.1577 8.29197 23.52 7.28807 24.1002ZM7.18084 23.9147C8.2228 23.3125 9.65516 22.9435 11.2315 22.9435C12.8078 22.9435 14.2402 23.3125 15.2822 23.9147C16.3213 24.5153 16.9913 25.361 16.9913 26.3175C16.9913 27.2741 16.3213 28.1198 15.2822 28.7204C14.2402 29.3226 12.8078 29.6916 11.2315 29.6916C9.65516 29.6916 8.2228 29.3226 7.18084 28.7204C6.14168 28.1198 5.47168 27.2741 5.47168 26.3175C5.47168 25.361 6.14168 24.5153 7.18084 23.9147Z" fill="#1C1E2C"/>
<path d="M3.58789 28.5528V26.7116C3.58789 26.7116 3.73118 27.9582 4.37597 28.5099" fill="#B9E14A"/>
<path fill-rule="evenodd" clip-rule="evenodd" d="M3.69378 27.6093V28.5532H3.47949V26.7119L3.69249 26.6997L3.69314 26.7002L3.69341 26.7025L3.69465 26.7122C3.69578 26.7209 3.69755 26.734 3.70005 26.751C3.70505 26.7849 3.71294 26.8344 3.72441 26.8956C3.74738 27.0182 3.78456 27.1873 3.84133 27.3729C3.95623 27.7485 4.1459 28.1734 4.44437 28.4288L4.30506 28.5916C4.00929 28.3386 3.81707 27.9558 3.69378 27.6093Z" fill="black"/>
<path d="M18.8769 28.5528V26.7116C18.8769 26.7116 18.7337 27.9582 18.0889 28.5099" fill="#B9E14A"/>
<path fill-rule="evenodd" clip-rule="evenodd" d="M18.7709 26.6997L18.7703 26.7002L18.77 26.7025L18.7688 26.7122C18.7676 26.7209 18.7659 26.734 18.7634 26.751C18.7584 26.7849 18.7505 26.8344 18.739 26.8956C18.716 27.0182 18.6788 27.1873 18.6221 27.3729C18.5072 27.7485 18.3175 28.1734 18.019 28.4288L18.1583 28.5916C18.4541 28.3386 18.6463 27.9558 18.7696 27.6093V28.5532H18.9839V26.7119L18.7709 26.6997Z" fill="black"/>
</g>
<defs>
<clipPath id="clip0_1378_77916">
<rect width="38.45" height="37.2786" fill="white" transform="translate(0.714355 1.42856)"/>
</clipPath>
</defs>
</svg>
