<svg width="40" height="40" viewBox="0 0 40 40" fill="none" xmlns="http://www.w3.org/2000/svg">
<path d="M29.507 3.30716L29.4641 19.4143L29.4498 24.4L16.7998 31.7572L7.53553 37.15L7.49268 15.8929L29.507 3.30716Z" fill="#94B4F8" stroke="#1C1E2C" stroke-width="0.3" stroke-miterlimit="10"/>
<path d="M29.4929 10.5714L23.3357 14.1143L13.6786 19.6714L7.51429 23.2143L7.5 15.8929L29.5143 3.30716L29.4929 10.5714Z" fill="#504ECD" stroke="#1C1E2C" stroke-width="0.3" stroke-miterlimit="10"/>
<path d="M23.2712 15.7715L13.8354 21.2072V18.0786L23.2712 12.6572V15.7715Z" fill="#94B4F8" stroke="#1C1E2C" stroke-width="0.3" stroke-miterlimit="10"/>
<path d="M2.87842 13.2786L7.49985 15.9357L7.5427 37.15L2.9427 34.4571L2.87842 13.2786Z" fill="#94B4F8" stroke="#1C1E2C" stroke-width="0.3" stroke-miterlimit="10"/>
<path d="M29.5141 3.30715L24.9141 0.714294L2.85693 13.2714L7.46408 15.9143L29.5141 3.30715Z" fill="#94B4F8" stroke="#1C1E2C" stroke-width="0.3" stroke-miterlimit="10"/>
<path d="M19.757 1.50714L20.8927 2.15714L13.6355 6.28571L12.4927 5.63571L19.757 1.50714Z" fill="#94B4F8" stroke="#1C1E2C" stroke-width="0.3" stroke-linejoin="round"/>
<path d="M13.6355 10.5571L12.4927 9.90714V5.63571L13.6284 6.28571L13.6355 10.5571Z" fill="#94B4F8" stroke="#1C1E2C" stroke-width="0.3" stroke-linejoin="round"/>
<path d="M19.3284 7.32858L18.1855 6.67144L18.1927 3.96429L19.3355 4.61429L19.3284 7.32858Z" fill="#94B4F8" stroke="#1C1E2C" stroke-width="0.3" stroke-linejoin="round"/>
<path d="M20.9 6.40714L19.3286 7.30714V4.58571L15.2143 6.93571V9.65714L13.6357 10.5571V6.28571L20.9072 2.14285L20.9 6.40714Z" fill="#504ECD" stroke="#1C1E2C" stroke-width="0.3" stroke-linejoin="round"/>
<path d="M20.8927 2.15714L19.757 1.50714L12.4927 5.63571L13.6355 6.28571L20.8927 2.15714Z" fill="#94B4F8" stroke="#1C1E2C" stroke-width="0.3" stroke-linejoin="round"/>
<path d="M28.6998 38.9071C33.6585 38.9071 37.6783 36.5854 37.6783 33.7214C37.6783 30.8574 33.6585 28.5357 28.6998 28.5357C23.741 28.5357 19.7212 30.8574 19.7212 33.7214C19.7212 36.5854 23.741 38.9071 28.6998 38.9071Z" fill="#B9E14A"/>
<path d="M28.6998 38.9071C33.6585 38.9071 37.6783 36.5854 37.6783 33.7214C37.6783 30.8574 33.6585 28.5357 28.6998 28.5357C23.741 28.5357 19.7212 30.8574 19.7212 33.7214C19.7212 36.5854 23.741 38.9071 28.6998 38.9071Z" stroke="#1C1E2C" stroke-width="0.3" stroke-miterlimit="10"/>
<path d="M28.7212 36.9071C33.68 36.9071 37.6998 34.5854 37.6998 31.7214C37.6998 28.8574 33.68 26.5357 28.7212 26.5357C23.7625 26.5357 19.7427 28.8574 19.7427 31.7214C19.7427 34.5854 23.7625 36.9071 28.7212 36.9071Z" fill="#6B8FFA"/>
<path d="M28.7212 36.9071C33.68 36.9071 37.6998 34.5854 37.6998 31.7214C37.6998 28.8574 33.68 26.5357 28.7212 26.5357C23.7625 26.5357 19.7427 28.8574 19.7427 31.7214C19.7427 34.5854 23.7625 36.9071 28.7212 36.9071Z" stroke="#1C1E2C" stroke-width="0.3" stroke-miterlimit="10"/>
<path d="M28.6999 35.2857C32.3607 35.2857 35.3284 33.5716 35.3284 31.4571C35.3284 29.3427 32.3607 27.6286 28.6999 27.6286C25.039 27.6286 22.0713 29.3427 22.0713 31.4571C22.0713 33.5716 25.039 35.2857 28.6999 35.2857Z" fill="#F1F1F3"/>
<path d="M28.6999 35.2857C32.3607 35.2857 35.3284 33.5716 35.3284 31.4571C35.3284 29.3427 32.3607 27.6286 28.6999 27.6286C25.039 27.6286 22.0713 29.3427 22.0713 31.4571C22.0713 33.5716 25.039 35.2857 28.6999 35.2857Z" stroke="#1C1E2C" stroke-width="0.3" stroke-miterlimit="10"/>
<path d="M19.7427 34.0786V31.9214C19.7427 31.9214 19.9141 33.3857 20.6712 34.0286" fill="#B9E14A"/>
<path d="M19.7427 34.0786V31.9214C19.7427 31.9214 19.9141 33.3857 20.6712 34.0286" stroke="black" stroke-width="0.3" stroke-miterlimit="10"/>
<path d="M37.6639 34.0786V31.9214C37.6639 31.9214 37.4925 33.3857 36.7354 34.0286" fill="#B9E14A"/>
<path d="M37.6639 34.0786V31.9214C37.6639 31.9214 37.4925 33.3857 36.7354 34.0286" stroke="black" stroke-width="0.3" stroke-miterlimit="10"/>
<path d="M28.6998 35.4429C33.6585 35.4429 37.6783 33.1211 37.6783 30.2572C37.6783 27.3932 33.6585 25.0714 28.6998 25.0714C23.741 25.0714 19.7212 27.3932 19.7212 30.2572C19.7212 33.1211 23.741 35.4429 28.6998 35.4429Z" fill="#B9E14A"/>
<path d="M28.6998 35.4429C33.6585 35.4429 37.6783 33.1211 37.6783 30.2572C37.6783 27.3932 33.6585 25.0714 28.6998 25.0714C23.741 25.0714 19.7212 27.3932 19.7212 30.2572C19.7212 33.1211 23.741 35.4429 28.6998 35.4429Z" stroke="#1C1E2C" stroke-width="0.3" stroke-miterlimit="10"/>
<path d="M28.7212 33.4429C33.68 33.4429 37.6998 31.1211 37.6998 28.2572C37.6998 25.3932 33.68 23.0714 28.7212 23.0714C23.7625 23.0714 19.7427 25.3932 19.7427 28.2572C19.7427 31.1211 23.7625 33.4429 28.7212 33.4429Z" fill="#6B8FFA"/>
<path d="M28.7212 33.4429C33.68 33.4429 37.6998 31.1211 37.6998 28.2572C37.6998 25.3932 33.68 23.0714 28.7212 23.0714C23.7625 23.0714 19.7427 25.3932 19.7427 28.2572C19.7427 31.1211 23.7625 33.4429 28.7212 33.4429Z" stroke="#1C1E2C" stroke-width="0.3" stroke-miterlimit="10"/>
<path d="M28.6999 31.8215C32.3607 31.8215 35.3284 30.1073 35.3284 27.9929C35.3284 25.8784 32.3607 24.1643 28.6999 24.1643C25.039 24.1643 22.0713 25.8784 22.0713 27.9929C22.0713 30.1073 25.039 31.8215 28.6999 31.8215Z" fill="#F1F1F3"/>
<path d="M28.6999 31.8215C32.3607 31.8215 35.3284 30.1073 35.3284 27.9929C35.3284 25.8784 32.3607 24.1643 28.6999 24.1643C25.039 24.1643 22.0713 25.8784 22.0713 27.9929C22.0713 30.1073 25.039 31.8215 28.6999 31.8215Z" stroke="#1C1E2C" stroke-width="0.3" stroke-miterlimit="10"/>
<path d="M19.7427 30.6143V28.4572C19.7427 28.4572 19.9141 29.9214 20.6712 30.5643" fill="#B9E14A"/>
<path d="M19.7427 30.6143V28.4572C19.7427 28.4572 19.9141 29.9214 20.6712 30.5643" stroke="black" stroke-width="0.3" stroke-miterlimit="10"/>
<path d="M37.6639 30.6143V28.4572C37.6639 28.4572 37.4925 29.9214 36.7354 30.5643" fill="#B9E14A"/>
<path d="M37.6639 30.6143V28.4572C37.6639 28.4572 37.4925 29.9214 36.7354 30.5643" stroke="black" stroke-width="0.3" stroke-miterlimit="10"/>
<path d="M28.6998 31.9786C33.6585 31.9786 37.6783 29.6569 37.6783 26.7929C37.6783 23.9289 33.6585 21.6071 28.6998 21.6071C23.741 21.6071 19.7212 23.9289 19.7212 26.7929C19.7212 29.6569 23.741 31.9786 28.6998 31.9786Z" fill="#B9E14A"/>
<path d="M28.6998 31.9786C33.6585 31.9786 37.6783 29.6569 37.6783 26.7929C37.6783 23.9289 33.6585 21.6071 28.6998 21.6071C23.741 21.6071 19.7212 23.9289 19.7212 26.7929C19.7212 29.6569 23.741 31.9786 28.6998 31.9786Z" stroke="#1C1E2C" stroke-width="0.3" stroke-miterlimit="10"/>
<path d="M28.7212 29.9786C33.68 29.9786 37.6998 27.6569 37.6998 24.7929C37.6998 21.9289 33.68 19.6071 28.7212 19.6071C23.7625 19.6071 19.7427 21.9289 19.7427 24.7929C19.7427 27.6569 23.7625 29.9786 28.7212 29.9786Z" fill="#6B8FFA"/>
<path d="M28.7212 29.9786C33.68 29.9786 37.6998 27.6569 37.6998 24.7929C37.6998 21.9289 33.68 19.6071 28.7212 19.6071C23.7625 19.6071 19.7427 21.9289 19.7427 24.7929C19.7427 27.6569 23.7625 29.9786 28.7212 29.9786Z" stroke="#1C1E2C" stroke-width="0.3" stroke-miterlimit="10"/>
<path d="M28.6999 28.3572C32.3607 28.3572 35.3284 26.643 35.3284 24.5286C35.3284 22.4141 32.3607 20.7 28.6999 20.7C25.039 20.7 22.0713 22.4141 22.0713 24.5286C22.0713 26.643 25.039 28.3572 28.6999 28.3572Z" fill="#F1F1F3"/>
<path d="M28.6999 28.3572C32.3607 28.3572 35.3284 26.643 35.3284 24.5286C35.3284 22.4141 32.3607 20.7 28.6999 20.7C25.039 20.7 22.0713 22.4141 22.0713 24.5286C22.0713 26.643 25.039 28.3572 28.6999 28.3572Z" stroke="#1C1E2C" stroke-width="0.3" stroke-miterlimit="10"/>
<path d="M19.7427 27.15V24.9929C19.7427 24.9929 19.9141 26.4571 20.6712 27.1" fill="#B9E14A"/>
<path d="M19.7427 27.15V24.9929C19.7427 24.9929 19.9141 26.4571 20.6712 27.1" stroke="black" stroke-width="0.3" stroke-miterlimit="10"/>
<path d="M37.6639 27.15V24.9929C37.6639 24.9929 37.4925 26.4571 36.7354 27.1" fill="#B9E14A"/>
<path d="M37.6639 27.15V24.9929C37.6639 24.9929 37.4925 26.4571 36.7354 27.1" stroke="black" stroke-width="0.3" stroke-miterlimit="10"/>
</svg>
