<svg width="40" height="40" viewBox="0 0 40 40" fill="none" xmlns="http://www.w3.org/2000/svg">
<path d="M30.1199 24.59C30.5774 26.9717 25.9917 29.8552 19.8759 31.0297C13.761 32.2043 8.43234 31.2258 7.97482 28.8431C7.51731 26.4613 12.103 23.5779 18.2188 22.4033C24.3337 21.2288 29.6624 22.2073 30.1199 24.59Z" fill="#1A1E2E"/>
<path d="M18.5859 25.2128C18.5888 25.6559 18.2995 26.099 17.718 26.4363C16.555 27.112 14.6634 27.112 13.4937 26.4363C12.9083 26.098 12.6142 25.6559 12.6113 25.2128C12.6113 26.9429 14.0415 30.503 14.0415 30.503C14.1376 30.7356 14.3433 30.9576 14.6576 31.1393C15.5602 31.6602 17.0192 31.6612 17.916 31.1393C18.3648 30.8788 18.5878 30.5366 18.5859 30.1954V25.2128Z" fill="#EB4944"/>
<path d="M14.7893 31.2094C15.6976 31.6593 17.0615 31.6362 17.916 31.1393C18.3648 30.8788 18.5878 30.5366 18.5859 30.1954V25.2185C18.5859 25.6597 18.2966 26.0999 17.718 26.4363C16.555 27.112 14.6634 27.112 13.4937 26.4363C12.9083 26.098 12.6142 25.6559 12.6113 25.2128" fill="#FDA4AF"/>
<path d="M12.6113 25.2128C12.6113 26.0778 12.9689 27.4004 13.3264 28.5067C13.684 29.6129 14.0415 30.503 14.0415 30.503C14.1376 30.7365 14.3433 30.9576 14.6576 31.1393C14.7009 31.1643 14.7441 31.1873 14.7893 31.2104" fill="#FDA4AF"/>
<path d="M14.7893 31.2094C15.6976 31.6593 17.0615 31.6362 17.916 31.1393C18.3648 30.8788 18.5878 30.5366 18.5859 30.1954V25.2185C18.5859 25.6597 18.2966 26.0999 17.718 26.4363C16.555 27.112 14.6634 27.112 13.4937 26.4363C12.9083 26.098 12.6142 25.6559 12.6113 25.2128C12.6113 26.0778 12.9689 27.4004 13.3264 28.5067C13.684 29.6129 14.0415 30.503 14.0415 30.503C14.1376 30.7365 14.3433 30.9576 14.6576 31.1393C14.7009 31.1643 14.7441 31.1873 14.7893 31.2104" stroke="#1C1E2D" stroke-width="0.3" stroke-miterlimit="10"/>
<path d="M17.7036 23.9896C16.5329 23.3139 14.6423 23.3139 13.4793 23.9896C12.8978 24.3279 12.6085 24.7701 12.6113 25.2132C12.6142 25.6563 12.9083 26.0984 13.4927 26.4367C14.6634 27.1124 16.555 27.1124 17.717 26.4367C18.2985 26.0984 18.5878 25.6563 18.5849 25.2132C18.5821 24.7701 18.2879 24.327 17.7026 23.9896" fill="#E6724D"/>
<path d="M12.163 21.5018C12.1659 21.9449 11.8766 22.388 11.2951 22.7254C10.1321 23.4011 8.24055 23.4011 7.07082 22.7254C6.48547 22.3871 6.19136 21.9449 6.18848 21.5018C6.18848 23.2319 7.61868 26.792 7.61868 26.792C7.7148 27.0246 7.92048 27.2467 8.23478 27.4283C9.13731 27.9493 10.5963 27.9502 11.4931 27.4283C11.942 27.1679 12.165 26.8257 12.163 26.4845V21.5018Z" fill="#FDA4AF"/>
<path d="M12.163 21.5018C12.1659 21.9449 11.8766 22.388 11.2951 22.7254C10.1321 23.4011 8.24055 23.4011 7.07082 22.7254C6.48547 22.3871 6.19136 21.9449 6.18848 21.5018C6.18848 23.2319 7.61868 26.792 7.61868 26.792C7.7148 27.0246 7.92048 27.2467 8.23478 27.4283C9.13731 27.9493 10.5963 27.9502 11.4931 27.4283C11.942 27.1679 12.165 26.8257 12.163 26.4845V21.5018Z" stroke="#1C1E2D" stroke-width="0.3" stroke-miterlimit="10"/>
<path d="M11.2807 20.278C10.11 19.6023 8.21942 19.6023 7.05642 20.278C6.47492 20.6163 6.18561 21.0585 6.1885 21.5016C6.19138 21.9447 6.4855 22.3868 7.06988 22.7251C8.24057 23.4008 10.1312 23.4008 11.2942 22.7251C11.8757 22.3868 12.165 21.9447 12.1621 21.5016C12.1592 21.0585 11.8651 20.6154 11.2798 20.278" fill="#E6724D"/>
<path d="M29.9921 18.6202C29.995 19.0633 29.7057 19.5064 29.1242 19.8438C27.9612 20.5195 26.0697 20.5195 24.8999 19.8438C24.3146 19.5055 24.0205 19.0633 24.0176 18.6202C24.0176 20.3503 25.4478 23.9105 25.4478 23.9105C25.5439 24.1431 25.7496 24.3651 26.0639 24.5467C26.9664 25.0677 28.4255 25.0687 29.3222 24.5467C29.7711 24.2863 29.9941 23.9441 29.9921 23.6029V18.6202Z" fill="#EB4944"/>
<path d="M24.0176 18.6202C24.0176 19.4853 24.3751 20.8078 24.7327 21.9141C25.0902 23.0204 25.4478 23.9105 25.4478 23.9105C25.5439 24.144 25.7496 24.3651 26.0639 24.5467C26.1071 24.5717 26.1504 24.5948 26.1956 24.6179C27.1039 25.0677 28.4677 25.0446 29.3222 24.5477C29.7711 24.2872 29.9941 23.9451 29.9921 23.6038V18.627C29.9921 19.0681 29.7028 19.5083 29.1242 19.8448C27.9612 20.5204 26.0697 20.5204 24.8999 19.8448C24.3146 19.5064 24.0205 19.0643 24.0176 18.6212" fill="#FDA4AF"/>
<path d="M24.0176 18.6202C24.0176 19.4853 24.3751 20.8078 24.7327 21.9141C25.0902 23.0204 25.4478 23.9105 25.4478 23.9105C25.5439 24.144 25.7496 24.3651 26.0639 24.5467C26.1071 24.5717 26.1504 24.5948 26.1956 24.6179C27.1039 25.0677 28.4677 25.0446 29.3222 24.5477C29.7711 24.2872 29.9941 23.9451 29.9921 23.6038V18.627C29.9921 19.0681 29.7028 19.5083 29.1242 19.8448C27.9612 20.5204 26.0697 20.5204 24.8999 19.8448C24.3146 19.5064 24.0205 19.0643 24.0176 18.6212V18.6202Z" stroke="#1C1E2D" stroke-width="0.3" stroke-miterlimit="10"/>
<path d="M29.1127 17.3972C27.9421 16.7215 26.0515 16.7215 24.8885 17.3972C24.307 17.7355 24.0176 18.1776 24.0205 18.6207C24.0234 19.0638 24.3175 19.5059 24.9019 19.8443C26.0726 20.52 27.9642 20.52 29.1262 19.8443C29.7077 19.5059 29.997 19.0638 29.9941 18.6207C29.9912 18.1776 29.6971 17.7345 29.1118 17.3972" fill="#E6724D"/>
<path d="M23.5693 14.91C23.5722 15.3531 23.2829 15.7962 22.7014 16.1336C21.5384 16.8093 19.6468 16.8093 18.4771 16.1336C17.8917 15.7953 17.5976 15.3531 17.5947 14.91C17.5947 16.6401 19.0249 20.2002 19.0249 20.2002C19.121 20.4328 19.3267 20.6549 19.641 20.8365C20.5436 21.3575 22.0026 21.3584 22.8994 20.8365C23.3482 20.5761 23.5712 20.2339 23.5693 19.8927V14.91Z" fill="#DE403A"/>
<path d="M22.687 13.6855C21.5163 13.0098 19.6257 13.0098 18.4627 13.6855C17.8812 14.0238 17.5919 14.4659 17.5947 14.909C17.5976 15.3521 17.8917 15.7943 18.4761 16.1326C19.6468 16.8083 21.5384 16.8083 22.7004 16.1326C23.2819 15.7943 23.5712 15.3521 23.5683 14.909C23.5655 14.4659 23.2713 14.0228 22.686 13.6855" fill="#E6724D"/>
<path d="M26.3681 3.57343C28.9018 2.94868 27.6071 1.06288 28.0069 0.763001C28.4068 0.46312 29.4054 1.4781 29.0825 5.76775L26.3672 3.57343H26.3681Z" fill="#FDA4AF"/>
<path d="M26.3681 3.57343C28.9018 2.94868 27.6071 1.06288 28.0069 0.763001C28.4068 0.46312 29.4054 1.4781 29.0825 5.76775L26.3672 3.57343H26.3681Z" stroke="#1C1E2D" stroke-width="0.3" stroke-miterlimit="10"/>
<path d="M28.3136 20.92C30.3205 19.7618 31.964 16.8293 32.0198 13.4835C32.1544 5.34443 23.9124 -0.960764 16.4682 3.43846C12.9168 5.53763 11.0118 6.63719 9.15672 7.70792C7.20653 8.83344 5.44761 9.97433 4.3913 11.6612C3.62621 12.8838 3.27539 14.4312 3.27539 16.2939C3.27539 22.8875 8.28399 29.433 15.9213 27.5174C16.8623 27.2819 17.9004 26.9311 18.9038 26.3525C22.3871 24.3417 26.4749 21.9811 28.3145 20.919" fill="#FDA4AF"/>
<path d="M28.3136 20.92C30.3205 19.7618 31.964 16.8293 32.0198 13.4835C32.1543 5.34443 23.9124 -0.960764 16.4682 3.43846C12.9168 5.53763 11.0118 6.63719 9.15672 7.70792C7.20653 8.83344 5.44761 9.97433 4.3913 11.6612C3.62621 12.8838 3.27539 14.4312 3.27539 16.2939C3.27539 22.8875 8.28399 29.433 15.9213 27.5174C16.8623 27.2819 17.9004 26.9311 18.9038 26.3525C22.3871 24.3417 26.4749 21.9811 28.3145 20.919L28.3136 20.92Z" stroke="#1C1E2D" stroke-width="0.3" stroke-miterlimit="10"/>
<path d="M11.441 18.2539C11.441 19.0401 11.1276 19.6773 10.7412 19.6773C10.3548 19.6773 10.0415 19.0401 10.0415 18.2539C10.0415 17.4676 10.3548 16.8304 10.7412 16.8304C11.1276 16.8304 11.441 17.4676 11.441 18.2539Z" fill="#1A1E2E"/>
<path d="M6.522 15.4121C6.522 16.1983 6.20867 16.8355 5.82228 16.8355C5.4359 16.8355 5.12256 16.1983 5.12256 15.4121C5.12256 14.6258 5.4359 13.9886 5.82228 13.9886C6.20867 13.9886 6.522 14.6258 6.522 15.4121Z" fill="#1A1E2E"/>
<path d="M5.354 7.18051C5.37226 7.19301 5.39053 7.20454 5.40879 7.21703C5.43186 7.23241 5.45588 7.24971 5.47895 7.26702C5.50298 7.28432 5.52605 7.29969 5.55008 7.31796C5.5693 7.33237 5.58949 7.34775 5.60871 7.36217C5.63947 7.38524 5.66926 7.40734 5.70002 7.43233C5.71924 7.44771 5.73847 7.46405 5.75865 7.47943C5.79229 7.50634 5.82593 7.53326 5.86053 7.56209C5.88168 7.57939 5.90282 7.59861 5.92397 7.61592C5.95857 7.64571 5.99413 7.67647 6.0297 7.70819C6.07103 7.74471 6.11236 7.7822 6.15465 7.8216C6.15657 7.82353 6.15945 7.82641 6.16137 7.82833C6.20847 7.87254 6.25653 7.91868 6.30459 7.96578C6.31228 7.97347 6.32093 7.98116 6.32862 7.98885C6.37667 8.0369 6.42569 8.08592 6.47567 8.13686C6.48529 8.14648 6.4949 8.15705 6.50547 8.16762C6.55545 8.21952 6.60639 8.27335 6.65829 8.3291C6.66406 8.33582 6.66983 8.34255 6.67656 8.34832C6.72557 8.40214 6.77555 8.45693 6.82554 8.51364C6.83322 8.52229 6.84091 8.52998 6.84764 8.53863C6.89954 8.59822 6.95241 8.65877 7.00623 8.72221C7.01777 8.73566 7.0293 8.74912 7.04083 8.76354C7.09562 8.8289 7.15137 8.89618 7.20808 8.96538C7.20808 8.96538 7.20808 8.96538 7.20808 8.96634C7.2619 9.03266 7.31573 9.1009 7.37051 9.17107C7.38974 9.1951 7.408 9.22009 7.42722 9.24412C7.46855 9.29794 7.51084 9.35369 7.55409 9.4104C7.57139 9.43347 7.58869 9.45653 7.606 9.4796C7.66559 9.55938 7.72614 9.64204 7.78669 9.72566L9.08041 8.97403C9.02755 8.90002 8.97468 8.8289 8.92278 8.75777C8.91509 8.7472 8.9074 8.73759 8.89971 8.72701C8.88241 8.70299 8.86415 8.67992 8.84685 8.65685C8.80456 8.6011 8.76227 8.54536 8.72094 8.49153C8.70172 8.46654 8.68249 8.44155 8.66327 8.41752C8.64981 8.40022 8.63732 8.38292 8.62386 8.36658C8.58253 8.31468 8.54216 8.26277 8.50083 8.21279C8.50083 8.21279 8.50083 8.2128 8.50083 8.21183C8.4595 8.16089 8.41914 8.11187 8.37877 8.06285C8.36339 8.04459 8.34897 8.02729 8.33359 8.00999C8.32206 7.99653 8.31052 7.98212 8.29899 7.96866C8.24997 7.91099 8.20191 7.85428 8.15386 7.80046C8.14905 7.79565 8.14521 7.79085 8.1404 7.78604C8.13271 7.77739 8.12502 7.76874 8.11733 7.76009C8.06735 7.70338 8.01737 7.64859 7.96835 7.59573C7.96258 7.589 7.95586 7.58228 7.95009 7.57555C7.94721 7.57266 7.94432 7.56882 7.94144 7.56594C7.89338 7.51403 7.84532 7.46405 7.79823 7.41503C7.78862 7.40446 7.77804 7.39485 7.76843 7.38428C7.75786 7.3737 7.74729 7.36313 7.73767 7.35256C7.69923 7.31315 7.65982 7.2747 7.62234 7.23722C7.61465 7.22953 7.606 7.22184 7.59831 7.21319C7.57908 7.19397 7.55986 7.17474 7.54064 7.15648C7.5118 7.12861 7.48393 7.10266 7.45509 7.07575C7.45221 7.07382 7.45029 7.07094 7.4474 7.06902C7.41473 7.03826 7.38205 7.00943 7.35033 6.97963C7.34072 6.97098 7.33207 6.96425 7.32245 6.9556C7.28689 6.92388 7.25133 6.89313 7.21673 6.86333C7.20135 6.85083 7.18597 6.83642 7.17155 6.82392C7.16579 6.81912 7.16002 6.81431 7.15329 6.8095C7.11869 6.78067 7.08505 6.75376 7.05141 6.72684C7.03603 6.71435 7.01969 6.69993 7.00431 6.6884C7.00047 6.68551 6.99758 6.68263 6.99374 6.68071C6.96298 6.65668 6.93222 6.63361 6.90147 6.61054C6.88417 6.59805 6.86686 6.58363 6.84956 6.57114C6.84764 6.56921 6.84476 6.56825 6.84284 6.56633C6.81881 6.54807 6.79478 6.53173 6.77075 6.51539C6.7496 6.50097 6.72846 6.48463 6.70827 6.47118C6.70635 6.46925 6.70347 6.46829 6.70155 6.46637C6.68232 6.45388 6.66406 6.44138 6.6458 6.42985C6.62273 6.41447 6.59966 6.39813 6.5766 6.38371C6.57371 6.38179 6.56987 6.37987 6.56698 6.37794C6.54968 6.36737 6.53334 6.35776 6.517 6.34719C6.49586 6.33469 6.47471 6.32124 6.45357 6.30874C6.44396 6.30297 6.4353 6.29817 6.42569 6.2924C6.3959 6.2751 6.36706 6.25876 6.33823 6.24338C6.33342 6.2405 6.32862 6.23858 6.32381 6.23569C6.30651 6.22608 6.28921 6.21743 6.27287 6.20878C6.25845 6.20109 6.24403 6.1934 6.23058 6.18667C6.22481 6.18379 6.22001 6.18187 6.21424 6.17898C6.1979 6.1713 6.18252 6.16361 6.16618 6.15688C6.15369 6.15111 6.14023 6.14438 6.12773 6.13862C6.12197 6.13573 6.11524 6.13381 6.10947 6.13093C6.09409 6.1242 6.07872 6.11843 6.0643 6.1117C6.05276 6.1069 6.04123 6.10209 6.03066 6.09729C6.02297 6.0944 6.01624 6.09248 6.00951 6.0896C5.99509 6.08383 5.98068 6.07806 5.96626 6.07326C5.95665 6.06941 5.94704 6.06557 5.93743 6.06268C5.92974 6.0598 5.92205 6.05788 5.9134 6.055C5.89898 6.05019 5.88552 6.04538 5.8711 6.04154C5.86342 6.03866 5.85477 6.03577 5.84708 6.03385C5.83843 6.03097 5.82978 6.02904 5.82113 6.02712C5.80767 6.02328 5.79421 6.01943 5.78076 6.01559C5.77403 6.01366 5.7673 6.01174 5.76057 6.00982C5.75096 6.0079 5.74231 6.00598 5.73366 6.00405C5.7202 6.00117 5.70675 5.99829 5.69425 5.9954C5.68849 5.99444 5.68272 5.99252 5.67791 5.99156C5.6683 5.98964 5.65965 5.98868 5.651 5.98675C5.63754 5.98483 5.62409 5.98195 5.61159 5.98002C5.60679 5.98002 5.60198 5.9781 5.59718 5.97714C5.58852 5.97618 5.58084 5.97522 5.57219 5.97426C5.55873 5.97234 5.54527 5.97137 5.53182 5.97041C5.52701 5.97041 5.5222 5.96945 5.5174 5.96849C5.50971 5.96849 5.50298 5.96849 5.49529 5.96849C5.48184 5.96849 5.46742 5.96753 5.45396 5.96753C5.44916 5.96753 5.44435 5.96753 5.43955 5.96753C5.43378 5.96753 5.42897 5.96753 5.42321 5.96753C5.40783 5.96753 5.39341 5.96753 5.37899 5.96945C5.37323 5.96945 5.36842 5.96945 5.36265 5.96945C5.35881 5.96945 5.35496 5.97041 5.35112 5.97137C5.33382 5.9733 5.31652 5.97618 5.30018 5.97906C5.29537 5.97906 5.2896 5.98003 5.28576 5.98099C5.2848 5.98099 5.28288 5.98099 5.28192 5.98195C5.25596 5.98675 5.2329 5.99348 5.20983 6.00117C5.20791 6.00117 5.20502 6.00213 5.2031 6.00309C5.20022 6.00405 5.19829 6.00598 5.19541 6.00694C5.17042 6.01655 5.14639 6.02616 5.12429 6.03866L3.83057 6.79028C3.85171 6.77779 3.87574 6.76817 3.90169 6.75856C3.9065 6.75664 3.9113 6.75472 3.91611 6.75376C3.93918 6.74607 3.96225 6.73934 3.9882 6.73453C3.99396 6.73357 4.00069 6.73261 4.00646 6.73165C4.0228 6.72877 4.0401 6.72588 4.0574 6.72396C4.06605 6.72396 4.07566 6.72204 4.08431 6.72204C4.09873 6.72108 4.11315 6.72012 4.12853 6.72012C4.1391 6.72012 4.14967 6.72012 4.16024 6.72012C4.1737 6.72012 4.18716 6.72012 4.20157 6.72108C4.21311 6.72108 4.2256 6.72204 4.23714 6.723C4.25059 6.72396 4.26405 6.72588 4.2775 6.72684C4.29096 6.72877 4.30346 6.72973 4.31691 6.73165C4.32941 6.73357 4.34286 6.73549 4.35632 6.73838C4.37074 6.74126 4.38515 6.74318 4.39957 6.74607C4.41303 6.74895 4.42552 6.75183 4.43898 6.75472C4.45436 6.75856 4.46974 6.76241 4.48608 6.76625C4.49953 6.7701 4.51299 6.77394 4.52644 6.77779C4.54278 6.78259 4.55912 6.7874 4.57643 6.79316C4.58988 6.79797 4.6043 6.80181 4.61775 6.80662C4.63506 6.81239 4.65236 6.81912 4.67062 6.82488C4.68504 6.83065 4.69945 6.83546 4.71387 6.84122C4.73213 6.84795 4.75039 6.85564 4.76866 6.86333C4.78404 6.8691 4.79845 6.87582 4.81383 6.88255C4.83305 6.8912 4.85228 6.89985 4.8715 6.9085C4.88688 6.91619 4.90322 6.92292 4.91956 6.93061C4.93878 6.94022 4.95897 6.94983 4.97819 6.96041C4.99549 6.96906 5.01183 6.97771 5.02913 6.98732C5.06277 7.00558 5.09641 7.02384 5.13101 7.04403C5.16081 7.06133 5.19157 7.07959 5.22136 7.09881C5.2377 7.10939 5.25404 7.119 5.27134 7.12957C5.29729 7.14591 5.32421 7.16417 5.35016 7.18147" fill="#BD8AEB"/>
<path d="M5.354 7.18051C5.37226 7.19301 5.39053 7.20454 5.40879 7.21703C5.43186 7.23241 5.45588 7.24971 5.47895 7.26702C5.50298 7.28432 5.52605 7.29969 5.55008 7.31796C5.5693 7.33237 5.58949 7.34775 5.60871 7.36217C5.63947 7.38524 5.66926 7.40734 5.70002 7.43233C5.71924 7.44771 5.73847 7.46405 5.75865 7.47943C5.79229 7.50634 5.82593 7.53326 5.86053 7.56209C5.88168 7.57939 5.90282 7.59861 5.92397 7.61592C5.95857 7.64571 5.99413 7.67647 6.0297 7.70819C6.07103 7.74471 6.11236 7.7822 6.15465 7.8216C6.15657 7.82353 6.15945 7.82641 6.16137 7.82833C6.20847 7.87254 6.25653 7.91868 6.30459 7.96578C6.31228 7.97347 6.32093 7.98116 6.32862 7.98885C6.37667 8.0369 6.42569 8.08592 6.47567 8.13686C6.48529 8.14648 6.4949 8.15705 6.50547 8.16762C6.55545 8.21952 6.60639 8.27335 6.65829 8.3291C6.66406 8.33582 6.66983 8.34255 6.67656 8.34832C6.72557 8.40214 6.77555 8.45693 6.82554 8.51364C6.83322 8.52229 6.84091 8.52998 6.84764 8.53863C6.89954 8.59822 6.95241 8.65877 7.00623 8.72221C7.01777 8.73566 7.0293 8.74912 7.04083 8.76354C7.09562 8.8289 7.15137 8.89618 7.20808 8.96538C7.20808 8.96538 7.20808 8.96538 7.20808 8.96634C7.2619 9.03266 7.31573 9.1009 7.37051 9.17107C7.38974 9.1951 7.408 9.22009 7.42722 9.24412C7.46855 9.29794 7.51084 9.35369 7.55409 9.4104C7.57139 9.43347 7.58869 9.45653 7.606 9.4796C7.66559 9.55938 7.72614 9.64204 7.78669 9.72566L9.08041 8.97403C9.02755 8.90002 8.97468 8.8289 8.92278 8.75777C8.91509 8.7472 8.9074 8.73759 8.89971 8.72701C8.88241 8.70299 8.86415 8.67992 8.84685 8.65685C8.80456 8.6011 8.76227 8.54536 8.72094 8.49153C8.70172 8.46654 8.68249 8.44155 8.66327 8.41752C8.64981 8.40022 8.63732 8.38292 8.62386 8.36658C8.58253 8.31468 8.54216 8.26277 8.50083 8.21279C8.50083 8.21279 8.50083 8.2128 8.50083 8.21183C8.4595 8.16089 8.41914 8.11187 8.37877 8.06285C8.36339 8.04459 8.34897 8.02729 8.33359 8.00999C8.32206 7.99653 8.31052 7.98212 8.29899 7.96866C8.24997 7.91099 8.20191 7.85428 8.15386 7.80046C8.14905 7.79565 8.14521 7.79085 8.1404 7.78604C8.13271 7.77739 8.12502 7.76874 8.11733 7.76009C8.06735 7.70338 8.01737 7.64859 7.96835 7.59573C7.96259 7.589 7.95586 7.58228 7.95009 7.57555C7.94721 7.57266 7.94432 7.56882 7.94144 7.56594C7.89338 7.51403 7.84532 7.46405 7.79823 7.41503C7.78862 7.40446 7.77804 7.39485 7.76843 7.38428C7.75786 7.3737 7.74729 7.36313 7.73767 7.35256C7.69923 7.31315 7.65982 7.2747 7.62234 7.23722C7.61465 7.22953 7.606 7.22184 7.59831 7.21319C7.57908 7.19397 7.55986 7.17474 7.54064 7.15648C7.5118 7.12861 7.48393 7.10266 7.45509 7.07575C7.45221 7.07382 7.45029 7.07094 7.4474 7.06902C7.41473 7.03826 7.38205 7.00943 7.35033 6.97963C7.34072 6.97098 7.33207 6.96425 7.32245 6.9556C7.28689 6.92388 7.25133 6.89313 7.21673 6.86333C7.20135 6.85083 7.18597 6.83642 7.17155 6.82392C7.16579 6.81912 7.16002 6.81431 7.15329 6.8095C7.11869 6.78067 7.08505 6.75376 7.05141 6.72684C7.03603 6.71435 7.01969 6.69993 7.00431 6.6884C7.00047 6.68551 6.99758 6.68263 6.99374 6.68071C6.96298 6.65668 6.93222 6.63361 6.90147 6.61054C6.88417 6.59805 6.86686 6.58363 6.84956 6.57114C6.84764 6.56921 6.84476 6.56825 6.84284 6.56633C6.81881 6.54807 6.79478 6.53173 6.77075 6.51539C6.7496 6.50097 6.72846 6.48463 6.70827 6.47118C6.70635 6.46925 6.70347 6.46829 6.70155 6.46637C6.68232 6.45388 6.66406 6.44138 6.6458 6.42985C6.62273 6.41447 6.59966 6.39813 6.5766 6.38371C6.57371 6.38179 6.56987 6.37987 6.56698 6.37794C6.54968 6.36737 6.53334 6.35776 6.517 6.34719C6.49586 6.33469 6.47471 6.32124 6.45357 6.30874C6.44396 6.30297 6.4353 6.29817 6.42569 6.2924C6.3959 6.2751 6.36706 6.25876 6.33823 6.24338C6.33342 6.2405 6.32862 6.23858 6.32381 6.23569C6.30651 6.22608 6.28921 6.21743 6.27287 6.20878C6.25845 6.20109 6.24403 6.1934 6.23058 6.18667C6.22481 6.18379 6.22001 6.18187 6.21424 6.17898C6.1979 6.1713 6.18252 6.16361 6.16618 6.15688C6.15369 6.15111 6.14023 6.14438 6.12773 6.13862C6.12197 6.13573 6.11524 6.13381 6.10947 6.13093C6.09409 6.1242 6.07872 6.11843 6.0643 6.1117C6.05276 6.1069 6.04123 6.10209 6.03066 6.09729C6.02297 6.0944 6.01624 6.09248 6.00951 6.0896C5.99509 6.08383 5.98068 6.07806 5.96626 6.07326C5.95665 6.06941 5.94704 6.06557 5.93743 6.06268C5.92974 6.0598 5.92205 6.05788 5.9134 6.055C5.89898 6.05019 5.88552 6.04538 5.87111 6.04154C5.86342 6.03866 5.85477 6.03577 5.84708 6.03385C5.83843 6.03097 5.82978 6.02904 5.82112 6.02712C5.80767 6.02328 5.79421 6.01943 5.78076 6.01559C5.77403 6.01366 5.7673 6.01174 5.76057 6.00982C5.75096 6.0079 5.74231 6.00598 5.73366 6.00405C5.7202 6.00117 5.70675 5.99829 5.69425 5.9954C5.68849 5.99444 5.68272 5.99252 5.67791 5.99156C5.6683 5.98964 5.65965 5.98868 5.651 5.98675C5.63754 5.98483 5.62409 5.98195 5.61159 5.98002C5.60679 5.98002 5.60198 5.9781 5.59718 5.97714C5.58852 5.97618 5.58084 5.97522 5.57219 5.97426C5.55873 5.97234 5.54527 5.97137 5.53182 5.97041C5.52701 5.97041 5.5222 5.96945 5.5174 5.96849C5.50971 5.96849 5.50298 5.96849 5.49529 5.96849C5.48184 5.96849 5.46742 5.96753 5.45396 5.96753C5.44916 5.96753 5.44435 5.96753 5.43955 5.96753C5.43378 5.96753 5.42897 5.96753 5.42321 5.96753C5.40783 5.96753 5.39341 5.96753 5.37899 5.96945C5.37323 5.96945 5.36842 5.96945 5.36265 5.96945C5.35881 5.96945 5.35496 5.97041 5.35112 5.97137C5.33382 5.9733 5.31652 5.97618 5.30018 5.97906C5.29537 5.97906 5.2896 5.98003 5.28576 5.98099C5.2848 5.98099 5.28288 5.98099 5.28192 5.98195C5.25596 5.98675 5.2329 5.99348 5.20983 6.00117C5.20791 6.00117 5.20502 6.00213 5.2031 6.00309C5.20022 6.00405 5.19829 6.00598 5.19541 6.00694C5.17042 6.01655 5.14639 6.02616 5.12429 6.03866L3.83057 6.79028C3.85171 6.77779 3.87574 6.76817 3.90169 6.75856C3.9065 6.75664 3.9113 6.75472 3.91611 6.75376C3.93918 6.74607 3.96225 6.73934 3.9882 6.73453C3.99396 6.73357 4.00069 6.73261 4.00646 6.73165C4.0228 6.72877 4.0401 6.72588 4.0574 6.72396C4.06605 6.72396 4.07566 6.72204 4.08431 6.72204C4.09873 6.72108 4.11315 6.72012 4.12853 6.72012C4.1391 6.72012 4.14967 6.72012 4.16024 6.72012C4.1737 6.72012 4.18716 6.72012 4.20157 6.72108C4.21311 6.72108 4.2256 6.72204 4.23714 6.723C4.25059 6.72396 4.26405 6.72588 4.2775 6.72684C4.29096 6.72877 4.30346 6.72973 4.31691 6.73165C4.32941 6.73357 4.34286 6.73549 4.35632 6.73838C4.37074 6.74126 4.38515 6.74318 4.39957 6.74607C4.41303 6.74895 4.42552 6.75183 4.43898 6.75472C4.45436 6.75856 4.46974 6.76241 4.48608 6.76625C4.49953 6.7701 4.51299 6.77394 4.52644 6.77779C4.54278 6.78259 4.55912 6.7874 4.57643 6.79316C4.58988 6.79797 4.6043 6.80181 4.61775 6.80662C4.63506 6.81239 4.65236 6.81912 4.67062 6.82488C4.68504 6.83065 4.69945 6.83546 4.71387 6.84122C4.73213 6.84795 4.75039 6.85564 4.76866 6.86333C4.78404 6.8691 4.79845 6.87582 4.81383 6.88255C4.83305 6.8912 4.85228 6.89985 4.8715 6.9085C4.88688 6.91619 4.90322 6.92292 4.91956 6.93061C4.93878 6.94022 4.95897 6.94983 4.97819 6.96041C4.99549 6.96906 5.01183 6.97771 5.02913 6.98732C5.06277 7.00558 5.09641 7.02384 5.13101 7.04403C5.16081 7.06133 5.19157 7.07959 5.22136 7.09881C5.2377 7.10939 5.25404 7.119 5.27134 7.12957C5.29729 7.14591 5.32421 7.16417 5.35016 7.18147L5.354 7.18051Z" stroke="#1C1E2D" stroke-width="0.3" stroke-miterlimit="10"/>
<path d="M5.1346 7.04403C5.82375 7.44195 6.72724 8.25124 7.7874 9.72662C6.3793 9.84676 5.20477 10.5167 4.3897 11.6634C2.96431 8.50499 3.3603 7.0594 3.83415 6.78932C4.06003 6.66052 4.50793 6.68167 5.1346 7.04307" fill="#F2F2F4"/>
<path d="M5.1346 7.04403C5.82375 7.44195 6.72724 8.25124 7.7874 9.72662C6.3793 9.84676 5.20477 10.5167 4.3897 11.6634C2.96431 8.50499 3.3603 7.0594 3.83415 6.78932C4.06003 6.66052 4.50793 6.68167 5.1346 7.04307V7.04403Z" stroke="#1C1E2D" stroke-width="0.3" stroke-miterlimit="10"/>
<path d="M18.7537 15.5498C18.7537 15.5431 18.7537 15.5364 18.7537 15.5297C18.7537 15.5075 18.7547 15.4864 18.7557 15.4643C18.7557 15.447 18.7566 15.4297 18.7566 15.4124C18.7566 15.4047 18.7566 15.397 18.7566 15.3893C18.7566 15.3682 18.7566 15.348 18.7566 15.3268C18.7566 15.3105 18.7566 15.2942 18.7566 15.2788C18.7566 15.2692 18.7557 15.2605 18.7557 15.2509C18.7557 15.2317 18.7537 15.2134 18.7528 15.1942C18.7528 15.1808 18.7518 15.1663 18.7509 15.1529C18.7509 15.1413 18.7489 15.1298 18.748 15.1192C18.747 15.101 18.7451 15.0818 18.7432 15.0635C18.7432 15.0529 18.7413 15.0414 18.7403 15.0298C18.7393 15.0154 18.7374 15.002 18.7355 14.9876C18.7336 14.9703 18.7316 14.953 18.7297 14.9357C18.7288 14.928 18.7278 14.9193 18.7268 14.9107C18.7249 14.8934 18.722 14.8761 18.7191 14.8578C18.7172 14.8424 18.7153 14.8261 18.7124 14.8107C18.7124 14.8059 18.7115 14.8001 18.7105 14.7953C18.7067 14.7723 18.7028 14.7502 18.699 14.7271C18.697 14.7146 18.6951 14.7021 18.6922 14.6906C18.6922 14.6886 18.6922 14.6858 18.6913 14.6838C18.6845 14.6473 18.6769 14.6108 18.6692 14.5752C18.6692 14.5752 18.6692 14.5752 18.6692 14.5743C18.6682 14.5695 18.6672 14.5646 18.6653 14.5598C18.6586 14.53 18.6519 14.5003 18.6442 14.4705C18.6442 14.4676 18.6423 14.4637 18.6413 14.4608C18.6384 14.4493 18.6355 14.4378 18.6317 14.4253C18.6269 14.407 18.6221 14.3888 18.6173 14.3715C18.6153 14.3647 18.6134 14.358 18.6115 14.3513C18.6077 14.3378 18.6038 14.3253 18.6 14.3119C18.5961 14.3003 18.5932 14.2878 18.5894 14.2763C18.5855 14.2648 18.5827 14.2542 18.5788 14.2427C18.575 14.2321 18.5721 14.2215 18.5682 14.2109C18.5663 14.2042 18.5644 14.1975 18.5615 14.1917C18.5548 14.1715 18.5471 14.1514 18.5404 14.1312C18.5384 14.1254 18.5365 14.1196 18.5346 14.1148C18.5346 14.1139 18.5346 14.1119 18.5336 14.111C18.525 14.087 18.5163 14.0629 18.5067 14.0399C18.5048 14.0351 18.5029 14.0302 18.501 14.0245C18.4981 14.0168 18.4952 14.0101 18.4923 14.0024C18.4885 13.9918 18.4846 13.9822 18.4798 13.9716C18.4741 13.9572 18.4673 13.9428 18.4616 13.9284C18.4596 13.9236 18.4577 13.9188 18.4558 13.9139C18.4558 13.912 18.4539 13.9101 18.4529 13.9082C18.4443 13.888 18.4346 13.8688 18.426 13.8486C18.4241 13.8438 18.4212 13.839 18.4193 13.8342C18.4164 13.8284 18.4135 13.8226 18.4106 13.8169C18.4068 13.8092 18.4029 13.8005 18.3991 13.7928C18.3933 13.7813 18.3875 13.7707 18.3818 13.7602C18.377 13.7515 18.3722 13.7419 18.3683 13.7332C18.3664 13.7294 18.3645 13.7265 18.3626 13.7227C18.351 13.7015 18.3395 13.6813 18.3289 13.6612C18.327 13.6573 18.3251 13.6535 18.3222 13.6506C18.3203 13.6477 18.3183 13.6448 18.3164 13.6419C18.2924 13.6016 18.2674 13.5612 18.2386 13.5189C18.2386 13.5179 18.2366 13.516 18.2357 13.5151C18.2357 13.5151 18.2357 13.5141 18.2347 13.5131C18.2145 13.4833 18.1924 13.4526 18.1703 13.4218C18.1684 13.4189 18.1665 13.4161 18.1646 13.4141C18.1559 13.4016 18.1463 13.3901 18.1367 13.3776C18.129 13.368 18.1223 13.3584 18.1146 13.3478C18.1127 13.3459 18.1117 13.343 18.1098 13.3411C18.0934 13.3199 18.0761 13.2998 18.0588 13.2786C18.0569 13.2767 18.0559 13.2748 18.054 13.2729C18.0348 13.2498 18.0146 13.2267 17.9944 13.2036C17.9925 13.2017 17.9906 13.1998 17.9896 13.1979C17.9819 13.1892 17.9742 13.1806 17.9666 13.1719C17.9541 13.1585 17.9425 13.145 17.93 13.1316C17.9272 13.1277 17.9233 13.1248 17.9195 13.121C17.9089 13.1095 17.8983 13.0989 17.8877 13.0873C17.8772 13.0768 17.8676 13.0662 17.8579 13.0556C17.8531 13.0508 17.8483 13.047 17.8445 13.0422C17.832 13.0297 17.8195 13.0172 17.806 13.0047C17.7964 12.9951 17.7878 12.9864 17.7782 12.9768C17.7734 12.972 17.7676 12.9672 17.7628 12.9624C17.7484 12.9489 17.733 12.9345 17.7176 12.9211C17.708 12.9124 17.6994 12.9038 17.6888 12.8942C17.684 12.8894 17.6782 12.8855 17.6734 12.8807C17.6571 12.8663 17.6407 12.8519 17.6244 12.8374C17.6138 12.8288 17.6042 12.8192 17.5936 12.8105C17.5888 12.8067 17.584 12.8028 17.5792 12.799C17.5619 12.7846 17.5446 12.7702 17.5264 12.7567C17.5148 12.7481 17.5042 12.7384 17.4927 12.7298C17.4879 12.726 17.4841 12.7231 17.4793 12.7202C17.461 12.7067 17.4427 12.6923 17.4245 12.6789C17.412 12.6692 17.4004 12.6606 17.3879 12.651C17.3841 12.6481 17.3793 12.6452 17.3754 12.6423C17.3572 12.6289 17.3389 12.6164 17.3207 12.6039C17.3072 12.5943 17.2937 12.5847 17.2803 12.5751C17.2764 12.5722 17.2716 12.5693 17.2678 12.5664C17.2495 12.5539 17.2313 12.5424 17.213 12.5299C17.1986 12.5203 17.1842 12.5107 17.1698 12.501C17.1659 12.4982 17.1611 12.4962 17.1573 12.4934C17.139 12.4818 17.1198 12.4703 17.1015 12.4588C17.0861 12.4491 17.0717 12.4405 17.0563 12.4309C17.0477 12.4261 17.0381 12.4203 17.0294 12.4155C16.9996 12.3982 16.9689 12.3809 16.9381 12.3646C16.9314 12.3607 16.9237 12.3569 16.916 12.353C16.8978 12.3434 16.8795 12.3338 16.8622 12.3252C16.8468 12.3175 16.8314 12.3088 16.8151 12.3011C16.8055 12.2963 16.7959 12.2925 16.7863 12.2877C16.767 12.2781 16.7469 12.2694 16.7276 12.2598C16.7142 12.2531 16.7007 12.2473 16.6873 12.2406C16.6757 12.2358 16.6632 12.231 16.6517 12.2252C16.6305 12.2156 16.6094 12.2069 16.5883 12.1983C16.5758 12.1935 16.5642 12.1877 16.5527 12.1829C16.5392 12.1771 16.5258 12.1723 16.5123 12.1675C16.4893 12.1589 16.4662 12.1502 16.4431 12.1416C16.4316 12.1377 16.421 12.1329 16.4095 12.1291C16.3951 12.1243 16.3806 12.1195 16.3662 12.1147C16.3412 12.106 16.3153 12.0974 16.2893 12.0897C16.2778 12.0858 16.2672 12.082 16.2557 12.0791C16.2422 12.0752 16.2278 12.0714 16.2134 12.0676C16.1846 12.0589 16.1557 12.0512 16.1269 12.0435C16.1144 12.0406 16.1029 12.0368 16.0904 12.0339C16.0779 12.031 16.0654 12.0282 16.0529 12.0253C16.0193 12.0176 15.9866 12.0099 15.952 12.0032C15.9376 12.0003 15.9241 11.9964 15.9097 11.9936C15.9001 11.9916 15.8895 11.9907 15.8799 11.9887C15.8395 11.9811 15.7982 11.9743 15.7578 11.9686C15.7424 11.9666 15.7271 11.9628 15.7107 11.9609C15.705 11.9609 15.7001 11.9609 15.6944 11.9589C15.6271 11.9503 15.5589 11.9426 15.4906 11.9378C15.4887 11.9378 15.4868 11.9378 15.4848 11.9378C15.4349 11.934 15.3849 11.932 15.3339 11.9311C15.3195 11.9311 15.3061 11.9311 15.2917 11.9311C15.2686 11.9311 15.2465 11.9301 15.2234 11.9301C15.2071 11.9301 15.1898 11.9301 15.1734 11.9311C15.1513 11.9311 15.1302 11.9311 15.1081 11.933C15.0706 11.934 15.0331 11.9368 14.9956 11.9388C14.9745 11.9397 14.9543 11.9416 14.9331 11.9426C14.9255 11.9426 14.9178 11.9426 14.9101 11.9445C14.888 11.9465 14.8649 11.9503 14.8428 11.9522C14.8072 11.9561 14.7726 11.9599 14.7371 11.9647C14.7073 11.9686 14.6765 11.9743 14.6458 11.9791C14.6102 11.9849 14.5746 11.9907 14.5391 11.9974C14.5295 11.9993 14.5198 12.0003 14.5102 12.0022C14.4641 12.0109 14.418 12.0214 14.3709 12.032L13.0771 12.7836C13.1339 12.7702 13.1896 12.7596 13.2454 12.749C13.2809 12.7423 13.3165 12.7365 13.352 12.7308C13.3828 12.726 13.4136 12.7211 13.4433 12.7163C13.4789 12.7115 13.5135 12.7077 13.5491 12.7038C13.5798 12.701 13.6106 12.6971 13.6404 12.6942C13.6615 12.6923 13.6817 12.6914 13.7029 12.6904C13.7403 12.6875 13.7788 12.6856 13.8153 12.6846C13.8374 12.6846 13.8595 12.6837 13.8807 12.6827C13.9201 12.6827 13.9595 12.6827 13.9989 12.6827C14.0133 12.6827 14.0268 12.6827 14.0412 12.6827C14.0941 12.6846 14.146 12.6865 14.1979 12.6904C14.2671 12.6952 14.3353 12.7029 14.4016 12.7115C14.4228 12.7144 14.4439 12.7173 14.4651 12.7211C14.5064 12.7269 14.5468 12.7336 14.5871 12.7413C14.6112 12.7461 14.6352 12.7509 14.6592 12.7558C14.6929 12.7625 14.7265 12.7702 14.7601 12.7779C14.7851 12.7836 14.8101 12.7904 14.8341 12.7961C14.863 12.8038 14.8918 12.8115 14.9206 12.8201C14.9456 12.8278 14.9716 12.8346 14.9966 12.8432C15.0225 12.8509 15.0475 12.8596 15.0725 12.8682C15.0985 12.8769 15.1244 12.8855 15.1494 12.8951C15.1725 12.9038 15.1955 12.9124 15.2186 12.9211C15.2446 12.9307 15.2705 12.9413 15.2955 12.9518C15.3166 12.9605 15.3378 12.9691 15.3589 12.9787C15.3849 12.9903 15.4099 13.0018 15.4349 13.0133C15.4551 13.023 15.4743 13.0316 15.4935 13.0412C15.5195 13.0537 15.5444 13.0662 15.5694 13.0787C15.5877 13.0883 15.606 13.097 15.6242 13.1066C15.6627 13.1268 15.7001 13.1469 15.7367 13.169C15.7607 13.1835 15.7847 13.1979 15.8088 13.2123C15.827 13.2238 15.8462 13.2354 15.8645 13.2469C15.8837 13.2584 15.902 13.2709 15.9203 13.2834C15.9385 13.2959 15.9568 13.3075 15.975 13.3199C15.9923 13.3324 16.0096 13.344 16.0269 13.3565C16.0452 13.369 16.0635 13.3824 16.0817 13.3959C16.0981 13.4084 16.1144 13.4199 16.1307 13.4324C16.149 13.4459 16.1673 13.4603 16.1855 13.4737C16.2009 13.4862 16.2163 13.4987 16.2317 13.5112C16.249 13.5256 16.2672 13.5401 16.2845 13.5545C16.2999 13.567 16.3143 13.5795 16.3297 13.5929C16.346 13.6073 16.3633 13.6218 16.3787 13.6362C16.3931 13.6496 16.4085 13.6631 16.4229 13.6756C16.4383 13.689 16.4527 13.7035 16.4672 13.7169C16.4816 13.7304 16.496 13.7448 16.5104 13.7592C16.5229 13.7717 16.5364 13.7842 16.5489 13.7976C16.5633 13.813 16.5777 13.8274 16.5921 13.8428C16.6027 13.8544 16.6142 13.8649 16.6238 13.8765C16.6402 13.8938 16.6555 13.9101 16.67 13.9274C16.6776 13.9361 16.6853 13.9447 16.693 13.9534C16.7151 13.9783 16.7372 14.0043 16.7584 14.0293C16.7603 14.0312 16.7613 14.0331 16.7632 14.0351C16.7824 14.0581 16.8016 14.0812 16.8189 14.1043C16.8266 14.1139 16.8334 14.1235 16.841 14.1331C16.8526 14.1485 16.8641 14.1629 16.8747 14.1783C16.8968 14.209 16.9189 14.2398 16.9391 14.2696C16.94 14.2715 16.942 14.2734 16.9429 14.2753C16.9708 14.3176 16.9968 14.358 17.0208 14.3984C17.0246 14.4051 17.0285 14.4118 17.0323 14.4176C17.0458 14.4407 17.0583 14.4647 17.0717 14.4897C17.0765 14.4983 17.0804 14.507 17.0852 14.5156C17.0948 14.5349 17.1044 14.5531 17.114 14.5733C17.1169 14.5791 17.1198 14.5848 17.1227 14.5906C17.1352 14.6166 17.1477 14.6435 17.1592 14.6704C17.1611 14.6752 17.163 14.68 17.165 14.6838C17.1755 14.7079 17.1851 14.7329 17.1957 14.7578C17.1986 14.7655 17.2015 14.7723 17.2044 14.7799C17.2159 14.8097 17.2274 14.8395 17.239 14.8703C17.2409 14.8751 17.2428 14.8809 17.2447 14.8857C17.2543 14.9126 17.263 14.9395 17.2726 14.9664C17.2764 14.977 17.2793 14.9876 17.2832 14.9981C17.2909 15.0212 17.2976 15.0443 17.3043 15.0673C17.3082 15.0798 17.312 15.0933 17.3159 15.1058C17.3226 15.1308 17.3293 15.1548 17.336 15.1808C17.3389 15.1923 17.3418 15.2038 17.3447 15.2154C17.3533 15.248 17.361 15.2817 17.3678 15.3153C17.3687 15.3201 17.3697 15.3249 17.3706 15.3297C17.3793 15.3682 17.387 15.4076 17.3947 15.447C17.3966 15.4585 17.3985 15.471 17.4014 15.4835C17.4062 15.5114 17.411 15.5393 17.4158 15.5681C17.4177 15.5835 17.4206 15.5989 17.4225 15.6152C17.4264 15.6411 17.4293 15.6661 17.4331 15.6921C17.435 15.7094 17.437 15.7267 17.4389 15.744C17.4418 15.769 17.4437 15.794 17.4466 15.8199C17.4485 15.8382 17.4495 15.8564 17.4514 15.8747C17.4533 15.8997 17.4543 15.9256 17.4562 15.9506C17.4571 15.9699 17.4581 15.9881 17.4591 16.0073C17.4591 16.0323 17.461 16.0573 17.461 16.0833C17.461 16.1035 17.461 16.1246 17.461 16.1448C17.461 16.1698 17.461 16.1948 17.461 16.2198C17.461 16.2419 17.461 16.263 17.4591 16.2851C17.4591 16.3092 17.4571 16.3332 17.4552 16.3572C17.4543 16.3822 17.4523 16.4062 17.4504 16.4312C17.4485 16.4533 17.4466 16.4764 17.4447 16.4985C17.4418 16.5264 17.4389 16.5552 17.436 16.5831C17.4331 16.6052 17.4302 16.6263 17.4274 16.6484C17.4235 16.6792 17.4187 16.71 17.4139 16.7417C17.41 16.7628 17.4062 16.784 17.4024 16.8051C17.3956 16.8416 17.3879 16.8782 17.3803 16.9147C17.3764 16.9339 17.3726 16.9531 17.3678 16.9724C17.3533 17.0329 17.338 17.0944 17.3197 17.1559C17.3062 17.2011 17.2918 17.2463 17.2764 17.2915C17.2716 17.3049 17.2668 17.3184 17.262 17.3318C17.2515 17.3626 17.2399 17.3943 17.2274 17.4251C17.2188 17.4462 17.2101 17.4683 17.2015 17.4895C17.1899 17.5164 17.1794 17.5442 17.1669 17.5712C17.1573 17.5923 17.1477 17.6144 17.138 17.6355C17.1275 17.6577 17.1169 17.6798 17.1063 17.7019C17.0861 17.7422 17.065 17.7836 17.0438 17.8239C17.0342 17.8422 17.0246 17.8605 17.0141 17.8787C16.9843 17.9316 16.9525 17.9844 16.9199 18.0373C16.917 18.0421 16.9141 18.0469 16.9112 18.0517C16.8939 18.0796 16.8737 18.1075 16.8555 18.1344C16.841 18.1555 16.8266 18.1776 16.8122 18.1988C16.7911 18.2276 16.769 18.2565 16.7469 18.2863C16.7315 18.3064 16.718 18.3257 16.7026 18.3458C16.6767 18.3785 16.6498 18.4102 16.6229 18.4429C16.6094 18.4593 16.5969 18.4746 16.5835 18.491C16.5421 18.539 16.4989 18.5861 16.4537 18.6332L17.7474 17.8816C17.7926 17.8345 17.8358 17.7874 17.8772 17.7394C17.8906 17.724 17.9031 17.7076 17.9166 17.6913C17.9435 17.6596 17.9714 17.6269 17.9964 17.5942C18.0117 17.574 18.0262 17.5539 18.0415 17.5337C18.0636 17.5048 18.0857 17.476 18.1059 17.4472C18.1213 17.4251 18.1357 17.4039 18.1501 17.3818C18.1684 17.3539 18.1876 17.327 18.2059 17.2991C18.2059 17.2991 18.2059 17.2982 18.2069 17.2972C18.2097 17.2934 18.2117 17.2886 18.2145 17.2847C18.2482 17.2319 18.2789 17.179 18.3087 17.1261C18.3193 17.1079 18.3289 17.0896 18.3385 17.0713C18.3606 17.031 18.3818 16.9897 18.401 16.9493C18.4058 16.9387 18.4125 16.9281 18.4173 16.9176C18.4231 16.906 18.4279 16.8945 18.4327 16.883C18.4423 16.8618 18.4519 16.8407 18.4616 16.8186C18.4731 16.7917 18.4846 16.7638 18.4962 16.7369C18.5048 16.7157 18.5135 16.6946 18.5221 16.6725C18.526 16.6609 18.5317 16.6504 18.5356 16.6388C18.5433 16.6186 18.55 16.5994 18.5567 16.5792C18.5615 16.5658 18.5663 16.5523 18.5711 16.5389C18.5865 16.4947 18.6009 16.4495 18.6134 16.4053C18.6134 16.4053 18.6134 16.4043 18.6134 16.4033C18.6317 16.3418 18.6471 16.2813 18.6615 16.2198C18.6634 16.213 18.6653 16.2073 18.6663 16.2005C18.6692 16.188 18.6711 16.1746 18.674 16.1621C18.6817 16.1256 18.6894 16.0881 18.6961 16.0516C18.698 16.041 18.7009 16.0304 18.7028 16.0198C18.7047 16.0093 18.7057 15.9987 18.7076 15.9891C18.7124 15.9583 18.7172 15.9266 18.7211 15.8959C18.723 15.8824 18.7259 15.868 18.7268 15.8545C18.7278 15.8468 18.7288 15.8382 18.7297 15.8305C18.7336 15.8026 18.7355 15.7738 18.7384 15.7459C18.7403 15.7305 18.7422 15.7142 18.7432 15.6988C18.7432 15.6921 18.7432 15.6854 18.7441 15.6786C18.7461 15.6536 18.747 15.6296 18.7489 15.6046C18.7499 15.5873 18.7518 15.57 18.7518 15.5527" fill="#BD8AEB"/>
<path d="M18.7537 15.5498C18.7537 15.5431 18.7537 15.5364 18.7537 15.5297C18.7537 15.5075 18.7547 15.4864 18.7557 15.4643C18.7557 15.447 18.7566 15.4297 18.7566 15.4124C18.7566 15.4047 18.7566 15.397 18.7566 15.3893C18.7566 15.3682 18.7566 15.348 18.7566 15.3268C18.7566 15.3105 18.7566 15.2942 18.7566 15.2788C18.7566 15.2692 18.7557 15.2605 18.7557 15.2509C18.7557 15.2317 18.7537 15.2134 18.7528 15.1942C18.7528 15.1808 18.7518 15.1663 18.7509 15.1529C18.7509 15.1413 18.7489 15.1298 18.748 15.1192C18.747 15.101 18.7451 15.0818 18.7432 15.0635C18.7432 15.0529 18.7413 15.0414 18.7403 15.0298C18.7393 15.0154 18.7374 15.002 18.7355 14.9876C18.7336 14.9703 18.7316 14.953 18.7297 14.9357C18.7288 14.928 18.7278 14.9193 18.7268 14.9107C18.7249 14.8934 18.722 14.8761 18.7191 14.8578C18.7172 14.8424 18.7153 14.8261 18.7124 14.8107C18.7124 14.8059 18.7115 14.8001 18.7105 14.7953C18.7067 14.7723 18.7028 14.7502 18.699 14.7271C18.697 14.7146 18.6951 14.7021 18.6922 14.6906C18.6922 14.6886 18.6922 14.6858 18.6913 14.6838C18.6845 14.6473 18.6769 14.6108 18.6692 14.5752C18.6692 14.5752 18.6692 14.5752 18.6692 14.5743C18.6682 14.5695 18.6672 14.5646 18.6653 14.5598C18.6586 14.53 18.6519 14.5003 18.6442 14.4705C18.6442 14.4676 18.6423 14.4637 18.6413 14.4608C18.6384 14.4493 18.6355 14.4378 18.6317 14.4253C18.6269 14.407 18.6221 14.3888 18.6173 14.3715C18.6153 14.3647 18.6134 14.358 18.6115 14.3513C18.6077 14.3378 18.6038 14.3253 18.6 14.3119C18.5961 14.3003 18.5932 14.2878 18.5894 14.2763C18.5855 14.2648 18.5827 14.2542 18.5788 14.2427C18.575 14.2321 18.5721 14.2215 18.5682 14.2109C18.5663 14.2042 18.5644 14.1975 18.5615 14.1917C18.5548 14.1715 18.5471 14.1514 18.5404 14.1312C18.5384 14.1254 18.5365 14.1196 18.5346 14.1148C18.5346 14.1139 18.5346 14.1119 18.5336 14.111C18.525 14.087 18.5163 14.0629 18.5067 14.0399C18.5048 14.0351 18.5029 14.0302 18.501 14.0245C18.4981 14.0168 18.4952 14.0101 18.4923 14.0024C18.4885 13.9918 18.4846 13.9822 18.4798 13.9716C18.4741 13.9572 18.4673 13.9428 18.4616 13.9284C18.4596 13.9236 18.4577 13.9188 18.4558 13.9139C18.4558 13.912 18.4539 13.9101 18.4529 13.9082C18.4443 13.888 18.4346 13.8688 18.426 13.8486C18.4241 13.8438 18.4212 13.839 18.4193 13.8342C18.4164 13.8284 18.4135 13.8226 18.4106 13.8169C18.4068 13.8092 18.4029 13.8005 18.3991 13.7928C18.3933 13.7813 18.3875 13.7707 18.3818 13.7602C18.377 13.7515 18.3722 13.7419 18.3683 13.7332C18.3664 13.7294 18.3645 13.7265 18.3626 13.7227C18.351 13.7015 18.3395 13.6813 18.3289 13.6612C18.327 13.6573 18.3251 13.6535 18.3222 13.6506C18.3203 13.6477 18.3183 13.6448 18.3164 13.6419C18.2924 13.6016 18.2674 13.5612 18.2386 13.5189C18.2386 13.5179 18.2366 13.516 18.2357 13.5151C18.2357 13.5151 18.2357 13.5141 18.2347 13.5131C18.2145 13.4833 18.1924 13.4526 18.1703 13.4218C18.1684 13.4189 18.1665 13.4161 18.1646 13.4141C18.1559 13.4016 18.1463 13.3901 18.1367 13.3776C18.129 13.368 18.1223 13.3584 18.1146 13.3478C18.1127 13.3459 18.1117 13.343 18.1098 13.3411C18.0934 13.3199 18.0761 13.2998 18.0588 13.2786C18.0569 13.2767 18.0559 13.2748 18.054 13.2729C18.0348 13.2498 18.0146 13.2267 17.9944 13.2036C17.9925 13.2017 17.9906 13.1998 17.9896 13.1979C17.9819 13.1892 17.9742 13.1806 17.9666 13.1719C17.9541 13.1585 17.9425 13.145 17.93 13.1316C17.9272 13.1277 17.9233 13.1248 17.9195 13.121C17.9089 13.1095 17.8983 13.0989 17.8877 13.0873C17.8772 13.0768 17.8676 13.0662 17.8579 13.0556C17.8531 13.0508 17.8483 13.047 17.8445 13.0422C17.832 13.0297 17.8195 13.0172 17.806 13.0047C17.7964 12.9951 17.7878 12.9864 17.7782 12.9768C17.7734 12.972 17.7676 12.9672 17.7628 12.9624C17.7484 12.9489 17.733 12.9345 17.7176 12.9211C17.708 12.9124 17.6994 12.9038 17.6888 12.8942C17.684 12.8894 17.6782 12.8855 17.6734 12.8807C17.6571 12.8663 17.6407 12.8519 17.6244 12.8374C17.6138 12.8288 17.6042 12.8192 17.5936 12.8105C17.5888 12.8067 17.584 12.8028 17.5792 12.799C17.5619 12.7846 17.5446 12.7702 17.5263 12.7567C17.5148 12.7481 17.5042 12.7384 17.4927 12.7298C17.4879 12.726 17.4841 12.7231 17.4793 12.7202C17.461 12.7067 17.4427 12.6923 17.4245 12.6789C17.412 12.6692 17.4004 12.6606 17.3879 12.651C17.3841 12.6481 17.3793 12.6452 17.3754 12.6423C17.3572 12.6289 17.3389 12.6164 17.3207 12.6039C17.3072 12.5943 17.2937 12.5847 17.2803 12.5751C17.2764 12.5722 17.2716 12.5693 17.2678 12.5664C17.2495 12.5539 17.2313 12.5424 17.213 12.5299C17.1986 12.5203 17.1842 12.5107 17.1698 12.501C17.1659 12.4982 17.1611 12.4962 17.1573 12.4934C17.139 12.4818 17.1198 12.4703 17.1015 12.4588C17.0861 12.4491 17.0717 12.4405 17.0563 12.4309C17.0477 12.4261 17.0381 12.4203 17.0294 12.4155C16.9996 12.3982 16.9689 12.3809 16.9381 12.3646C16.9314 12.3607 16.9237 12.3569 16.916 12.353C16.8978 12.3434 16.8795 12.3338 16.8622 12.3252C16.8468 12.3175 16.8314 12.3088 16.8151 12.3011C16.8055 12.2963 16.7959 12.2925 16.7863 12.2877C16.767 12.2781 16.7469 12.2694 16.7276 12.2598C16.7142 12.2531 16.7007 12.2473 16.6873 12.2406C16.6757 12.2358 16.6632 12.231 16.6517 12.2252C16.6305 12.2156 16.6094 12.2069 16.5883 12.1983C16.5758 12.1935 16.5642 12.1877 16.5527 12.1829C16.5392 12.1771 16.5258 12.1723 16.5123 12.1675C16.4893 12.1589 16.4662 12.1502 16.4431 12.1416C16.4316 12.1377 16.421 12.1329 16.4095 12.1291C16.3951 12.1243 16.3806 12.1195 16.3662 12.1147C16.3412 12.106 16.3153 12.0974 16.2893 12.0897C16.2778 12.0858 16.2672 12.082 16.2557 12.0791C16.2422 12.0752 16.2278 12.0714 16.2134 12.0676C16.1846 12.0589 16.1557 12.0512 16.1269 12.0435C16.1144 12.0406 16.1029 12.0368 16.0904 12.0339C16.0779 12.031 16.0654 12.0282 16.0529 12.0253C16.0193 12.0176 15.9866 12.0099 15.952 12.0032C15.9376 12.0003 15.9241 11.9964 15.9097 11.9936C15.9001 11.9916 15.8895 11.9907 15.8799 11.9887C15.8395 11.9811 15.7982 11.9743 15.7578 11.9686C15.7424 11.9666 15.7271 11.9628 15.7107 11.9609C15.705 11.9609 15.7001 11.9609 15.6944 11.9589C15.6271 11.9503 15.5589 11.9426 15.4906 11.9378C15.4887 11.9378 15.4868 11.9378 15.4848 11.9378C15.4349 11.934 15.3849 11.932 15.3339 11.9311C15.3195 11.9311 15.3061 11.9311 15.2917 11.9311C15.2686 11.9311 15.2465 11.9301 15.2234 11.9301C15.2071 11.9301 15.1898 11.9301 15.1734 11.9311C15.1513 11.9311 15.1302 11.9311 15.1081 11.933C15.0706 11.934 15.0331 11.9368 14.9956 11.9388C14.9745 11.9397 14.9543 11.9416 14.9331 11.9426C14.9255 11.9426 14.9178 11.9426 14.9101 11.9445C14.888 11.9465 14.8649 11.9503 14.8428 11.9522C14.8072 11.9561 14.7726 11.9599 14.7371 11.9647C14.7073 11.9686 14.6765 11.9743 14.6458 11.9791C14.6102 11.9849 14.5746 11.9907 14.5391 11.9974C14.5295 11.9993 14.5198 12.0003 14.5102 12.0022C14.4641 12.0109 14.418 12.0214 14.3709 12.032L13.0771 12.7836C13.1339 12.7702 13.1896 12.7596 13.2454 12.749C13.2809 12.7423 13.3165 12.7365 13.352 12.7308C13.3828 12.726 13.4136 12.7211 13.4433 12.7163C13.4789 12.7115 13.5135 12.7077 13.5491 12.7038C13.5798 12.701 13.6106 12.6971 13.6404 12.6942C13.6615 12.6923 13.6817 12.6914 13.7029 12.6904C13.7403 12.6875 13.7788 12.6856 13.8153 12.6846C13.8374 12.6846 13.8595 12.6837 13.8807 12.6827C13.9201 12.6827 13.9595 12.6827 13.9989 12.6827C14.0133 12.6827 14.0268 12.6827 14.0412 12.6827C14.0941 12.6846 14.146 12.6865 14.1979 12.6904C14.2671 12.6952 14.3353 12.7029 14.4016 12.7115C14.4228 12.7144 14.4439 12.7173 14.4651 12.7211C14.5064 12.7269 14.5468 12.7336 14.5871 12.7413C14.6112 12.7461 14.6352 12.7509 14.6592 12.7558C14.6929 12.7625 14.7265 12.7702 14.7601 12.7779C14.7851 12.7836 14.8101 12.7904 14.8341 12.7961C14.863 12.8038 14.8918 12.8115 14.9206 12.8201C14.9456 12.8278 14.9716 12.8346 14.9966 12.8432C15.0225 12.8509 15.0475 12.8596 15.0725 12.8682C15.0985 12.8769 15.1244 12.8855 15.1494 12.8951C15.1725 12.9038 15.1955 12.9124 15.2186 12.9211C15.2446 12.9307 15.2705 12.9413 15.2955 12.9518C15.3166 12.9605 15.3378 12.9691 15.3589 12.9787C15.3849 12.9903 15.4099 13.0018 15.4349 13.0133C15.4551 13.023 15.4743 13.0316 15.4935 13.0412C15.5195 13.0537 15.5444 13.0662 15.5694 13.0787C15.5877 13.0883 15.606 13.097 15.6242 13.1066C15.6627 13.1268 15.7001 13.1469 15.7367 13.169C15.7607 13.1835 15.7847 13.1979 15.8088 13.2123C15.827 13.2238 15.8462 13.2354 15.8645 13.2469C15.8837 13.2584 15.902 13.2709 15.9203 13.2834C15.9385 13.2959 15.9568 13.3075 15.975 13.3199C15.9923 13.3324 16.0096 13.344 16.0269 13.3565C16.0452 13.369 16.0635 13.3824 16.0817 13.3959C16.0981 13.4084 16.1144 13.4199 16.1307 13.4324C16.149 13.4459 16.1673 13.4603 16.1855 13.4737C16.2009 13.4862 16.2163 13.4987 16.2317 13.5112C16.249 13.5256 16.2672 13.5401 16.2845 13.5545C16.2999 13.567 16.3143 13.5795 16.3297 13.5929C16.346 13.6073 16.3633 13.6218 16.3787 13.6362C16.3931 13.6496 16.4085 13.6631 16.4229 13.6756C16.4383 13.689 16.4527 13.7035 16.4672 13.7169C16.4816 13.7304 16.496 13.7448 16.5104 13.7592C16.5229 13.7717 16.5364 13.7842 16.5489 13.7976C16.5633 13.813 16.5777 13.8274 16.5921 13.8428C16.6027 13.8544 16.6142 13.8649 16.6238 13.8765C16.6402 13.8938 16.6555 13.9101 16.67 13.9274C16.6776 13.9361 16.6853 13.9447 16.693 13.9534C16.7151 13.9783 16.7372 14.0043 16.7584 14.0293C16.7603 14.0312 16.7613 14.0331 16.7632 14.0351C16.7824 14.0581 16.8016 14.0812 16.8189 14.1043C16.8266 14.1139 16.8334 14.1235 16.841 14.1331C16.8526 14.1485 16.8641 14.1629 16.8747 14.1783C16.8968 14.209 16.9189 14.2398 16.9391 14.2696C16.94 14.2715 16.942 14.2734 16.9429 14.2753C16.9708 14.3176 16.9968 14.358 17.0208 14.3984C17.0246 14.4051 17.0285 14.4118 17.0323 14.4176C17.0458 14.4407 17.0583 14.4647 17.0717 14.4897C17.0765 14.4983 17.0804 14.507 17.0852 14.5156C17.0948 14.5349 17.1044 14.5531 17.114 14.5733C17.1169 14.5791 17.1198 14.5848 17.1227 14.5906C17.1352 14.6166 17.1477 14.6435 17.1592 14.6704C17.1611 14.6752 17.163 14.68 17.165 14.6838C17.1755 14.7079 17.1851 14.7329 17.1957 14.7578C17.1986 14.7655 17.2015 14.7723 17.2044 14.7799C17.2159 14.8097 17.2274 14.8395 17.239 14.8703C17.2409 14.8751 17.2428 14.8809 17.2447 14.8857C17.2543 14.9126 17.263 14.9395 17.2726 14.9664C17.2764 14.977 17.2793 14.9876 17.2832 14.9981C17.2909 15.0212 17.2976 15.0443 17.3043 15.0673C17.3082 15.0798 17.312 15.0933 17.3159 15.1058C17.3226 15.1308 17.3293 15.1548 17.336 15.1808C17.3389 15.1923 17.3418 15.2038 17.3447 15.2154C17.3533 15.248 17.361 15.2817 17.3678 15.3153C17.3687 15.3201 17.3697 15.3249 17.3706 15.3297C17.3793 15.3682 17.387 15.4076 17.3947 15.447C17.3966 15.4585 17.3985 15.471 17.4014 15.4835C17.4062 15.5114 17.411 15.5393 17.4158 15.5681C17.4177 15.5835 17.4206 15.5989 17.4225 15.6152C17.4264 15.6411 17.4293 15.6661 17.4331 15.6921C17.435 15.7094 17.437 15.7267 17.4389 15.744C17.4418 15.769 17.4437 15.794 17.4466 15.8199C17.4485 15.8382 17.4495 15.8564 17.4514 15.8747C17.4533 15.8997 17.4543 15.9256 17.4562 15.9506C17.4571 15.9699 17.4581 15.9881 17.4591 16.0073C17.4591 16.0323 17.461 16.0573 17.461 16.0833C17.461 16.1035 17.461 16.1246 17.461 16.1448C17.461 16.1698 17.461 16.1948 17.461 16.2198C17.461 16.2419 17.461 16.263 17.4591 16.2851C17.4591 16.3092 17.4571 16.3332 17.4552 16.3572C17.4543 16.3822 17.4523 16.4062 17.4504 16.4312C17.4485 16.4533 17.4466 16.4764 17.4447 16.4985C17.4418 16.5264 17.4389 16.5552 17.436 16.5831C17.4331 16.6052 17.4302 16.6263 17.4274 16.6484C17.4235 16.6792 17.4187 16.71 17.4139 16.7417C17.41 16.7628 17.4062 16.784 17.4024 16.8051C17.3956 16.8416 17.3879 16.8782 17.3803 16.9147C17.3764 16.9339 17.3726 16.9531 17.3678 16.9724C17.3533 17.0329 17.338 17.0944 17.3197 17.1559C17.3062 17.2011 17.2918 17.2463 17.2764 17.2915C17.2716 17.3049 17.2668 17.3184 17.262 17.3318C17.2515 17.3626 17.2399 17.3943 17.2274 17.4251C17.2188 17.4462 17.2101 17.4683 17.2015 17.4895C17.1899 17.5164 17.1794 17.5442 17.1669 17.5712C17.1573 17.5923 17.1477 17.6144 17.138 17.6355C17.1275 17.6577 17.1169 17.6798 17.1063 17.7019C17.0861 17.7422 17.065 17.7836 17.0438 17.8239C17.0342 17.8422 17.0246 17.8605 17.0141 17.8787C16.9843 17.9316 16.9525 17.9844 16.9199 18.0373C16.917 18.0421 16.9141 18.0469 16.9112 18.0517C16.8939 18.0796 16.8737 18.1075 16.8555 18.1344C16.841 18.1555 16.8266 18.1776 16.8122 18.1988C16.7911 18.2276 16.769 18.2565 16.7469 18.2863C16.7315 18.3064 16.718 18.3257 16.7026 18.3458C16.6767 18.3785 16.6498 18.4102 16.6229 18.4429C16.6094 18.4593 16.5969 18.4746 16.5835 18.491C16.5421 18.539 16.4989 18.5861 16.4537 18.6332L17.7474 17.8816C17.7926 17.8345 17.8358 17.7874 17.8772 17.7394C17.8906 17.724 17.9031 17.7076 17.9166 17.6913C17.9435 17.6596 17.9714 17.6269 17.9964 17.5942C18.0117 17.574 18.0262 17.5539 18.0415 17.5337C18.0636 17.5048 18.0857 17.476 18.1059 17.4472C18.1213 17.4251 18.1357 17.4039 18.1501 17.3818C18.1684 17.3539 18.1876 17.327 18.2059 17.2991C18.2059 17.2991 18.2059 17.2982 18.2069 17.2972C18.2097 17.2934 18.2117 17.2886 18.2145 17.2847C18.2482 17.2319 18.2789 17.179 18.3087 17.1261C18.3193 17.1079 18.3289 17.0896 18.3385 17.0713C18.3606 17.031 18.3818 16.9897 18.401 16.9493C18.4058 16.9387 18.4125 16.9281 18.4173 16.9176C18.4231 16.906 18.4279 16.8945 18.4327 16.883C18.4423 16.8618 18.4519 16.8407 18.4616 16.8186C18.4731 16.7917 18.4846 16.7638 18.4962 16.7369C18.5048 16.7157 18.5135 16.6946 18.5221 16.6725C18.526 16.6609 18.5317 16.6504 18.5356 16.6388C18.5433 16.6186 18.55 16.5994 18.5567 16.5792C18.5615 16.5658 18.5663 16.5523 18.5711 16.5389C18.5865 16.4947 18.6009 16.4495 18.6134 16.4053C18.6134 16.4053 18.6134 16.4043 18.6134 16.4033C18.6317 16.3418 18.6471 16.2813 18.6615 16.2198C18.6634 16.213 18.6653 16.2073 18.6663 16.2005C18.6692 16.188 18.6711 16.1746 18.674 16.1621C18.6817 16.1256 18.6894 16.0881 18.6961 16.0516C18.698 16.041 18.7009 16.0304 18.7028 16.0198C18.7047 16.0093 18.7057 15.9987 18.7076 15.9891C18.7124 15.9583 18.7172 15.9266 18.7211 15.8959C18.723 15.8824 18.7259 15.868 18.7268 15.8545C18.7278 15.8468 18.7288 15.8382 18.7297 15.8305C18.7336 15.8026 18.7355 15.7738 18.7384 15.7459C18.7403 15.7305 18.7422 15.7142 18.7432 15.6988C18.7432 15.6921 18.7432 15.6854 18.7441 15.6786C18.7461 15.6536 18.747 15.6296 18.7489 15.6046C18.7499 15.5873 18.7518 15.57 18.7518 15.5527L18.7537 15.5498Z" stroke="#1C1E2D" stroke-width="0.3" stroke-linecap="round" stroke-linejoin="round"/>
<path d="M15.7396 13.1667C16.3663 13.5281 16.8132 14.025 17.0372 14.4124C17.5081 15.2274 17.8945 17.1257 16.4557 18.629C15.6493 16.5461 14.4824 14.5248 13.0801 12.7823C14.145 12.5333 15.0505 12.7688 15.7386 13.1667" fill="#F2F2F4"/>
<path d="M15.7396 13.1667C16.3663 13.5281 16.8132 14.025 17.0372 14.4124C17.5081 15.2274 17.8945 17.1257 16.4557 18.629C15.6493 16.5461 14.4824 14.5248 13.0801 12.7823C14.145 12.5333 15.0505 12.7688 15.7386 13.1667H15.7396Z" stroke="#1C1E2D" stroke-width="0.3" stroke-miterlimit="10"/>
<path d="M7.34459 19.8581C8.05777 20.2704 8.63542 21.269 8.63254 22.0889L8.62869 23.5595C8.62677 24.3794 7.77518 25.527 7.06201 25.1156L4.77541 22.8223C4.06127 22.4099 3.48457 21.4113 3.48746 20.5914L2.8877 19.5851C2.88962 18.7652 4.07376 17.9694 4.7879 18.3817L7.34555 19.8581H7.34459Z" fill="#FDA4AF"/>
<path d="M7.34459 19.8581C8.05776 20.2704 8.63542 21.269 8.63254 22.0889L8.62869 23.5595C8.62677 24.3794 7.77518 25.527 7.06201 25.1156L4.77541 22.8223C4.06127 22.4099 3.48457 21.4113 3.48746 20.5914L2.8877 19.5851C2.88962 18.7652 4.07376 17.9694 4.7879 18.3817L7.34555 19.8581H7.34459Z" stroke="#1C1E2D" stroke-width="0.3" stroke-miterlimit="10"/>
<path d="M6.71503 20.5992C7.42821 21.0116 8.00587 22.0102 8.00299 22.8301L7.99914 24.3006C7.99722 25.1205 7.41668 25.4511 6.70254 25.0388L4.1449 23.5625C3.43076 23.1501 2.85406 22.1515 2.85694 21.3316L2.86079 19.8611C2.86271 19.0412 3.44325 18.7096 4.15739 19.1219L6.71503 20.5983V20.5992Z" fill="#BD8AEB"/>
<path d="M6.71503 20.5992C7.42821 21.0116 8.00587 22.0102 8.00298 22.8301L7.99914 24.3006C7.99722 25.1205 7.41668 25.4511 6.70254 25.0388L4.1449 23.5625C3.43076 23.1501 2.85406 22.1515 2.85694 21.3316L2.86079 19.8611C2.86271 19.0412 3.44325 18.7096 4.15739 19.1219L6.71503 20.5983V20.5992Z" stroke="#1C1E2D" stroke-width="0.3" stroke-miterlimit="10"/>
<path d="M6.65102 21.9437C6.87785 22.0321 7.06143 22.2465 7.06047 22.4233L7.0547 23.4691C7.0547 23.645 6.8692 23.7161 6.64237 23.6277C6.41553 23.5392 6.23195 23.3249 6.23291 23.148L6.23868 22.1023C6.23868 21.9264 6.42418 21.8553 6.65102 21.9437Z" fill="#F2F2F4"/>
<path d="M6.65102 21.9437C6.87785 22.0321 7.06143 22.2465 7.06047 22.4233L7.0547 23.4691C7.0547 23.645 6.8692 23.7161 6.64237 23.6277C6.41553 23.5392 6.23195 23.3249 6.23291 23.148L6.23868 22.1023C6.23868 21.9264 6.42418 21.8553 6.65102 21.9437Z" stroke="#1C1E2D" stroke-width="0.3" stroke-miterlimit="10"/>
<path d="M4.21887 20.5824C4.44571 20.666 4.62929 20.8697 4.62833 21.037L4.62256 22.0299C4.62256 22.1971 4.43706 22.2644 4.21022 22.1808C3.98339 22.0962 3.79885 21.8934 3.79981 21.7252L3.80558 20.7323C3.80558 20.5651 3.99108 20.4978 4.21887 20.5814" fill="#F2F2F4"/>
<path d="M4.21887 20.5824C4.44571 20.666 4.62929 20.8697 4.62833 21.037L4.62256 22.0299C4.62256 22.1971 4.43706 22.2644 4.21022 22.1808C3.98339 22.0962 3.79885 21.8934 3.79981 21.7252L3.80558 20.7323C3.80558 20.5651 3.99108 20.4978 4.21887 20.5814V20.5824Z" stroke="#1C1E2D" stroke-width="0.3" stroke-miterlimit="10"/>
<path d="M19.7634 5.87687C19.4356 5.77691 19.0733 5.81343 18.7455 5.92108C18.387 6.03931 18.0621 6.2373 17.7401 6.43434C17.5642 6.54199 14.3136 8.4201 14.1127 8.5364C14.0147 8.5931 13.9157 8.64981 13.8176 8.70652C13.734 8.75458 13.5879 8.80744 13.5293 8.88145C13.6052 8.98237 13.8984 8.98333 14.0137 8.9843C14.1887 8.9843 14.3636 8.95546 14.5299 8.90452C14.8653 8.80264 15.171 8.62194 15.4728 8.44412C15.7217 8.29707 15.9697 8.15001 16.2186 8.00295C16.2763 7.96931 19.4471 6.14407 19.8547 5.90955C19.8249 5.89802 19.7941 5.88744 19.7634 5.87783" fill="#1A1E2E"/>
<path d="M19.6051 5.85325C19.5945 5.84941 19.5839 5.84652 19.5734 5.84268C19.2869 5.79078 18.9832 5.83018 18.7035 5.92246C18.345 6.04068 18.0201 6.23868 17.6981 6.43571C17.5222 6.54336 14.2716 8.42147 14.0707 8.53777C13.9727 8.59448 13.8737 8.65118 13.7757 8.70789C13.692 8.75595 13.5459 8.80881 13.4873 8.88282C13.4979 8.89628 13.5123 8.90877 13.5296 8.91839C13.6199 8.92896 13.6757 8.96933 13.8429 8.91839C14.1784 8.8165 18.221 6.21465 19.6041 5.85325" fill="#524EDF"/>
<path d="M19.6051 5.85325C19.5945 5.84941 19.5839 5.84652 19.5734 5.84268C19.2869 5.79078 18.9832 5.83018 18.7035 5.92246C18.345 6.04068 18.0201 6.23868 17.6981 6.43571C17.5222 6.54336 14.2716 8.42147 14.0707 8.53777C13.9727 8.59448 13.8737 8.65118 13.7757 8.70789C13.692 8.75595 13.5459 8.80881 13.4873 8.88282C13.4979 8.89628 13.5123 8.90877 13.5296 8.91839C13.6199 8.92896 13.6757 8.96933 13.8429 8.91839C14.1784 8.8165 18.221 6.21465 19.6041 5.85325H19.6051Z" stroke="#1A1E2E" stroke-width="0.3" stroke-linecap="round" stroke-linejoin="round"/>
<path d="M26.6363 17.2866C22.1836 21.0194 19.2845 24.2847 18.9498 29.287C18.615 34.2956 26.51 38.4767 28.8596 38.4767C33.3629 38.4767 36.4324 35.2366 37.1082 34.7629C38.4156 33.8408 39.0662 30.6765 38.8893 29.287C38.2072 23.8742 35.8071 21.2152 30.7607 17.2866H26.6363Z" fill="#6B91FC"/>
<path fill-rule="evenodd" clip-rule="evenodd" d="M26.6019 17.1918H30.7932L30.8189 17.2118C33.3432 19.1768 35.2141 20.8307 36.5386 22.6748C37.8652 24.5218 38.6406 26.5552 38.9834 29.2749C39.0739 29.9866 38.9526 31.1386 38.6466 32.2258C38.4933 32.7706 38.2926 33.3029 38.0463 33.7586C37.8007 34.2133 37.5063 34.598 37.1629 34.8403C37.0723 34.9038 36.9346 35.0212 36.753 35.1761C35.6212 36.1418 32.7739 38.5714 28.8596 38.5714C28.2518 38.5714 27.3029 38.3033 26.2346 37.8317C25.163 37.3587 23.96 36.6759 22.8412 35.8357C20.6106 34.1606 18.6845 31.836 18.8553 29.2806C19.1928 24.2369 22.1195 20.9493 26.5755 17.2139L26.6019 17.1918ZM26.6708 17.3813C22.2363 21.102 19.3757 24.3422 19.0443 29.2932C18.8804 31.7463 20.7344 34.0166 22.955 35.6842C24.0618 36.5154 25.2522 37.191 26.3112 37.6584C27.3736 38.1274 28.2927 38.3819 28.8596 38.3819C32.6896 38.3819 35.4665 36.0204 36.6181 35.0411C36.8088 34.8789 36.9548 34.7547 37.0538 34.6853C37.364 34.4665 37.6412 34.1099 37.8796 33.6686C38.1176 33.2282 38.3136 32.7097 38.4642 32.1745C38.7662 31.1016 38.8817 29.9767 38.7954 29.2988C38.456 26.6058 37.6903 24.6032 36.3847 22.7854C35.0815 20.9709 33.2373 19.3359 30.7282 17.3813H30.7607V17.2865L30.7025 17.3613C30.7111 17.3679 30.7196 17.3746 30.7282 17.3813H26.6708Z" fill="black"/>
<path d="M33.3362 14.8235L30.7593 17.2867L28.7382 18.1836C28.7382 18.1836 27.1087 17.6088 26.635 17.2867C25.7949 16.7183 24.0454 14.8487 24.0454 14.8487L33.3362 14.8235Z" fill="#514ED8"/>
<path fill-rule="evenodd" clip-rule="evenodd" d="M36.0947 23.3388C36.0863 24.2128 36.1879 24.9771 36.5908 25.6001C36.7329 25.8198 36.67 26.1131 36.4504 26.2552C36.2307 26.3972 35.9374 26.3343 35.7953 26.1147C35.2383 25.2534 35.1385 24.258 35.1473 23.3298C35.151 22.9473 35.1737 22.5599 35.1954 22.1907C35.2001 22.1111 35.2047 22.0323 35.2091 21.9546C35.2342 21.5088 35.2514 21.094 35.2313 20.7084C35.1913 19.9383 35.007 19.3685 34.5225 18.9719C34.0171 18.5581 33.0891 18.2518 31.3605 18.2719C31.099 18.2749 30.8844 18.0653 30.8814 17.8037C30.8783 17.5421 31.0879 17.3276 31.3495 17.3245C33.1548 17.3036 34.3585 17.6131 35.1227 18.2389C35.908 18.8818 36.1315 19.7753 36.1774 20.6592C36.2004 21.1007 36.1802 21.5605 36.155 22.0079C36.1503 22.0906 36.1455 22.1728 36.1407 22.2545C36.1191 22.6227 36.0981 22.9819 36.0947 23.3388Z" fill="white"/>
<path fill-rule="evenodd" clip-rule="evenodd" d="M30.8389 17.55C30.9724 17.325 31.263 17.2508 31.488 17.3843C32.2322 17.826 32.7934 18.4056 33.0921 19.1727C33.3889 19.9345 33.405 20.8253 33.1667 21.8526C33.1075 22.1074 32.853 22.2661 32.5982 22.207C32.3433 22.1478 32.1847 21.8933 32.2438 21.6384C32.4539 20.733 32.4163 20.048 32.2094 19.5166C32.0044 18.9905 31.6119 18.5595 31.0045 18.1991C30.7795 18.0656 30.7054 17.7749 30.8389 17.55Z" fill="white"/>
<path fill-rule="evenodd" clip-rule="evenodd" d="M31.9004 17.1413C32.04 17.3626 31.9738 17.6551 31.7526 17.7947C30.3568 18.6754 28.9678 18.6855 27.9431 18.4799C27.4322 18.3774 27.008 18.2208 26.7104 18.0895C26.5613 18.0237 26.4428 17.9637 26.36 17.9191C26.3186 17.8968 26.2859 17.8783 26.2627 17.8648C26.2511 17.8581 26.2419 17.8526 26.235 17.8485L26.2266 17.8433L26.2238 17.8416L26.2227 17.8409L26.2223 17.8407C26.2221 17.8405 26.2219 17.8404 26.4723 17.4383L26.2219 17.8404C25.9998 17.7021 25.9319 17.41 26.0702 17.1879C26.2083 16.9662 26.4997 16.8981 26.7217 17.0356L26.724 17.037L26.7391 17.0459C26.7537 17.0544 26.7772 17.0677 26.8089 17.0848C26.8724 17.119 26.9686 17.1679 27.093 17.2228C27.3423 17.3328 27.7001 17.4648 28.1295 17.551C28.9854 17.7228 30.1101 17.7108 31.2471 16.9935C31.4683 16.8539 31.7609 16.9201 31.9004 17.1413Z" fill="white"/>
<path d="M31.8834 15.4361C33.7846 15.0003 34.1951 14.1034 32.5087 13.5729C30.8224 13.0423 27.8159 13.0044 25.7822 13.4971C23.7485 13.9897 23.4579 14.8234 25.138 15.3603C26.818 15.8971 29.8371 15.9035 31.8834 15.4361Z" fill="#6B91FC"/>
<path fill-rule="evenodd" clip-rule="evenodd" d="M29.277 13.0564C30.4985 13.0707 31.6819 13.2133 32.5373 13.4824C32.9647 13.6168 33.2718 13.778 33.4563 13.9587C33.645 14.1436 33.7114 14.3571 33.6303 14.5732C33.5536 14.7774 33.3527 14.9611 33.0661 15.1186C32.7766 15.2778 32.3855 15.4181 31.9048 15.5283L31.9047 15.5283C30.8728 15.764 29.5989 15.8797 28.3727 15.8694C27.1476 15.8591 25.9622 15.7229 25.1093 15.4504C24.6842 15.3146 24.3723 15.1567 24.1803 14.9819C23.9854 14.8045 23.9032 14.5969 23.9781 14.381C24.0484 14.1782 24.2492 13.9963 24.5423 13.8372C24.839 13.676 25.2471 13.5291 25.7601 13.4049C26.7865 13.1562 28.0548 13.0421 29.277 13.0564ZM29.2748 13.2459C28.0638 13.2317 26.812 13.345 25.8047 13.589C25.3008 13.7111 24.9099 13.8532 24.6327 14.0037C24.3518 14.1562 24.2037 14.3087 24.1571 14.443C24.1151 14.5642 24.1483 14.6965 24.3078 14.8418C24.4703 14.9897 24.7521 15.1373 25.167 15.2699C25.9942 15.5343 27.1583 15.6697 28.3743 15.6799C29.5893 15.6901 30.8481 15.5753 31.8625 15.3436C32.3324 15.2359 32.7055 15.1007 32.9749 14.9526C33.2473 14.8028 33.4 14.6474 33.4529 14.5066C33.5013 14.3776 33.4729 14.2403 33.3237 14.0941C33.1703 13.9438 32.8963 13.7939 32.4805 13.6631C31.6495 13.4017 30.4865 13.26 29.2748 13.2459Z" fill="black"/>
<path fill-rule="evenodd" clip-rule="evenodd" d="M26.7243 26.3703L28.1134 27.168V26.1945L23.8501 23.7507V24.9263L24.5898 25.348C25.3048 25.7542 25.7623 26.3185 25.9438 27.0163L23.8564 25.8156V26.7893L26.0162 28.0297C25.9748 28.4148 25.8363 28.6284 25.642 28.709C25.425 28.7991 25.0763 28.7524 24.5696 28.4633L23.8564 28.0509V29.1449L23.8688 29.1707C24.7646 31.0444 25.4586 32.628 26.2039 34.3333L26.2205 34.3712L27.5024 35.1139L27.3515 34.7633C26.6044 33.0278 25.8507 31.2953 25.1473 29.8282C25.6357 30.0223 26.0657 30.0378 26.4045 29.8505C26.7762 29.6448 26.9951 29.2189 27.0703 28.6349L28.1197 29.2401V28.2659L27.0709 27.6684C27.0221 27.1846 26.8978 26.7533 26.7243 26.3703ZM26.1238 27.2656C26.1154 27.2106 26.1055 27.1563 26.094 27.1028C25.9256 26.3137 25.4329 25.6818 24.6522 25.2382L23.9764 24.8529V23.9687L23.9765 23.9688V24.8529L24.6524 25.2382C25.4861 25.7119 25.9913 26.4004 26.124 27.2657L26.1238 27.2656ZM23.9827 26.034L23.9829 26.0341V26.7162L26.1492 27.9604C26.1019 28.6369 25.7818 28.9733 25.1914 28.8526C25.7817 28.9732 26.1018 28.6369 26.1491 27.9604L23.9827 26.7161V26.034ZM23.9829 28.2699L23.9827 28.2699V29.1162C24.8796 30.9921 25.5744 32.5774 26.3196 34.2827L27.2355 34.8132L27.2354 34.8132L26.3198 34.2827C25.5745 32.5774 24.8797 30.9921 23.9829 29.1162V28.2699ZM24.8798 29.5647C24.9424 29.5978 25.0039 29.6281 25.0641 29.6555C25.204 29.719 25.3372 29.7673 25.4636 29.8006C25.2828 29.7529 25.0878 29.6746 24.8797 29.5647C24.8797 29.5647 24.8797 29.5647 24.8798 29.5647ZM26.964 28.4278L27.9934 29.0215V29.0214L26.964 28.4278C26.964 28.4278 26.964 28.4278 26.964 28.4278ZM26.4146 26.0467C26.4145 26.0467 26.4145 26.0467 26.4145 26.0467L27.9871 26.9498V26.9498L26.4146 26.0467Z" fill="black"/>
</svg>
