<svg width="40" height="40" viewBox="0 0 40 40" fill="none" xmlns="http://www.w3.org/2000/svg">
<g clip-path="url(#clip0_1378_78575)">
<path d="M23.6812 27.8039C23.6812 30.8854 20.6198 37.8742 18.4648 39.1128C18.4648 39.1128 16.2292 37.8943 15.5243 37.3505C14.769 36.7665 14.2856 35.5882 14.2856 33.977C14.2856 30.8854 16.0278 27.3709 18.1929 26.1423C19.1294 25.6086 19.9955 25.5885 20.6702 26.0014C21.5463 26.5351 23.6711 27.8039 23.6711 27.8039H23.6812Z" fill="#EC7278"/>
<path fill-rule="evenodd" clip-rule="evenodd" d="M20.6154 26.0925C19.9826 25.7052 19.1594 25.7153 18.2471 26.2352C17.1895 26.8353 16.225 28.0011 15.5245 29.4085C14.8246 30.8145 14.394 32.4498 14.394 33.9768C14.394 35.5713 14.8727 36.7101 15.591 37.2655C15.9367 37.5322 16.665 37.969 17.3135 38.3425C17.6365 38.5285 17.9375 38.6975 18.1578 38.8201C18.2679 38.8813 18.3578 38.931 18.4202 38.9653L18.4638 38.9892C18.9674 38.6798 19.5324 38.0427 20.1013 37.1966C20.6872 36.3252 21.2691 35.2447 21.7847 34.105C22.803 31.8541 23.5532 29.3931 23.5748 27.8702L23.2716 27.689C23.0587 27.5617 22.7657 27.3864 22.4453 27.1945C21.8046 26.8106 21.0539 26.3596 20.6154 26.0925ZM23.7019 27.6965H23.7895V27.8037C23.7895 29.3682 23.0161 31.903 21.9799 34.1934C21.4608 35.3409 20.8733 36.4324 20.2791 37.3161C19.6873 38.1963 19.0806 38.8829 18.5194 39.2055L18.4674 39.2354L18.4147 39.2067L18.3893 39.1928L18.3169 39.153C18.2543 39.1186 18.164 39.0688 18.0536 39.0073C17.8327 38.8844 17.5307 38.7148 17.2066 38.5282C16.5612 38.1565 15.8193 37.7123 15.46 37.4351C14.6678 36.8225 14.1797 35.6047 14.1797 33.9768C14.1797 32.4122 14.6201 30.7444 15.3326 29.3131C16.0444 27.8832 17.0336 26.6774 18.1411 26.049C19.1018 25.5015 20.0108 25.4712 20.7273 25.9097C21.165 26.1764 21.9148 26.6267 22.5555 27.0106C22.8758 27.2026 23.1687 27.3778 23.3816 27.5051L23.7019 27.6965Z" fill="#1C1E2C"/>
<path d="M24.7901 31.1973C24.7901 34.2788 23.048 37.7833 20.8929 39.0118C18.7379 40.2505 16.9756 38.7399 16.9756 35.6484C16.9756 32.5568 18.7177 29.0423 20.8828 27.8137C23.0379 26.5851 24.7901 28.0957 24.7901 31.1872V31.1973Z" fill="#EFA7AF"/>
<path fill-rule="evenodd" clip-rule="evenodd" d="M23.5758 27.9619C22.9103 27.3876 21.9847 27.3099 20.9371 27.9071L20.9369 27.9072C19.8793 28.5074 18.915 29.6731 18.2144 31.0805C17.5146 32.4864 17.0839 34.1217 17.0839 35.6487C17.0839 37.1784 17.5203 38.2922 18.1971 38.873C18.8649 39.4461 19.793 39.5215 20.8407 38.9193L20.841 38.9191C21.8938 38.319 22.8556 37.1557 23.5549 35.752C24.2535 34.3498 24.6841 32.7196 24.6841 31.1977V31.1876C24.6841 29.6578 24.2502 28.5439 23.5758 27.9619ZM23.7158 27.7997C24.4563 28.4387 24.8984 29.6258 24.8984 31.1876V31.1977C24.8984 32.7573 24.458 34.42 23.7467 35.8476C23.0363 37.2736 22.0496 38.4767 20.9473 39.1052C19.84 39.7415 18.8095 39.6809 18.0575 39.0356C17.3144 38.3979 16.8696 37.2106 16.8696 35.6487C16.8696 34.0842 17.3101 32.4164 18.0226 30.985C18.7343 29.5552 19.7236 28.3494 20.8311 27.7209C21.9384 27.0897 22.9664 27.1529 23.7158 27.7997Z" fill="#1C1E2C"/>
<path d="M22.253 2.08964C22.253 5.17114 19.1916 12.1599 17.0366 13.3985C17.0366 13.3985 14.801 12.18 14.0961 11.6362C13.3408 11.0522 12.8574 9.87395 12.8574 8.2627C12.8574 5.17114 14.5996 1.65662 16.7647 0.428046C17.7012 -0.105678 18.5673 -0.125818 19.242 0.287062C20.1181 0.820786 22.2429 2.08964 22.2429 2.08964H22.253Z" fill="#EC7278"/>
<path fill-rule="evenodd" clip-rule="evenodd" d="M19.1872 0.378207C18.5543 -0.00907622 17.7312 0.000981212 16.8189 0.520888C15.7613 1.12102 14.7968 2.28685 14.0962 3.69425C13.3964 5.10018 12.9658 6.73546 12.9658 8.26246C12.9658 9.85694 13.4445 10.9957 14.1627 11.5512C14.5083 11.8178 15.2367 12.2547 15.8853 12.6282C16.2082 12.8142 16.5092 12.9832 16.7295 13.1058C16.8397 13.167 16.9296 13.2167 16.992 13.251L17.0356 13.2749C17.5392 12.9655 18.1041 12.3284 18.6731 11.4823C19.259 10.6109 19.8409 9.53044 20.3565 8.39075C21.3748 6.1398 22.125 3.6788 22.1465 2.15593L21.8434 1.97475C21.6305 1.84745 21.3375 1.67214 21.0171 1.48016C20.3764 1.09626 19.6257 0.645305 19.1872 0.378207ZM22.2736 1.98225H22.3613V2.08939C22.3613 3.65387 21.5879 6.1887 20.5517 8.47907C20.0326 9.62659 19.4451 10.7181 18.8509 11.6018C18.2591 12.482 17.6523 13.1686 17.0912 13.4912L17.0392 13.5211L16.9865 13.4924L16.961 13.4785L16.8887 13.4387C16.8261 13.4043 16.7358 13.3545 16.6253 13.293C16.4044 13.1701 16.1025 13.0005 15.7784 12.8139C15.1329 12.4422 14.3911 11.998 14.0318 11.7208C13.2396 11.1082 12.7515 9.89039 12.7515 8.26246C12.7515 6.69789 13.1919 5.03012 13.9044 3.59876C14.6161 2.16893 15.6054 0.963153 16.7128 0.334695C17.6735 -0.212788 18.5824 -0.243041 19.2989 0.195333C19.7366 0.461961 20.4865 0.912396 21.1272 1.29635C21.4476 1.48829 21.7405 1.66356 21.9534 1.79084L22.2736 1.98225Z" fill="#1C1E2C"/>
<path d="M23.3619 5.47323C23.3619 8.55473 21.6197 12.0592 19.4647 13.2878C17.3097 14.5264 15.5474 13.0159 15.5474 9.92428C15.5474 6.83272 17.2895 3.3182 19.4546 2.08962C21.6097 0.861054 23.3619 2.37159 23.3619 5.46316V5.47323Z" fill="#EFA7AF"/>
<path fill-rule="evenodd" clip-rule="evenodd" d="M22.1476 2.23714C21.4821 1.66286 20.5565 1.58514 19.5089 2.18239L19.5087 2.1825C18.4511 2.78263 17.4868 3.94836 16.7862 5.35576C16.0863 6.76169 15.6557 8.39697 15.6557 9.92397C15.6557 11.4536 16.0921 12.5675 16.7689 13.1482C17.4367 13.7213 18.3648 13.7967 19.4125 13.1945L19.4128 13.1944C20.4655 12.5942 21.4274 11.4309 22.1267 10.0272C22.8253 8.62505 23.2559 6.99482 23.2559 5.47292V5.46285C23.2559 3.93307 22.822 2.81914 22.1476 2.23714ZM22.2876 2.07491C23.028 2.71393 23.4702 3.90106 23.4702 5.46285V5.47292C23.4702 7.03251 23.0297 8.69526 22.3185 10.1228C21.6081 11.5488 20.6215 12.7519 19.5193 13.3803C18.4119 14.0168 17.3814 13.9562 16.6293 13.3108C15.8862 12.6731 15.4414 11.4859 15.4414 9.92397C15.4414 8.3594 15.8818 6.69163 16.5943 5.26027C17.3061 3.83042 18.2954 2.62463 19.4028 1.99618C20.5102 1.36492 21.5382 1.42819 22.2876 2.07491Z" fill="#1C1E2C"/>
<path d="M4.29571 28.5632L4.28564 24.3437L30.5489 9.27864L30.5388 13.4679L4.29571 28.5632Z" fill="#B9E14A"/>
<path fill-rule="evenodd" clip-rule="evenodd" d="M30.6578 9.09366L30.6471 13.5302L4.19035 28.7484L4.17969 24.282L30.6578 9.09366ZM4.39427 24.406L4.40375 28.3785L30.4331 13.4061L30.4426 9.46412L4.39427 24.406Z" fill="#1C1E2C"/>
<path d="M27.3771 20.3766L25.8564 19.0675L29.3408 12.0687L25.8766 9.04758L27.3972 5.98622L30.8614 9.0073L32.3719 10.3265L30.8513 13.3879L27.3771 20.3766Z" fill="#B9E14A"/>
<path fill-rule="evenodd" clip-rule="evenodd" d="M27.3652 5.81393L30.934 8.92625L32.5068 10.2999L30.9494 13.4352L27.4138 20.5475L25.7256 19.094L29.2101 12.0947L25.746 9.07368L27.3652 5.81393ZM27.4336 6.15792L26.0115 9.02088L29.4757 12.042L25.9917 19.0404L27.3447 20.2052L30.7575 13.3399L32.2414 10.3525L30.7931 9.08775L27.4336 6.15792Z" fill="#1C1E2C"/>
<path d="M29.1194 10.2957L31.6672 11.7357L6.91447 25.9348L4.3667 24.4746L29.1194 10.2957Z" fill="#94B4F8"/>
<path d="M28.4848 20.6685L25.8564 19.0673L29.4112 14.3242L33.5098 11.5952L28.4848 20.6685Z" fill="#504ECD"/>
<path fill-rule="evenodd" clip-rule="evenodd" d="M33.817 11.2618L28.5246 20.8178L25.7002 19.0971L29.3368 14.2449L33.817 11.2618ZM29.4862 14.4029L26.0132 19.0369L28.4454 20.5186L33.2031 11.928L29.4862 14.4029Z" fill="#1C1E2C"/>
<path d="M35 11.9176L33.4895 14.979L30.1764 21.6253L28.4845 20.6687L30.5087 16.5902L6.91406 30.1548V25.9354L30.5187 12.3909L28.5047 10.6488L30.0253 7.57733L33.4995 10.6085L35 11.9176Z" fill="#B9E14A"/>
<path fill-rule="evenodd" clip-rule="evenodd" d="M29.9922 7.40503L35.1338 11.8909L33.5867 15.0262L30.2231 21.774L28.3446 20.7118L30.2567 16.8592L6.80811 30.3399V25.8732L30.3356 12.373L28.3731 10.6754L29.9922 7.40503ZM30.0608 7.74931L28.6387 10.6218L30.7042 12.4085L7.02239 25.9973V29.9695L30.763 16.3209L28.6268 20.6252L30.132 21.4763L33.3946 14.9314L34.8686 11.944L30.0608 7.74931Z" fill="#1C1E2C"/>
<path d="M30.0279 7.57732L27.3995 5.98622L25.8789 9.04758L28.5072 10.6488L30.0279 7.57732Z" fill="white"/>
<path fill-rule="evenodd" clip-rule="evenodd" d="M27.353 5.83417L30.1651 7.53656L28.549 10.801L25.7368 9.08786L27.353 5.83417ZM27.4413 6.13811L26.0162 9.00713L28.4607 10.4963L29.8857 7.61792L27.4413 6.13811Z" fill="#1C1E2C"/>
<path d="M4.29688 28.5632L6.91514 30.1543V25.9348L4.36737 24.4746L4.29688 28.5632Z" fill="#504ECD"/>
<path fill-rule="evenodd" clip-rule="evenodd" d="M4.26267 24.2919L7.02159 25.8731V30.3451L4.18799 28.6232L4.26267 24.2919ZM4.47067 24.6581L4.40436 28.5039L6.8073 29.9641V25.9973L4.47067 24.6581Z" fill="#1C1E2C"/>
</g>
<defs>
<clipPath id="clip0_1378_78575">
<rect width="40" height="40" fill="white"/>
</clipPath>
</defs>
</svg>
