<svg width="40" height="40" viewBox="0 0 40 40" fill="none" xmlns="http://www.w3.org/2000/svg">
<path d="M29.1854 24.5228L7.27113 37.2728L7.22827 16.0156L29.2426 3.42993L29.1854 24.5228Z" fill="#6B91FC" stroke="#1C1E2C" stroke-width="0.3" stroke-miterlimit="10"/>
<path d="M29.2211 10.6942L23.0568 14.2371L13.4068 19.7942L7.24256 23.3371L7.22827 16.0156L29.2426 3.42993L29.2211 10.6942Z" fill="#504ECD" stroke="#1C1E2C" stroke-width="0.3" stroke-miterlimit="10"/>
<path d="M22.9934 15.3171C22.9926 15.6737 22.8019 16.003 22.4929 16.1811L14.3113 20.8979C13.9784 21.0898 13.5624 20.8502 13.5616 20.4659L13.5577 18.7809C13.5569 18.422 13.7485 18.0901 14.0598 17.9114L22.2483 13.2102C22.5821 13.0185 22.9982 13.26 22.9973 13.6449L22.9934 15.3171Z" fill="#94B4F8" stroke="#1C1E2C" stroke-width="0.3" stroke-miterlimit="10"/>
<path d="M2.60693 13.4014L7.22836 16.0585L7.27122 37.2728L2.67122 34.5799L2.60693 13.4014Z" fill="#94B4F8" stroke="#1C1E2C" stroke-width="0.3" stroke-miterlimit="10"/>
<path d="M29.2426 3.42992L24.6355 0.837067L2.58545 13.3942L7.19259 16.0371L29.2426 3.42992Z" fill="#94B4F8" stroke="#1C1E2C" stroke-width="0.3" stroke-miterlimit="10"/>
<path d="M19.4784 1.62991L20.6213 2.27991L13.357 6.40848L12.2141 5.75848L19.4784 1.62991Z" fill="#94B4F8" stroke="#1C1E2C" stroke-width="0.3" stroke-linejoin="round"/>
<path d="M13.3641 10.6799L12.2213 10.0299L12.2141 5.75848L13.357 6.40848L13.3641 10.6799Z" fill="#94B4F8" stroke="#1C1E2C" stroke-width="0.3" stroke-linejoin="round"/>
<path d="M19.0498 7.45135L17.9141 6.79421L17.9212 4.08707L19.0641 4.73707L19.0498 7.45135Z" fill="#94B4F8" stroke="#1C1E2C" stroke-width="0.3" stroke-linejoin="round"/>
<path d="M20.6212 6.52991L19.0498 7.42991L19.0569 4.70848L14.9426 7.05848V9.77991L13.3641 10.6799L13.3569 6.40848L20.6284 2.26562L20.6212 6.52991Z" fill="#504ECD" stroke="#1C1E2C" stroke-width="0.3" stroke-linejoin="round"/>
<path d="M20.6213 2.27991L19.4784 1.62991L12.2141 5.75848L13.357 6.40848L20.6213 2.27991Z" fill="#94B4F8" stroke="#1C1E2C" stroke-width="0.3" stroke-linejoin="round"/>
<path d="M29.4354 19.5085L29.4212 24.4942L16.7712 31.8514C16.3283 30.9228 16.0855 29.9299 16.1569 28.9085C16.4997 23.7585 21.2926 20.9228 25.8712 17.0871L27.7855 18.2442C28.3712 18.7014 28.9212 19.1228 29.4354 19.5085Z" fill="black"/>
<path d="M26.2426 17.6442C21.664 21.4799 18.6854 24.8371 18.3426 29.9871C17.9997 35.1371 26.114 39.4371 28.5354 39.4371C33.1712 39.4371 36.3212 36.1085 37.0212 35.6156C38.364 34.6656 39.0354 31.4085 38.8497 29.9871C38.1497 24.4156 35.6783 21.6871 30.4854 17.6442H26.2426Z" fill="#EFA7AF"/>
<path d="M26.2426 17.6442C21.664 21.4799 18.6854 24.8371 18.3426 29.9871C17.9997 35.1371 26.114 39.4371 28.5354 39.4371C33.1712 39.4371 36.3212 36.1085 37.0212 35.6156C38.364 34.6656 39.0354 31.4085 38.8497 29.9871C38.1497 24.4156 35.6783 21.6871 30.4854 17.6442H26.2426Z" stroke="black" stroke-width="0.3" stroke-miterlimit="10"/>
<path d="M33.1355 15.1085L30.4855 17.6442L28.4069 18.5656C28.4069 18.5656 26.7284 17.9728 26.2427 17.6442C25.3784 17.0585 23.5784 15.1371 23.5784 15.1371L33.1355 15.1085Z" fill="#EC7278"/>
<path d="M36.071 26.4585C34.0925 23.4013 38.3639 18.0871 31.0996 18.1656" stroke="#F1F1F3" stroke-width="1.5" stroke-miterlimit="10" stroke-linecap="round"/>
<path d="M30.9854 18.1585C32.3782 18.9799 32.9425 20.2371 32.4854 22.2228" stroke="#F1F1F3" stroke-width="1.5" stroke-miterlimit="10" stroke-linecap="round"/>
<path d="M31.2425 17.7513C28.6353 19.3942 26.071 17.7942 26.071 17.7942" stroke="#F1F1F3" stroke-width="1.5" stroke-miterlimit="10" stroke-linecap="round"/>
<path d="M31.6426 15.7371C33.5998 15.2942 34.0212 14.3656 32.2855 13.8156C30.5498 13.2656 27.4569 13.2299 25.3641 13.7371C23.2712 14.2442 22.9712 15.1013 24.7069 15.6585C26.4426 16.2156 29.5426 16.2156 31.6426 15.7371Z" fill="#EFA7AF" stroke="black" stroke-width="0.3" stroke-miterlimit="10"/>
<path d="M27.6354 27.587L26.014 26.6585C26.2997 27.1442 26.5068 27.7228 26.564 28.4085L27.6354 29.0228V29.7228L26.5783 29.1156C26.4854 30.4942 25.6925 30.9442 24.4354 30.2871C25.1997 31.8585 26.0354 33.7728 26.8568 35.687L25.914 35.1442C25.1497 33.3871 24.4354 31.7585 23.514 29.8299V28.9585L24.0497 29.2656C25.1068 29.8728 25.6711 29.5656 25.7426 28.6371L23.514 27.3585V26.6585L25.714 27.9228C25.5783 27.0299 25.0568 26.3228 24.1997 25.837L23.5068 25.4371V24.5228L27.6354 26.8871V27.587Z" fill="black"/>
</svg>
