<svg width="40" height="40" viewBox="0 0 40 40" fill="none" xmlns="http://www.w3.org/2000/svg">
<g clip-path="url(#clip0_1378_79169)">
<path d="M22.8574 35.1754L11.1885 29.829L12.3642 11.8597L19.441 15.9028L22.8574 35.1754Z" fill="#ED5D7F" stroke="#1C1E2C" stroke-width="0.3" stroke-miterlimit="10"/>
<path d="M14.3609 13.6567V11.2886C14.3553 9.69131 15.0819 8.88159 15.9914 9.48611L16.0413 9.51938C16.9509 10.1239 17.6941 11.9153 17.6941 13.5236V15.9084" stroke="white" stroke-miterlimit="10"/>
<path d="M16.4286 38.4708L19.4411 35.1751H22.8575L19.4411 15.9026L17.1429 16.6851L15 18.1136L16.4286 38.4708Z" fill="#FF7478" stroke="#1C1E2C" stroke-width="0.3" stroke-miterlimit="10"/>
<path d="M7.14258 13.828L10.3569 13.4709L12.3636 11.8596L12.1584 15.6975L11.7854 22.0423L7.14258 13.828Z" fill="#FF7478" stroke="#1C1E2B" stroke-width="0.3" stroke-miterlimit="10"/>
<path d="M10.0001 16.0246V13.6676C9.98905 12.0814 10.6213 11.2828 11.4033 11.8873L11.4477 11.9205C12.2352 12.5251 12.8785 14.3109 12.8785 15.9082V18.2763" stroke="white" stroke-miterlimit="10"/>
<path d="M16.4659 38.5303L3.57129 30.971L7.15959 13.8282L15.157 18.204L16.4659 38.5303Z" fill="#FFA6B1" stroke="#1C1E2B" stroke-width="0.3" stroke-miterlimit="10"/>
<path d="M34.2171 28.3513L27.3139 24.5424L20.6978 28.2811L27.5436 32.1092L34.2171 28.3513Z" fill="#ED5D7F" stroke="#1C1E2B" stroke-width="0.3" stroke-miterlimit="10" stroke-linejoin="round"/>
<path d="M34.1862 36.5177L27.5317 40.2565L27.5445 32.1091L34.2181 28.3448L34.1862 36.5177Z" fill="#FF7478" stroke="#1C1E2B" stroke-width="0.3" stroke-miterlimit="10" stroke-linejoin="round"/>
<path d="M27.5308 40.2566L20.7041 36.352L20.6978 28.2748L27.5436 32.1093L27.5308 40.2566Z" fill="#FFA6B1" stroke="#1C1E2C" stroke-width="0.3" stroke-miterlimit="10" stroke-linejoin="round"/>
<path d="M19.164 5.33784C18.564 4.18784 18.2997 3.45927 17.7426 3.15927C16.4069 2.42355 15.5497 3.09498 15.5569 5.42355C15.5569 6.95212 16.114 9.14498 17.764 10.0664C18.1997 10.3093 18.8783 10.5736 19.3497 10.345V8.81641L17.2711 7.65212V5.01641L21.2854 7.25212V12.5593C20.7783 13.7807 18.3283 15.1236 16.7283 14.2593C12.9069 12.1878 13.2997 7.25212 13.2926 4.15927C13.2926 3.10212 12.3426 2.09498 12.6711 1.3307C12.6711 1.3307 15.714 -0.790733 17.7426 0.323553C18.8854 0.952124 19.8997 1.85212 20.9854 4.04498L19.164 5.33784Z" fill="#6262C9" stroke="#1C1E2C" stroke-width="0.3" stroke-linejoin="round"/>
<path d="M15.3999 6.06642L17.257 5.01642L21.2856 7.25213L19.4213 8.30928L15.3999 6.06642Z" fill="#6262C9" stroke="#1C1E2C" stroke-width="0.3" stroke-linejoin="round"/>
<path d="M17.7712 6.295C17.1712 5.145 16.4355 4.51643 15.8855 4.20929C14.5498 3.47357 13.6926 4.145 13.6998 6.47357C13.6998 8.00215 14.2569 10.195 15.9069 11.1164C16.3426 11.3593 17.0212 11.6236 17.4926 11.395V9.86643L15.414 8.70215V6.06643L19.4283 8.30215V13.6093C18.9212 14.8307 17.4855 14.8379 15.9069 13.945C12.6712 12.1236 11.4426 8.30929 11.4283 5.21643C11.414 2.11643 12.7998 -0.31214 15.8783 1.38072C17.0212 2.00929 18.0355 2.90929 19.1212 5.10215L17.764 6.295H17.7712Z" fill="#B9E14A" stroke="#1C1E2C" stroke-width="0.3" stroke-linejoin="round"/>
<path d="M32.3713 11.6021L30.0356 10.3664L28.0142 8.56642L29.9999 7.495L36.9927 11.1664L37.0213 14.0593L34.6427 12.8021L34.7499 22.2736L32.4856 21.045L32.3713 11.6021Z" fill="#6262C9" stroke="#1C1E2C" stroke-width="0.3" stroke-linejoin="round"/>
<path d="M34.6429 12.8021L32.6572 13.8736L32.7644 23.345L34.7501 22.2736L34.6429 12.8021Z" fill="#6262C9" stroke="#1C1E2C" stroke-width="0.3" stroke-linejoin="round"/>
<path d="M30.3856 12.6735L28.0499 11.4378L28.0142 8.56641L35.007 12.2378L35.0356 15.1307L32.657 13.8735L32.7642 23.345L30.4999 22.1164L30.3856 12.6735Z" fill="#B9E14A" stroke="#1C1E2C" stroke-width="0.3" stroke-linejoin="round"/>
<path d="M35.0354 15.1307L37.0211 14.0593L36.9854 11.1664L35.0068 12.2379L35.0354 15.1307Z" fill="#6262C9" stroke="#1C1E2C" stroke-width="0.3" stroke-linejoin="round"/>
<path d="M27.2427 9.76641C26.6641 8.82355 26.0855 9.95212 25.2784 7.87355C25.0427 7.27355 24.1498 7.54498 24.1569 8.20212C24.1569 9.05212 24.7212 9.47355 25.5427 10.0378C27.1998 11.1878 28.9498 13.1093 28.9641 15.9807C28.9784 18.8521 25.9855 20.1664 24.1212 19.1736C22.6284 18.3807 22.0569 16.0521 20.8998 13.6307L22.8784 12.3593C23.6998 13.9807 24.6141 14.6878 25.3141 15.0593C26.0855 15.4736 26.3641 15.5521 26.3641 14.8593C26.3641 14.2378 26.1355 13.395 25.2212 12.7807C23.4069 11.5593 20.3212 9.29498 20.2998 6.21641L22.4355 4.95212C23.0855 4.32355 24.1641 4.44498 25.2641 5.02355C26.5141 5.68069 27.4998 6.62355 28.4069 8.15212L27.2498 9.75927L27.2427 9.76641Z" fill="#6262C9" stroke="#1C1E2C" stroke-width="0.3" stroke-linejoin="round"/>
<path d="M25.2785 10.8235C24.6999 9.88069 24.0428 9.3164 23.3142 8.93069C22.7428 8.63069 22.1856 8.60212 22.1928 9.25926C22.1928 10.1093 22.757 10.5307 23.5785 11.095C25.2356 12.245 26.9856 14.1664 26.9999 17.0378C27.0142 19.9093 25.2285 20.1021 23.3642 19.1093C21.8713 18.3164 20.807 17.3521 19.6499 14.9378L20.9142 13.4235C21.7356 15.045 22.6499 15.7521 23.3499 16.1235C24.1213 16.5378 24.657 16.4235 24.6499 15.7307C24.6499 15.1093 24.1642 14.4664 23.2499 13.8521C21.4356 12.6307 19.8713 11.1093 19.8428 8.03069C19.8213 5.40926 21.5285 5.17355 23.2856 6.09497C24.5356 6.75212 25.5213 7.69497 26.4285 9.22355L25.2713 10.8307L25.2785 10.8235Z" fill="#B9E14A" stroke="#1C1E2C" stroke-width="0.3" stroke-miterlimit="10"/>
<path d="M25.2783 10.8235L27.2426 9.76638L28.3997 8.1521L26.4426 9.20924L25.2783 10.8235Z" fill="#6262C9" stroke="#1C1E2C" stroke-width="0.3" stroke-linejoin="round"/>
<path d="M20.9853 4.04498L19.121 5.10213L17.771 6.29498L19.6281 5.23784L20.9853 4.04498Z" fill="#6262C9" stroke="#1C1E2C" stroke-width="0.3" stroke-linejoin="round"/>
</g>
<defs>
<clipPath id="clip0_1378_79169">
<rect width="40" height="40" fill="white"/>
</clipPath>
</defs>
</svg>
