<svg width="40" height="40" viewBox="0 0 40 40" fill="none" xmlns="http://www.w3.org/2000/svg">
<g clip-path="url(#clip0_1378_77981)">
<path d="M36.4483 27.4142L21.1554 36.4785L21.1411 21.6285L29.4411 8.33563L36.5483 12.7428L36.4483 27.4142Z" fill="#94B4F8"/>
<path fill-rule="evenodd" clip-rule="evenodd" d="M29.408 8.18774L36.657 12.6829L36.5562 27.475L21.0497 36.6659L21.0352 21.5973L29.408 8.18774ZM29.4766 8.48244L21.2495 21.6586L21.2636 36.29L36.3427 27.3524L36.4419 12.8016L29.4766 8.48244Z" fill="#1C1E2C"/>
<path d="M30.0907 20.6712L28.9193 21.3497C27.8979 21.9426 27.2622 23.0426 27.2622 24.2212L27.2407 32.7212L31.9336 29.9497L31.9693 21.7569C31.9693 20.7926 30.9264 20.1855 30.0907 20.6712Z" fill="#1C1E2C"/>
<mask id="mask0_1378_77981" style="mask-type:luminance" maskUnits="userSpaceOnUse" x="27" y="20" width="5" height="13">
<path d="M30.0907 20.6712L28.9193 21.3497C27.8979 21.9426 27.2622 23.0426 27.2622 24.2212L27.2407 32.7212L31.9336 29.9497L31.9693 21.7569C31.9693 20.7926 30.9264 20.1855 30.0907 20.6712Z" fill="white"/>
</mask>
<g mask="url(#mask0_1378_77981)">
<path d="M29.6058 20.7423L31.9058 19.428V30.0137L30.7629 29.1994V21.8352C30.7629 21.3852 30.4701 20.9923 30.0415 20.8637L29.5986 20.728L29.6058 20.7423Z" fill="white"/>
</g>
<path d="M7.08566 28.178L21.1571 36.478L21.1428 21.678L6.97852 14.2208L7.08566 28.178Z" fill="#504ECD"/>
<path fill-rule="evenodd" clip-rule="evenodd" d="M6.86963 14.0429L21.2495 21.6136L21.264 36.666L6.97861 28.2398L6.86963 14.0429ZM7.08666 14.3994L7.19196 28.1168L21.0494 36.2906L21.0353 21.743L7.08666 14.3994Z" fill="#1C1E2C"/>
<path d="M15.6144 1.56387L29.443 8.3353L19.0858 26.1639L4.23584 18.0282L15.6144 1.56387Z" fill="#EC7278"/>
<path fill-rule="evenodd" clip-rule="evenodd" d="M15.5782 1.42715L29.5929 8.28973L19.1255 26.3081L4.07959 18.0651L15.5782 1.42715ZM15.6496 1.70072L4.39102 17.9914L19.0451 26.0198L29.292 8.38101L15.6496 1.70072Z" fill="#1C1E2C"/>
<path d="M19.085 26.1642L20.0421 26.7213L29.7778 10.3356L38.535 15.0285L39.0278 13.9713L29.4421 8.33563L19.085 26.1642Z" fill="white"/>
<path fill-rule="evenodd" clip-rule="evenodd" d="M29.402 8.18845L39.1645 13.9281L38.5827 15.1762L29.816 10.4783L20.0784 26.8671L18.937 26.2027L29.402 8.18845ZM29.4791 8.48234L19.2298 26.1252L20.0027 26.5751L29.7365 10.1925L38.4842 14.8803L38.888 14.0141L29.4791 8.48234Z" fill="#1C1E2C"/>
<path d="M29.7776 10.3354L28.9204 11.7782L36.5275 15.7211V13.7425L29.7776 10.3354Z" fill="#1C1E2C"/>
<path d="M8.44773 38.6068C12.6648 38.6068 16.0834 36.6337 16.0834 34.1997C16.0834 31.7657 12.6648 29.7925 8.44773 29.7925C4.23064 29.7925 0.812012 31.7657 0.812012 34.1997C0.812012 36.6337 4.23064 38.6068 8.44773 38.6068Z" fill="#B9E14A"/>
<path fill-rule="evenodd" clip-rule="evenodd" d="M3.10321 31.1759C1.7376 31.9641 0.92034 33.0369 0.92034 34.1994C0.92034 35.3619 1.7376 36.4347 3.10321 37.2229C4.46598 38.0095 6.35574 38.4994 8.44891 38.4994C10.5421 38.4994 12.4318 38.0095 13.7946 37.2229C15.1602 36.4347 15.9775 35.3619 15.9775 34.1994C15.9775 33.0369 15.1602 31.9641 13.7946 31.1759C12.4318 30.3893 10.5421 29.8994 8.44891 29.8994C6.35574 29.8994 4.46598 30.3893 3.10321 31.1759ZM2.99609 30.9903C4.3969 30.1818 6.325 29.6851 8.44891 29.6851C10.5728 29.6851 12.5009 30.1818 13.9017 30.9903C15.2997 31.7972 16.1918 32.9279 16.1918 34.1994C16.1918 35.4709 15.2997 36.6016 13.9017 37.4085C12.5009 38.217 10.5728 38.7137 8.44891 38.7137C6.325 38.7137 4.3969 38.217 2.99609 37.4085C1.59811 36.6016 0.706055 35.4709 0.706055 34.1994C0.706055 32.9279 1.59811 31.7972 2.99609 30.9903Z" fill="#1C1E2C"/>
<path d="M8.46189 36.8999C12.679 36.8999 16.0976 34.9268 16.0976 32.4928C16.0976 30.0588 12.679 28.0857 8.46189 28.0857C4.2448 28.0857 0.826172 30.0588 0.826172 32.4928C0.826172 34.9268 4.2448 36.8999 8.46189 36.8999Z" fill="#6B8FFA"/>
<path fill-rule="evenodd" clip-rule="evenodd" d="M3.11737 29.469C1.75176 30.2572 0.934501 31.33 0.934501 32.4925C0.934501 33.655 1.75176 34.7279 3.11737 35.5161C4.48014 36.3026 6.3699 36.7925 8.46307 36.7925C10.5562 36.7925 12.446 36.3026 13.8088 35.5161C15.1744 34.7279 15.9916 33.655 15.9916 32.4925C15.9916 31.33 15.1744 30.2572 13.8088 29.469C12.446 28.6824 10.5562 28.1925 8.46307 28.1925C6.3699 28.1925 4.48014 28.6824 3.11737 29.469ZM3.01025 29.2834C4.41106 28.4749 6.33916 27.9782 8.46307 27.9782C10.587 27.9782 12.5151 28.4749 13.9159 29.2834C15.3139 30.0903 16.2059 31.221 16.2059 32.4925C16.2059 33.764 15.3139 34.8948 13.9159 35.7016C12.5151 36.5102 10.587 37.0068 8.46307 37.0068C6.33916 37.0068 4.41106 36.5102 3.01025 35.7016C1.61227 34.8948 0.720215 33.764 0.720215 32.4925C0.720215 31.221 1.61227 30.0903 3.01025 29.2834Z" fill="#1C1E2C"/>
<path d="M8.44821 35.5284C11.5607 35.5284 14.0839 34.0701 14.0839 32.2712C14.0839 30.4724 11.5607 29.0141 8.44821 29.0141C5.3357 29.0141 2.8125 30.4724 2.8125 32.2712C2.8125 34.0701 5.3357 35.5284 8.44821 35.5284Z" fill="white"/>
<path fill-rule="evenodd" clip-rule="evenodd" d="M4.51796 30.0606C3.51432 30.6406 2.92083 31.426 2.92083 32.271C2.92083 33.116 3.51432 33.9013 4.51796 34.4813C5.51879 35.0598 6.90853 35.421 8.4494 35.421C9.99027 35.421 11.38 35.0598 12.3808 34.4813C13.3845 33.9013 13.978 33.116 13.978 32.271C13.978 31.426 13.3845 30.6406 12.3808 30.0606C11.38 29.4822 9.99027 29.121 8.4494 29.121C6.90853 29.121 5.51879 29.4822 4.51796 30.0606ZM4.41074 29.8751C5.44963 29.2746 6.87775 28.9067 8.4494 28.9067C10.0211 28.9067 11.4492 29.2746 12.4881 29.8751C13.5242 30.4739 14.1923 31.3171 14.1923 32.271C14.1923 33.2248 13.5242 34.0681 12.4881 34.6669C11.4492 35.2673 10.0211 35.6353 8.4494 35.6353C6.87775 35.6353 5.44963 35.2673 4.41074 34.6669C3.37465 34.0681 2.70654 33.2248 2.70654 32.271C2.70654 31.3171 3.37465 30.4739 4.41074 29.8751Z" fill="#1C1E2C"/>
<path d="M0.828613 34.4993V32.6636C0.828613 32.6636 0.97147 33.9065 1.61433 34.4565" fill="#B9E14A"/>
<path fill-rule="evenodd" clip-rule="evenodd" d="M0.934501 33.5605V34.4997H0.720215V32.664L0.933211 32.6518L0.93386 32.6523L0.934136 32.6546L0.935364 32.6642C0.936495 32.6729 0.938262 32.686 0.940752 32.7029C0.945733 32.7367 0.953599 32.786 0.965035 32.8471C0.987932 32.9693 1.025 33.1378 1.0816 33.3228C1.19614 33.6973 1.38523 34.1209 1.68273 34.3754L1.54342 34.5383C1.24898 34.2864 1.05745 33.9055 0.934501 33.5605Z" fill="black"/>
<path d="M16.0704 34.4993V32.6636C16.0704 32.6636 15.9275 33.9065 15.2847 34.4565" fill="#B9E14A"/>
<path fill-rule="evenodd" clip-rule="evenodd" d="M15.9644 32.6518L15.9637 32.6522L15.9634 32.6545L15.9622 32.6642C15.9611 32.6729 15.9593 32.6859 15.9568 32.7028C15.9518 32.7367 15.944 32.786 15.9325 32.847C15.9096 32.9693 15.8726 33.1378 15.816 33.3228C15.7014 33.6973 15.5123 34.1209 15.2148 34.3754L15.3542 34.5382C15.6486 34.2863 15.8401 33.9055 15.9631 33.5604V34.4997H16.1774V32.664L15.9644 32.6518Z" fill="black"/>
<path d="M8.44773 35.664C12.6648 35.664 16.0834 33.6908 16.0834 31.2568C16.0834 28.8228 12.6648 26.8497 8.44773 26.8497C4.23064 26.8497 0.812012 28.8228 0.812012 31.2568C0.812012 33.6908 4.23064 35.664 8.44773 35.664Z" fill="#B9E14A"/>
<path fill-rule="evenodd" clip-rule="evenodd" d="M3.10321 28.233C1.7376 29.0212 0.92034 30.0941 0.92034 31.2566C0.92034 32.4191 1.7376 33.4919 3.10321 34.2801C4.46598 35.0666 6.35574 35.5566 8.44891 35.5566C10.5421 35.5566 12.4318 35.0666 13.7946 34.2801C15.1602 33.4919 15.9775 32.4191 15.9775 31.2566C15.9775 30.0941 15.1602 29.0212 13.7946 28.233C12.4318 27.4465 10.5421 26.9566 8.44891 26.9566C6.35574 26.9566 4.46598 27.4465 3.10321 28.233ZM2.99609 28.0474C4.3969 27.2389 6.325 26.7423 8.44891 26.7423C10.5728 26.7423 12.5009 27.2389 13.9017 28.0474C15.2997 28.8543 16.1918 29.9851 16.1918 31.2566C16.1918 32.5281 15.2997 33.6588 13.9017 34.4657C12.5009 35.2742 10.5728 35.7708 8.44891 35.7708C6.325 35.7708 4.3969 35.2742 2.99609 34.4657C1.59811 33.6588 0.706055 32.5281 0.706055 31.2566C0.706055 29.9851 1.59811 28.8543 2.99609 28.0474Z" fill="#1C1E2C"/>
<path d="M8.46189 33.9571C12.679 33.9571 16.0976 31.984 16.0976 29.55C16.0976 27.116 12.679 25.1428 8.46189 25.1428C4.2448 25.1428 0.826172 27.116 0.826172 29.55C0.826172 31.984 4.2448 33.9571 8.46189 33.9571Z" fill="#6B8FFA"/>
<path fill-rule="evenodd" clip-rule="evenodd" d="M3.11737 26.5262C1.75176 27.3144 0.934501 28.3872 0.934501 29.5497C0.934501 30.7122 1.75176 31.785 3.11737 32.5732C4.48014 33.3598 6.3699 33.8497 8.46307 33.8497C10.5562 33.8497 12.446 33.3598 13.8088 32.5732C15.1744 31.785 15.9916 30.7122 15.9916 29.5497C15.9916 28.3872 15.1744 27.3144 13.8088 26.5262C12.446 25.7396 10.5562 25.2497 8.46307 25.2497C6.3699 25.2497 4.48014 25.7396 3.11737 26.5262ZM3.01025 26.3406C4.41106 25.5321 6.33916 25.0354 8.46307 25.0354C10.587 25.0354 12.5151 25.5321 13.9159 26.3406C15.3139 27.1474 16.2059 28.2782 16.2059 29.5497C16.2059 30.8212 15.3139 31.9519 13.9159 32.7588C12.5151 33.5673 10.587 34.064 8.46307 34.064C6.33916 34.064 4.41106 33.5673 3.01025 32.7588C1.61227 31.9519 0.720215 30.8212 0.720215 29.5497C0.720215 28.2782 1.61227 27.1474 3.01025 26.3406Z" fill="#1C1E2C"/>
<path d="M8.44821 32.5855C11.5607 32.5855 14.0839 31.1273 14.0839 29.3284C14.0839 27.5295 11.5607 26.0713 8.44821 26.0713C5.3357 26.0713 2.8125 27.5295 2.8125 29.3284C2.8125 31.1273 5.3357 32.5855 8.44821 32.5855Z" fill="white"/>
<path fill-rule="evenodd" clip-rule="evenodd" d="M4.51796 27.1177C3.51432 27.6978 2.92083 28.4831 2.92083 29.3281C2.92083 30.1731 3.51432 30.9585 4.51796 31.5385C5.51879 32.1169 6.90853 32.4781 8.4494 32.4781C9.99027 32.4781 11.38 32.1169 12.3808 31.5385C13.3845 30.9585 13.978 30.1731 13.978 29.3281C13.978 28.4831 13.3845 27.6978 12.3808 27.1177C11.38 26.5393 9.99027 26.1781 8.4494 26.1781C6.90853 26.1781 5.51879 26.5393 4.51796 27.1177ZM4.41074 26.9322C5.44963 26.3318 6.87775 25.9638 8.4494 25.9638C10.0211 25.9638 11.4492 26.3318 12.4881 26.9322C13.5242 27.531 14.1923 28.3743 14.1923 29.3281C14.1923 30.282 13.5242 31.1252 12.4881 31.724C11.4492 32.3245 10.0211 32.6924 8.4494 32.6924C6.87775 32.6924 5.44963 32.3245 4.41074 31.724C3.37465 31.1252 2.70654 30.282 2.70654 29.3281C2.70654 28.3743 3.37465 27.531 4.41074 26.9322Z" fill="#1C1E2C"/>
<path d="M0.828613 31.5565V29.7208C0.828613 29.7208 0.97147 30.9637 1.61433 31.5137" fill="#B9E14A"/>
<path fill-rule="evenodd" clip-rule="evenodd" d="M0.934501 30.6176V31.5569H0.720215V29.7212L0.933211 29.709L0.93386 29.7094L0.934136 29.7117L0.935364 29.7214C0.936495 29.7301 0.938262 29.7431 0.940752 29.76C0.945733 29.7939 0.953599 29.8432 0.965035 29.9042C0.987932 30.0264 1.025 30.195 1.0816 30.38C1.19614 30.7545 1.38523 31.1781 1.68273 31.4326L1.54342 31.5954C1.24898 31.3435 1.05745 30.9627 0.934501 30.6176Z" fill="black"/>
<path d="M16.0704 31.5565V29.7208C16.0704 29.7208 15.9275 30.9637 15.2847 31.5137" fill="#B9E14A"/>
<path fill-rule="evenodd" clip-rule="evenodd" d="M15.9644 29.7089L15.9637 29.7094L15.9634 29.7117L15.9622 29.7214C15.9611 29.7301 15.9593 29.7431 15.9568 29.76C15.9518 29.7938 15.944 29.8431 15.9325 29.9042C15.9096 30.0264 15.8726 30.1949 15.816 30.38C15.7014 30.7544 15.5123 31.178 15.2148 31.4326L15.3542 31.5954C15.6486 31.3435 15.8401 30.9627 15.9631 30.6176V31.5568H16.1774V29.7211L15.9644 29.7089Z" fill="black"/>
<path d="M8.44773 32.7142C12.6648 32.7142 16.0834 30.7411 16.0834 28.3071C16.0834 25.8731 12.6648 23.9 8.44773 23.9C4.23064 23.9 0.812012 25.8731 0.812012 28.3071C0.812012 30.7411 4.23064 32.7142 8.44773 32.7142Z" fill="#B9E14A"/>
<path fill-rule="evenodd" clip-rule="evenodd" d="M3.10321 25.2833C1.7376 26.0715 0.92034 27.1443 0.92034 28.3068C0.92034 29.4693 1.7376 30.5422 3.10321 31.3304C4.46598 32.1169 6.35574 32.6068 8.44891 32.6068C10.5421 32.6068 12.4318 32.1169 13.7946 31.3304C15.1602 30.5422 15.9775 29.4693 15.9775 28.3068C15.9775 27.1443 15.1602 26.0715 13.7946 25.2833C12.4318 24.4967 10.5421 24.0068 8.44891 24.0068C6.35574 24.0068 4.46598 24.4967 3.10321 25.2833ZM2.99609 25.0977C4.3969 24.2892 6.325 23.7925 8.44891 23.7925C10.5728 23.7925 12.5009 24.2892 13.9017 25.0977C15.2997 25.9046 16.1918 27.0353 16.1918 28.3068C16.1918 29.5783 15.2997 30.7091 13.9017 31.5159C12.5009 32.3245 10.5728 32.8211 8.44891 32.8211C6.325 32.8211 4.3969 32.3245 2.99609 31.5159C1.59811 30.7091 0.706055 29.5783 0.706055 28.3068C0.706055 27.0353 1.59811 25.9046 2.99609 25.0977Z" fill="#1C1E2C"/>
<path d="M8.46189 31.0142C12.679 31.0142 16.0976 29.0411 16.0976 26.6071C16.0976 24.1731 12.679 22.2 8.46189 22.2C4.2448 22.2 0.826172 24.1731 0.826172 26.6071C0.826172 29.0411 4.2448 31.0142 8.46189 31.0142Z" fill="#6B8FFA"/>
<path fill-rule="evenodd" clip-rule="evenodd" d="M3.11737 23.5833C1.75176 24.3715 0.934501 25.4443 0.934501 26.6068C0.934501 27.7693 1.75176 28.8421 3.11737 29.6303C4.48014 30.4169 6.3699 30.9068 8.46307 30.9068C10.5562 30.9068 12.446 30.4169 13.8088 29.6303C15.1744 28.8421 15.9916 27.7693 15.9916 26.6068C15.9916 25.4443 15.1744 24.3715 13.8088 23.5833C12.446 22.7967 10.5562 22.3068 8.46307 22.3068C6.3699 22.3068 4.48014 22.7967 3.11737 23.5833ZM3.01025 23.3977C4.41106 22.5892 6.33916 22.0925 8.46307 22.0925C10.587 22.0925 12.5151 22.5892 13.9159 23.3977C15.3139 24.2046 16.2059 25.3353 16.2059 26.6068C16.2059 27.8783 15.3139 29.0091 13.9159 29.8159C12.5151 30.6244 10.587 31.1211 8.46307 31.1211C6.33916 31.1211 4.41106 30.6244 3.01025 29.8159C1.61227 29.0091 0.720215 27.8783 0.720215 26.6068C0.720215 25.3353 1.61227 24.2046 3.01025 23.3977Z" fill="#1C1E2C"/>
<path d="M8.44821 29.6357C11.5607 29.6357 14.0839 28.1774 14.0839 26.3785C14.0839 24.5797 11.5607 23.1214 8.44821 23.1214C5.3357 23.1214 2.8125 24.5797 2.8125 26.3785C2.8125 28.1774 5.3357 29.6357 8.44821 29.6357Z" fill="white"/>
<path fill-rule="evenodd" clip-rule="evenodd" d="M4.51796 24.1679C3.51432 24.7479 2.92083 25.5333 2.92083 26.3783C2.92083 27.2233 3.51432 28.0086 4.51796 28.5886C5.51879 29.1671 6.90853 29.5283 8.4494 29.5283C9.99027 29.5283 11.38 29.1671 12.3808 28.5886C13.3845 28.0086 13.978 27.2233 13.978 26.3783C13.978 25.5333 13.3845 24.7479 12.3808 24.1679C11.38 23.5895 9.99027 23.2283 8.4494 23.2283C6.90853 23.2283 5.51879 23.5895 4.51796 24.1679ZM4.41074 23.9824C5.44963 23.3819 6.87775 23.014 8.4494 23.014C10.0211 23.014 11.4492 23.3819 12.4881 23.9824C13.5242 24.5812 14.1923 25.4244 14.1923 26.3783C14.1923 27.3321 13.5242 28.1754 12.4881 28.7742C11.4492 29.3746 10.0211 29.7425 8.4494 29.7425C6.87775 29.7425 5.44963 29.3746 4.41074 28.7742C3.37465 28.1754 2.70654 27.3321 2.70654 26.3783C2.70654 25.4244 3.37465 24.5812 4.41074 23.9824Z" fill="#1C1E2C"/>
<path d="M0.828613 28.6136V26.7779C0.828613 26.7779 0.97147 28.0208 1.61433 28.5708" fill="#B9E14A"/>
<path fill-rule="evenodd" clip-rule="evenodd" d="M0.934501 27.6748V28.614H0.720215V26.7783L0.933211 26.7661L0.93386 26.7666L0.934136 26.7688L0.935364 26.7785C0.936495 26.7872 0.938262 26.8002 0.940752 26.8172C0.945733 26.851 0.953599 26.9003 0.965035 26.9613C0.987932 27.0836 1.025 27.2521 1.0816 27.4371C1.19614 27.8116 1.38523 28.2352 1.68273 28.4897L1.54342 28.6526C1.24898 28.4006 1.05745 28.0198 0.934501 27.6748Z" fill="black"/>
<path d="M16.0704 28.6136V26.7779C16.0704 26.7779 15.9275 28.0208 15.2847 28.5708" fill="#B9E14A"/>
<path fill-rule="evenodd" clip-rule="evenodd" d="M15.9644 26.7661L15.9637 26.7665L15.9634 26.7688L15.9622 26.7785C15.9611 26.7872 15.9593 26.8002 15.9568 26.8171C15.9518 26.851 15.944 26.9003 15.9325 26.9613C15.9096 27.0835 15.8726 27.2521 15.816 27.4371C15.7014 27.8116 15.5123 28.2352 15.2148 28.4897L15.3542 28.6525C15.6486 28.4006 15.8401 28.0198 15.9631 27.6747V28.614H16.1774V26.7783L15.9644 26.7661Z" fill="black"/>
<path fill-rule="evenodd" clip-rule="evenodd" d="M30.0385 20.5785C30.9464 20.0508 32.0781 20.7108 32.0781 21.7568L32.0421 30.011L27.1348 32.9091L27.1567 24.2211C27.1567 24.2211 27.1567 24.2212 27.1567 24.2211M31.8638 21.7566C31.8636 20.8742 30.9097 20.32 30.1462 20.7638L28.9747 21.4424C27.9862 22.0161 27.371 23.0809 27.371 24.2211L27.35 32.5331L31.8284 29.8884L31.8638 21.7566C31.8638 21.7567 31.8638 21.7565 31.8638 21.7566Z" fill="#1C1E2C"/>
</g>
<defs>
<clipPath id="clip0_1378_77981">
<rect width="38.45" height="37.2786" fill="white" transform="translate(0.714355 1.42856)"/>
</clipPath>
</defs>
</svg>
