<svg width="40" height="40" viewBox="0 0 40 40" fill="none" xmlns="http://www.w3.org/2000/svg">
<g clip-path="url(#clip0_1542_92607)">
<path d="M2.50106 25.9725L16.5225 34.2796L16.5296 20.6653L8.92249 8.48676L2.4082 12.5296L2.50106 25.9725Z" fill="#94B4F8" stroke="#1C1E2C" stroke-width="0.3" stroke-miterlimit="10"/>
<path d="M8.32934 19.7939L9.40077 20.4153C10.3365 20.9582 10.9151 21.9653 10.9222 23.051L10.9365 30.8368L6.63648 28.2939L6.60791 20.7868C6.60791 19.901 7.56505 19.3439 8.32934 19.7939Z" fill="#1C1E2C"/>
<mask id="mask0_1542_92607" style="mask-type:luminance" maskUnits="userSpaceOnUse" x="6" y="19" width="5" height="12">
<path d="M8.32934 19.7939L9.40077 20.4153C10.3365 20.9582 10.9151 21.9653 10.9222 23.051L10.9365 30.8368L6.63648 28.2939L6.60791 20.7868C6.60791 19.901 7.56505 19.3439 8.32934 19.7939Z" fill="white"/>
</mask>
<g mask="url(#mask0_1542_92607)">
<path d="M8.77218 19.8582L6.66504 18.6582V28.3653L7.7079 27.6225V20.8725C7.7079 20.4653 7.97933 20.1011 8.37218 19.9796L8.77218 19.8582Z" fill="white"/>
</g>
<path d="M29.4153 26.6724L16.5225 34.2796L16.5296 20.7153L29.5153 13.8867L29.4153 26.6724Z" fill="#504ECD" stroke="#1C1E2C" stroke-width="0.3" stroke-miterlimit="10"/>
<path d="M21.6009 2.2796L8.92236 8.48675L18.4224 24.8225L32.0295 17.3725L21.6009 2.2796Z" fill="#EC7278" stroke="#1C1E2C" stroke-width="0.3" stroke-miterlimit="10"/>
<path d="M18.4224 24.8225L17.5439 25.3368L8.61529 10.3153L0.586719 14.6153L0.136719 13.651L8.92243 8.48676L18.4224 24.8225Z" fill="white" stroke="#1C1E2C" stroke-width="0.3" stroke-miterlimit="10"/>
<path d="M8.6154 10.3153L9.40112 11.6439L2.42969 15.251V13.4439L8.6154 10.3153Z" fill="#1C1E2C"/>
<path d="M8.32934 19.7939L9.40077 20.4153C10.3365 20.9582 10.9151 21.9653 10.9222 23.051L10.9365 30.8368L6.63648 28.2939L6.60791 20.7868C6.60791 19.901 7.56505 19.3439 8.32934 19.7939Z" stroke="#1C1E2C" stroke-width="0.3" stroke-miterlimit="10"/>
<path d="M35.4295 23.6724L35.4581 9.81529C35.4581 7.36529 34.1438 5.101 32.0081 3.90815L31.0795 3.38672L17.6724 10.9939L18.6509 11.5581C20.7509 12.7653 22.0509 15.001 22.0509 17.4224V31.5081C22.0509 33.9153 23.3367 36.1367 25.4152 37.3439L25.9938 37.6796L39.3581 29.8581L38.8295 29.551C36.7224 28.3439 35.4295 26.101 35.4295 23.6724Z" fill="#B9E14A" stroke="#1C1E2C" stroke-width="0.3" stroke-linejoin="round"/>
<path d="M33.6294 11.1939L24.3008 16.5439V15.1796L33.6294 9.82959V11.1939Z" fill="#1B1E2D"/>
<path d="M31.7294 15.3081L24.3008 19.5653V18.201L31.7365 13.9438L31.7294 15.3081Z" fill="#1B1E2D"/>
<path d="M31.5222 20.701L29.9222 21.6296C30.2008 21.7867 30.408 22.1295 30.4651 22.7367L31.5222 22.1224V22.8224L30.4722 23.4295C30.3722 24.9081 29.5865 26.2724 28.3437 27.051C29.1008 27.7367 29.9222 28.6796 30.7365 29.6367L29.808 30.1796C29.0508 29.3153 28.3437 28.5153 27.4365 27.651V26.7867L27.9722 26.4795C29.0222 25.8724 29.5865 24.9153 29.658 23.9081L27.4437 25.1938V24.4938L29.6294 23.2224C29.4937 22.4938 28.9794 22.3867 28.1365 22.8724L27.4437 23.2724V22.3653L31.5365 19.9938V20.6938L31.5222 20.701Z" fill="black"/>
</g>
<defs>
<clipPath id="clip0_1542_92607">
<rect width="40" height="40" fill="white"/>
</clipPath>
</defs>
</svg>
