<svg width="40" height="40" viewBox="0 0 40 40" fill="none" xmlns="http://www.w3.org/2000/svg">
<g clip-path="url(#clip0_1378_79103)">
<path d="M20.6018 17.0113L17.9051 14.9567L17.3509 16.6599L14.8164 15.2879L18.608 5.1228L21.0479 6.40695L24.8733 20.7354L22.6768 21.8032L20.6018 17.0181V17.0113Z" fill="#6262C9" stroke="#1C1E2C" stroke-width="0.3" stroke-linejoin="round"/>
<path d="M29.1244 14.7473L29.9557 12.9562L30.76 11.5166L33.4364 12.9224L30.6518 17.6264L33.5716 25.2908V25.4327L31.375 26.5006L28.5634 19.3026L28.1241 20.8098L27.3266 22.0466L25.13 23.1145L24.6704 20.4719L26.921 16.0517L24.9678 10.692L24.8732 8.61037V8.41437L27.5091 9.80666L28.3133 12.1249L29.1176 14.7473H29.1244Z" fill="#6262C9" stroke="#1C1E2C" stroke-width="0.3" stroke-linejoin="round"/>
<path d="M19.5203 18.073L15.7152 16.0183L15.161 17.7215L12.6265 16.3495L16.4181 6.18445L18.858 7.4686L22.6834 21.797L20.0813 20.3912L19.5203 18.0797V18.073ZM17.6211 10.2532L16.5262 13.5649L18.7025 14.7342L17.6211 10.2532Z" fill="#B9E14A" stroke="#1C1E2C" stroke-width="0.3" stroke-linejoin="round"/>
<path d="M26.9281 15.8157L27.7594 14.0246L28.5637 12.585L31.2401 13.9908L28.4556 18.6949L31.3753 26.3592V26.5011L28.6853 25.0413L27.8811 22.892L26.9146 20.0804L25.9278 21.8782L25.1303 23.115L22.4741 21.6754V21.5335L25.3871 17.0525L22.6769 9.47601L25.3128 10.8683L26.117 13.1865L26.9213 15.8089L26.9281 15.8157Z" fill="#B9E14A" stroke="#1C1E2C" stroke-width="0.3" stroke-linejoin="round"/>
<path d="M10.7745 4.09576L8.4428 2.86568L6.42871 1.06787L8.409 0L15.384 3.6632L15.4178 6.54916L13.0455 5.29205L13.1536 14.7407L10.8962 13.5174L10.7813 4.09576H10.7745Z" fill="#6262C9" stroke="#1C1E2C" stroke-width="0.3" stroke-linejoin="round"/>
<path d="M13.0389 5.29211L11.0586 6.35999L11.1667 15.8086L13.147 14.7407L13.0389 5.29211Z" fill="#6262C9" stroke="#1C1E2C" stroke-width="0.3" stroke-linejoin="round"/>
<path d="M8.79425 5.16369L6.4625 3.92685L6.42871 1.06793L13.4037 4.73114L13.4375 7.61709L11.0652 6.35998L11.1733 15.8086L8.9159 14.5853L8.80101 5.16369H8.79425Z" fill="#B9E14A" stroke="#1C1E2C" stroke-width="0.3" stroke-linejoin="round"/>
<path d="M13.4308 7.61022L15.4111 6.5491L15.3773 3.66315L13.4038 4.72426L13.4308 7.61022Z" fill="#6262C9" stroke="#1C1E2C" stroke-width="0.3" stroke-linejoin="round"/>
<path d="M16.418 6.18439L18.6078 5.11652L21.0544 6.40067L18.8579 7.46854L16.418 6.18439Z" fill="#6262C9" stroke="#1C1E2C" stroke-width="0.3" stroke-linejoin="round"/>
<path d="M22.6831 9.48914L24.8797 8.42126L27.5156 9.81355L25.319 10.8814L22.6831 9.48914Z" fill="#6262C9" stroke="#1C1E2C" stroke-width="0.3" stroke-linejoin="round"/>
<path d="M28.5635 12.5847L30.76 11.5168L33.4365 12.9294L31.2399 13.9973L28.5635 12.5847Z" fill="#6262C9" stroke="#1C1E2C" stroke-width="0.3" stroke-linejoin="round"/>
<path d="M26.6578 26.7006C26.6578 26.7006 27.41 26.8396 27.41 27.8573V30.1518H26.4556L26.6515 26.7006H26.6578Z" fill="#6262C9"/>
<path d="M26.6578 26.7006C26.6578 26.7006 27.41 26.8396 27.41 27.8573V30.1518H26.4556L26.6515 26.7006H26.6578Z" stroke="#1C1E2C" stroke-width="0.3" stroke-miterlimit="10"/>
<path d="M27.1389 27.3327C27.0631 27.2442 26.9619 27.162 26.8292 27.0862L23.498 25.1646L23.7382 24.7474L27.0694 26.669C27.2464 26.7701 27.3918 26.8902 27.5055 27.023L27.1389 27.3327Z" fill="#728DF2"/>
<path d="M27.1389 27.3327C27.0631 27.2442 26.9619 27.162 26.8292 27.0862L23.498 25.1646L23.7382 24.7474L27.0694 26.669C27.2464 26.7701 27.3918 26.8902 27.5055 27.023L27.1389 27.3327Z" stroke="#1C1E2C" stroke-width="0.3" stroke-miterlimit="10"/>
<path d="M26.8264 22.4022V36.7381C26.8264 37.0352 26.6747 37.149 26.4092 37.2944C26.2828 37.3702 26.1374 37.4082 25.9984 37.4082C25.8593 37.4082 25.7139 37.3766 25.5812 37.2944L23.1982 35.9227L22.5598 35.5498L13.0025 30.0316C12.4525 29.7092 11.6687 29.5765 10.9039 29.6524C10.5057 29.6966 10.1327 29.7977 9.82934 29.9431L9.55122 29.3679C9.92415 29.1909 10.3666 29.0645 10.8344 29.0139C11.7383 28.9191 13.5903 29.6271 14.254 30.0063L15.8216 30.9102L22.5598 34.8039L22.9517 35.0315L23.1982 35.1705L25.8972 36.7255C25.9794 36.7761 26.0552 36.7445 26.0805 36.7255C26.1058 36.7065 26.1753 36.656 26.1753 36.5612V22.4022C26.1753 21.8523 25.8783 21.334 25.3979 21.0622L13.0088 13.9005C12.4589 13.5845 11.6751 13.4454 10.9102 13.5276C10.4994 13.5655 10.1264 13.673 9.82302 13.8247L9.53857 13.2495C9.91783 13.0662 10.3666 12.9397 10.8407 12.8828C11.7446 12.788 12.6738 12.9587 13.3312 13.338L25.7392 20.4996C26.4155 20.8915 26.8327 21.6184 26.8327 22.3959" fill="#B48BE4"/>
<path d="M26.8264 22.4022V36.7381C26.8264 37.0352 26.6747 37.149 26.4092 37.2944C26.2828 37.3702 26.1374 37.4082 25.9984 37.4082C25.8593 37.4082 25.7139 37.3766 25.5812 37.2944L23.1982 35.9227L22.5598 35.5498L13.0025 30.0316C12.4525 29.7092 11.6687 29.5765 10.9039 29.6524C10.5057 29.6966 10.1327 29.7977 9.82934 29.9431L9.55122 29.3679C9.92415 29.1909 10.3666 29.0645 10.8344 29.0139C11.7383 28.9191 13.5903 29.6271 14.254 30.0063L15.8216 30.9102L22.5598 34.8039L22.9517 35.0315L23.1982 35.1705L25.8972 36.7255C25.9794 36.7761 26.0552 36.7445 26.0805 36.7255C26.1058 36.7065 26.1753 36.656 26.1753 36.5612V22.4022C26.1753 21.8523 25.8783 21.334 25.3979 21.0622L13.0088 13.9005C12.4589 13.5845 11.6751 13.4454 10.9102 13.5276C10.4994 13.5655 10.1264 13.673 9.82302 13.8247L9.53857 13.2495C9.91783 13.0662 10.3666 12.9397 10.8407 12.8828C11.7446 12.788 12.6738 12.9587 13.3312 13.338L25.7392 20.4996C26.4155 20.8915 26.8327 21.6184 26.8327 22.3959" stroke="#1C1E2C" stroke-width="0.3" stroke-miterlimit="10"/>
<path d="M26.8264 22.4022V36.7381C26.8264 37.0352 26.6747 37.149 26.4092 37.2944C26.2828 37.3702 26.1374 37.4082 25.9984 37.4082C25.8593 37.4082 25.7139 37.3766 25.5812 37.2944L23.1982 35.9227L22.5598 35.5498L13.0025 30.0316C12.4525 29.7092 11.6687 29.5765 10.9039 29.6524C10.5057 29.6966 10.1327 29.7977 9.82934 29.9431L9.55122 29.3679C9.92415 29.1909 10.3666 29.0645 10.8344 29.0139C11.7383 28.9191 13.5903 29.6271 14.254 30.0063L15.8216 30.9102L22.5598 34.8039L22.9517 35.0315L23.1982 35.1705L25.8972 36.7255C25.9794 36.7761 26.0552 36.7445 26.0805 36.7255C26.1058 36.7065 26.1753 36.656 26.1753 36.5612V22.4022C26.1753 21.8523 25.8783 21.334 25.3979 21.0622L13.0088 13.9005C12.4589 13.5845 11.6751 13.4454 10.9102 13.5276C10.4994 13.5655 10.1264 13.673 9.82302 13.8247L9.53857 13.2495C9.91783 13.0662 10.3666 12.9397 10.8407 12.8828C11.7446 12.788 12.6738 12.9587 13.3312 13.338L25.7392 20.4996C26.4155 20.8915 26.8327 21.6184 26.8327 22.3959L26.8264 22.4022Z" stroke="#121318" stroke-width="0.3" stroke-miterlimit="10"/>
<path d="M25.4116 21.0622L13.0099 13.9006C12.46 13.5845 11.6762 13.4455 10.9114 13.5276C10.5068 13.5719 10.1276 13.673 9.82415 13.8247C9.46385 14.0017 9.21734 14.2419 9.14148 14.4884C9.03403 14.8171 9.24894 15.1711 9.71037 15.4366L22.1184 22.5982C22.7948 22.9901 23.2119 23.717 23.2119 24.4945V34.627L22.8453 34.3868L22.5735 35.5499L25.5949 37.2945L25.6771 37.3387C25.911 37.4714 26.2018 37.3008 26.2018 37.0353V22.4023C26.2018 21.846 25.9047 21.334 25.4243 21.0559" fill="#D3DE92"/>
<path d="M25.4116 21.0622L13.0099 13.9006C12.46 13.5845 11.6762 13.4455 10.9114 13.5276C10.5068 13.5719 10.1276 13.673 9.82415 13.8247C9.46385 14.0017 9.21734 14.2419 9.14148 14.4884C9.03403 14.8171 9.24894 15.1711 9.71037 15.4366L22.1184 22.5982C22.7948 22.9901 23.2119 23.717 23.2119 24.4945V34.627L22.8453 34.3868L22.5735 35.5499L25.5949 37.2945L25.6771 37.3387C25.911 37.4714 26.2018 37.3008 26.2018 37.0353V22.4023C26.2018 21.846 25.9047 21.334 25.4243 21.0559" stroke="#1C1E2C" stroke-width="0.3" stroke-miterlimit="10"/>
<path d="M25.4116 21.0622L13.0099 13.9006C12.46 13.5845 11.6762 13.4455 10.9114 13.5276C10.5068 13.5719 10.1276 13.673 9.82415 13.8247C9.46385 14.0017 9.21734 14.2419 9.14148 14.4884C9.03403 14.8171 9.24894 15.1711 9.71037 15.4366L22.1184 22.5982C22.7948 22.9901 23.2119 23.717 23.2119 24.4945V34.627L22.8453 34.3868L22.5735 35.5499L25.5949 37.2945L25.6771 37.3387C25.911 37.4714 26.2018 37.3008 26.2018 37.0353V22.4023C26.2018 21.846 25.9047 21.334 25.4243 21.0559L25.4116 21.0622Z" stroke="#1C1E2C" stroke-width="0.3" stroke-miterlimit="10"/>
<path d="M25.0956 36.5928V21.9155L11.7584 14.5896C11.7584 14.5896 11.2654 14.3177 10.6775 14.3177C10.2161 14.3177 9.60928 14.9056 9.77994 15.209C9.95061 15.5124 23.2057 37.8823 23.2057 37.8823L24.6911 36.8267L25.0956 36.5928Z" fill="#E7D7F1"/>
<path d="M25.0956 36.5928V21.9155L11.7584 14.5896C11.7584 14.5896 11.2654 14.3177 10.6775 14.3177C10.2161 14.3177 9.60928 14.9056 9.77994 15.209C9.95061 15.5124 23.2057 37.8823 23.2057 37.8823L24.6911 36.8267L25.0956 36.5928Z" stroke="#1C1E2C" stroke-width="0.3" stroke-miterlimit="10"/>
<path d="M9.91236 29.1149C10.083 29.0201 10.279 28.9442 10.4939 28.9C10.5571 29.0011 10.6203 29.1022 10.6772 29.2097C10.5445 29.2413 10.418 29.2855 10.3106 29.3424C10.0957 29.4688 9.98821 29.6395 10.0198 29.8102C10.0451 29.9429 10.1462 30.0693 10.3043 30.1642L23.2686 37.6482L22.864 37.882L9.89972 30.398C9.64688 30.2526 9.48254 30.0567 9.45093 29.8481C9.40669 29.5763 9.57103 29.3108 9.90604 29.1149" fill="#809662"/>
<path d="M11.22 15.1081L23.9631 22.6996V37.3832L22.8632 37.8825L9.44385 29.7095" fill="#E7D7F1"/>
<path d="M11.22 15.1081L23.9631 22.6996V37.3832L22.8632 37.8825L9.44385 29.7095" stroke="#1C1E2C" stroke-width="0.3" stroke-linecap="round" stroke-linejoin="round"/>
<path d="M18.7568 19.2608C18.7568 19.2608 18.7441 19.2671 18.7378 19.2734C18.7568 19.2608 18.7757 19.2481 18.7884 19.2355C18.7757 19.2481 18.7631 19.2544 18.7568 19.2608Z" fill="#52B2A9"/>
<path d="M18.6846 19.3111C18.6846 19.3111 18.7225 19.2858 18.7415 19.2731C18.7225 19.2858 18.7035 19.2984 18.6846 19.3111Z" fill="#52B2A9"/>
<path d="M16.9854 15.4493C17.9273 15.9929 18.6921 17.314 18.6921 18.4012C18.6921 19.4884 17.9209 19.9245 16.9791 19.3809C16.0373 18.8373 15.2725 17.5162 15.2725 16.429C15.2725 15.3418 16.0436 14.9057 16.9854 15.4493Z" fill="#EC7278" stroke="#1C1E2C" stroke-width="0.3" stroke-miterlimit="10"/>
<path d="M16.9854 15.4493C17.9273 15.9929 18.6921 17.314 18.6921 18.4012C18.6921 19.4884 17.9209 19.9245 16.9791 19.3809C16.0373 18.8373 15.2725 17.5162 15.2725 16.429C15.2725 15.3418 16.0436 14.9057 16.9854 15.4493Z" stroke="#1B1E2D" stroke-width="0.3" stroke-linecap="round" stroke-linejoin="round"/>
<path d="M18.7934 18.4074C18.7934 17.2822 18.0033 15.9106 17.0298 15.348C16.5368 15.0636 16.0943 15.0383 15.772 15.2216L16.1828 14.9814C16.1828 14.9814 16.2397 14.9498 16.2713 14.9372C16.2903 14.9309 16.3029 14.9245 16.3156 14.9182C16.3535 14.9056 16.4104 14.8866 16.4546 14.8803C16.6127 14.8487 16.7138 14.8613 16.796 14.8676C16.8402 14.8676 16.9034 14.8803 16.9477 14.8929C17.0172 14.9119 17.112 14.9435 17.1815 14.9625C17.2321 14.9814 17.2953 15.013 17.3396 15.032C17.3775 15.051 17.4281 15.0826 17.466 15.1015C17.6999 15.2406 17.8579 15.3733 17.8958 15.4112C18.0475 15.5503 18.0602 15.5566 18.155 15.6578C18.294 15.8031 18.3952 15.9359 18.3952 15.9422C18.5153 16.1002 18.5342 16.1255 18.6101 16.2519C18.6354 16.2899 18.7112 16.4163 18.7997 16.5806C18.9641 16.8903 19.0462 17.1495 19.0842 17.2759C19.1094 17.3581 19.141 17.4719 19.1726 17.6299C19.1979 17.769 19.1979 17.7879 19.2169 17.9839C19.2232 18.0724 19.2295 18.3062 19.1916 18.5022C19.179 18.5717 19.1347 18.7866 19.0209 18.9699C18.9704 19.0521 18.9261 19.1027 18.8756 19.1596C18.8566 19.1785 18.8376 19.1975 18.8124 19.2165C18.8124 19.2165 18.806 19.2228 18.7997 19.2291C18.7807 19.2417 18.7681 19.2544 18.7491 19.267C18.7302 19.2797 18.7112 19.2923 18.6923 19.305L18.2814 19.5452C18.5974 19.3618 18.7997 18.9699 18.7997 18.4074" fill="#121318"/>
<path d="M15.2334 16.3845C15.2334 16.5362 15.246 16.65 15.2587 16.7258C15.284 16.9154 15.3219 17.0735 15.3219 17.0735C15.3598 17.2062 15.3788 17.282 15.4293 17.4274C15.4989 17.6171 15.5684 17.7751 15.5684 17.7751C15.6506 17.9458 15.6885 18.0279 15.7454 18.1101C15.8023 18.2049 15.8845 18.3377 15.9477 18.4325C15.9793 18.4767 16.0235 18.5399 16.0614 18.5842C16.0994 18.6284 16.1436 18.6853 16.1815 18.7295C16.2511 18.8117 16.3522 18.9129 16.4281 18.995C16.4976 19.0646 16.5545 19.1151 16.6935 19.2226C16.6935 19.2226 16.8136 19.3174 16.9717 19.4122C17.0918 19.4817 17.1676 19.5197 17.2498 19.5513C17.313 19.5766 17.4141 19.6145 17.5595 19.6461C17.6354 19.6651 17.7239 19.6714 17.8187 19.6714C17.8882 19.6714 17.983 19.6587 18.0589 19.6398C18.16 19.6145 18.2106 19.5892 18.2801 19.5513C18.5962 19.368 18.7984 18.9761 18.7984 18.4135C18.7984 17.2884 18.0083 15.9167 17.0349 15.3542C16.5418 15.0697 16.0994 15.0444 15.777 15.2277C15.7328 15.253 15.6759 15.2973 15.6379 15.3289C15.6063 15.3605 15.5621 15.3984 15.5368 15.4363C15.5115 15.4743 15.4736 15.5185 15.4483 15.5564C15.4357 15.5817 15.4104 15.6196 15.3977 15.6449C15.3788 15.6892 15.3535 15.7461 15.3345 15.7903C15.2524 16.0305 15.246 16.2391 15.246 16.3782M15.2776 16.4161C15.2776 15.3289 16.0488 14.8927 16.9906 15.4363C17.9324 15.9799 18.6973 17.301 18.6973 18.3882C18.6973 19.4754 17.9261 19.9116 16.9843 19.368C16.0425 18.8244 15.2776 17.5033 15.2776 16.4161Z" fill="#121318"/>
<path d="M22.112 22.5978L9.70393 15.4362C9.2425 15.1707 9.02759 14.8104 9.13505 14.4881C9.21722 14.2415 9.45742 14.0077 9.81771 13.8244L9.53327 13.2491C9.00863 13.5083 8.66098 13.8686 8.52191 14.2858C8.38917 14.6966 8.49031 15.1265 8.78107 15.4868C8.92646 15.6701 9.12873 15.8407 9.38156 15.9861L21.7833 23.1478C22.2637 23.4259 22.5608 23.9379 22.5608 24.4941V38.6657C22.5608 38.7669 22.4976 38.8111 22.466 38.8301C22.4343 38.849 22.3585 38.8806 22.2763 38.8301L16.0502 35.2398C16.0249 35.4736 15.9996 35.7012 15.968 35.9288L21.954 39.3863C22.0867 39.4622 22.2258 39.5001 22.3711 39.5001C22.5165 39.5001 22.6556 39.4622 22.7883 39.3863C23.0475 39.2346 23.1992 39.2093 23.1992 38.6657V24.4941C23.1992 23.7167 22.782 22.9834 22.1057 22.5978" fill="#D3DE92"/>
<path d="M22.112 22.5978L9.70393 15.4362C9.2425 15.1707 9.02759 14.8104 9.13505 14.4881C9.21722 14.2415 9.45742 14.0077 9.81771 13.8244L9.53327 13.2491C9.00863 13.5083 8.66098 13.8686 8.52191 14.2858C8.38917 14.6966 8.49031 15.1265 8.78107 15.4868C8.92646 15.6701 9.12873 15.8407 9.38156 15.9861L21.7833 23.1478C22.2637 23.4259 22.5608 23.9379 22.5608 24.4941V38.6657C22.5608 38.7669 22.4976 38.8111 22.466 38.8301C22.4343 38.849 22.3585 38.8806 22.2763 38.8301L16.0502 35.2398C16.0249 35.4736 15.9996 35.7012 15.968 35.9288L21.954 39.3863C22.0867 39.4622 22.2258 39.5001 22.3711 39.5001C22.5165 39.5001 22.6556 39.4622 22.7883 39.3863C23.0475 39.2346 23.1992 39.2093 23.1992 38.6657V24.4941C23.1992 23.7167 22.782 22.9834 22.1057 22.5978H22.112Z" stroke="#1C1E2C" stroke-width="0.3" stroke-miterlimit="10"/>
<path d="M21.7889 23.1545L9.38089 15.9866C9.27344 15.9234 9.1723 15.8538 9.08381 15.7843C9.03956 15.7464 8.99532 15.7085 8.95739 15.6705C8.94475 15.6579 8.93211 15.6516 8.91946 15.6389C8.8689 15.5884 8.82465 15.5378 8.7804 15.4872C8.58445 15.247 8.477 14.9879 8.46436 14.7161V30.8472C8.48964 31.3339 8.81201 31.8016 9.38089 32.1303C9.38089 32.1303 21.9659 39.3931 21.9659 39.3994C22.3958 39.6333 22.5601 39.3299 22.5601 39.0265V24.4946C22.5601 23.9447 22.263 23.4263 21.7826 23.1482" fill="#FFA6B1"/>
<path d="M21.7889 23.1545L9.38089 15.9866C9.27344 15.9234 9.1723 15.8538 9.08381 15.7843C9.03956 15.7464 8.99532 15.7085 8.95739 15.6705C8.94475 15.6579 8.93211 15.6516 8.91946 15.6389C8.8689 15.5884 8.82465 15.5378 8.7804 15.4872C8.58445 15.247 8.477 14.9879 8.46436 14.7161V30.8472C8.48964 31.3339 8.81201 31.8016 9.38089 32.1303C9.38089 32.1303 21.9659 39.3931 21.9659 39.3994C22.3958 39.6333 22.5601 39.3299 22.5601 39.0265V24.4946C22.5601 23.9447 22.263 23.4263 21.7826 23.1482" stroke="#1C1E2B" stroke-width="0.3" stroke-miterlimit="10"/>
<path d="M21.7889 23.1545L9.38089 15.9866C9.27344 15.9234 9.1723 15.8538 9.08381 15.7843C9.03956 15.7464 8.99532 15.7085 8.95739 15.6705C8.94475 15.6579 8.93211 15.6516 8.91946 15.6389C8.8689 15.5884 8.82465 15.5378 8.7804 15.4872C8.58445 15.247 8.477 14.9879 8.46436 14.7161V30.8472C8.48964 31.3339 8.81201 31.8016 9.38089 32.1303C9.38089 32.1303 21.9659 39.3931 21.9659 39.3994C22.3958 39.6333 22.5601 39.3299 22.5601 39.0265V24.4946C22.5601 23.9447 22.263 23.4263 21.7826 23.1482L21.7889 23.1545Z" stroke="#121318" stroke-width="0.3" stroke-miterlimit="10"/>
<path d="M26.1897 29.3494L24.7991 30.1458C23.9774 30.6199 23.0419 30.9549 22.2139 30.4745L16.3733 27.0991L16.032 26.9032C15.9119 26.8273 15.7728 26.8084 15.6906 26.9601C15.6906 26.9727 15.6906 26.9854 15.678 26.9917C15.6653 27.0106 15.659 27.0359 15.6527 27.0675C15.6337 27.1307 15.6211 27.194 15.6211 27.2572V30.2154C15.6211 30.4682 15.6969 30.7147 15.8297 30.9233C15.9435 31.1066 16.1078 31.271 16.2974 31.3848L22.2265 34.8044C22.5615 34.994 22.669 35.0952 22.966 35.0446C23.0356 35.0319 23.1178 35.013 23.2126 34.9814C23.7435 34.817 25.526 33.2431 26.0064 33.5592C26.0633 33.5971 26.1265 33.616 26.1961 33.6224C26.4173 33.635 26.6701 33.4833 26.8345 33.3506V28.9701L26.1961 29.3431L26.1897 29.3494Z" fill="#1C1E2C"/>
<path d="M27.2645 27.6994V28.5085C27.2076 28.5527 27.1444 28.597 27.0748 28.6349L24.8372 29.9244C24.0218 30.3985 22.7323 30.3921 21.9106 29.9244L16.0637 26.549L15.7224 26.3467C15.6023 26.2772 15.4632 26.2582 15.3811 26.4036C15.3811 26.4099 15.3684 26.4226 15.3684 26.4352C15.3621 26.4542 15.3494 26.4795 15.3431 26.5111C15.3242 26.5743 15.3115 26.6375 15.3115 26.707V26.8208V29.6716C15.3115 30.1519 15.5707 30.6007 15.9815 30.8346L21.9106 34.2543C22.3278 34.4944 22.8524 34.6082 23.3834 34.6082C23.9144 34.6082 24.4327 34.4881 24.8372 34.2543L27.0748 32.9585C27.4478 32.7435 27.688 32.4401 27.7385 32.1178C27.7449 32.0735 27.7512 32.023 27.7512 31.9787V27.6931H27.2708L27.2645 27.6994ZM15.3178 26.6122C15.3178 26.6122 15.3178 26.6565 15.3115 26.6754C15.3115 26.6501 15.3115 26.6312 15.3178 26.6122ZM15.3368 26.5111C15.3368 26.5111 15.3242 26.5553 15.3242 26.5806C15.3242 26.5553 15.3305 26.53 15.3368 26.5111Z" fill="#6262C9"/>
<path d="M15.3115 26.8208V26.707C15.3115 26.6375 15.3242 26.5743 15.3431 26.5111C15.3494 26.4795 15.3621 26.4542 15.3684 26.4352C15.3684 26.4226 15.3811 26.4099 15.3811 26.4036C15.4632 26.2582 15.6023 26.2772 15.7224 26.3467L16.0637 26.549L21.9106 29.9244C22.7323 30.3921 24.0218 30.3985 24.8372 29.9244L27.0748 28.6349C27.1444 28.597 27.2076 28.5527 27.2645 28.5085V27.6994L27.2708 27.6931H27.7512V31.9787C27.7512 32.023 27.7449 32.0735 27.7385 32.1178C27.688 32.4401 27.4478 32.7435 27.0748 32.9585L24.8372 34.2543C24.4327 34.4881 23.9144 34.6082 23.3834 34.6082C22.8524 34.6082 22.3278 34.4944 21.9106 34.2543L15.9815 30.8346C15.5707 30.6007 15.3115 30.1519 15.3115 29.6716V26.8208ZM15.3115 26.8208C15.3115 26.7829 15.3115 26.745 15.3115 26.7133M15.3178 26.6122C15.3178 26.6122 15.3178 26.6565 15.3115 26.6754C15.3115 26.6501 15.3115 26.6312 15.3178 26.6122ZM15.3368 26.5111C15.3368 26.5111 15.3242 26.5553 15.3242 26.5806C15.3242 26.5553 15.3305 26.53 15.3368 26.5111Z" stroke="#1C1E2C" stroke-width="0.3" stroke-miterlimit="10"/>
<path d="M15.3115 26.8208V26.707C15.3115 26.6375 15.3242 26.5743 15.3431 26.5111C15.3494 26.4795 15.3621 26.4542 15.3684 26.4352C15.3684 26.4226 15.3811 26.4099 15.3811 26.4036C15.4632 26.2582 15.6023 26.2772 15.7224 26.3467L16.0637 26.549L21.9106 29.9244C22.7323 30.3921 24.0218 30.3985 24.8372 29.9244L27.0748 28.6349C27.1444 28.597 27.2076 28.5527 27.2645 28.5085V27.6994L27.2708 27.6931H27.7512V31.9787C27.7512 32.023 27.7449 32.0735 27.7385 32.1178C27.688 32.4401 27.4478 32.7435 27.0748 32.9585L24.8372 34.2543C24.4327 34.4881 23.9144 34.6082 23.3834 34.6082C22.8524 34.6082 22.3278 34.4944 21.9106 34.2543L15.9815 30.8346C15.5707 30.6007 15.3115 30.1519 15.3115 29.6716V26.8208ZM15.3115 26.8208C15.3115 26.7829 15.3115 26.745 15.3115 26.7133M15.3178 26.6122C15.3178 26.6122 15.3178 26.6565 15.3115 26.6754C15.3115 26.6501 15.3115 26.6312 15.3178 26.6122ZM15.3368 26.5111C15.3368 26.5111 15.3242 26.5553 15.3242 26.5806C15.3242 26.5553 15.3305 26.53 15.3368 26.5111Z" stroke="#1C1E2C" stroke-width="0.3" stroke-miterlimit="10"/>
<path d="M27.7422 27.699C27.7422 27.7369 27.7422 27.7749 27.7296 27.8128C27.6853 28.072 27.521 28.3122 27.2618 28.5144C27.2049 28.5587 27.1417 28.6029 27.0722 28.6408L24.8346 29.9303C24.0192 30.4044 22.7297 30.4044 21.908 29.9303L16.0611 26.5549L15.7197 26.3527C15.5997 26.2831 15.4606 26.2642 15.3784 26.4095C15.4353 26.2958 15.5238 26.201 15.6376 26.1377C15.8462 26.0176 16.0927 26.0176 16.3013 26.1377L22.1482 29.5131C22.8119 29.8987 23.937 29.8987 24.5944 29.5131L26.832 28.2237C27.0722 28.0846 27.2239 27.9076 27.2555 27.7306C27.2808 27.5979 27.2365 27.4651 27.1291 27.3387L27.4957 27.029C27.6664 27.2313 27.7485 27.4715 27.7359 27.7053" fill="#728DF2"/>
<path d="M27.7422 27.699C27.7422 27.7369 27.7422 27.7749 27.7296 27.8128C27.6853 28.072 27.521 28.3122 27.2618 28.5144C27.2049 28.5587 27.1417 28.6029 27.0722 28.6408L24.8346 29.9303C24.0192 30.4044 22.7297 30.4044 21.908 29.9303L16.0611 26.5549L15.7197 26.3527C15.5997 26.2831 15.4606 26.2642 15.3784 26.4095C15.4353 26.2958 15.5238 26.201 15.6376 26.1377C15.8462 26.0176 16.0927 26.0176 16.3013 26.1377L22.1482 29.5131C22.8119 29.8987 23.937 29.8987 24.5944 29.5131L26.832 28.2237C27.0722 28.0846 27.2239 27.9076 27.2555 27.7306C27.2808 27.5979 27.2365 27.4651 27.1291 27.3387L27.4957 27.029C27.6664 27.2313 27.7485 27.4715 27.7359 27.7053L27.7422 27.699Z" stroke="#1C1E2C" stroke-width="0.3" stroke-miterlimit="10"/>
<path d="M17.9838 29.785C17.9901 30.3159 17.6235 30.5435 17.1621 30.2843C16.7006 30.0252 16.3277 29.3868 16.3214 28.8558C16.315 28.3248 16.6817 28.0973 17.1431 28.3565C17.6045 28.6093 17.9775 29.254 17.9838 29.785Z" fill="#1C1E2C"/>
<path d="M17.883 29.678C17.8767 29.1471 17.4974 28.5087 17.0423 28.2495C16.8211 28.1231 16.6188 28.1168 16.4734 28.1989H16.4608L16.2016 28.3443L16.2143 28.3696C16.1321 28.4707 16.0815 28.6288 16.0815 28.8247C16.0879 29.3557 16.4671 29.9941 16.9222 30.2532C17.0929 30.3481 17.2509 30.3797 17.3837 30.3481L17.3963 30.367L17.6175 30.2406C17.6175 30.2406 17.6555 30.2216 17.6681 30.209C17.8008 30.1142 17.883 29.9309 17.883 29.678Z" stroke="#1B1E2D" stroke-width="0.3" stroke-miterlimit="10"/>
<path d="M17.6435 29.817C17.6498 30.348 17.2832 30.5755 16.8217 30.3164C16.3603 30.0572 15.9874 29.4188 15.981 28.8879C15.9747 28.3569 16.3413 28.1293 16.8028 28.3885C17.2642 28.6413 17.6371 29.2861 17.6435 29.817Z" fill="#E7D7F1" stroke="#1C1E2C" stroke-width="0.3" stroke-miterlimit="10"/>
<path d="M17.6435 29.817C17.6498 30.348 17.2832 30.5755 16.8217 30.3164C16.3603 30.0572 15.9874 29.4188 15.981 28.8879C15.9747 28.3569 16.3413 28.1293 16.8028 28.3885C17.2642 28.6413 17.6371 29.2861 17.6435 29.817Z" stroke="#1C1E2C" stroke-width="0.3" stroke-miterlimit="10"/>
</g>
<defs>
<clipPath id="clip0_1378_79103">
<rect width="40" height="40" fill="white"/>
</clipPath>
</defs>
</svg>
