<svg width="40" height="40" viewBox="0 0 40 40" fill="none" xmlns="http://www.w3.org/2000/svg">
<path d="M20.9233 38.1485C29.286 38.1485 36.0653 34.2345 36.0653 29.4063C36.0653 24.5781 29.286 20.6641 20.9233 20.6641C12.5606 20.6641 5.78125 24.5781 5.78125 29.4063C5.78125 34.2345 12.5606 38.1485 20.9233 38.1485Z" fill="#B9E14A"/>
<path d="M20.9233 38.1485C29.286 38.1485 36.0653 34.2345 36.0653 29.4063C36.0653 24.5781 29.286 20.6641 20.9233 20.6641C12.5606 20.6641 5.78125 24.5781 5.78125 29.4063C5.78125 34.2345 12.5606 38.1485 20.9233 38.1485Z" stroke="#1C1E2C" stroke-width="0.3" stroke-miterlimit="10"/>
<path d="M20.957 34.7715C29.3197 34.7715 36.099 30.8575 36.099 26.0293C36.099 21.2011 29.3197 17.2871 20.957 17.2871C12.5943 17.2871 5.81494 21.2011 5.81494 26.0293C5.81494 30.8575 12.5943 34.7715 20.957 34.7715Z" fill="#97B2FD"/>
<path d="M20.957 34.7715C29.3197 34.7715 36.099 30.8575 36.099 26.0293C36.099 21.2011 29.3197 17.2871 20.957 17.2871C12.5943 17.2871 5.81494 21.2011 5.81494 26.0293C5.81494 30.8575 12.5943 34.7715 20.957 34.7715Z" stroke="#1C1E2C" stroke-width="0.3" stroke-miterlimit="10"/>
<path d="M20.9241 32.0351C27.0976 32.0351 32.1021 29.1459 32.1021 25.5819C32.1021 22.0179 27.0976 19.1287 20.9241 19.1287C14.7507 19.1287 9.74609 22.0179 9.74609 25.5819C9.74609 29.1459 14.7507 32.0351 20.9241 32.0351Z" fill="#6B91FC"/>
<path d="M20.9241 32.0351C27.0976 32.0351 32.1021 29.1459 32.1021 25.5819C32.1021 22.0179 27.0976 19.1287 20.9241 19.1287C14.7507 19.1287 9.74609 22.0179 9.74609 25.5819C9.74609 29.1459 14.7507 32.0351 20.9241 32.0351Z" stroke="#1C1E2C" stroke-width="0.3" stroke-miterlimit="10"/>
<path d="M19.0751 22.8059L22.0982 24.4943C22.5587 24.0805 22.3718 23.6334 21.5243 23.1663L19.9827 22.3054L21.0038 21.7382L26.2825 24.6745L25.2614 25.2484L23.9868 24.541C23.9468 24.7946 23.7732 25.0348 23.4729 25.2684L24.3538 25.7556L23.4129 26.2828L22.5253 25.7889C21.8713 26.0359 21.1506 26.1293 20.3765 26.0692C19.6023 26.0092 18.8683 25.7889 18.1876 25.4086L18.1008 25.3618L18.4812 28.6986L16.5593 27.6175L16.3057 24.3541L17.32 23.7869L18.8616 24.6478C19.6624 25.0949 20.4232 25.215 21.1306 25.0148L18.1275 23.3398L19.0685 22.8193L19.0751 22.8059Z" fill="black"/>
<path d="M8.06348 30.6541V34.0642" stroke="#1C1E2B" stroke-width="0.3" stroke-linecap="round" stroke-linejoin="round"/>
<path d="M8.89209 31.328V34.7448" stroke="#1C1E2B" stroke-width="0.3" stroke-linecap="round" stroke-linejoin="round"/>
<path d="M23.853 34.7118V38.1219" stroke="#1C1E2B" stroke-width="0.3" stroke-linecap="round" stroke-linejoin="round"/>
<path d="M19.7758 22.6542L18.524 8.40093L19.3709 2.39658L22.373 0.813432L30.5144 15.4797L27.5284 17.2602L26.5846 16.7151C26.5749 16.7086 26.5625 16.7019 26.5476 16.6969C26.5285 16.6905 26.5013 16.6858 26.47 16.6921C26.4376 16.6985 26.4115 16.7147 26.3929 16.7334C26.3775 16.7488 26.3678 16.7651 26.3616 16.7789L24.0451 21.2157L19.7758 22.6542Z" fill="white" stroke="#1C1E2D" stroke-width="0.3"/>
<path d="M19.2402 2.51318L10.9595 7.85583C10.9595 7.85583 10.9595 7.85981 10.9595 7.8638L15.1755 10.3002L17.6594 21.7716L19.6428 22.8571L23.3009 14.9979C23.3009 14.9979 23.3009 14.994 23.3049 14.9979L27.5129 17.4264C27.5129 17.4264 27.5209 17.4264 27.5169 17.4224L19.2442 2.51318C19.2442 2.51318 19.2442 2.51318 19.2402 2.51318Z" fill="#ED5D7F" stroke="#1C1E2D" stroke-width="0.3" stroke-miterlimit="10"/>
</svg>
