<svg width="40" height="40" viewBox="0 0 40 40" fill="none" xmlns="http://www.w3.org/2000/svg">
<path d="M12.9902 10.3927C7.95447 14.6141 4.6759 18.307 4.29733 23.9641C3.91876 29.6284 12.8473 34.357 15.5045 34.357C20.5973 34.357 24.0688 30.6927 24.833 30.157C26.3116 29.1141 27.0473 25.5356 26.8473 23.9641C26.0759 17.8427 23.3616 14.8356 17.6545 10.3927H12.9902Z" fill="#EFA7AF"/>
<path fill-rule="evenodd" clip-rule="evenodd" d="M12.9524 10.2853H17.6925L17.7215 10.3079C20.5762 12.5302 22.6921 14.4006 24.19 16.4862C25.6902 18.575 26.5672 20.8746 26.9548 23.9503C27.0573 24.7552 26.92 26.058 26.574 27.2875C26.4006 27.9037 26.1736 28.5056 25.8951 29.021C25.6173 29.5353 25.2844 29.9703 24.896 30.2443C24.7936 30.3161 24.6379 30.4489 24.4325 30.6241C23.1525 31.7163 19.9324 34.4639 15.5057 34.4639C14.8183 34.4639 13.7451 34.1606 12.5371 33.6274C11.3251 33.0924 9.96464 32.3203 8.69937 31.3701C6.17676 29.4757 3.99847 26.8467 4.19163 23.9567C4.57333 18.2528 7.88323 14.5348 12.9226 10.3103L12.9524 10.2853ZM13.0304 10.4996C8.01528 14.7075 4.78013 18.3718 4.40544 23.971C4.22002 26.7453 6.31673 29.3128 8.82805 31.1987C10.0797 32.1387 11.426 32.9027 12.6236 33.4314C13.8251 33.9617 14.8645 34.2496 15.5057 34.2496C19.8371 34.2496 22.9776 31.5789 24.2799 30.4714C24.4955 30.288 24.6607 30.1475 24.7726 30.0691C25.1234 29.8216 25.437 29.4183 25.7066 28.9192C25.9757 28.4212 26.1974 27.8348 26.3677 27.2295C26.7092 26.0162 26.8398 24.744 26.7422 23.9774C26.3584 20.9318 25.4925 18.667 24.016 16.6112C22.5421 14.5591 20.4565 12.7101 17.6189 10.4996H17.6557V10.3924L17.5899 10.477C17.5995 10.4845 17.6092 10.4921 17.6189 10.4996H13.0304Z" fill="black"/>
<path d="M20.5711 7.60673L17.6568 10.3924L15.3711 11.4067C15.3711 11.4067 13.5283 10.7567 12.9925 10.3924C12.0425 9.74958 10.064 7.6353 10.064 7.6353L20.5711 7.60673Z" fill="#EC7278"/>
<path fill-rule="evenodd" clip-rule="evenodd" d="M23.6888 17.2366C23.6794 18.225 23.7942 19.0895 24.2499 19.794C24.4106 20.0424 24.3395 20.3741 24.0911 20.5348C23.8426 20.6955 23.511 20.6243 23.3503 20.3759C22.7203 19.4019 22.6074 18.2761 22.6174 17.2264C22.6216 16.7939 22.6473 16.3558 22.6718 15.9383C22.6771 15.8482 22.6824 15.7591 22.6873 15.6712C22.7157 15.1671 22.7351 14.6979 22.7124 14.2619C22.6671 13.391 22.4587 12.7466 21.9108 12.298C21.3392 11.83 20.2898 11.4836 18.3349 11.5064C18.0391 11.5098 17.7964 11.2727 17.793 10.9769C17.7896 10.6811 18.0266 10.4384 18.3225 10.435C20.364 10.4113 21.7253 10.7614 22.5896 11.469C23.4777 12.1961 23.7304 13.2067 23.7824 14.2062C23.8084 14.7055 23.7855 15.2255 23.757 15.7315C23.7518 15.825 23.7463 15.918 23.7409 16.0104C23.7165 16.4268 23.6927 16.833 23.6888 17.2366Z" fill="white"/>
<path fill-rule="evenodd" clip-rule="evenodd" d="M17.745 10.69C17.896 10.4356 18.2247 10.3517 18.4791 10.5027C19.3208 11.0022 19.9554 11.6577 20.2933 12.5252C20.6289 13.3867 20.6471 14.3942 20.3776 15.5559C20.3107 15.8441 20.0228 16.0235 19.7346 15.9567C19.4464 15.8898 19.267 15.602 19.3339 15.3137C19.5715 14.2898 19.529 13.5151 19.2949 12.9141C19.0632 12.3191 18.6192 11.8317 17.9323 11.4241C17.6779 11.2731 17.594 10.9444 17.745 10.69Z" fill="white"/>
<path fill-rule="evenodd" clip-rule="evenodd" d="M18.9456 10.2276C19.1034 10.4778 19.0286 10.8087 18.7784 10.9665C17.1998 11.9625 15.629 11.9739 14.4701 11.7414C13.8923 11.6254 13.4126 11.4484 13.0761 11.2999C12.9074 11.2254 12.7735 11.1576 12.6798 11.1072C12.6329 11.082 12.596 11.0611 12.5698 11.0458C12.5567 11.0382 12.5462 11.0319 12.5385 11.0273L12.5289 11.0215L12.5257 11.0195L12.5245 11.0188L12.524 11.0185C12.5238 11.0183 12.5236 11.0182 12.8068 10.5635L12.5236 11.0182C12.2724 10.8618 12.1956 10.5314 12.352 10.2803C12.5082 10.0295 12.8378 9.95256 13.0888 10.108L13.0915 10.1096L13.1086 10.1197C13.125 10.1293 13.1516 10.1444 13.1874 10.1637C13.2592 10.2023 13.3681 10.2576 13.5087 10.3197C13.7907 10.4441 14.1954 10.5935 14.6809 10.6909C15.6489 10.8851 16.9209 10.8716 18.2066 10.0604C18.4569 9.90251 18.7877 9.97738 18.9456 10.2276Z" fill="white"/>
<path d="M18.9281 8.29955C21.0781 7.8067 21.5424 6.79241 19.6353 6.19241C17.7281 5.59241 14.3281 5.54955 12.0281 6.1067C9.72813 6.66384 9.39956 7.6067 11.2996 8.21384C13.1996 8.82098 16.6138 8.82813 18.9281 8.29955Z" fill="#EFA7AF"/>
<path fill-rule="evenodd" clip-rule="evenodd" d="M15.9792 5.60821C17.3607 5.62435 18.699 5.78558 19.6664 6.08993C20.1497 6.24199 20.497 6.42425 20.7056 6.62865C20.919 6.83766 20.9941 7.07918 20.9024 7.32353C20.8157 7.55445 20.5885 7.7622 20.2644 7.94037C19.9369 8.12042 19.4946 8.2791 18.951 8.40371L18.9509 8.40373C17.7839 8.67027 16.3432 8.80111 14.9565 8.78945C13.571 8.7778 12.2304 8.62382 11.2659 8.31562C10.7851 8.16199 10.4324 7.98343 10.2152 7.78576C9.99478 7.58508 9.9019 7.35038 9.98655 7.10615C10.066 6.87682 10.2931 6.67115 10.6246 6.49117C10.9602 6.30893 11.4217 6.14282 12.0018 6.00229C13.1627 5.72109 14.597 5.59206 15.9792 5.60821ZM15.9767 5.82248C14.6072 5.80648 13.1915 5.9346 12.0523 6.21055C11.4824 6.34859 11.0404 6.50926 10.7269 6.67948C10.4092 6.85196 10.2417 7.0244 10.189 7.17633C10.1415 7.31335 10.179 7.46302 10.3595 7.6273C10.5432 7.79458 10.8619 7.96156 11.3311 8.1115C12.2666 8.41044 13.5832 8.56361 14.9583 8.57517C16.3324 8.58672 17.756 8.45685 18.9032 8.19482C19.4346 8.073 19.8565 7.92008 20.1612 7.7526C20.4692 7.58323 20.642 7.40749 20.7018 7.24824C20.7565 7.1024 20.7244 6.94705 20.5557 6.78173C20.3822 6.6118 20.0723 6.44227 19.6021 6.29434C18.6623 5.99869 17.3471 5.83849 15.9767 5.82248Z" fill="black"/>
<path fill-rule="evenodd" clip-rule="evenodd" d="M13.0913 20.6655L14.6622 21.5678V20.4668L9.84082 17.703V19.0325L10.6774 19.5095C11.4859 19.9689 12.0034 20.607 12.2087 21.3962L9.84796 20.0383V21.1394L12.2905 22.5422C12.2436 22.9777 12.0871 23.2193 11.8673 23.3105C11.6219 23.4123 11.2276 23.3595 10.6545 23.0326L9.84796 22.5662V23.8034L9.86194 23.8326C10.8751 25.9516 11.6599 27.7425 12.5028 29.671L12.5215 29.714L13.9713 30.5538L13.8006 30.1573C12.9557 28.1947 12.1033 26.2354 11.3078 24.5761C11.8602 24.7957 12.3464 24.8133 12.7296 24.6013C13.15 24.3688 13.3975 23.8871 13.4826 23.2267L14.6694 23.9111V22.8094L13.4833 22.1337C13.4281 21.5865 13.2875 21.0987 13.0913 20.6655ZM12.4122 21.6781C12.4027 21.6159 12.3915 21.5545 12.3785 21.4939C12.1881 20.6015 11.6309 19.8869 10.748 19.3853L9.98368 18.9495V17.9495L9.98382 17.9496V18.9496L10.7481 19.3853C11.691 19.921 12.2624 20.6996 12.4124 21.6781L12.4122 21.6781ZM9.99082 20.2853L9.99096 20.2853V21.0567L12.441 22.4639C12.3875 23.229 12.0254 23.6093 11.3577 23.4729C12.0253 23.6092 12.3873 23.2289 12.4408 22.4638L9.99082 21.0567V20.2853ZM9.99096 22.8139L9.99082 22.8138V23.771C11.0051 25.8924 11.7908 27.6853 12.6337 29.6138L13.6694 30.2138L13.6694 30.2138L12.6338 29.6139C11.791 27.6853 11.0052 25.8924 9.99096 23.771V22.8139ZM11.0053 24.2782C11.0761 24.3156 11.1457 24.3498 11.2138 24.3808C11.3719 24.4527 11.5227 24.5073 11.6656 24.5449C11.4611 24.4911 11.2405 24.4025 11.0052 24.2781C11.0053 24.2782 11.0053 24.2782 11.0053 24.2782ZM13.3624 22.9925L14.5265 23.6638V23.6638L13.3624 22.9924C13.3624 22.9924 13.3624 22.9925 13.3624 22.9925ZM12.741 20.2996C12.741 20.2996 12.741 20.2996 12.741 20.2996L14.5194 21.3209V21.321L12.741 20.2996Z" fill="black"/>
<path d="M20.0112 36.2574L23.6805 38.3857L36.3787 31.0196L32.7095 28.93L20.0112 36.2574Z" fill="#383D4C"/>
<path d="M32.6761 28.8911L20.0111 36.2684L20 30.3987L22.0785 25.5766L23.9353 26.6076L26.5348 20.9152L29.1398 22.3563L32.7259 15.2839L32.6761 28.8911Z" fill="#2137A5"/>
<path d="M36.3787 31.0194L23.7082 38.4022L23.7026 32.5325L25.7811 27.7049L27.6379 28.7413L30.2374 23.049L32.8425 24.4901L36.4286 17.4177L36.3787 31.0194Z" fill="#94B4F8"/>
<path fill-rule="evenodd" clip-rule="evenodd" d="M36.4519 17.314C36.5002 17.3256 36.5342 17.3689 36.534 17.4185L36.4841 31.0202C36.484 31.0582 36.4637 31.0933 36.4309 31.1124L23.7604 38.4952C23.7273 38.5145 23.6863 38.5146 23.6531 38.4955C23.6198 38.4765 23.5993 38.4411 23.5993 38.4027L23.5938 32.5331C23.5937 32.5184 23.5967 32.504 23.6025 32.4906L25.681 27.6629C25.693 27.6351 25.7162 27.6136 25.7449 27.6039C25.7736 27.5941 25.8051 27.597 25.8316 27.6117L27.587 28.5916L30.1382 23.005C30.1506 22.9778 30.1738 22.9571 30.2021 22.9477C30.2305 22.9384 30.2614 22.9413 30.2876 22.9557L32.7954 24.343L36.3313 17.3697C36.3537 17.3254 36.4037 17.3023 36.4519 17.314ZM36.318 17.8696L32.9363 24.539C32.9231 24.5649 32.9 24.5844 32.8722 24.593C32.8444 24.6015 32.8143 24.5984 32.7889 24.5843L30.2851 23.1992L27.7336 28.7863C27.7212 28.8135 27.698 28.8343 27.6695 28.8436C27.6411 28.8529 27.6101 28.8499 27.584 28.8353L25.8308 27.8567L23.8081 32.555L23.8134 38.2163L36.27 30.9581L36.318 17.8696Z" fill="#1C1E2C"/>
<path d="M23.7025 32.533L20 30.4046L20.0111 36.2576L23.7025 38.3971V32.533Z" fill="#504ECD"/>
<path fill-rule="evenodd" clip-rule="evenodd" d="M19.8911 30.219L23.8082 32.4708V38.5829L19.9027 36.3193L19.8911 30.219ZM20.1061 30.5898L20.1167 36.1956L23.594 38.211V32.5948L20.1061 30.5898Z" fill="#1C1E2C"/>
<path d="M32.7267 15.2839L36.4292 17.4178L32.8431 24.4903L29.1406 22.3563L32.7267 15.2839Z" fill="#504ECD"/>
<path fill-rule="evenodd" clip-rule="evenodd" d="M32.6817 15.1346L36.5701 17.3757L32.887 24.6395L28.9985 22.3985L32.6817 15.1346ZM32.7706 15.4332L29.2815 22.3142L32.7981 24.341L36.2871 17.4599L32.7706 15.4332Z" fill="#1C1E2C"/>
<path d="M26.5336 20.9152L30.2361 23.0491L27.6366 28.7414L23.9341 26.6075L26.5336 20.9152Z" fill="#504ECD"/>
<path fill-rule="evenodd" clip-rule="evenodd" d="M26.4863 20.7638L30.3753 23.0052L27.6863 28.8933L23.7974 26.6519L26.4863 20.7638ZM26.5834 21.0671L24.0733 26.5636L27.5893 28.5901L30.0994 23.0935L26.5834 21.0671Z" fill="#1C1E2C"/>
<path d="M22.0785 25.5769L25.781 27.7053L23.7025 32.5329L20 30.4045L22.0785 25.5769Z" fill="#504ECD"/>
<path fill-rule="evenodd" clip-rule="evenodd" d="M22.0271 25.4241L25.9166 27.66L23.7528 32.6858L19.8633 30.4499L22.0271 25.4241ZM22.1288 25.7297L20.1356 30.3593L23.6511 32.3801L25.6443 27.7506L22.1288 25.7297Z" fill="#1C1E2C"/>
<path d="M35.5135 11.1269L33.6456 15.3116L32.0105 14.3527L31.9329 14.3084C31.9329 14.3084 31.9052 14.2973 31.8941 14.2807C31.6114 14.0756 31.4341 13.6322 31.4341 13.0391C31.4341 11.9029 32.0826 10.6059 32.8696 10.1569C33.18 9.97404 33.4627 9.95741 33.6955 10.0738C33.7232 10.0793 33.7398 10.0849 33.7565 10.1015L35.519 11.1214L35.5135 11.1269Z" fill="white"/>
<path fill-rule="evenodd" clip-rule="evenodd" d="M33.6488 10.1694C33.4561 10.0731 33.2124 10.0798 32.9252 10.249L32.9239 10.2498C32.5553 10.4601 32.2088 10.8765 31.9538 11.3879C31.6995 11.8977 31.5424 12.4898 31.5424 13.0389C31.5424 13.6171 31.716 14.018 31.9582 14.1937C31.9645 14.1983 31.9703 14.2035 31.9754 14.2093C31.9795 14.211 31.9834 14.213 31.9873 14.2151L32.0659 14.2601L33.5977 15.1584L35.3806 11.1641L33.704 10.194C33.6975 10.1903 33.6915 10.1859 33.6859 10.1809C33.6836 10.1803 33.6804 10.1796 33.6757 10.1786C33.6663 10.1768 33.6573 10.1737 33.6488 10.1694ZM35.6056 11.1859L33.7446 15.3551C33.7322 15.3829 33.7085 15.4041 33.6795 15.4134C33.6505 15.4227 33.6189 15.4192 33.5926 15.4038L31.958 14.4452L31.8856 14.4038L31.8841 14.4032C31.8792 14.4009 31.8724 14.3975 31.8649 14.3931C31.856 14.3879 31.8381 14.3769 31.8215 14.3591C31.5051 14.1217 31.3281 13.6399 31.3281 13.0389C31.3281 12.4518 31.4953 11.8272 31.762 11.2923C32.0279 10.7591 32.3989 10.3028 32.8171 10.064C33.1453 9.87083 33.462 9.84222 33.732 9.97156C33.7594 9.97792 33.7908 9.98854 33.8212 10.0143L35.5739 11.0284C35.6027 11.0451 35.6221 11.0742 35.6264 11.1072C35.6301 11.1353 35.6225 11.1636 35.6056 11.1859ZM31.9845 14.221C31.9844 14.2209 31.9846 14.2212 31.9845 14.221V14.221Z" fill="#1C1E2C"/>
<path d="M31.8892 14.2857C31.8892 14.2857 31.9172 14.3137 31.9284 14.3137L31.8892 14.2913V14.2857Z" fill="#3251BF"/>
<path d="M36.0186 12.4128C36.0186 13.5491 35.3756 14.835 34.5886 15.2839C33.8015 15.7329 33.1586 15.1786 33.1641 14.0424C33.1696 12.9061 33.807 11.6147 34.5996 11.1657C35.3922 10.7168 36.0241 11.2766 36.0241 12.4128H36.0186Z" fill="#B9E14A"/>
<path fill-rule="evenodd" clip-rule="evenodd" d="M35.5396 11.275C35.3245 11.086 35.02 11.0511 34.6536 11.2586C34.2824 11.4689 33.9374 11.8838 33.6838 12.3937C33.431 12.9021 33.2751 13.493 33.2724 14.0426C33.2697 14.5946 33.4251 14.9806 33.6506 15.1764C33.867 15.3644 34.1732 15.3979 34.5367 15.1906C34.9054 14.9802 35.2505 14.5664 35.504 14.058C35.7568 13.551 35.9126 12.9618 35.9126 12.4125V12.3054H35.9162C35.8975 11.8096 35.7492 11.4592 35.5396 11.275ZM36.1251 12.5197H36.1324V12.4125C36.1324 11.8289 35.9707 11.3686 35.681 11.114C35.382 10.8513 34.9743 10.8307 34.548 11.0722C34.1266 11.3109 33.7566 11.7662 33.492 12.2983C33.2266 12.832 33.061 13.4549 33.0581 14.0415C33.0553 14.6257 33.2186 15.085 33.51 15.3382C33.8104 15.5991 34.2193 15.6183 34.6428 15.3767C35.0611 15.1381 35.4311 14.6844 35.6958 14.1536C35.9451 13.6536 36.1064 13.0746 36.1251 12.5197Z" fill="#1C1E2C"/>
<path d="M33.753 10.1068C33.753 10.1068 33.7194 10.0844 33.6914 10.0788H33.697L33.7474 10.1068H33.753Z" fill="#3251BF"/>
<path d="M30.5804 15.7551L28.7125 19.9398L27.0774 18.981L26.9998 18.9366C26.9998 18.9366 26.9721 18.9255 26.961 18.9089C26.6783 18.7038 26.501 18.2604 26.501 17.6673C26.501 16.5311 27.1495 15.2341 27.9365 14.7852C28.2469 14.6023 28.5296 14.5856 28.7624 14.702C28.7901 14.7076 28.8067 14.7131 28.8234 14.7297L30.5859 15.7496L30.5804 15.7551Z" fill="white"/>
<path fill-rule="evenodd" clip-rule="evenodd" d="M28.7157 14.7976C28.523 14.7013 28.2793 14.708 27.9921 14.8772L27.9908 14.878C27.6222 15.0883 27.2757 15.5047 27.0207 16.0161C26.7664 16.5259 26.6093 17.118 26.6093 17.6671C26.6093 18.2453 26.7829 18.6462 27.0251 18.8219C27.0314 18.8265 27.0372 18.8317 27.0423 18.8375C27.0464 18.8392 27.0503 18.8412 27.0542 18.8433L27.1328 18.8883L28.6646 19.7866L30.4475 15.7924L28.7709 14.8222C28.7644 14.8185 28.7584 14.8141 28.7528 14.8091C28.7505 14.8085 28.7473 14.8078 28.7426 14.8068C28.7332 14.805 28.7242 14.8019 28.7157 14.7976ZM30.6725 15.8141L28.8115 19.9833C28.7991 20.0111 28.7754 20.0323 28.7464 20.0416C28.7174 20.0509 28.6858 20.0474 28.6595 20.032L27.0249 19.0734L26.9525 19.0321L26.951 19.0314C26.9461 19.0291 26.9393 19.0257 26.9318 19.0213C26.9229 19.0161 26.905 19.0051 26.8884 18.9873C26.572 18.7499 26.395 18.2681 26.395 17.6671C26.395 17.08 26.5621 16.4554 26.8289 15.9205C27.0948 15.3873 27.4658 14.931 27.884 14.6922C28.2122 14.499 28.5288 14.4704 28.7989 14.5998C28.8263 14.6061 28.8577 14.6167 28.8881 14.6425L30.6408 15.6566C30.6696 15.6733 30.689 15.7024 30.6933 15.7354C30.697 15.7636 30.6894 15.7918 30.6725 15.8141ZM27.0514 18.8492C27.0513 18.8491 27.0515 18.8494 27.0514 18.8492V18.8492Z" fill="#1C1E2C"/>
<path d="M26.9561 18.9139C26.9561 18.9139 26.9841 18.9419 26.9953 18.9419L26.9561 18.9195V18.9139Z" fill="#3251BF"/>
<path d="M31.0855 17.0411C31.0855 18.1773 30.4425 19.4632 29.6555 19.9121C28.8684 20.3611 28.2254 19.8068 28.231 18.6706C28.2365 17.5343 28.8739 16.2429 29.6665 15.794C30.4591 15.345 31.091 15.9048 31.091 17.0411H31.0855Z" fill="#B9E14A"/>
<path fill-rule="evenodd" clip-rule="evenodd" d="M30.6065 15.9032C30.3914 15.7142 30.0869 15.6794 29.7205 15.8869C29.3493 16.0971 29.0043 16.512 28.7507 17.0219C28.4979 17.5303 28.342 18.1212 28.3393 18.6708C28.3366 19.2229 28.492 19.6088 28.7174 19.8046C28.9339 19.9927 29.2401 20.0261 29.6036 19.8188C29.9723 19.6084 30.3174 19.1947 30.5709 18.6862C30.8237 18.1792 30.9795 17.59 30.9795 17.0407V16.9336H30.9831C30.9644 16.4378 30.8161 16.0874 30.6065 15.9032ZM31.192 17.1479H31.1993V17.0407C31.1993 16.4571 31.0376 15.9968 30.7479 15.7422C30.4489 15.4795 30.0412 15.459 29.6149 15.7004C29.1935 15.9391 28.8235 16.3944 28.5589 16.9265C28.2935 17.4602 28.1279 18.0831 28.125 18.6698C28.1222 19.2539 28.2855 19.7132 28.5769 19.9664C28.8773 20.2273 29.2862 20.2465 29.7097 20.0049C30.128 19.7663 30.498 19.3126 30.7627 18.7818C31.012 18.2818 31.1733 17.7028 31.192 17.1479Z" fill="#1C1E2C"/>
<path d="M28.8199 14.735C28.8199 14.735 28.7863 14.7126 28.7583 14.707H28.7639L28.8143 14.735H28.8199Z" fill="#3251BF"/>
<path d="M25.137 21.2476L23.2691 25.4323L21.6341 24.4734L21.5565 24.4291C21.5565 24.4291 21.5287 24.418 21.5177 24.4014C21.235 24.1963 21.0576 23.7529 21.0576 23.1598C21.0576 22.0236 21.7061 20.7266 22.4932 20.2776C22.8036 20.0947 23.0862 20.0781 23.319 20.1945C23.3467 20.2 23.3634 20.2056 23.38 20.2222L25.1426 21.242L25.137 21.2476Z" fill="white"/>
<path fill-rule="evenodd" clip-rule="evenodd" d="M23.2723 20.2901C23.0796 20.1937 22.836 20.2004 22.5487 20.3697L22.5474 20.3705C22.1788 20.5807 21.8323 20.9972 21.5773 21.5086C21.3231 22.0184 21.1659 22.6104 21.1659 23.1596C21.1659 23.7378 21.3396 24.1387 21.5818 24.3144C21.5881 24.319 21.5938 24.3242 21.599 24.33C21.603 24.3317 21.607 24.3336 21.6108 24.3358L21.6894 24.3808L23.2213 25.2791L25.0041 21.2848L23.3275 20.3147C23.3211 20.311 23.315 20.3066 23.3095 20.3016C23.3072 20.301 23.3039 20.3003 23.2992 20.2993C23.2899 20.2974 23.2808 20.2943 23.2723 20.2901ZM25.2291 21.3066L23.3682 25.4757C23.3557 25.5036 23.3321 25.5248 23.303 25.5341C23.274 25.5434 23.2424 25.5399 23.2161 25.5245L21.5816 24.5659L21.5091 24.5245L21.5077 24.5239C21.5027 24.5215 21.496 24.5182 21.4884 24.5138C21.4796 24.5086 21.4617 24.4976 21.445 24.4798C21.1287 24.2424 20.9517 23.7606 20.9517 23.1596C20.9517 22.5725 21.1188 21.9479 21.3855 21.4129C21.6514 20.8798 22.0225 20.4235 22.4406 20.1847C22.7688 19.9915 23.0855 19.9629 23.3555 20.0922C23.383 20.0986 23.4144 20.1092 23.4447 20.1349L25.1974 21.1491C25.2262 21.1657 25.2456 21.1949 25.25 21.2279C25.2537 21.256 25.246 21.2843 25.2291 21.3066ZM21.608 24.3417C21.6079 24.3415 21.6081 24.3418 21.608 24.3417V24.3417Z" fill="#1C1E2C"/>
<path d="M21.5181 24.4008C21.5181 24.4008 21.5461 24.4288 21.5573 24.4288L21.5181 24.4064V24.4008Z" fill="#3251BF"/>
<path d="M25.6421 22.5279C25.6421 23.6642 24.9992 24.9501 24.2121 25.399C23.425 25.848 22.7821 25.2937 22.7876 24.1575C22.7932 23.0212 23.4306 21.7298 24.2232 21.2808C25.0158 20.8319 25.6476 21.3917 25.6476 22.5279H25.6421Z" fill="#B9E14A"/>
<path fill-rule="evenodd" clip-rule="evenodd" d="M25.1631 21.3901C24.948 21.2011 24.6435 21.1662 24.2772 21.3737C23.906 21.584 23.561 21.9989 23.3074 22.5088C23.0546 23.0172 22.8986 23.6081 22.896 24.1577C22.8933 24.7097 23.0487 25.0957 23.2741 25.2915C23.4906 25.4795 23.7967 25.513 24.1602 25.3056C24.5289 25.0953 24.874 24.6815 25.1275 24.1731C25.3804 23.6661 25.5361 23.0769 25.5361 22.5276V22.4205H25.5397C25.5211 21.9247 25.3727 21.5743 25.1631 21.3901ZM25.7486 22.6348H25.756V22.5276C25.756 21.944 25.5942 21.4836 25.3045 21.2291C25.0055 20.9664 24.5978 20.9458 24.1716 21.1873C23.7502 21.426 23.3802 21.8813 23.1155 22.4134C22.8501 22.9471 22.6845 23.57 22.6817 24.1566C22.6788 24.7408 22.8421 25.2001 23.1336 25.4533C23.4339 25.7142 23.8428 25.7334 24.2664 25.4918C24.6847 25.2532 25.0546 24.7995 25.3193 24.2687C25.5687 23.7687 25.73 23.1897 25.7486 22.6348Z" fill="#1C1E2C"/>
<path d="M23.3819 20.2226C23.3819 20.2226 23.3483 20.2002 23.3203 20.1946H23.3259L23.3763 20.2226H23.3819Z" fill="#3251BF"/>
</svg>
