<svg width="40" height="40" viewBox="0 0 40 40" fill="none" xmlns="http://www.w3.org/2000/svg">
<g clip-path="url(#clip0_1378_79499)">
<path d="M30.6037 16.8403L30.6036 16.8403C28.0028 15.4118 24.6744 14.6562 21.3051 14.5655C17.9832 14.4762 14.6094 15.0328 11.8395 16.2394L8.56325 11.0294C12.262 9.32556 16.8437 8.51131 21.384 8.59465C25.9877 8.67914 30.5358 9.68619 34.0668 11.6112L34.0669 11.6113C37.2833 13.3593 39.1439 15.5898 39.6701 17.8767L34.7038 21.239C34.1944 19.6042 32.8214 18.06 30.6037 16.8403Z" fill="#EC7278" stroke="black" stroke-width="0.3"/>
<path d="M11.6422 12.7483L8.50287 10.9861L8.54823 8.9451L11.6876 10.7073L11.6422 12.7483Z" fill="#EC7278" stroke="black" stroke-width="0.3" stroke-linejoin="round"/>
<path d="M39.6891 17.5404H34.7677V15.7589H39.6891V17.5404Z" fill="#EC7278" stroke="black" stroke-width="0.3"/>
<path d="M34.7472 23.0014C34.6401 24.9401 33.376 23.1425 30.776 24.6432C25.1832 27.8599 15.7673 28.217 10.1959 25.0003C5.1816 22.0995 5.0972 20.991 9.31863 17.8963L10.1959 17.0479L10.3109 11.5443L1.49023 17.8574V23.1827C1.49023 24.719 1.88787 26.2683 2.94997 27.3784C10.8448 35.6299 31.0154 35.4539 38.6784 26.8505C39.4051 26.0347 39.7325 24.961 39.7752 23.8693C39.8698 21.4461 40.0085 17.5003 40.0085 17.5003L34.7472 22.9943V23.0014Z" fill="#6160D5" stroke="#1C1E2B" stroke-width="0.3" stroke-linejoin="round"/>
<path d="M30.6037 11.147L30.6036 11.147C28.0028 9.71847 24.6744 8.96289 21.3051 8.87224C17.9631 8.78232 14.5687 9.34624 11.7894 10.568L8.67526 8.81998C12.3543 7.15105 16.8894 6.35395 21.384 6.43644C25.9877 6.52094 30.5358 7.52798 34.0668 9.45299L34.0669 9.45308C37.2445 11.18 39.0987 13.3778 39.6504 15.6356H34.7309C34.2443 13.9675 32.862 12.3891 30.6037 11.147Z" fill="#EFA7AF" stroke="black" stroke-width="0.3"/>
<path d="M34.7681 17.2141C34.661 19.1427 33.3324 21.0499 30.7324 22.5427C25.1395 25.7427 15.9895 25.7427 10.4181 22.5427C5.06096 19.4641 5.09668 14.5999 10.2752 11.5213L6.83239 9.58557C-0.303324 13.7356 -0.446182 20.3856 6.84668 24.607C14.4252 28.9999 26.9252 28.9999 34.5324 24.607C38.1252 22.5284 39.9181 19.8713 39.9824 17.207H34.7752L34.7681 17.2141Z" fill="#94B4F8" stroke="#1C1E2B" stroke-width="0.3" stroke-miterlimit="10"/>
<path d="M20.554 24.5558C27.1733 24.5558 32.5392 21.4573 32.5392 17.635C32.5392 13.8128 27.1733 10.7142 20.554 10.7142C13.9348 10.7142 8.56885 13.8128 8.56885 17.635C8.56885 21.4573 13.9348 24.5558 20.554 24.5558Z" fill="#B9E14A"/>
<path d="M20.554 24.5558C27.1733 24.5558 32.5392 21.4573 32.5392 17.635C32.5392 13.8128 27.1733 10.7142 20.554 10.7142C13.9348 10.7142 8.56885 13.8128 8.56885 17.635C8.56885 21.4573 13.9348 24.5558 20.554 24.5558Z" stroke="#1C1E2C" stroke-width="0.3" stroke-miterlimit="10"/>
<path d="M20.5765 20.9844C27.1957 20.9844 32.5617 17.8859 32.5617 14.0636C32.5617 10.2414 27.1957 7.14282 20.5765 7.14282C13.9573 7.14282 8.59131 10.2414 8.59131 14.0636C8.59131 17.8859 13.9573 20.9844 20.5765 20.9844Z" fill="#F1F1F3"/>
<path d="M20.5765 20.9844C27.1957 20.9844 32.5617 17.8859 32.5617 14.0636C32.5617 10.2414 27.1957 7.14282 20.5765 7.14282C13.9573 7.14282 8.59131 10.2414 8.59131 14.0636C8.59131 17.8859 13.9573 20.9844 20.5765 20.9844Z" stroke="#1C1E2C" stroke-width="0.3" stroke-miterlimit="10"/>
<path d="M20.5551 18.8248C25.4413 18.8248 29.4023 16.5365 29.4023 13.7138C29.4023 10.8911 25.4413 8.60278 20.5551 8.60278C15.669 8.60278 11.708 10.8911 11.708 13.7138C11.708 16.5365 15.669 18.8248 20.5551 18.8248Z" fill="#F1F1F3"/>
<path d="M20.5551 18.8248C25.4413 18.8248 29.4023 16.5365 29.4023 13.7138C29.4023 10.8911 25.4413 8.60278 20.5551 8.60278C15.669 8.60278 11.708 10.8911 11.708 13.7138C11.708 16.5365 15.669 18.8248 20.5551 18.8248Z" stroke="#1C1E2C" stroke-width="0.3" stroke-miterlimit="10"/>
<path d="M11.0156 18.2191V22.5048" stroke="#1C1E2B" stroke-width="0.3" stroke-linejoin="round"/>
<path d="M11.917 18.8483V22.4197" stroke="#1C1E2B" stroke-width="0.3" stroke-linejoin="round"/>
<path d="M12.8101 19.2834V22.8549" stroke="#1C1E2B" stroke-width="0.3" stroke-linejoin="round"/>
<path d="M31.6772 16.7362L31.3683 21.0108" stroke="#1C1E2B" stroke-width="0.3" stroke-linejoin="round"/>
<path d="M30.7397 17.8571L30.4205 22.1309" stroke="#1C1E2B" stroke-width="0.3" stroke-linejoin="round"/>
<path d="M19.4674 11.7803C19.4663 11.7803 19.4658 11.7819 19.4669 11.7825L21.7898 13.0776C21.8639 13.119 21.9589 13.1109 22.0117 13.0445C22.2552 12.7386 22.0646 12.4121 21.4463 12.0712L20.5097 11.5501C20.3725 11.4738 20.3727 11.2764 20.5101 11.2004L20.9262 10.9702C20.9865 10.9368 21.0598 10.9369 21.1201 10.9703L24.9947 13.1229C25.1314 13.1988 25.132 13.3952 24.9958 13.472L24.576 13.7086C24.5155 13.7428 24.4415 13.743 24.3807 13.7093L23.6932 13.3273C23.5729 13.2605 23.418 13.3341 23.3462 13.4514C23.3214 13.492 23.2922 13.5322 23.2586 13.5719C23.1651 13.6826 23.1759 13.8607 23.3025 13.931L23.433 14.0035C23.57 14.0796 23.5702 14.2766 23.4333 14.353L23.0866 14.5465C23.0259 14.5804 22.9519 14.5803 22.8913 14.5463L22.3479 14.2414C22.2961 14.2124 22.2341 14.2082 22.178 14.2279C21.6728 14.4057 21.1204 14.4664 20.5208 14.4247C19.8949 14.3806 19.2956 14.1955 18.749 13.887C18.7187 13.8719 18.6836 13.8964 18.6875 13.9301L18.9426 16.1681C18.9611 16.3304 18.7878 16.4453 18.6455 16.3649L17.5197 15.7289C17.4617 15.6961 17.4238 15.6365 17.4187 15.57L17.2339 13.1601C17.228 13.0821 17.2681 13.0077 17.3365 12.9698L17.9556 12.6274C18.016 12.594 18.0893 12.594 18.1497 12.6276L19.3044 13.27C19.7822 13.5347 20.2364 13.6576 20.6738 13.6385C20.8515 13.6308 20.8825 13.4135 20.7273 13.3269L18.9549 12.3379C18.8495 12.2792 18.8495 12.1277 18.9548 12.0689L19.468 11.7825C19.469 11.7819 19.4686 11.7803 19.4674 11.7803Z" fill="black"/>
</g>
<defs>
<clipPath id="clip0_1378_79499">
<rect width="40" height="40" fill="white"/>
</clipPath>
</defs>
</svg>
