<svg width="40" height="40" viewBox="0 0 40 40" fill="none" xmlns="http://www.w3.org/2000/svg">
<g clip-path="url(#clip0_1378_78113)">
<path d="M5.86523 35.3643L10.5938 38.1072L26.9581 28.6143L22.2295 25.9215L5.86523 35.3643Z" fill="#383D4C"/>
<path d="M22.1868 25.8714L5.86536 35.3785L5.85107 27.8142L8.52965 21.5999L10.9225 22.9357L14.2725 15.5928L17.6296 17.4499L22.2511 8.33566L22.1868 25.8714Z" fill="#2137A5"/>
<path d="M26.9578 28.614L10.6292 38.1282L10.6221 30.564L13.3006 24.3497L15.6935 25.6782L19.0435 18.3425L22.4006 20.1997L27.0221 11.0854L26.9578 28.614Z" fill="#94B4F8"/>
<path d="M10.6292 38.2356C10.6292 38.2356 10.5935 38.2356 10.5792 38.2213C10.5435 38.1999 10.5221 38.1642 10.5221 38.1285L10.5078 30.5713C10.5078 30.5713 10.5078 30.5427 10.515 30.5285L13.1935 24.307C13.1935 24.307 13.2292 24.257 13.2578 24.2499C13.2864 24.2356 13.315 24.2427 13.3435 24.257L15.6364 25.5356L18.9364 18.307C18.9364 18.307 18.9721 18.257 19.0007 18.2499C19.0292 18.2427 19.0578 18.2499 19.0864 18.257L22.3507 20.057L26.915 11.0427C26.9364 10.9999 26.9864 10.9784 27.0364 10.9856C27.0864 10.9999 27.1221 11.0427 27.115 11.0927L27.0578 28.6285C27.0578 28.6642 27.0364 28.6999 27.0078 28.7213L10.6792 38.2285C10.6792 38.2285 10.6435 38.2427 10.6221 38.2427L10.6292 38.2356ZM10.7221 30.5927L10.7364 37.9427L26.8507 28.557L26.9078 11.5356L22.4935 20.2499C22.4935 20.2499 22.4578 20.2927 22.4292 20.307C22.4007 20.3142 22.3721 20.307 22.3435 20.2999L19.0864 18.4999L15.7864 25.7284C15.7864 25.7284 15.7507 25.7784 15.7221 25.7856C15.6935 25.7927 15.665 25.7856 15.6364 25.7785L13.3435 24.4999L10.7221 30.5927Z" fill="#1C1E2C"/>
<path d="M10.6196 30.5637L5.84814 27.8209L5.86243 35.3637L10.6196 38.1209V30.5637Z" fill="#504ECD"/>
<path d="M10.7279 38.3069L5.75647 35.4212L5.74219 27.6284L10.7279 30.4998V38.3069ZM5.97076 35.2998L10.5136 37.9355V30.6284L5.95647 28.0069L5.97076 35.2998Z" fill="#1C1E2C"/>
<path d="M22.2498 8.33566L27.0213 11.0857L22.3998 20.1999L17.6284 17.4499L22.2498 8.33566Z" fill="#504ECD"/>
<path d="M22.4435 20.35L17.4863 17.4928L17.5292 17.4L22.2006 8.18568L27.1578 11.0428L27.1149 11.1357L22.4435 20.35ZM17.772 17.4143L22.3578 20.0571L26.8792 11.1285L22.2935 8.48568L17.772 17.4143Z" fill="#1C1E2C"/>
<path d="M14.2738 15.5929L19.0453 18.3429L15.6953 25.6786L10.9238 22.9358L14.2738 15.5929Z" fill="#504ECD"/>
<path d="M15.7443 25.8287L10.7871 22.9715L10.83 22.8858L14.23 15.4429L19.1871 18.3001L19.1443 18.3858L15.7443 25.8287ZM11.0657 22.8858L15.6514 25.5287L18.9085 18.3858L14.3228 15.7429L11.0657 22.8858Z" fill="#1C1E2C"/>
<path d="M8.52965 21.5995L13.3011 24.3495L10.6225 30.5638L5.85107 27.8209L8.52965 21.5995Z" fill="#504ECD"/>
<path d="M10.6715 30.7211L5.71436 27.8639L8.47864 21.4425L13.4358 24.2997L10.6715 30.7139V30.7211ZM5.98578 27.7711L10.5644 30.4068L13.1572 24.3854L8.5715 21.7425L5.98578 27.7711Z" fill="#1C1E2C"/>
<path d="M34.3586 32.45L22.88 39.1428L22.8657 33.8214L24.7514 29.45L26.4372 30.3857L28.7943 25.2285L31.1586 26.5285L34.4014 20.1214L34.3586 32.45Z" fill="#EFA7AF"/>
<path d="M22.7734 39.3288V33.8002L24.702 29.3002L26.3877 30.2431L28.7449 25.0788L31.1092 26.3859L34.5092 19.6645L34.4663 32.5145L34.4163 32.5431L22.7734 39.3288ZM22.9806 33.8431V38.9502L34.2592 32.3859L34.302 20.5645L31.2092 26.6716L28.852 25.3716L26.4949 30.5359L24.8163 29.6002L22.9877 33.8431H22.9806Z" fill="#1C1E2C"/>
<path d="M22.8646 33.821L19.5146 31.8924L19.5218 37.1996L22.8718 39.1353L22.8646 33.821Z" fill="#EC7278"/>
<path d="M22.9783 39.3213L19.4141 37.2571V31.6999L22.9712 33.7571V39.3213H22.9783ZM19.6283 37.1285L22.7641 38.9428V33.8785L19.6212 32.0713V37.1285H19.6283Z" fill="#1C1E2C"/>
<path d="M31.0508 18.1857L34.4008 20.1214L31.1579 26.5286L27.8008 24.6L31.0508 18.1857Z" fill="#EC7278"/>
<path d="M31.2015 26.6787L27.6587 24.6359L27.7015 24.543L31.0016 18.0287L34.5444 20.0716L34.5015 20.1645L31.2015 26.6787ZM27.9444 24.5573L31.1158 26.3859L34.2658 20.1645L31.0944 18.3359L27.9444 24.5573Z" fill="#1C1E2C"/>
<path d="M25.4372 23.2931L28.7944 25.2288L26.4372 30.386L23.0801 28.4574L25.4372 23.2931Z" fill="#EC7278"/>
<path d="M26.4862 30.5362L22.9434 28.4933L22.9862 28.4076L25.3934 23.1362L28.9362 25.179L28.8934 25.2647L26.4862 30.5362ZM23.2219 28.4076L26.3934 30.2362L28.6576 25.2719L25.4862 23.4433L23.2219 28.4076Z" fill="#1C1E2C"/>
<path d="M21.3927 27.5146L24.7499 29.4504L22.8642 33.8218L19.5142 31.8932L21.3927 27.5146Z" fill="#EC7278"/>
<path d="M22.9149 33.979L19.3721 31.9361L21.3435 27.3647L24.8864 29.4075L22.9149 33.979ZM19.6435 31.8504L22.8078 33.6718L24.6078 29.4933L21.4364 27.6647L19.6364 31.8433L19.6435 31.8504Z" fill="#1C1E2C"/>
<path d="M25.8431 2.97849L23.4359 8.37134L21.3288 7.13563L21.2288 7.07849C21.2288 7.07849 21.1931 7.0642 21.1788 7.04277C20.8145 6.77849 20.5859 6.20706 20.5859 5.44277C20.5859 3.97849 21.4217 2.30706 22.4359 1.72849C22.8359 1.49277 23.2002 1.47134 23.5002 1.62134C23.5359 1.62849 23.5574 1.63563 23.5788 1.65706L25.8502 2.97134L25.8431 2.97849Z" fill="white"/>
<path d="M23.4288 8.48594C23.4288 8.48594 23.3931 8.48594 23.3717 8.47165L21.1788 7.18594C21.136 7.17165 21.1074 7.14308 21.0931 7.1288C20.7003 6.84308 20.4717 6.2288 20.4717 5.45022C20.4717 3.94308 21.3288 2.23594 22.3788 1.64308C22.8003 1.40022 23.2003 1.35737 23.5503 1.53594C23.5645 1.53594 23.6074 1.55022 23.6431 1.57879L25.9003 2.89308C25.9503 2.92165 25.9645 2.9788 25.9431 3.0288L23.536 8.42165C23.536 8.42165 23.5003 8.47165 23.4717 8.4788C23.4574 8.4788 23.4503 8.4788 23.436 8.4788L23.4288 8.48594ZM21.2503 6.98594C21.2503 6.98594 21.2645 6.98594 21.2717 6.99308L23.3788 8.2288L25.7003 3.0288L23.5145 1.75737C23.5145 1.75737 23.5003 1.75022 23.4931 1.74308C23.4931 1.74308 23.4931 1.74308 23.4645 1.74308C23.1645 1.60022 22.836 1.63594 22.4788 1.84308C21.486 2.40737 20.6788 4.0288 20.6788 5.46451C20.6788 6.17165 20.8788 6.7288 21.2288 6.9788C21.2288 6.9788 21.2431 6.99308 21.2503 7.00022V6.98594Z" fill="#1C1E2C"/>
<path d="M21.1719 7.05009C21.1719 7.05009 21.2076 7.08581 21.2219 7.08581L21.1719 7.05724V7.05009Z" fill="#3251BF"/>
<path d="M26.494 4.63596C26.494 6.10025 25.6655 7.75739 24.6512 8.33596C23.6369 8.91453 22.8083 8.20025 22.8155 6.73596C22.8226 5.27168 23.644 3.60739 24.6655 3.02882C25.6869 2.45025 26.5012 3.17168 26.5012 4.63596H26.494Z" fill="#B9E14A"/>
<path d="M23.9655 8.65025C23.7797 8.65025 23.6012 8.6074 23.444 8.51454C22.9726 8.24311 22.7012 7.59311 22.7012 6.74311C22.7012 5.24311 23.5583 3.53597 24.6012 2.94311C25.0512 2.68597 25.494 2.6574 25.8512 2.86454C26.3226 3.14311 26.594 3.78597 26.594 4.63597C26.594 6.12883 25.7369 7.83597 24.694 8.42883C24.444 8.57168 24.194 8.64311 23.9583 8.64311L23.9655 8.65025ZM25.3297 2.94311C25.1369 2.94311 24.9297 3.0074 24.7083 3.12883C23.7226 3.69311 22.9155 5.31454 22.9155 6.74311C22.9155 7.51454 23.144 8.09311 23.5512 8.32883C23.844 8.50025 24.2012 8.47168 24.594 8.25025C25.5797 7.68597 26.3797 6.07168 26.3869 4.64311C26.3869 3.87168 26.1583 3.29311 25.7512 3.0574C25.6226 2.98597 25.4869 2.94311 25.3369 2.94311H25.3297Z" fill="#1C1E2C"/>
<path d="M23.5722 1.66448C23.5722 1.66448 23.5294 1.63591 23.4937 1.62877H23.5008L23.5651 1.66448H23.5722Z" fill="#3251BF"/>
<path d="M19.4871 8.94249L17.08 14.3353L14.9728 13.0996L14.8728 13.0425C14.8728 13.0425 14.8371 13.0282 14.8228 13.0068C14.4586 12.7425 14.23 12.1711 14.23 11.4068C14.23 9.94249 15.0657 8.27106 16.08 7.69249C16.48 7.45678 16.8443 7.43535 17.1443 7.58535C17.18 7.59249 17.2014 7.59963 17.2228 7.62106L19.4943 8.93535L19.4871 8.94249Z" fill="white"/>
<path d="M17.0729 14.4499C17.0729 14.4499 17.0372 14.4499 17.0157 14.4357L14.8229 13.1499C14.78 13.1357 14.7514 13.1071 14.7372 13.0928C14.3443 12.8071 14.1157 12.1928 14.1157 11.4142C14.1157 9.90708 14.9729 8.19994 16.0229 7.60708C16.4443 7.36423 16.8443 7.32137 17.1943 7.49994C17.2086 7.49994 17.2514 7.51423 17.2872 7.5428L19.5443 8.85708C19.5943 8.88566 19.6086 8.9428 19.5872 8.9928L17.18 14.3857C17.18 14.3857 17.1443 14.4357 17.1157 14.4428C17.1014 14.4428 17.0943 14.4428 17.08 14.4428L17.0729 14.4499ZM14.8943 12.9499C14.8943 12.9499 14.9086 12.9499 14.9157 12.9571L17.0229 14.1928L19.3443 8.9928L17.1586 7.72137C17.1586 7.72137 17.1443 7.71423 17.1372 7.70709C17.1372 7.70709 17.1372 7.70709 17.1086 7.70709C16.8086 7.56423 16.48 7.59994 16.1229 7.80709C15.13 8.37137 14.3229 9.9928 14.3229 11.4285C14.3229 12.1357 14.5229 12.6928 14.8729 12.9428C14.8729 12.9428 14.8872 12.9571 14.8943 12.9642V12.9499Z" fill="#1C1E2C"/>
<path d="M14.8159 13.0141C14.8159 13.0141 14.8516 13.0498 14.8659 13.0498L14.8159 13.0212V13.0141Z" fill="#3251BF"/>
<path d="M20.1381 10.6C20.1381 12.0643 19.3095 13.7214 18.2952 14.3C17.2809 14.8785 16.4524 14.1643 16.4595 12.7C16.4667 11.2357 17.2881 9.57139 18.3095 8.99282C19.3309 8.41425 20.1452 9.13568 20.1452 10.6H20.1381Z" fill="#B9E14A"/>
<path d="M17.6095 14.6143C17.4238 14.6143 17.2452 14.5714 17.0881 14.4785C16.6166 14.2071 16.3452 13.5571 16.3452 12.7071C16.3452 11.2071 17.2024 9.49997 18.2452 8.90712C18.6952 8.64997 19.1381 8.6214 19.4952 8.82854C19.9666 9.10712 20.2381 9.74997 20.2381 10.6C20.2381 12.0928 19.3809 13.8 18.3381 14.3928C18.0881 14.5357 17.8381 14.6071 17.6024 14.6071L17.6095 14.6143ZM18.9738 8.90712C18.7809 8.90712 18.5738 8.9714 18.3524 9.09283C17.3666 9.65712 16.5595 11.2785 16.5595 12.7071C16.5595 13.4785 16.7881 14.0571 17.1952 14.2928C17.4881 14.4643 17.8524 14.4357 18.2381 14.2143C19.2238 13.65 20.0238 12.0285 20.0309 10.6071C20.0309 9.83569 19.8024 9.25712 19.3952 9.0214C19.2666 8.94997 19.1309 8.90712 18.9809 8.90712H18.9738Z" fill="#1C1E2C"/>
<path d="M17.2163 7.62849C17.2163 7.62849 17.1734 7.59992 17.1377 7.59277H17.1448L17.2091 7.62849H17.2163Z" fill="#3251BF"/>
<path d="M12.4695 16.0219L10.0624 21.4147L7.95526 20.179L7.85526 20.1219C7.85526 20.1219 7.81955 20.1076 7.80526 20.0862C7.44097 19.8219 7.2124 19.2504 7.2124 18.4862C7.2124 17.0219 8.04812 15.3504 9.0624 14.7719C9.4624 14.5362 9.82669 14.5147 10.1267 14.6647C10.1624 14.6719 10.1838 14.679 10.2053 14.7004L12.4767 16.0147L12.4695 16.0219Z" fill="white"/>
<path d="M10.0636 21.5217C10.0636 21.5217 10.0279 21.5217 10.0064 21.5074L7.81359 20.2217C7.77073 20.2074 7.7493 20.1789 7.72787 20.1646C7.33502 19.8789 7.10645 19.2646 7.10645 18.486C7.10645 16.9789 7.96359 15.2717 9.01359 14.6789C9.43502 14.436 9.83502 14.3932 10.185 14.5646C10.1993 14.5646 10.2422 14.5789 10.2779 14.6074L12.535 15.9217C12.585 15.9503 12.5993 16.0074 12.5779 16.0574L10.1707 21.4503C10.1707 21.4503 10.135 21.5003 10.1064 21.5074C10.0922 21.5074 10.085 21.5074 10.0707 21.5074L10.0636 21.5217ZM7.88502 20.0217C7.88502 20.0217 7.8993 20.0217 7.90645 20.0289L10.0136 21.2646L12.335 16.0646L10.1493 14.7932C10.1493 14.7932 10.135 14.786 10.1279 14.7789C10.1279 14.7789 10.1279 14.7789 10.0993 14.7789C9.7993 14.636 9.46359 14.6717 9.11359 14.8789C8.12073 15.436 7.31359 17.0646 7.31359 18.5003C7.31359 19.2074 7.51359 19.7646 7.86359 20.0146C7.86359 20.0146 7.87787 20.0289 7.88502 20.036V20.0217Z" fill="#1C1E2C"/>
<path d="M7.80664 20.0935C7.80664 20.0935 7.84235 20.1292 7.85664 20.1292L7.80664 20.1006V20.0935Z" fill="#3251BF"/>
<path d="M13.1205 17.6719C13.1205 19.1361 12.2919 20.7933 11.2777 21.3719C10.2634 21.9504 9.4348 21.2361 9.44194 19.7719C9.44908 18.3076 10.2705 16.6433 11.2919 16.0647C12.3134 15.4861 13.1277 16.2076 13.1277 17.6719H13.1205Z" fill="#B9E14A"/>
<path d="M10.6002 21.686C10.4145 21.686 10.2359 21.6431 10.0788 21.5503C9.60737 21.2788 9.33594 20.6288 9.33594 19.7788C9.33594 18.2788 10.1931 16.5717 11.2359 15.9788C11.6859 15.7217 12.1288 15.6931 12.4859 15.9003C12.9574 16.1788 13.2288 16.8217 13.2288 17.6717C13.2288 19.1645 12.3717 20.8717 11.3288 21.4645C11.0788 21.6074 10.8288 21.6788 10.5931 21.6788L10.6002 21.686ZM11.9645 15.9788C11.7717 15.9788 11.5645 16.0431 11.3431 16.1645C10.3574 16.7288 9.55022 18.3503 9.55022 19.7788C9.55022 20.5503 9.77879 21.1288 10.1859 21.3645C10.4788 21.536 10.8359 21.5074 11.2288 21.286C12.2145 20.7217 13.0145 19.1003 13.0217 17.6788C13.0217 16.9074 12.7931 16.3288 12.3859 16.0931C12.2574 16.0217 12.1217 15.9788 11.9717 15.9788H11.9645Z" fill="#1C1E2C"/>
<path d="M10.207 14.7002C10.207 14.7002 10.1641 14.6716 10.1284 14.6645H10.1356L10.1998 14.7002H10.207Z" fill="#3251BF"/>
</g>
<defs>
<clipPath id="clip0_1378_78113">
<rect width="28.8286" height="37.9" fill="white" transform="translate(5.71436 1.42857)"/>
</clipPath>
</defs>
</svg>
