<svg width="40" height="40" viewBox="0 0 40 40" fill="none" xmlns="http://www.w3.org/2000/svg">
<g clip-path="url(#clip0_1378_79433)">
<path d="M26.5319 15.46L22.1045 16.5116V9.32102L26.9407 4.07129V3.25048L26.1405 2.85718L11.2143 19.0937L3.12487 21.0089L2.95961 21.0517V21.8212L3.39452 22.0521V27.5925L1.60268 29.5419L1.42871 29.73L2.63777 30.4824L11.9884 20.3249L27.1321 16.7254L27.2973 16.6826V15.8704L26.5406 15.4685L26.5319 15.46ZM9.55289 20.8978L4.88192 25.9765V22.0093L9.55289 20.8978ZM20.7041 16.8451L13.6411 18.5209L20.7041 10.8429V16.8451Z" fill="white"/>
<mask id="mask0_1378_79433" style="mask-type:luminance" maskUnits="userSpaceOnUse" x="1" y="2" width="27" height="29">
<path d="M26.5319 15.46L22.1045 16.5116V9.32102L26.9407 4.07129V3.25048L26.1405 2.85718L11.2143 19.0937L3.12487 21.0089L2.95961 21.0517V21.8212L3.39452 22.0521V27.5925L1.60268 29.5419L1.42871 29.73L2.63777 30.4824L11.9884 20.3249L27.1321 16.7254L27.2973 16.6826V15.8704L26.5406 15.4685L26.5319 15.46ZM9.55289 20.8978L4.88192 25.9765V22.0093L9.55289 20.8978ZM20.7041 16.8451L13.6411 18.5209L20.7041 10.8429V16.8451Z" fill="white"/>
</mask>
<g mask="url(#mask0_1378_79433)">
<path d="M27.3679 15.8789L3.78693 21.368L3.76953 22.3085L27.3679 16.6912V15.8789Z" fill="#FF7478"/>
<path d="M4.02051 28.1058V22.2319L4.88164 22.0096L4.89033 27.1482L4.02051 28.1058Z" fill="#FF7478"/>
<path d="M2.63823 30.474L2.08154 30.1747L26.9412 3.25061V4.07142L2.63823 30.474Z" fill="#FF7478"/>
<path d="M21.0699 17.3754L22.1311 17.0933L22.105 9.32129L21.0352 10.5012L21.0699 17.3754Z" fill="#FF7478"/>
</g>
<path d="M36.8733 10.3473L35.5946 9.61203L33.8811 8.57747L32.0806 7.67117L30.367 6.67936L28.6534 5.68755L26.9399 4.7385L25.9309 4.17419C24.2608 6.46561 22.6342 8.74847 20.9642 10.9971C18.9897 13.7161 17.0065 16.3067 14.945 19.0342C12.7878 21.7959 10.0652 22.8817 6.68162 22.1464C6.02055 21.9754 5.31599 21.7104 4.48096 21.4539L7.64713 23.181L9.01275 24.0018L10.8568 24.9936L12.5269 25.9854L14.1534 26.8917L16.5715 28.234L17.8937 29.0121C17.9372 29.0121 18.0242 29.0121 18.0676 29.0548C18.1981 29.0976 18.3721 29.1404 18.5113 29.1831H18.5547C21.8949 29.9184 24.6174 28.8411 26.8181 26.0281C28.8361 23.352 30.8628 20.6758 32.7938 18.0338C34.5074 15.6569 36.2644 13.28 37.978 10.9544L36.882 10.3473H36.8733Z" fill="#6B91FC"/>
<mask id="mask1_1378_79433" style="mask-type:luminance" maskUnits="userSpaceOnUse" x="4" y="4" width="34" height="26">
<path d="M36.8733 10.3473L35.5946 9.61203L33.8811 8.57747L32.0806 7.67117L30.367 6.67936L28.6534 5.68755L26.9399 4.7385L25.9309 4.17419C24.2608 6.46561 22.6342 8.74847 20.9642 10.9971C18.9897 13.7161 17.0065 16.3067 14.945 19.0342C12.7878 21.7959 10.0652 22.8817 6.68162 22.1464C6.02055 21.9754 5.31599 21.7104 4.48096 21.4539L7.64713 23.181L9.01275 24.0018L10.8568 24.9936L12.5269 25.9854L14.1534 26.8917L16.5715 28.234L17.8937 29.0121C17.9372 29.0121 18.0242 29.0121 18.0676 29.0548C18.1981 29.0976 18.3721 29.1404 18.5113 29.1831H18.5547C21.8949 29.9184 24.6174 28.8411 26.8181 26.0281C28.8361 23.352 30.8628 20.6758 32.7938 18.0338C34.5074 15.6569 36.2644 13.28 37.978 10.9544L36.882 10.3473H36.8733Z" fill="white"/>
</mask>
<g mask="url(#mask1_1378_79433)">
<path fill-rule="evenodd" clip-rule="evenodd" d="M25.9625 7.56957C26.5462 6.7623 27.132 5.95217 27.7242 5.13965L28.3137 5.56931C27.725 6.377 27.1408 7.18494 26.5577 7.99133C25.4903 9.46753 24.4266 10.9386 23.3462 12.3933C21.7513 14.5895 20.1503 16.7027 18.5097 18.8681C18.1169 19.3866 17.7218 19.9081 17.324 20.4344L17.3205 20.439L17.3205 20.439C16.2101 21.8605 14.9392 22.8694 13.4915 23.4227C12.0423 23.9764 10.4424 24.0634 8.69222 23.6831L8.68524 23.6816L8.67833 23.6798C8.26922 23.574 7.82985 23.4284 7.36643 23.2749C7.07399 23.1781 6.77196 23.078 6.46191 22.9828L6.67612 22.2855C7.02489 22.3926 7.34025 22.4973 7.63517 22.5953C8.07225 22.7404 8.46447 22.8707 8.85414 22.9718C10.4847 23.325 11.9356 23.2363 13.2311 22.7412C14.5291 22.2452 15.6974 21.3311 16.7438 19.9923C17.1422 19.4652 17.5374 18.9435 17.9301 18.4251C19.5707 16.2597 21.1666 14.1533 22.7571 11.9631L22.7594 11.9599L22.7594 11.9599C23.8378 10.5079 24.8967 9.0435 25.9625 7.56957Z" fill="#2C5AE7"/>
<path fill-rule="evenodd" clip-rule="evenodd" d="M28.5547 9.00599C29.1385 8.19871 29.7243 7.38858 30.3165 6.57605L30.906 7.00571C30.3173 7.8134 29.7331 8.62134 29.15 9.42774C28.0826 10.9039 27.0189 12.375 25.9385 13.8298C24.3435 16.026 22.7426 18.1391 21.102 20.3045C20.7092 20.823 20.3141 21.3445 19.9163 21.8708L19.9128 21.8754L19.9128 21.8754C18.8024 23.2969 17.5315 24.3058 16.0838 24.8591C14.6346 25.4128 13.0347 25.4999 11.2845 25.1195L11.2775 25.118L11.2706 25.1162C10.8615 25.0104 10.4221 24.8649 9.95872 24.7113C9.66627 24.6145 9.36425 24.5144 9.0542 24.4192L9.2684 23.7219C9.61718 23.829 9.93253 23.9337 10.2275 24.0317C10.6645 24.1768 11.0568 24.3071 11.4464 24.4082C13.077 24.7614 14.5279 24.6727 15.8234 24.1776C17.1214 23.6816 18.2897 22.7675 19.3361 21.4286C19.7345 20.9015 20.1298 20.3798 20.5225 19.8614C22.163 17.696 23.7589 15.5897 25.3494 13.3995L25.3517 13.3963L25.3517 13.3964C26.4301 11.9443 27.489 10.4799 28.5547 9.00599Z" fill="#2C5AE7"/>
<path fill-rule="evenodd" clip-rule="evenodd" d="M31.1465 10.442C31.7303 9.63475 32.3161 8.82462 32.9083 8.01208L33.4978 8.44175C32.9091 9.24944 32.3249 10.0574 31.7418 10.8638C30.6744 12.34 29.6107 13.811 28.5303 15.2658C26.9353 17.462 25.3344 19.5751 23.6938 21.7406C23.301 22.259 22.9059 22.7805 22.5081 23.3068L22.5046 23.3115L22.5046 23.3114C21.3942 24.733 20.1233 25.7419 18.6756 26.2951C17.2264 26.8489 15.6265 26.9359 13.8763 26.5556L13.8693 26.554L13.8624 26.5522C13.4533 26.4464 13.0139 26.3009 12.5505 26.1474C12.258 26.0505 11.956 25.9505 11.646 25.8552L11.8602 25.1579C12.209 25.265 12.5243 25.3698 12.8193 25.4677C13.2563 25.6128 13.6486 25.7431 14.0382 25.8442C15.6688 26.1974 17.1197 26.1087 18.4152 25.6137C19.7132 25.1177 20.8815 24.2036 21.9279 22.8647C22.3263 22.3376 22.7216 21.8158 23.1143 21.2975C24.7548 19.132 26.3507 17.0257 27.9412 14.8355L27.9435 14.8324L27.9435 14.8324C29.0219 13.3803 30.0808 11.9159 31.1465 10.442Z" fill="#2C5AE7"/>
<path fill-rule="evenodd" clip-rule="evenodd" d="M33.7388 11.879C34.3226 11.0718 34.9083 10.2616 35.5005 9.4491L36.0901 9.87876C35.5014 10.6864 34.9172 11.4944 34.3341 12.3007C33.2667 13.7769 32.2031 15.2479 31.1226 16.7027C29.5277 18.8989 27.9267 21.0121 26.2861 23.1775C25.8933 23.696 25.4982 24.2175 25.1004 24.7438L25.0969 24.7485L25.0968 24.7484C23.9865 26.17 22.7156 27.1789 21.2678 27.7321C19.8187 28.2859 18.2188 28.3729 16.4686 27.9926L16.4616 27.991L16.4547 27.9893C16.0456 27.8834 15.6062 27.7379 15.1428 27.5844C14.8504 27.4875 14.5483 27.3875 14.2383 27.2922L14.4525 26.5949C14.8013 26.7021 15.1166 26.8068 15.4115 26.9047C15.8486 27.0499 16.2408 27.1801 16.6305 27.2812C18.2611 27.6344 19.712 27.5457 21.0074 27.0507C22.3055 26.5547 23.4738 25.6406 24.5202 24.3016C24.9186 23.7746 25.3138 23.2529 25.7065 22.7346C27.3471 20.5691 28.9429 18.4627 30.5335 16.2725L30.5358 16.2694L30.5358 16.2694C31.6142 14.8173 32.6731 13.353 33.7388 11.879Z" fill="#2C5AE7"/>
</g>
<path d="M16.1379 28.3449L17.6253 28.0799C17.6253 28.0799 7.29173 22.2744 4.21254 20.4447C3.98639 20.3079 3.33402 20.4703 3.16875 20.6755C3.04697 20.8294 3.01218 21.3339 3.16875 21.4451C5.56077 23.1294 15.4507 28.4219 15.4507 28.4219L15.5203 28.4646L16.1379 28.8152V28.3535V28.3449Z" fill="#6B91FC"/>
<path d="M38.5274 22.1291L34.1 23.1808V15.9902L38.9362 10.7405V9.91967L38.136 9.52637L23.2011 25.7629L15.1117 27.6781L14.9464 27.7209V28.4904L15.3813 28.7212V34.2617L13.5895 36.2111L13.4155 36.3992L14.6246 37.1516L23.9752 26.9941L39.1189 23.3946L39.2842 23.3518V22.5395L38.5274 22.1377V22.1291ZM21.5484 27.567L16.8774 32.6457V28.6785L21.5484 27.567ZM32.6996 23.5143L25.6366 25.1901L32.6996 17.5121V23.5143Z" fill="white"/>
<mask id="mask2_1378_79433" style="mask-type:luminance" maskUnits="userSpaceOnUse" x="13" y="9" width="27" height="29">
<path d="M38.5274 22.1291L34.1 23.1808V15.9902L38.9362 10.7405V9.91967L38.136 9.52637L23.2011 25.7629L15.1117 27.6781L14.9464 27.7209V28.4904L15.3813 28.7212V34.2617L13.5895 36.2111L13.4155 36.3992L14.6246 37.1516L23.9752 26.9941L39.1189 23.3946L39.2842 23.3518V22.5395L38.5274 22.1377V22.1291ZM21.5484 27.567L16.8774 32.6457V28.6785L21.5484 27.567ZM32.6996 23.5143L25.6366 25.1901L32.6996 17.5121V23.5143Z" fill="white"/>
</mask>
<g mask="url(#mask2_1378_79433)">
<path d="M39.3626 22.5397L15.7816 28.0288L15.7729 28.9693L39.3626 23.3519V22.5397Z" fill="#FF7478"/>
<path d="M16.0156 34.7752V28.9013L16.8768 28.6704L16.8855 33.809L16.0156 34.7752Z" fill="#FF7478"/>
<path d="M14.6333 37.1433L14.0767 36.844L38.9363 9.91138V10.7322L14.6333 37.1433Z" fill="#FF7478"/>
<path d="M33.0651 24.0362L34.1263 23.7626L34.1002 15.9821L33.0303 17.162L33.0651 24.0362Z" fill="#FF7478"/>
</g>
</g>
<path d="M30.7838 37.7887C34.7669 37.7887 37.9958 35.9248 37.9958 33.6256C37.9958 31.3263 34.7669 29.4624 30.7838 29.4624C26.8007 29.4624 23.5718 31.3263 23.5718 33.6256C23.5718 35.9248 26.8007 37.7887 30.7838 37.7887Z" fill="#B9E14A"/>
<path d="M30.7838 37.7887C34.7669 37.7887 37.9958 35.9248 37.9958 33.6256C37.9958 31.3263 34.7669 29.4624 30.7838 29.4624C26.8007 29.4624 23.5718 31.3263 23.5718 33.6256C23.5718 35.9248 26.8007 37.7887 30.7838 37.7887Z" stroke="#1C1E2C" stroke-width="0.3" stroke-miterlimit="10"/>
<path d="M30.7989 36.1792C34.782 36.1792 38.0109 34.3153 38.0109 32.0161C38.0109 29.7168 34.782 27.8529 30.7989 27.8529C26.8158 27.8529 23.5869 29.7168 23.5869 32.0161C23.5869 34.3153 26.8158 36.1792 30.7989 36.1792Z" fill="#728DF2"/>
<path d="M30.7989 36.1792C34.782 36.1792 38.0109 34.3153 38.0109 32.0161C38.0109 29.7168 34.782 27.8529 30.7989 27.8529C26.8158 27.8529 23.5869 29.7168 23.5869 32.0161C23.5869 34.3153 26.8158 36.1792 30.7989 36.1792Z" stroke="#1C1E2C" stroke-width="0.3" stroke-miterlimit="10"/>
<path d="M30.7848 34.8713C33.7251 34.8713 36.1087 33.4959 36.1087 31.7992C36.1087 30.1026 33.7251 28.7272 30.7848 28.7272C27.8445 28.7272 25.4609 30.1026 25.4609 31.7992C25.4609 33.4959 27.8445 34.8713 30.7848 34.8713Z" fill="#F1F1F3"/>
<path d="M30.7848 34.8713C33.7251 34.8713 36.1087 33.4959 36.1087 31.7992C36.1087 30.1026 33.7251 28.7272 30.7848 28.7272C27.8445 28.7272 25.4609 30.1026 25.4609 31.7992C25.4609 33.4959 27.8445 34.8713 30.7848 34.8713Z" stroke="#1C1E2C" stroke-width="0.3" stroke-miterlimit="10"/>
<path d="M30.7838 34.9801C34.7669 34.9801 37.9958 33.1162 37.9958 30.817C37.9958 28.5177 34.7669 26.6538 30.7838 26.6538C26.8007 26.6538 23.5718 28.5177 23.5718 30.817C23.5718 33.1162 26.8007 34.9801 30.7838 34.9801Z" fill="#B9E14A"/>
<path d="M30.7838 34.9801C34.7669 34.9801 37.9958 33.1162 37.9958 30.817C37.9958 28.5177 34.7669 26.6538 30.7838 26.6538C26.8007 26.6538 23.5718 28.5177 23.5718 30.817C23.5718 33.1162 26.8007 34.9801 30.7838 34.9801Z" stroke="#1C1E2C" stroke-width="0.3" stroke-miterlimit="10"/>
<path d="M30.7989 33.3698C34.782 33.3698 38.0109 31.5059 38.0109 29.2066C38.0109 26.9074 34.782 25.0435 30.7989 25.0435C26.8158 25.0435 23.5869 26.9074 23.5869 29.2066C23.5869 31.5059 26.8158 33.3698 30.7989 33.3698Z" fill="#728DF2"/>
<path d="M30.7989 33.3698C34.782 33.3698 38.0109 31.5059 38.0109 29.2066C38.0109 26.9074 34.782 25.0435 30.7989 25.0435C26.8158 25.0435 23.5869 26.9074 23.5869 29.2066C23.5869 31.5059 26.8158 33.3698 30.7989 33.3698Z" stroke="#1C1E2C" stroke-width="0.3" stroke-miterlimit="10"/>
<path d="M30.7848 32.0705C33.7251 32.0705 36.1087 30.6951 36.1087 28.9985C36.1087 27.3018 33.7251 25.9264 30.7848 25.9264C27.8445 25.9264 25.4609 27.3018 25.4609 28.9985C25.4609 30.6951 27.8445 32.0705 30.7848 32.0705Z" fill="#F1F1F3"/>
<path d="M30.7848 32.0705C33.7251 32.0705 36.1087 30.6951 36.1087 28.9985C36.1087 27.3018 33.7251 25.9264 30.7848 25.9264C27.8445 25.9264 25.4609 27.3018 25.4609 28.9985C25.4609 30.6951 27.8445 32.0705 30.7848 32.0705Z" stroke="#1C1E2C" stroke-width="0.3" stroke-miterlimit="10"/>
<path d="M30.7916 32.1864C34.7747 32.1864 38.0036 30.3225 38.0036 28.0233C38.0036 25.724 34.7747 23.8601 30.7916 23.8601C26.8085 23.8601 23.5796 25.724 23.5796 28.0233C23.5796 30.3225 26.8085 32.1864 30.7916 32.1864Z" fill="#B9E14A"/>
<path d="M30.7916 32.1864C34.7747 32.1864 38.0036 30.3225 38.0036 28.0233C38.0036 25.724 34.7747 23.8601 30.7916 23.8601C26.8085 23.8601 23.5796 25.724 23.5796 28.0233C23.5796 30.3225 26.8085 32.1864 30.7916 32.1864Z" stroke="#1C1E2C" stroke-width="0.3" stroke-miterlimit="10"/>
<path d="M30.8067 30.577C34.7898 30.577 38.0187 28.7131 38.0187 26.4139C38.0187 24.1146 34.7898 22.2507 30.8067 22.2507C26.8237 22.2507 23.5947 24.1146 23.5947 26.4139C23.5947 28.7131 26.8237 30.577 30.8067 30.577Z" fill="#728DF2"/>
<path d="M30.8067 30.577C34.7898 30.577 38.0187 28.7131 38.0187 26.4139C38.0187 24.1146 34.7898 22.2507 30.8067 22.2507C26.8237 22.2507 23.5947 24.1146 23.5947 26.4139C23.5947 28.7131 26.8237 30.577 30.8067 30.577Z" stroke="#1C1E2C" stroke-width="0.3" stroke-miterlimit="10"/>
<path d="M30.7926 29.269C33.7329 29.269 36.1165 27.8936 36.1165 26.1969C36.1165 24.5003 33.7329 23.1249 30.7926 23.1249C27.8523 23.1249 25.4688 24.5003 25.4688 26.1969C25.4688 27.8936 27.8523 29.269 30.7926 29.269Z" fill="#F1F1F3"/>
<path d="M30.7926 29.269C33.7329 29.269 36.1165 27.8936 36.1165 26.1969C36.1165 24.5003 33.7329 23.1249 30.7926 23.1249C27.8523 23.1249 25.4688 24.5003 25.4688 26.1969C25.4688 27.8936 27.8523 29.269 30.7926 29.269Z" stroke="#1C1E2C" stroke-width="0.3" stroke-miterlimit="10"/>
<defs>
<clipPath id="clip0_1378_79433">
<rect width="37.9331" height="34.2857" fill="white" transform="translate(1.42871 2.85718)"/>
</clipPath>
</defs>
</svg>
