<svg width="40" height="40" viewBox="0 0 40 40" fill="none" xmlns="http://www.w3.org/2000/svg">
<path d="M13.9185 6.26062C9.10109 10.2991 5.96465 13.8318 5.60249 19.2437C5.24032 24.6625 13.7818 29.1861 16.3238 29.1861C21.1959 29.1861 24.5168 25.6806 25.248 25.1681C26.6625 24.1705 27.3663 20.747 27.175 19.2437C26.437 13.3877 23.8403 10.5109 18.3806 6.26062H13.9185Z" fill="#9795E8"/>
<path fill-rule="evenodd" clip-rule="evenodd" d="M13.8807 6.15808H18.4153L18.4431 6.1797C21.1741 8.30571 23.1982 10.095 24.6312 12.0902C26.0664 14.0884 26.9053 16.2883 27.2761 19.2308C27.3741 20.0007 27.2428 21.247 26.9118 22.4233C26.7459 23.0127 26.5288 23.5886 26.2624 24.0817C25.9966 24.5736 25.6782 24.9898 25.3066 25.2519C25.2086 25.3206 25.0596 25.4476 24.8631 25.6152C23.6387 26.66 20.5581 29.2885 16.3233 29.2885C15.6657 29.2885 14.6391 28.9985 13.4834 28.4883C12.3239 27.9765 11.0225 27.2379 9.81204 26.3289C7.39878 24.5166 5.31492 22.0016 5.4997 19.2369C5.86486 13.7802 9.03128 10.2234 13.8522 6.18203L13.8807 6.15808ZM13.9553 6.36308C9.1576 10.3886 6.0627 13.894 5.70424 19.2505C5.52686 21.9046 7.53269 24.3608 9.93514 26.1649C11.1326 27.0642 12.4205 27.7951 13.5662 28.3008C14.7156 28.8082 15.7099 29.0835 16.3233 29.0835C20.4669 29.0835 23.4713 26.5286 24.7172 25.4691C24.9234 25.2937 25.0815 25.1593 25.1886 25.0842C25.5241 24.8475 25.8241 24.4617 26.082 23.9842C26.3394 23.5078 26.5515 22.9468 26.7145 22.3678C27.0411 21.207 27.1661 19.99 27.0728 19.2566C26.7056 16.3431 25.8772 14.1765 24.4647 12.2098C23.0547 10.2467 21.0595 8.47776 18.3449 6.36308H18.3801V6.26058L18.3171 6.34146C18.3264 6.34867 18.3357 6.35588 18.3449 6.36308H13.9553Z" fill="black"/>
<path d="M21.1679 3.59583L18.3799 6.26078L16.1933 7.2311C16.1933 7.2311 14.4303 6.60928 13.9178 6.26078C13.009 5.64579 11.1162 3.62316 11.1162 3.62316L21.1679 3.59583Z" fill="#514ED8"/>
<path fill-rule="evenodd" clip-rule="evenodd" d="M24.15 12.8087C24.141 13.7543 24.2509 14.5813 24.6868 15.2553C24.8405 15.493 24.7725 15.8102 24.5348 15.964C24.2972 16.1177 23.9799 16.0496 23.8262 15.812C23.2235 14.8802 23.1155 13.8032 23.1251 12.799C23.129 12.3852 23.1537 11.9661 23.1771 11.5667C23.1822 11.4805 23.1872 11.3953 23.1919 11.3112C23.2191 10.8289 23.2377 10.3801 23.216 9.963C23.1726 9.1298 22.9733 8.51336 22.4491 8.08424C21.9023 7.63651 20.8983 7.30517 19.0282 7.3269C18.7452 7.33019 18.5131 7.10342 18.5098 6.82039C18.5065 6.53737 18.7333 6.30527 19.0163 6.30198C20.9694 6.27929 22.2716 6.6142 23.0985 7.29117C23.948 7.98676 24.1898 8.95349 24.2396 9.90974C24.2644 10.3874 24.2426 10.8848 24.2153 11.3689C24.2103 11.4583 24.205 11.5473 24.1999 11.6357C24.1765 12.034 24.1537 12.4226 24.15 12.8087Z" fill="#F4F4F6" stroke="black" stroke-width="0.3" stroke-miterlimit="10" stroke-linecap="round"/>
<path fill-rule="evenodd" clip-rule="evenodd" d="M18.4644 6.5457C18.6089 6.30229 18.9233 6.22207 19.1667 6.36652C19.9719 6.84437 20.579 7.47146 20.9022 8.30136C21.2233 9.12554 21.2407 10.0893 20.9829 11.2007C20.9189 11.4764 20.6435 11.648 20.3678 11.5841C20.0921 11.5201 19.9204 11.2447 19.9844 10.969C20.2117 9.98943 20.1711 9.2483 19.9471 8.67337C19.7254 8.10417 19.3007 7.63795 18.6436 7.24797C18.4002 7.10352 18.32 6.7891 18.4644 6.5457Z" fill="#F4F4F6" stroke="black" stroke-width="0.3" stroke-miterlimit="10" stroke-linecap="round"/>
<path fill-rule="evenodd" clip-rule="evenodd" d="M19.6133 6.10335C19.7643 6.34273 19.6927 6.65922 19.4533 6.81025C17.9432 7.76299 16.4404 7.77397 15.3318 7.55151C14.7791 7.44058 14.3201 7.27124 13.9982 7.12914C13.8368 7.05792 13.7087 6.99303 13.6191 6.94482C13.5743 6.92069 13.539 6.90069 13.5139 6.88609C13.5013 6.87879 13.4913 6.87283 13.4839 6.86837L13.4748 6.86284L13.4717 6.86095L13.4706 6.86024C13.4692 6.85938 13.2512 6.68551 13.4697 6.85967C13.2294 6.71004 13.1559 6.39398 13.3056 6.15372C13.455 5.91385 13.7702 5.84023 14.0104 5.98891L14.0129 5.99046L14.0293 6.00012C14.0451 6.0093 14.0704 6.02372 14.1047 6.04218C14.1734 6.07915 14.2776 6.13207 14.4121 6.19143C14.6818 6.3105 15.069 6.45334 15.5335 6.54656C16.4595 6.73238 17.6763 6.71944 18.9064 5.94338C19.1457 5.79235 19.4622 5.86397 19.6133 6.10335Z" fill="#F4F4F6" stroke="black" stroke-width="0.3" stroke-miterlimit="10" stroke-linecap="round"/>
<path d="M19.5961 4.25823C21.6529 3.78674 22.0971 2.81642 20.2726 2.24243C18.4481 1.66844 15.1955 1.62744 12.9952 2.16043C10.7949 2.69342 10.4806 3.59541 12.2982 4.17623C14.1159 4.75706 17.3822 4.76389 19.5961 4.25823Z" fill="#9795E8"/>
<path fill-rule="evenodd" clip-rule="evenodd" d="M16.7752 1.68378C18.0968 1.69922 19.3771 1.85346 20.3025 2.14462C20.7649 2.29009 21.0971 2.46445 21.2967 2.65999C21.5009 2.85993 21.5727 3.09099 21.485 3.32474C21.4021 3.54566 21.1847 3.7444 20.8747 3.91485C20.5614 4.08709 20.1382 4.23889 19.6182 4.3581L19.6181 4.35812C18.5017 4.6131 17.1234 4.73827 15.7969 4.72712C14.4714 4.71597 13.1889 4.56867 12.2662 4.27383C11.8063 4.12685 11.4688 3.95604 11.2611 3.76694C11.0502 3.57496 10.9614 3.35043 11.0423 3.11679C11.1184 2.8974 11.3356 2.70064 11.6527 2.52846C11.9738 2.35413 12.4153 2.19521 12.9703 2.06078C14.0808 1.79177 15.4529 1.66834 16.7752 1.68378ZM16.7728 1.88877C15.4627 1.87346 14.1083 1.99603 13.0185 2.26001C12.4734 2.39207 12.0505 2.54577 11.7506 2.70861C11.4467 2.87361 11.2864 3.03858 11.236 3.18392C11.1906 3.315 11.2265 3.45819 11.3991 3.61535C11.5749 3.77538 11.8797 3.93512 12.3286 4.07856C13.2236 4.36454 14.483 4.51107 15.7986 4.52213C17.1131 4.53318 18.4749 4.40894 19.5725 4.15827C20.0808 4.04173 20.4845 3.89544 20.7759 3.73521C21.0706 3.57318 21.2359 3.40506 21.2931 3.25271C21.3454 3.1132 21.3148 2.96459 21.1533 2.80643C20.9873 2.64387 20.6909 2.48169 20.241 2.34016C19.342 2.05733 18.0838 1.90408 16.7728 1.88877Z" fill="black"/>
<path fill-rule="evenodd" clip-rule="evenodd" d="M14.0133 16.0882L15.5162 16.9513V15.898L10.9038 13.254V14.5259L11.7041 14.9822C12.4776 15.4217 12.9727 16.0322 13.169 16.7871L10.9106 15.4881V16.5415L13.2473 17.8835C13.2025 18.3001 13.0527 18.5312 12.8425 18.6184C12.6077 18.7158 12.2305 18.6654 11.6822 18.3526L10.9106 17.9064V19.09L10.924 19.1179C11.8932 21.1451 12.6441 22.8583 13.4504 24.7033L13.4683 24.7443L14.8552 25.5478L14.6919 25.1685C13.8836 23.2909 13.0682 21.4165 12.3072 19.8292C12.8357 20.0393 13.3008 20.0561 13.6674 19.8533C14.0696 19.6309 14.3063 19.1701 14.3877 18.5383L15.5231 19.193V18.1391L14.3884 17.4926C14.3356 16.9692 14.2011 16.5026 14.0133 16.0882ZM13.3638 17.0568C13.3546 16.9973 13.3439 16.9386 13.3315 16.8806C13.1493 16.0269 12.6163 15.3433 11.7716 14.8634L11.0405 14.4465V13.4899L11.0406 13.49V14.4466L11.7718 14.8634C12.6737 15.3759 13.2204 16.1207 13.3639 17.0569L13.3638 17.0568ZM11.0473 15.7244L11.0474 15.7244V16.4624L13.3912 17.8085C13.3401 18.5405 12.9937 18.9043 12.3549 18.7738C12.9936 18.9043 13.3399 18.5404 13.3911 17.8085L11.0473 16.4623V15.7244ZM11.0474 18.1434L11.0473 18.1433V19.059C12.0176 21.0884 12.7693 22.8036 13.5756 24.6485L14.5664 25.2225L14.5664 25.2225L13.5757 24.6486C12.7694 22.8036 12.0178 21.0885 11.0474 19.059V18.1434ZM12.0178 19.5442C12.0856 19.58 12.1521 19.6128 12.2173 19.6424C12.3685 19.7112 12.5127 19.7634 12.6494 19.7994C12.4538 19.7479 12.2429 19.6631 12.0178 19.5442C12.0178 19.5442 12.0178 19.5442 12.0178 19.5442ZM14.2727 18.3142L15.3864 18.9565V18.9564L14.2727 18.3142C14.2727 18.3142 14.2727 18.3142 14.2727 18.3142ZM13.6783 15.7381C13.6783 15.7381 13.6782 15.7381 13.6782 15.7381L15.3796 16.7151V16.7152L13.6783 15.7381Z" fill="black"/>
<path d="M34.1749 8.85181L35.3228 9.46108L12.0292 22.1586L10.8813 21.5052L34.1749 8.85181Z" fill="white" stroke="#1C1E2B" stroke-width="0.3" stroke-linejoin="round"/>
<path d="M12.1981 37.143L10.9442 36.4013L10.8647 21.5227L12.1274 22.2379L12.1981 37.143Z" fill="white" stroke="#1C1E2B" stroke-width="0.3" stroke-linejoin="round"/>
<path d="M35.29 9.47842C35.2282 9.51374 35.0163 9.62853 34.981 9.64619C27.5461 13.6992 19.9523 17.8404 12.1995 22.0612C12.1819 22.0788 12.1554 22.0877 12.1289 22.1053C12.1554 26.9618 12.1819 32.3128 12.2084 37.1428C12.3938 37.0369 27.9964 28.2334 35.3253 24.0921V23.942C35.3253 19.1473 35.343 14.3526 35.3607 9.52257C35.3607 9.47547 35.3401 9.46076 35.2988 9.47842H35.29ZM17.321 25.549C17.6477 25.3724 17.9567 25.1958 18.2746 25.0192C18.2923 25.0016 18.3187 24.9927 18.3364 25.0016C18.6984 25.1605 19.0516 25.3459 19.3695 25.5932C19.7315 25.8757 20.0494 26.2289 20.3496 26.6351C20.4026 26.7146 20.4468 26.7764 20.4909 26.8559C20.6057 27.0148 20.7647 27.059 20.9413 27.0413C21.2503 27.0236 21.5505 26.8912 21.8684 26.6351C22.0892 26.4585 22.2922 26.2554 22.5042 26.0347C23.1046 25.3813 23.6786 24.6484 24.2348 23.889C24.8353 23.0766 25.4269 22.2201 26.0009 21.3636C26.566 20.5424 27.1223 19.7036 27.6786 18.8824C28.2613 18.017 28.8618 17.187 29.471 16.3482C29.9744 15.6683 30.4777 14.9883 30.9898 14.3349C31.2106 14.0435 31.4401 13.7698 31.6697 13.4872C31.6962 13.4608 31.7227 13.4343 31.7404 13.4078C31.6344 13.5402 31.5461 13.6727 31.4401 13.8051C30.9192 14.5292 30.407 15.2621 29.8861 15.9861C29.7713 16.1627 29.6476 16.3393 29.524 16.5248C29.4004 16.7102 29.268 16.8956 29.1355 17.0899C28.7558 17.6462 28.3673 18.229 27.9876 18.8029C27.4666 19.5976 26.9457 20.4011 26.4159 21.187C26.0185 21.7786 25.63 22.3702 25.2238 22.9442C24.588 23.8713 23.9523 24.772 23.2812 25.6285C23.0075 25.9817 22.7249 26.3261 22.4424 26.6351C22.1951 26.8912 21.9479 27.1296 21.683 27.3062C21.4887 27.4475 21.2856 27.5799 21.0914 27.6417C20.7558 27.7565 20.4733 27.7212 20.2437 27.4828C20.0936 27.3327 19.9435 27.1473 19.811 26.953C19.4755 26.4938 19.0693 26.176 18.619 25.9464C18.4512 25.8669 18.2834 25.7963 18.098 25.7433C17.8772 25.6727 17.6477 25.6108 17.4181 25.5755C17.3651 25.5755 17.321 25.5579 17.2768 25.5402C17.2945 25.5137 17.3033 25.5137 17.3121 25.5137L17.321 25.549ZM15.1223 26.9C15.5814 26.6086 16.0318 26.3261 16.4821 26.0259C16.5351 25.9994 16.5792 25.9817 16.6146 25.9905C16.853 26.0082 17.0825 26.0435 17.3121 26.0965C17.4357 26.123 17.5682 26.1583 17.6918 26.1936C17.8684 26.2554 18.0538 26.3172 18.2304 26.3967C18.3541 26.4585 18.4689 26.5115 18.5836 26.591C18.6896 26.6528 18.7867 26.7146 18.8927 26.8029C19.0693 26.9442 19.2371 27.1296 19.4048 27.315C19.5991 27.5534 19.7757 27.8183 19.97 28.0568C20.1024 28.2069 20.2525 28.3393 20.4291 28.3923C20.6322 28.4541 20.8618 28.3923 21.1002 28.2775C21.4269 28.1186 21.736 27.8625 22.045 27.5799C22.513 27.1561 22.9545 26.6528 23.3783 26.1318C23.9081 25.4961 24.4114 24.8161 24.9148 24.1274C25.6565 23.0943 26.3717 22.0347 27.0958 20.9839C27.6874 20.1097 28.279 19.2444 28.8794 18.3791C29.0207 18.1671 29.1708 17.9552 29.3209 17.7521C29.4446 17.5667 29.577 17.3724 29.7095 17.187C29.992 16.7897 30.2746 16.4011 30.5748 16.0038C30.8397 15.6506 31.1046 15.2974 31.3695 14.9619C31.8728 14.3261 32.3761 13.7168 32.8971 13.134C33.1796 12.825 33.4534 12.5336 33.7448 12.2599C33.8242 12.1804 33.9037 12.1186 33.9832 12.0568C33.8596 12.1892 33.7359 12.3305 33.6123 12.4718C33.1885 12.9574 32.7646 13.4608 32.3496 13.9817C32.2348 14.1142 32.1289 14.2555 32.0141 14.3879C31.5108 15.0325 31.0163 15.6859 30.5306 16.3658C29.9655 17.1517 29.4092 17.9729 28.8618 18.8117C28.1289 19.9243 27.4048 21.0546 26.6719 22.1583C26.1156 22.9883 25.5682 23.8095 24.9942 24.6042C24.5792 25.187 24.1642 25.761 23.7315 26.2996C23.3872 26.7411 23.0251 27.1649 22.6543 27.5623C22.3276 27.9066 21.992 28.2422 21.6477 28.5159C21.4534 28.6749 21.2591 28.825 21.056 28.9044C20.5439 29.1252 20.1024 29.0987 19.7669 28.7367C19.5549 28.5071 19.3519 28.251 19.1576 28.0038C18.7338 27.5005 18.2304 27.1826 17.6565 27.0148C17.2238 26.9 16.7735 26.8382 16.3143 26.8382C16.0494 26.8382 15.7845 26.8382 15.5285 26.8735C15.4225 26.8912 15.3165 26.9089 15.2106 26.9265C15.1664 26.9265 15.1311 26.9265 15.0958 26.9265C15.0958 26.8912 15.1223 26.8912 15.1311 26.8824L15.1223 26.9ZM34.8309 12.3393C34.5041 12.6749 34.1951 13.0369 33.8772 13.3901C33.2679 14.0789 32.6587 14.8029 32.0671 15.527C31.6079 16.0921 31.1576 16.7014 30.7249 17.3106C30.1774 18.0877 29.6476 18.8824 29.1178 19.6771C28.5527 20.5601 27.9788 21.4342 27.4048 22.3173C26.9633 22.9883 26.5307 23.6594 26.0803 24.3217C25.4711 25.2223 24.8441 26.1142 24.2084 26.9795C23.8022 27.527 23.3872 28.0479 22.9633 28.5424C22.6719 28.8691 22.3805 29.1782 22.0803 29.4519C21.7801 29.7256 21.4887 29.9552 21.1797 30.1053C20.7823 30.2996 20.385 30.4497 19.9964 30.4585C19.7139 30.4762 19.4578 30.3967 19.2371 30.2466C19.0163 30.0877 18.8309 29.8669 18.6455 29.6373C18.4512 29.3901 18.2481 29.1428 18.0274 28.9309C17.736 28.666 17.4269 28.4806 17.0649 28.3746C16.6234 28.2422 16.1466 28.2069 15.6609 28.2334C15.3783 28.251 15.0958 28.2863 14.8044 28.3481C14.5395 28.3923 14.2746 28.4629 14.0185 28.5247C13.7536 28.5954 13.4976 28.666 13.2415 28.7543C13.0296 28.825 12.8088 28.8868 12.5969 28.9751C12.5792 28.9751 12.5527 29.0016 12.5439 28.9751C12.5439 28.9486 12.5704 28.9309 12.5881 28.9221C12.8088 28.719 13.0296 28.5247 13.2503 28.3393C13.5859 28.0479 13.9214 27.8007 14.2569 27.5534C14.3541 27.4828 14.4424 27.4475 14.5307 27.4298C14.7338 27.3592 14.928 27.3239 15.1223 27.3062C15.5461 27.2532 15.9523 27.2621 16.3585 27.3062C16.6852 27.3327 17.0031 27.3768 17.3121 27.4651C17.5682 27.5446 17.8154 27.6594 18.045 27.8272C18.4335 28.1097 18.7691 28.4894 19.0781 28.8956C19.2459 29.1164 19.4225 29.3194 19.6344 29.4607C19.8375 29.6108 20.0847 29.655 20.3496 29.6108C20.6764 29.549 20.9942 29.3813 21.3298 29.187C21.6212 29.0192 21.8949 28.8073 22.1775 28.5601C22.6808 28.1186 23.1488 27.5799 23.5991 27.0236C24.0582 26.4585 24.4997 25.8581 24.9324 25.2488C25.4887 24.4629 26.0185 23.6682 26.5571 22.8647C27.3518 21.6727 28.1554 20.4894 28.9589 19.3239C29.6476 18.3261 30.3452 17.3636 31.0604 16.4276C31.2635 16.1716 31.4578 15.9243 31.6609 15.6683C32.0494 15.1826 32.4556 14.7058 32.8706 14.2555C33.2856 13.7875 33.7094 13.3283 34.1421 12.9045C34.4247 12.6219 34.7072 12.3482 34.9986 12.1009C35.0869 12.0126 35.1752 11.9508 35.2635 11.8713C35.1134 12.0215 34.9633 12.1892 34.822 12.3393H34.8309Z" fill="#ED5D7F" stroke="black" stroke-width="0.3" stroke-miterlimit="10"/>
<path d="M35.2729 11.8798C35.1228 12.0299 34.9727 12.1976 34.8314 12.3478C34.5047 12.6833 34.1956 13.0453 33.8777 13.3985C33.2685 14.0873 32.6592 14.8113 32.0676 15.5354C31.6084 16.1005 31.1581 16.7098 30.7254 17.319C30.178 18.0961 29.6482 18.8908 29.1184 19.6855C28.5532 20.5685 27.9793 21.4427 27.4053 22.3257C26.9638 22.9967 26.5312 23.6678 26.0808 24.3301C25.4716 25.2307 24.8446 26.1226 24.2089 26.9879C23.8027 27.5354 23.3877 28.0563 22.9638 28.5508C22.6725 28.8775 22.3811 29.1866 22.0808 29.4603C21.7806 29.734 21.4892 29.9636 21.1802 30.1137C20.7828 30.308 20.3855 30.4581 19.997 30.4669C19.7144 30.4846 19.4583 30.4051 19.2376 30.255C19.0168 30.0961 18.8314 29.8753 18.646 29.6457C18.4517 29.3985 18.2486 29.1513 18.0279 28.9393C17.7365 28.6744 17.4274 28.489 17.0654 28.3831C16.6239 28.2506 16.1471 28.2153 15.6614 28.2418C15.3789 28.2594 15.0963 28.2948 14.8049 28.3566C14.54 28.4007 14.2751 28.4713 14.019 28.5332C13.7541 28.6038 13.4981 28.6744 13.242 28.7627C13.0301 28.8334 12.8093 28.8952 12.5974 28.9835C12.5798 28.9835 12.5533 29.01 12.5444 28.9835C12.5444 28.957 12.5709 28.9393 12.5886 28.9305C12.8093 28.7274 13.0301 28.5332 13.2508 28.3477C13.5864 28.0563 13.9219 27.8091 14.2575 27.5619C14.3546 27.4912 14.4429 27.4559 14.5312 27.4382C14.7343 27.3676 14.9285 27.3323 15.1228 27.3146C15.5466 27.2616 15.9528 27.2705 16.359 27.3146C16.6857 27.3411 17.0036 27.3853 17.3126 27.4736C17.5687 27.553 17.8159 27.6678 18.0455 27.8356C18.434 28.1181 18.7696 28.4978 19.0786 28.904C19.2464 29.1248 19.423 29.3279 19.6349 29.4691C19.838 29.6193 20.0853 29.6634 20.3502 29.6193C20.6769 29.5574 20.9948 29.3897 21.3303 29.1954C21.6217 29.0276 21.8954 28.8157 22.178 28.5685C22.6813 28.127 23.1493 27.5883 23.5996 27.0321C24.0588 26.4669 24.5003 25.8665 24.9329 25.2572C25.4892 24.4714 26.019 23.6767 26.5577 22.8731C27.3524 21.6811 28.1559 20.4979 28.9594 19.3323C29.6482 18.3345 30.3457 17.372 31.061 16.436C31.2641 16.18 31.4583 15.9327 31.6614 15.6767C32.0499 15.191 32.4561 14.7142 32.8711 14.2639C33.2861 13.7959 33.71 13.3367 34.1426 12.9129C34.4252 12.6303 34.7078 12.3566 34.9991 12.1093C35.0874 12.021 35.1757 11.9592 35.264 11.8798H35.2729Z" fill="#FCF853"/>
<path d="M33.9904 12.0474C33.8668 12.1799 33.7432 12.3212 33.6196 12.4625C33.1957 12.9481 32.7719 13.4514 32.3569 13.9724C32.2421 14.1048 32.1361 14.2461 32.0213 14.3786C31.518 15.0232 31.0235 15.6766 30.5379 16.3565C29.9728 17.1424 29.4165 17.9636 28.869 18.8024C28.1361 19.915 27.4121 21.0452 26.6792 22.149C26.1229 22.979 25.5754 23.8002 25.0015 24.5949C24.5865 25.1777 24.1714 25.7516 23.7388 26.2903C23.3944 26.7318 23.0324 27.1556 22.6615 27.5529C22.3348 27.8973 21.9993 28.2329 21.6549 28.5066C21.4606 28.6655 21.2664 28.8156 21.0633 28.8951C20.5511 29.1159 20.1096 29.0894 19.7741 28.7273C19.5622 28.4978 19.3591 28.2417 19.1648 27.9944C18.741 27.4911 18.2377 27.1733 17.6637 27.0055C17.2311 26.8907 16.7807 26.8289 16.3216 26.8289C16.0567 26.8289 15.7918 26.8289 15.5357 26.8642C15.4297 26.8819 15.3238 26.8995 15.2178 26.9172C15.1737 26.9172 15.1383 26.9172 15.103 26.9172C15.103 26.8819 15.1295 26.8819 15.1383 26.873C15.5975 26.5816 16.0478 26.2991 16.4982 25.9989C16.5511 25.9724 16.5953 25.9547 16.6306 25.9635C16.869 25.9812 17.0986 26.0165 17.3282 26.0695C17.4518 26.096 17.5843 26.1313 17.7079 26.1666C17.8845 26.2284 18.0699 26.2903 18.2465 26.3697C18.3701 26.4315 18.4849 26.4845 18.5997 26.564C18.7057 26.6258 18.8028 26.6876 18.9088 26.7759C19.0854 26.9172 19.2531 27.1026 19.4209 27.288C19.6152 27.5265 19.7918 27.7914 19.986 28.0298C20.1185 28.1799 20.2686 28.3123 20.4452 28.3653C20.6483 28.4271 20.8779 28.3653 21.1163 28.2505C21.443 28.0916 21.752 27.8355 22.0611 27.5529C22.5291 27.1291 22.9706 26.6258 23.3944 26.1048C23.9242 25.4691 24.4275 24.7892 24.9308 24.1004C25.6725 23.0673 26.3878 22.0077 27.1118 20.9569C27.7035 20.0828 28.2951 19.2174 28.8955 18.3521C29.0368 18.1402 29.1869 17.9282 29.337 17.7251C29.4606 17.5397 29.5931 17.3455 29.7255 17.16C30.0081 16.7627 30.2906 16.3742 30.5909 15.9768C30.8558 15.6236 31.1207 15.2704 31.3856 14.9349C31.8889 14.2991 32.3922 13.6898 32.9132 13.107C33.1957 12.798 33.4694 12.5066 33.7608 12.2329C33.8403 12.1534 33.9198 12.0916 33.9992 12.0298L33.9904 12.0474Z" fill="#FCF853"/>
<path d="M31.7487 13.4246C31.6428 13.5571 31.5545 13.6895 31.4485 13.822C30.9275 14.546 30.4154 15.2789 29.8944 16.003C29.7796 16.1796 29.656 16.3562 29.5324 16.5416C29.4088 16.727 29.2763 16.9125 29.1439 17.1067C28.7642 17.663 28.3756 18.2458 27.996 18.8197C27.475 19.6144 26.954 20.418 26.4242 21.2038C26.0269 21.7955 25.6383 22.3871 25.2322 22.961C24.5964 23.8882 23.9606 24.7888 23.2896 25.6453C23.0158 25.9985 22.7333 26.3429 22.4507 26.652C22.2035 26.908 21.9562 27.1464 21.6913 27.323C21.4971 27.4643 21.294 27.5968 21.0997 27.6586C20.7642 27.7734 20.4816 27.7381 20.252 27.4996C20.1019 27.3495 19.9518 27.1641 19.8194 26.9698C19.4838 26.5107 19.0776 26.1928 18.6273 25.9632C18.4595 25.8837 18.2918 25.8131 18.1063 25.7601C17.8856 25.6895 17.656 25.6277 17.4264 25.5924C17.3735 25.5924 17.3293 25.5747 17.2852 25.557C17.3028 25.5305 17.3116 25.5305 17.3205 25.5305C17.6472 25.3539 17.9562 25.1773 18.2741 25.0007C18.2918 24.9831 18.3183 24.9743 18.3359 24.9831C18.698 25.142 19.0512 25.3275 19.369 25.5747C19.7311 25.8573 20.049 26.2105 20.3492 26.6166C20.4022 26.6961 20.4463 26.7579 20.4905 26.8374C20.6052 26.9963 20.7642 27.0405 20.9408 27.0228C21.2498 27.0052 21.5501 26.8727 21.8679 26.6166C22.0887 26.44 22.2918 26.2369 22.5037 26.0162C23.1041 25.3628 23.6781 24.6299 24.2344 23.8705C24.8348 23.0581 25.4264 22.2016 26.0004 21.3451C26.5655 20.5239 27.1218 19.6851 27.6781 18.8639C28.2609 17.9985 28.8613 17.1685 29.4706 16.3297C29.9739 15.6498 30.4772 14.9699 30.9893 14.3164C31.2101 14.025 31.4397 13.7513 31.6692 13.4688C31.6957 13.4423 31.7222 13.4158 31.7399 13.3893L31.7487 13.4246Z" fill="#FCF853"/>
</svg>
