<svg width="40" height="40" viewBox="0 0 40 40" fill="none" xmlns="http://www.w3.org/2000/svg">
<path d="M17.4299 8.73216C11.8888 13.3702 8.28936 17.4341 7.87007 23.6589C7.45723 29.8838 17.2686 35.0894 20.1972 35.0894C25.8028 35.0894 29.6151 31.0578 30.4537 30.4643C32.0793 29.3161 32.8856 25.3812 32.6663 23.6525C31.8148 16.918 28.8346 13.6088 22.5517 8.72571H17.4235L17.4299 8.73216Z" fill="#EFA7AF"/>
<path d="M17.4299 8.73216C11.8888 13.3702 8.28936 17.4341 7.87007 23.6589C7.45723 29.8838 17.2686 35.0894 20.1972 35.0894C25.8028 35.0894 29.6151 31.0578 30.4537 30.4643C32.0793 29.3161 32.8856 25.3812 32.6663 23.6525C31.8148 16.918 28.8346 13.6088 22.5517 8.72571H17.4235L17.4299 8.73216Z" stroke="black" stroke-width="0.3" stroke-miterlimit="10"/>
<path d="M25.764 5.668L22.5581 8.73205L20.0423 9.84801C20.0423 9.84801 18.0168 9.13199 17.4298 8.73205C16.3848 8.02248 14.2109 5.70025 14.2109 5.70025L25.764 5.668Z" fill="#EC7278"/>
<path d="M29.3119 19.3946C26.9252 15.6984 32.0921 9.2671 23.2935 9.37031" stroke="#F1F1F3" stroke-width="1.5" stroke-miterlimit="10" stroke-linecap="round"/>
<path d="M23.1646 9.35745C24.8482 10.3508 25.5319 11.8732 24.9772 14.2728" stroke="#F1F1F3" stroke-width="1.5" stroke-miterlimit="10" stroke-linecap="round"/>
<path d="M23.4739 8.86105C20.3196 10.8478 17.2168 8.91266 17.2168 8.91266" stroke="#F1F1F3" stroke-width="1.5" stroke-miterlimit="10" stroke-linecap="round"/>
<path d="M23.958 6.42249C26.3254 5.88063 26.8286 4.76467 24.7321 4.10026C22.6357 3.43584 18.8943 3.39069 16.3657 4.0035C13.8306 4.61631 13.4693 5.65486 15.5658 6.32573C17.6622 6.99659 21.4165 6.99659 23.958 6.42249Z" fill="#EFA7AF" stroke="black" stroke-width="0.3" stroke-miterlimit="10"/>
<path d="M20.5356 20.7559L18.5746 19.6335C18.9229 20.2205 19.168 20.9236 19.239 21.7493L20.5356 22.4911V23.3426L19.2519 22.6072C19.1358 24.2715 18.1746 24.8198 16.6652 24.0199C17.5876 25.9229 18.6004 28.2322 19.5938 30.548L18.4584 29.89C17.536 27.7677 16.6652 25.7938 15.5557 23.4587V22.4073L16.2072 22.7814C17.4844 23.5168 18.1682 23.1491 18.252 22.0202L15.5557 20.4721V19.6206L18.2198 21.1494C18.0521 20.0721 17.4263 19.2142 16.3942 18.6272L15.5557 18.1434V17.0403L20.5485 19.898V20.7495L20.5356 20.7559Z" fill="black"/>
<path d="M23.4089 35.6632C23.4089 35.5383 23.402 35.4134 23.402 35.2954C23.402 34.2474 23.395 33.2063 23.395 32.1583C23.395 31.9015 23.4644 31.6517 23.5199 31.3949C23.631 30.8258 23.8739 30.2983 24.1515 29.7986C24.4638 29.2503 24.8386 28.7506 25.3106 28.3203C25.6854 27.9802 26.1295 27.7512 26.5529 27.4874C26.8305 27.307 31.897 24.0658 32.0775 23.9617C32.4939 23.7257 32.945 23.5869 33.4378 23.6355C33.5974 23.6494 33.7501 23.698 33.882 23.7743C34.465 24.1005 34.7634 24.156 35.3464 24.4892C35.9919 24.857 36.6443 25.2249 37.2897 25.5927C37.2342 25.6968 37.137 25.6482 37.0746 25.6343C36.8872 25.5927 36.7137 25.6343 36.5332 25.669C36.2556 25.7246 35.9919 25.8356 35.7559 25.9883C35.5824 26.0994 30.1064 29.2434 29.8843 29.3752C29.8288 29.403 29.7802 29.4377 29.7247 29.4654C29.2319 29.7292 28.7669 30.0346 28.3574 30.4163C28.1561 30.6106 27.9826 30.8327 27.8161 31.0687C27.594 31.381 27.3927 31.7003 27.2122 32.0334C27.004 32.4151 26.8652 32.8315 26.7542 33.2549C26.6848 33.5256 26.6223 33.8032 26.6154 34.0878C26.6154 35.4967 26.6154 36.9125 26.6154 38.3214C26.6154 38.4186 26.6015 38.5088 26.5598 38.599C26.31 38.5019 26.1018 38.3422 25.8727 38.2173C25.6229 38.0854 25.38 37.9327 25.1301 37.787C24.7762 37.5788 24.4291 37.3636 24.0752 37.1624C23.6588 36.9264 23.9919 37.0513 23.5685 36.8223C23.4505 36.7598 23.395 36.6835 23.395 36.5447C23.395 36.2601 23.395 35.9686 23.395 35.6841C23.402 35.6771 23.402 35.6702 23.395 35.6632H23.4089Z" fill="#504ECD" stroke="#050505" stroke-width="0.3" stroke-miterlimit="10"/>
<path d="M26.5669 38.6053C26.6155 38.5151 26.6224 38.4249 26.6224 38.3277C26.6224 36.9188 26.6224 35.5029 26.6224 34.094C26.6224 33.8095 26.6849 33.5319 26.7612 33.2612C26.8723 32.8378 27.0111 32.4214 27.2193 32.0397C27.3997 31.7065 27.601 31.3873 27.8231 31.075C27.9897 30.839 28.1632 30.6169 28.3645 30.4226C28.767 30.0339 29.232 29.7355 29.7317 29.4717C29.7872 29.444 29.8358 29.4093 29.8914 29.3815C30.1134 29.2496 35.5408 26.0362 35.7144 25.9182C35.9503 25.7656 36.6721 25.4879 37.2968 25.599C37.6299 25.7378 37.9283 25.9182 38.1296 26.2444C38.2892 26.5082 38.3795 26.7927 38.4142 27.0981C38.4836 27.8269 38.435 28.5556 38.4419 29.2843C38.4489 30.0339 38.4419 30.7904 38.4419 31.54C38.4419 31.7482 38.4003 31.8801 38.1921 31.9842C37.8381 32.1577 37.5189 32.3867 37.1649 32.5672C36.5611 32.8725 36.0058 33.2543 35.4159 33.5874C35.0689 33.7817 34.708 33.9622 34.361 34.1773C33.8057 34.5174 33.2505 34.8575 32.6745 35.1559C32.3691 35.3156 32.0845 35.5307 31.7791 35.6903C31.335 35.9194 30.9185 36.197 30.4813 36.4191C30.2037 36.5648 29.9608 36.7592 29.6831 36.9049C29.3361 37.0923 28.9891 37.2727 28.656 37.481C28.0244 37.8904 27.3512 38.2375 26.7126 38.6331C26.6641 38.6608 26.5947 38.7025 26.5738 38.6053H26.5669Z" fill="#B9E14A" stroke="#1C1E2C" stroke-width="0.3" stroke-miterlimit="10"/>
<path d="M26.0811 22.7538V22.15C26.1158 22.1361 26.1019 22.1014 26.1019 22.0737C26.0949 21.8724 26.1366 21.6711 26.1782 21.4768C26.2754 20.9979 26.4142 20.5329 26.6016 20.0818C26.8584 19.4641 27.1985 18.8949 27.5941 18.3536C27.7537 18.1384 27.9272 17.9233 28.1146 17.729C28.3297 17.5138 28.538 17.2848 28.7739 17.0904C29.0168 16.8961 29.2736 16.7226 29.5443 16.563C29.7317 16.4519 29.933 16.3686 30.1412 16.3062C30.3286 16.2507 30.516 16.1951 30.7172 16.1812C30.9255 16.1674 31.1267 16.1674 31.3349 16.2021C31.6542 16.2507 34.0833 17.6387 34.4095 17.8331C34.4651 17.8608 34.5345 17.8816 34.5553 17.958C34.4512 17.958 34.354 17.9233 34.2499 17.9164C33.7433 17.8678 33.2644 17.9788 32.8132 18.2078C32.2025 18.5132 31.675 18.9366 31.2031 19.4294C31.0434 19.5959 30.9046 19.7764 30.7658 19.9568C30.4327 20.3802 30.1551 20.8383 29.9052 21.3102C29.7525 21.5948 29.6345 21.9001 29.5166 22.1986C29.4263 22.4207 29.3708 22.6566 29.3153 22.8926C29.2459 23.1841 29.1765 23.4826 29.1557 23.7879C29.1348 24.0656 29.1279 24.3501 29.1557 24.6277C29.1765 24.8706 29.2112 25.1066 29.2945 25.3356C29.4263 25.6965 29.6137 26.0158 29.9122 26.2657C29.8983 26.2657 29.8913 26.2657 29.8775 26.2657C29.7317 26.2101 29.5998 26.106 29.468 26.0297C29.121 25.8354 26.9555 24.6 26.789 24.4403C26.3864 24.0586 26.199 23.5728 26.1227 23.0314C26.1088 22.9412 26.1227 22.844 26.0811 22.7538Z" fill="#504ECD" stroke="#050505" stroke-width="0.3" stroke-miterlimit="10"/>
<path d="M29.9122 26.2665C27.4414 23.5042 31.0782 16.2792 34.6942 17.9935C37.2135 20.7489 33.5004 28.0016 29.9122 26.2665Z" fill="#B9E14A" stroke="#1C1E2C" stroke-width="0.3" stroke-miterlimit="10"/>
<path d="M16.4936 35.2042C16.4936 35.0793 16.5005 34.9544 16.5005 34.8364C16.5005 33.7884 16.5075 32.7473 16.5075 31.6993C16.5075 31.4425 16.4381 31.1927 16.3826 30.9359C16.2715 30.3668 16.0286 29.8393 15.751 29.3396C15.4387 28.7913 15.0639 28.2916 14.5919 27.8613C14.2172 27.5212 13.773 27.2922 13.3496 27.0284C13.072 26.848 8.00549 23.6068 7.82504 23.5027C7.40861 23.2667 6.95749 23.1279 6.46472 23.1765C6.30509 23.1904 6.1524 23.239 6.02053 23.3153C5.43754 23.6415 5.1391 23.697 4.55611 24.0302C3.91065 24.398 3.25825 24.7658 2.61279 25.1337C2.66832 25.2378 2.76548 25.1892 2.82795 25.1753C3.01534 25.1337 3.18885 25.1753 3.3693 25.21C3.64691 25.2656 3.91065 25.3766 4.14662 25.5293C4.32013 25.6403 9.79611 28.7843 10.0182 28.9162C10.0737 28.944 10.1223 28.9787 10.1778 29.0064C10.6706 29.2702 11.1356 29.5755 11.5451 29.9573C11.7464 30.1516 11.9199 30.3737 12.0864 30.6097C12.3085 30.922 12.5098 31.2412 12.6903 31.5744C12.8985 31.9561 13.0373 32.3725 13.1483 32.7959C13.2177 33.0666 13.2802 33.3442 13.2871 33.6287C13.2871 35.0376 13.2871 36.4535 13.2871 37.8624C13.2871 37.9596 13.301 38.0498 13.3427 38.14C13.5925 38.0428 13.8007 37.8832 14.0298 37.7583C14.2796 37.6264 14.5225 37.4737 14.7724 37.328C15.1263 37.1198 15.4734 36.9046 15.8273 36.7033C16.2438 36.4674 15.9106 36.5923 16.334 36.3633C16.452 36.3008 16.5075 36.2245 16.5075 36.0857C16.5075 35.8011 16.5075 35.5096 16.5075 35.225C16.5005 35.2181 16.5005 35.2112 16.5075 35.2042H16.4936Z" fill="#504ECD" stroke="#050505" stroke-width="0.3" stroke-miterlimit="10"/>
<path d="M13.3358 38.141C13.2873 38.0508 13.2803 37.9606 13.2803 37.8634C13.2803 36.4545 13.2803 35.0386 13.2803 33.6297C13.2803 33.3452 13.2179 33.0676 13.1415 32.7969C13.0305 32.3735 12.8917 31.9571 12.6834 31.5754C12.503 31.2422 12.3017 30.923 12.0796 30.6107C11.9131 30.3747 11.7395 30.1526 11.5383 29.9583C11.1357 29.5696 10.6707 29.2712 10.171 29.0074C10.1155 28.9797 10.0669 28.945 10.0114 28.9172C9.78929 28.7853 4.36189 25.5719 4.18838 25.4539C3.95241 25.3013 3.23061 25.0236 2.60597 25.1347C2.27283 25.2735 1.97439 25.4539 1.77312 25.7801C1.61349 26.0439 1.52326 26.3284 1.48856 26.6338C1.41916 27.3626 1.46774 28.0913 1.4608 28.82C1.45386 29.5696 1.4608 30.3261 1.4608 31.0757C1.4608 31.2839 1.50244 31.4158 1.71066 31.5199C2.06462 31.6934 2.38388 31.9224 2.73784 32.1029C3.34165 32.4082 3.89688 32.79 4.48682 33.1231C4.83384 33.3174 5.19474 33.4979 5.54176 33.713C6.09699 34.0531 6.65223 34.3932 7.22828 34.6916C7.53366 34.8513 7.81821 35.0664 8.12359 35.226C8.56778 35.4551 8.9842 35.7327 9.42145 35.9548C9.69907 36.1005 9.94198 36.2949 10.2196 36.4406C10.5666 36.628 10.9136 36.8085 11.2468 37.0167C11.8784 37.4261 12.5516 37.7732 13.1901 38.1688C13.2387 38.1965 13.3081 38.2382 13.3289 38.141H13.3358Z" fill="#B9E14A" stroke="#1C1E2C" stroke-width="0.3" stroke-miterlimit="10"/>
<path d="M13.8214 22.2955V21.6917C13.7867 21.6778 13.8006 21.6431 13.8006 21.6154C13.8075 21.4141 13.7659 21.2128 13.7242 21.0185C13.6271 20.5396 13.4883 20.0746 13.3009 19.6235C13.0441 19.0058 12.704 18.4367 12.3084 17.8953C12.1488 17.6802 11.9753 17.465 11.7879 17.2707C11.5727 17.0555 11.3645 16.8265 11.1285 16.6322C10.8856 16.4378 10.6288 16.2643 10.3581 16.1047C10.1708 15.9936 9.96948 15.9104 9.76127 15.8479C9.57388 15.7924 9.38649 15.7368 9.18521 15.723C8.977 15.7091 8.77573 15.7091 8.56752 15.7438C8.24826 15.7924 5.81912 17.1805 5.49292 17.3748C5.43739 17.4025 5.36799 17.4234 5.34717 17.4997C5.45127 17.4997 5.54844 17.465 5.65255 17.4581C6.1592 17.4095 6.63808 17.5205 7.08921 17.7496C7.69997 18.0549 8.22744 18.4783 8.69938 18.9711C8.85901 19.1376 8.99782 19.3181 9.13663 19.4985C9.46977 19.9219 9.74739 20.38 9.99724 20.8519C10.1499 21.1365 10.2679 21.4419 10.3859 21.7403C10.4761 21.9624 10.5317 22.1984 10.5872 22.4343C10.6566 22.7258 10.726 23.0243 10.7468 23.3297C10.7676 23.6073 10.7746 23.8918 10.7468 24.1694C10.726 24.4124 10.6913 24.6483 10.608 24.8774C10.4761 25.2383 10.2887 25.5575 9.9903 25.8074C10.0042 25.8074 10.0111 25.8074 10.025 25.8074C10.1708 25.7519 10.3026 25.6477 10.4345 25.5714C10.7815 25.3771 12.9469 24.1417 13.1135 23.9821C13.516 23.6003 13.7034 23.1145 13.7798 22.5731C13.7936 22.4829 13.7798 22.3858 13.8214 22.2955Z" fill="#504ECD" stroke="#050505" stroke-width="0.3" stroke-miterlimit="10"/>
<path d="M9.99042 25.8074C12.4612 23.0452 8.82443 15.8202 5.20847 17.5345C2.68911 20.2898 6.40222 27.5425 9.99042 25.8074Z" fill="#B9E14A" stroke="#1C1E2C" stroke-width="0.3" stroke-miterlimit="10"/>
</svg>
