<svg width="40" height="40" viewBox="0 0 40 40" fill="none" xmlns="http://www.w3.org/2000/svg">
<g clip-path="url(#clip0_1378_79037)">
<path d="M30.4834 23.5668C30.935 25.9178 26.4087 28.764 20.3719 29.9233C14.3361 31.0826 9.0764 30.1168 8.62481 27.765C8.17321 25.414 12.6996 22.5678 18.7363 21.4085C24.7721 20.2492 30.0318 21.215 30.4834 23.5668Z" fill="#1A1E2E"/>
<path d="M19.0975 24.1818C19.1003 24.6191 18.8148 25.0565 18.2408 25.3895C17.0928 26.0564 15.2257 26.0564 14.0711 25.3895C13.4934 25.0555 13.203 24.6191 13.2002 24.1818C13.2002 25.8895 14.6119 29.4035 14.6119 29.4035C14.7068 29.6331 14.9098 29.8523 15.22 30.0316C16.1109 30.5458 17.551 30.5468 18.4362 30.0316C18.8793 29.7745 19.0994 29.4368 19.0975 29.1V24.1818Z" fill="#EB4944"/>
<path d="M15.35 30.1009C16.2466 30.5449 17.5928 30.5221 18.4362 30.0316C18.8793 29.7745 19.0994 29.4368 19.0975 29.1V24.1875C19.0975 24.6229 18.8119 25.0574 18.2408 25.3895C17.0928 26.0564 15.2257 26.0564 14.0711 25.3895C13.4934 25.0555 13.203 24.6191 13.2002 24.1818" fill="#FDA4AF"/>
<path d="M13.2002 24.1818C13.2002 25.0356 13.5531 26.3411 13.906 27.433C14.259 28.525 14.6119 29.4035 14.6119 29.4035C14.7068 29.6341 14.9098 29.8523 15.22 30.0316C15.2627 30.0563 15.3054 30.079 15.35 30.1018" fill="#FDA4AF"/>
<path d="M15.35 30.1009C16.2466 30.5449 17.5928 30.5221 18.4362 30.0316C18.8793 29.7745 19.0994 29.4368 19.0975 29.1V24.1875C19.0975 24.6229 18.8119 25.0574 18.2408 25.3895C17.0928 26.0564 15.2257 26.0564 14.0711 25.3895C13.4934 25.0555 13.203 24.6191 13.2002 24.1818C13.2002 25.0356 13.5531 26.3411 13.906 27.433C14.259 28.525 14.6119 29.4035 14.6119 29.4035C14.7068 29.6341 14.9098 29.8523 15.22 30.0316C15.2627 30.0563 15.3054 30.079 15.35 30.1018" stroke="#1C1E2D" stroke-width="0.3" stroke-miterlimit="10"/>
<path d="M18.2266 22.9737C17.071 22.3068 15.2049 22.3068 14.0569 22.9737C13.4829 23.3077 13.1974 23.7441 13.2002 24.1815C13.2031 24.6188 13.4934 25.0552 14.0702 25.3892C15.2257 26.0561 17.0928 26.0561 18.2398 25.3892C18.8138 25.0552 19.0994 24.6188 19.0965 24.1815C19.0937 23.7441 18.8034 23.3067 18.2256 22.9737" fill="#E6724D"/>
<path d="M12.7552 20.5182C12.758 20.9556 12.4725 21.393 11.8985 21.726C10.7505 22.3929 8.88344 22.3929 7.72884 21.726C7.15107 21.392 6.86076 20.9556 6.85791 20.5182C6.85791 22.226 8.26961 25.74 8.26961 25.74C8.36449 25.9696 8.56751 26.1888 8.87775 26.3681C9.7686 26.8823 11.2088 26.8832 12.0939 26.3681C12.537 26.111 12.7571 25.7732 12.7552 25.4364V20.5182Z" fill="#FDA4AF"/>
<path d="M12.7552 20.5182C12.758 20.9556 12.4725 21.393 11.8985 21.726C10.7505 22.3929 8.88344 22.3929 7.72884 21.726C7.15107 21.392 6.86076 20.9556 6.85791 20.5182C6.85791 22.226 8.26961 25.74 8.26961 25.74C8.36449 25.9696 8.56751 26.1888 8.87775 26.3681C9.7686 26.8823 11.2088 26.8832 12.0939 26.3681C12.537 26.111 12.7571 25.7732 12.7552 25.4364V20.5182Z" stroke="#1C1E2D" stroke-width="0.3" stroke-miterlimit="10"/>
<path d="M11.8843 19.3109C10.7287 18.6439 8.86259 18.6439 7.71463 19.3109C7.14065 19.6448 6.85509 20.0813 6.85793 20.5186C6.86078 20.956 7.15109 21.3924 7.72791 21.7263C8.88346 22.3933 10.7496 22.3933 11.8976 21.7263C12.4715 21.3924 12.7571 20.956 12.7543 20.5186C12.7514 20.0813 12.4611 19.6439 11.8833 19.3109" fill="#E6724D"/>
<path d="M30.3558 17.6744C30.3586 18.1117 30.0731 18.5491 29.4991 18.8821C28.3511 19.5491 26.484 19.5491 25.3294 18.8821C24.7517 18.5482 24.4613 18.1117 24.4585 17.6744C24.4585 19.3821 25.8702 22.8962 25.8702 22.8962C25.9651 23.1258 26.1681 23.3449 26.4783 23.5242C27.3692 24.0384 28.8094 24.0394 29.6945 23.5242C30.1376 23.2671 30.3577 22.9294 30.3558 22.5926V17.6744Z" fill="#EB4944"/>
<path d="M24.4585 17.6744C24.4585 18.5282 24.8114 19.8337 25.1643 20.9257C25.5173 22.0176 25.8702 22.8962 25.8702 22.8962C25.9651 23.1267 26.1681 23.3449 26.4783 23.5242C26.521 23.5489 26.5637 23.5717 26.6083 23.5944C27.5049 24.0384 28.8511 24.0157 29.6945 23.5252C30.1376 23.2681 30.3577 22.9303 30.3558 22.5935V17.681C30.3558 18.1165 30.0702 18.551 29.4991 18.8831C28.3511 19.55 26.484 19.55 25.3294 18.8831C24.7517 18.5491 24.4613 18.1127 24.4585 17.6753" fill="#FDA4AF"/>
<path d="M24.4585 17.6744C24.4585 18.5282 24.8114 19.8337 25.1643 20.9257C25.5173 22.0176 25.8702 22.8962 25.8702 22.8962C25.9651 23.1267 26.1681 23.3449 26.4783 23.5242C26.521 23.5489 26.5637 23.5717 26.6083 23.5944C27.5049 24.0384 28.8511 24.0157 29.6945 23.5252C30.1376 23.2681 30.3577 22.9303 30.3558 22.5935V17.681C30.3558 18.1165 30.0702 18.551 29.4991 18.8831C28.3511 19.55 26.484 19.55 25.3294 18.8831C24.7517 18.5491 24.4613 18.1127 24.4585 17.6753V17.6744Z" stroke="#1C1E2D" stroke-width="0.3" stroke-miterlimit="10"/>
<path d="M29.4878 16.4663C28.3322 15.7994 26.4661 15.7994 25.3181 16.4663C24.7442 16.8003 24.4586 17.2367 24.4614 17.6741C24.4643 18.1114 24.7546 18.5478 25.3314 18.8818C26.487 19.5487 28.3541 19.5487 29.5011 18.8818C30.0751 18.5478 30.3606 18.1114 30.3578 17.6741C30.3549 17.2367 30.0646 16.7993 29.4868 16.4663" fill="#E6724D"/>
<path d="M24.0164 14.0123C24.0193 14.4496 23.7337 14.887 23.1597 15.22C22.0118 15.8869 20.1447 15.8869 18.9901 15.22C18.4123 14.886 18.122 14.4496 18.1191 14.0123C18.1191 15.72 19.5308 19.2341 19.5308 19.2341C19.6257 19.4636 19.8287 19.6828 20.139 19.8621C21.0298 20.3763 22.47 20.3773 23.3552 19.8621C23.7982 19.605 24.0183 19.2673 24.0164 18.9305V14.0123Z" fill="#DE403A"/>
<path d="M23.1455 12.8035C21.99 12.1365 20.1238 12.1365 18.9759 12.8035C18.4019 13.1375 18.1163 13.5739 18.1192 14.0112C18.122 14.4486 18.4123 14.885 18.9891 15.219C20.1447 15.8859 22.0118 15.8859 23.1588 15.219C23.7328 14.885 24.0183 14.4486 24.0155 14.0112C24.0126 13.5739 23.7223 13.1365 23.1446 12.8035" fill="#E6724D"/>
<path d="M26.7783 2.82215C29.2791 2.20548 28.0012 0.344079 28.3959 0.048077C28.7905 -0.247925 29.7763 0.753929 29.4575 4.98809L26.7773 2.82215H26.7783Z" fill="#FDA4AF"/>
<path d="M26.7783 2.82215C29.2791 2.20548 28.0012 0.344079 28.3959 0.048077C28.7905 -0.247925 29.7763 0.753929 29.4575 4.98809L26.7773 2.82215H26.7783Z" stroke="#1C1E2D" stroke-width="0.3" stroke-miterlimit="10"/>
<path d="M28.6987 19.9442C30.6796 18.8009 32.3019 15.9064 32.357 12.6039C32.4898 4.57007 24.3545 -1.65357 17.0066 2.68875C13.501 4.76077 11.6207 5.84611 9.78962 6.90299C7.86466 8.01394 6.12849 9.14008 5.08584 10.8051C4.33066 12.0119 3.98438 13.5393 3.98438 15.3779C3.98438 21.8862 8.92818 28.347 16.4668 26.4562C17.3956 26.2238 18.4202 25.8775 19.4106 25.3064C22.8488 23.3216 26.8838 20.9916 28.6996 19.9432" fill="#FDA4AF"/>
<path d="M28.6987 19.9442C30.6796 18.8009 32.3019 15.9064 32.357 12.6039C32.4898 4.57007 24.3545 -1.65357 17.0066 2.68875C13.501 4.76077 11.6207 5.84611 9.78962 6.90299C7.86466 8.01394 6.12849 9.14008 5.08585 10.8051C4.33066 12.0119 3.98438 13.5393 3.98438 15.3779C3.98438 21.8862 8.92818 28.347 16.4668 26.4562C17.3956 26.2238 18.4202 25.8775 19.4106 25.3064C22.8488 23.3216 26.8838 20.9916 28.6996 19.9432L28.6987 19.9442Z" stroke="#1C1E2D" stroke-width="0.3" stroke-miterlimit="10"/>
<path d="M12.0454 17.3126C12.0454 18.0886 11.7361 18.7177 11.3547 18.7177C10.9733 18.7177 10.6641 18.0886 10.6641 17.3126C10.6641 16.5365 10.9733 15.9075 11.3547 15.9075C11.7361 15.9075 12.0454 16.5365 12.0454 17.3126Z" fill="#1A1E2E"/>
<path d="M7.1875 14.5077C7.1875 15.2838 6.87821 15.9128 6.49682 15.9128C6.11544 15.9128 5.80615 15.2838 5.80615 14.5077C5.80615 13.7317 6.11544 13.1027 6.49682 13.1027C6.87821 13.1027 7.1875 13.7317 7.1875 14.5077Z" fill="#1A1E2E"/>
<path d="M6.03742 6.38217C6.05545 6.3945 6.07347 6.40588 6.0915 6.41822C6.11427 6.4334 6.13799 6.45048 6.16076 6.46755C6.18447 6.48463 6.20724 6.49981 6.23096 6.51783C6.24994 6.53207 6.26986 6.54725 6.28883 6.56148C6.31919 6.58425 6.3486 6.60607 6.37896 6.63073C6.39794 6.64591 6.41691 6.66204 6.43683 6.67722C6.47004 6.70378 6.50324 6.73035 6.5374 6.75881C6.55827 6.77589 6.57914 6.79486 6.60001 6.81194C6.63417 6.84135 6.66927 6.87171 6.70437 6.90302C6.74517 6.93907 6.78596 6.97607 6.82771 7.01497C6.82961 7.01686 6.83245 7.01971 6.83435 7.02161C6.88084 7.06525 6.92827 7.11079 6.97571 7.15728C6.9833 7.16487 6.99184 7.17246 6.99943 7.18005C7.04686 7.22748 7.09525 7.27587 7.14458 7.32615C7.15407 7.33564 7.16356 7.34607 7.17399 7.35651C7.22333 7.40774 7.27361 7.46087 7.32484 7.51589C7.33053 7.52254 7.33623 7.52918 7.34287 7.53487C7.39125 7.588 7.44059 7.64207 7.48992 7.69805C7.49751 7.70659 7.5051 7.71418 7.51174 7.72272C7.56297 7.78154 7.61515 7.84131 7.66828 7.90392C7.67966 7.9172 7.69105 7.93049 7.70243 7.94472C7.75651 8.00923 7.81154 8.07564 7.86751 8.14395C7.86751 8.14395 7.86751 8.14395 7.86751 8.1449C7.92064 8.21036 7.97377 8.27772 8.02785 8.34698C8.04682 8.37069 8.06485 8.39536 8.08382 8.41908C8.12462 8.47221 8.16636 8.52724 8.20905 8.58321C8.22613 8.60598 8.24321 8.62875 8.26028 8.65152C8.3191 8.73026 8.37887 8.81185 8.43864 8.89439L9.71563 8.15249C9.66345 8.07944 9.61127 8.00923 9.56004 7.93903C9.55245 7.92859 9.54486 7.9191 9.53727 7.90867C9.52019 7.88495 9.50217 7.86218 9.48509 7.83941C9.44334 7.78438 9.4016 7.72936 9.36081 7.67623C9.34183 7.65156 9.32286 7.62689 9.30388 7.60318C9.2906 7.5861 9.27827 7.56902 9.26498 7.55289C9.22419 7.50166 9.18434 7.45043 9.14355 7.4011C9.14355 7.4011 9.14355 7.4011 9.14355 7.40015C9.10275 7.34987 9.06291 7.30148 9.02306 7.2531C9.00788 7.23507 8.99365 7.21799 8.97847 7.20092C8.96708 7.18763 8.9557 7.1734 8.94431 7.16012C8.89593 7.1032 8.84849 7.04722 8.80106 6.9941C8.79631 6.98935 8.79252 6.98461 8.78778 6.97986C8.78019 6.97133 8.7726 6.96279 8.76501 6.95425C8.71567 6.89827 8.66634 6.8442 8.61795 6.79202C8.61226 6.78538 8.60562 6.77873 8.59993 6.77209C8.59708 6.76925 8.59424 6.76545 8.59139 6.76261C8.54395 6.71137 8.49652 6.66204 8.45003 6.61366C8.44054 6.60322 8.43011 6.59373 8.42062 6.5833C8.41018 6.57286 8.39975 6.56242 8.39026 6.55199C8.35231 6.51309 8.31341 6.47514 8.27641 6.43814C8.26882 6.43055 8.26028 6.42296 8.25269 6.41442C8.23372 6.39545 8.21475 6.37647 8.19577 6.35845C8.16731 6.33094 8.1398 6.30532 8.11133 6.27876C8.10849 6.27686 8.10659 6.27401 8.10374 6.27212C8.07149 6.24176 8.03923 6.21329 8.00792 6.18388C7.99844 6.17535 7.9899 6.1687 7.98041 6.16017C7.94531 6.12886 7.9102 6.0985 7.87605 6.06909C7.86087 6.05675 7.84569 6.04252 7.83146 6.03019C7.82577 6.02545 7.82008 6.0207 7.81343 6.01596C7.77928 5.9875 7.74608 5.96093 7.71287 5.93437C7.69769 5.92204 7.68156 5.9078 7.66638 5.89642C7.66259 5.89357 7.65974 5.89073 7.65595 5.88883C7.62559 5.86511 7.59523 5.84234 7.56487 5.81957C7.54779 5.80724 7.53071 5.79301 7.51364 5.78068C7.51174 5.77878 7.50889 5.77783 7.507 5.77593C7.48328 5.75791 7.45956 5.74178 7.43584 5.72565C7.41497 5.71142 7.3941 5.69529 7.37417 5.68201C7.37228 5.68011 7.36943 5.67916 7.36753 5.67726C7.34856 5.66493 7.33053 5.6526 7.31251 5.64121C7.28974 5.62603 7.26697 5.6099 7.2442 5.59567C7.24135 5.59378 7.23756 5.59188 7.23471 5.58998C7.21764 5.57955 7.20151 5.57006 7.18538 5.55962C7.16451 5.54729 7.14363 5.53401 7.12276 5.52167C7.11328 5.51598 7.10474 5.51124 7.09525 5.50555C7.06584 5.48847 7.03738 5.47234 7.00892 5.45716C7.00417 5.45431 6.99943 5.45242 6.99468 5.44957C6.97761 5.44008 6.96053 5.43154 6.9444 5.42301C6.93017 5.41542 6.91594 5.40783 6.90266 5.40119C6.89697 5.39834 6.89222 5.39644 6.88653 5.3936C6.8704 5.38601 6.85522 5.37842 6.83909 5.37177C6.82676 5.36608 6.81348 5.35944 6.80114 5.35375C6.79545 5.3509 6.78881 5.34901 6.78312 5.34616C6.76794 5.33952 6.75276 5.33383 6.73853 5.32718C6.72714 5.32244 6.71576 5.3177 6.70532 5.31295C6.69773 5.31011 6.69109 5.30821 6.68445 5.30536C6.67022 5.29967 6.65599 5.29398 6.64176 5.28924C6.63227 5.28544 6.62278 5.28165 6.6133 5.2788C6.60571 5.27595 6.59812 5.27406 6.58958 5.27121C6.57535 5.26647 6.56207 5.26172 6.54783 5.25793C6.54025 5.25508 6.53171 5.25224 6.52412 5.25034C6.51558 5.24749 6.50704 5.24559 6.4985 5.2437C6.48522 5.2399 6.47194 5.23611 6.45865 5.23231C6.45201 5.23041 6.44537 5.22852 6.43873 5.22662C6.42924 5.22472 6.42071 5.22282 6.41217 5.22093C6.39889 5.21808 6.3856 5.21523 6.37327 5.21239C6.36758 5.21144 6.36188 5.20954 6.35714 5.20859C6.34765 5.2067 6.33912 5.20575 6.33058 5.20385C6.31729 5.20195 6.30401 5.19911 6.29168 5.19721C6.28694 5.19721 6.28219 5.19531 6.27745 5.19436C6.26891 5.19341 6.26132 5.19247 6.25278 5.19152C6.2395 5.18962 6.22622 5.18867 6.21294 5.18772C6.20819 5.18772 6.20345 5.18677 6.1987 5.18582C6.19111 5.18582 6.18447 5.18582 6.17688 5.18582C6.1636 5.18582 6.14937 5.18488 6.13609 5.18488C6.13134 5.18488 6.1266 5.18488 6.12186 5.18488C6.11617 5.18488 6.11142 5.18488 6.10573 5.18488C6.09055 5.18488 6.07632 5.18488 6.06209 5.18677C6.0564 5.18677 6.05165 5.18677 6.04596 5.18677C6.04216 5.18677 6.03837 5.18772 6.03457 5.18867C6.0175 5.19057 6.00042 5.19341 5.98429 5.19626C5.97955 5.19626 5.97386 5.19721 5.97006 5.19816C5.96911 5.19816 5.96722 5.19816 5.96627 5.19911C5.94065 5.20385 5.91788 5.21049 5.89511 5.21808C5.89321 5.21808 5.89037 5.21903 5.88847 5.21998C5.88562 5.22093 5.88373 5.22282 5.88088 5.22377C5.85621 5.23326 5.8325 5.24275 5.81068 5.25508L4.53369 5.99698C4.55456 5.98465 4.57828 5.97516 4.6039 5.96568C4.60864 5.96378 4.61338 5.96188 4.61813 5.96093C4.6409 5.95334 4.66367 5.9467 4.68928 5.94196C4.69497 5.94101 4.70162 5.94006 4.70731 5.93911C4.72344 5.93627 4.74051 5.93342 4.75759 5.93152C4.76613 5.93152 4.77562 5.92963 4.78415 5.92963C4.79839 5.92868 4.81262 5.92773 4.8278 5.92773C4.83823 5.92773 4.84867 5.92773 4.8591 5.92773C4.87239 5.92773 4.88567 5.92773 4.8999 5.92868C4.91128 5.92868 4.92362 5.92962 4.935 5.93057C4.94828 5.93152 4.96157 5.93342 4.97485 5.93437C4.98813 5.93627 5.00046 5.93722 5.01375 5.93911C5.02608 5.94101 5.03936 5.94291 5.05264 5.94575C5.06687 5.9486 5.08111 5.9505 5.09534 5.95334C5.10862 5.95619 5.12095 5.95904 5.13423 5.96188C5.14941 5.96568 5.16459 5.96947 5.18072 5.97327C5.194 5.97706 5.20729 5.98086 5.22057 5.98465C5.2367 5.98939 5.25283 5.99414 5.2699 5.99983C5.28318 6.00457 5.29742 6.00837 5.3107 6.01311C5.32777 6.01881 5.34485 6.02545 5.36288 6.03114C5.37711 6.03683 5.39134 6.04157 5.40557 6.04727C5.4236 6.05391 5.44162 6.0615 5.45965 6.06909C5.47483 6.07478 5.48906 6.08142 5.50424 6.08806C5.52321 6.0966 5.54219 6.10514 5.56116 6.11368C5.57634 6.12127 5.59247 6.12791 5.6086 6.1355C5.62757 6.14499 5.64749 6.15447 5.66647 6.16491C5.68355 6.17345 5.69967 6.18199 5.71675 6.19147C5.74996 6.2095 5.78316 6.22752 5.81732 6.24745C5.84673 6.26453 5.87709 6.28255 5.9065 6.30153C5.92263 6.31196 5.93875 6.32145 5.95583 6.33188C5.98145 6.34801 6.00801 6.36604 6.03363 6.38312" fill="#BD8AEB"/>
<path d="M6.03742 6.38217C6.05545 6.3945 6.07347 6.40588 6.0915 6.41822C6.11427 6.4334 6.13799 6.45048 6.16076 6.46755C6.18447 6.48463 6.20724 6.49981 6.23096 6.51783C6.24994 6.53207 6.26986 6.54725 6.28883 6.56148C6.31919 6.58425 6.3486 6.60607 6.37896 6.63073C6.39794 6.64591 6.41691 6.66204 6.43683 6.67722C6.47004 6.70378 6.50324 6.73035 6.5374 6.75881C6.55827 6.77589 6.57914 6.79486 6.60001 6.81194C6.63417 6.84135 6.66927 6.87171 6.70437 6.90302C6.74517 6.93907 6.78597 6.97607 6.82771 7.01497C6.82961 7.01686 6.83245 7.01971 6.83435 7.02161C6.88084 7.06525 6.92827 7.11079 6.97571 7.15728C6.9833 7.16487 6.99184 7.17246 6.99943 7.18005C7.04686 7.22748 7.09525 7.27587 7.14458 7.32615C7.15407 7.33564 7.16356 7.34607 7.17399 7.35651C7.22333 7.40774 7.27361 7.46087 7.32484 7.51589C7.33053 7.52254 7.33623 7.52918 7.34287 7.53487C7.39125 7.588 7.44059 7.64207 7.48992 7.69805C7.49751 7.70659 7.5051 7.71418 7.51174 7.72272C7.56297 7.78154 7.61515 7.84131 7.66828 7.90392C7.67966 7.9172 7.69105 7.93049 7.70243 7.94472C7.75651 8.00923 7.81154 8.07564 7.86751 8.14395C7.86751 8.14395 7.86751 8.14395 7.86751 8.1449C7.92064 8.21036 7.97377 8.27772 8.02785 8.34698C8.04682 8.37069 8.06485 8.39536 8.08382 8.41908C8.12462 8.47221 8.16636 8.52724 8.20905 8.58321C8.22613 8.60598 8.24321 8.62875 8.26028 8.65152C8.3191 8.73026 8.37887 8.81185 8.43864 8.89439L9.71563 8.15249C9.66345 8.07944 9.61127 8.00923 9.56004 7.93903C9.55245 7.92859 9.54486 7.9191 9.53727 7.90867C9.52019 7.88495 9.50217 7.86218 9.48509 7.83941C9.44334 7.78438 9.4016 7.72936 9.36081 7.67623C9.34183 7.65156 9.32286 7.62689 9.30388 7.60318C9.2906 7.5861 9.27827 7.56902 9.26498 7.55289C9.22419 7.50166 9.18434 7.45043 9.14355 7.4011C9.14355 7.4011 9.14355 7.4011 9.14355 7.40015C9.10275 7.34987 9.06291 7.30148 9.02306 7.2531C9.00788 7.23507 8.99365 7.21799 8.97847 7.20092C8.96708 7.18763 8.9557 7.1734 8.94431 7.16012C8.89593 7.1032 8.84849 7.04722 8.80106 6.9941C8.79631 6.98935 8.79252 6.98461 8.78778 6.97986C8.78019 6.97133 8.7726 6.96279 8.76501 6.95425C8.71567 6.89827 8.66634 6.8442 8.61795 6.79202C8.61226 6.78538 8.60562 6.77873 8.59993 6.77209C8.59708 6.76925 8.59424 6.76545 8.59139 6.76261C8.54395 6.71137 8.49652 6.66204 8.45003 6.61366C8.44054 6.60322 8.43011 6.59373 8.42062 6.5833C8.41018 6.57286 8.39975 6.56242 8.39026 6.55199C8.35231 6.51309 8.31341 6.47514 8.27641 6.43814C8.26882 6.43055 8.26028 6.42296 8.25269 6.41442C8.23372 6.39545 8.21475 6.37647 8.19577 6.35845C8.16731 6.33094 8.1398 6.30532 8.11133 6.27876C8.10849 6.27686 8.10659 6.27401 8.10374 6.27212C8.07149 6.24176 8.03923 6.21329 8.00792 6.18388C7.99844 6.17535 7.9899 6.1687 7.98041 6.16017C7.94531 6.12886 7.9102 6.0985 7.87605 6.06909C7.86087 6.05675 7.84569 6.04252 7.83146 6.03019C7.82577 6.02545 7.82008 6.0207 7.81343 6.01596C7.77928 5.9875 7.74608 5.96093 7.71287 5.93437C7.69769 5.92204 7.68156 5.9078 7.66638 5.89642C7.66259 5.89357 7.65974 5.89073 7.65595 5.88883C7.62559 5.86511 7.59523 5.84234 7.56487 5.81957C7.54779 5.80724 7.53071 5.79301 7.51364 5.78068C7.51174 5.77878 7.50889 5.77783 7.507 5.77593C7.48328 5.75791 7.45956 5.74178 7.43584 5.72565C7.41497 5.71142 7.3941 5.69529 7.37417 5.68201C7.37228 5.68011 7.36943 5.67916 7.36753 5.67726C7.34856 5.66493 7.33053 5.6526 7.31251 5.64121C7.28974 5.62603 7.26697 5.6099 7.2442 5.59567C7.24135 5.59378 7.23756 5.59188 7.23471 5.58998C7.21764 5.57955 7.20151 5.57006 7.18538 5.55962C7.16451 5.54729 7.14363 5.53401 7.12276 5.52167C7.11328 5.51598 7.10474 5.51124 7.09525 5.50555C7.06584 5.48847 7.03738 5.47234 7.00892 5.45716C7.00417 5.45431 6.99943 5.45242 6.99468 5.44957C6.97761 5.44008 6.96053 5.43154 6.9444 5.42301C6.93017 5.41542 6.91594 5.40783 6.90266 5.40119C6.89697 5.39834 6.89222 5.39644 6.88653 5.3936C6.8704 5.38601 6.85522 5.37842 6.83909 5.37177C6.82676 5.36608 6.81348 5.35944 6.80114 5.35375C6.79545 5.3509 6.78881 5.34901 6.78312 5.34616C6.76794 5.33952 6.75276 5.33383 6.73853 5.32718C6.72714 5.32244 6.71576 5.3177 6.70532 5.31295C6.69773 5.31011 6.69109 5.30821 6.68445 5.30536C6.67022 5.29967 6.65599 5.29398 6.64176 5.28924C6.63227 5.28544 6.62278 5.28165 6.6133 5.2788C6.60571 5.27595 6.59812 5.27406 6.58958 5.27121C6.57535 5.26647 6.56207 5.26172 6.54783 5.25793C6.54025 5.25508 6.53171 5.25224 6.52412 5.25034C6.51558 5.24749 6.50704 5.24559 6.4985 5.2437C6.48522 5.2399 6.47194 5.23611 6.45865 5.23231C6.45201 5.23041 6.44537 5.22852 6.43873 5.22662C6.42924 5.22472 6.42071 5.22282 6.41217 5.22093C6.39889 5.21808 6.3856 5.21523 6.37327 5.21239C6.36758 5.21144 6.36188 5.20954 6.35714 5.20859C6.34765 5.2067 6.33912 5.20575 6.33058 5.20385C6.31729 5.20195 6.30401 5.19911 6.29168 5.19721C6.28694 5.19721 6.28219 5.19531 6.27745 5.19436C6.26891 5.19341 6.26132 5.19247 6.25278 5.19152C6.2395 5.18962 6.22622 5.18867 6.21294 5.18772C6.20819 5.18772 6.20345 5.18677 6.1987 5.18582C6.19111 5.18582 6.18447 5.18582 6.17688 5.18582C6.1636 5.18582 6.14937 5.18488 6.13609 5.18488C6.13134 5.18488 6.1266 5.18488 6.12186 5.18488C6.11617 5.18488 6.11142 5.18488 6.10573 5.18488C6.09055 5.18488 6.07632 5.18488 6.06209 5.18677C6.0564 5.18677 6.05165 5.18677 6.04596 5.18677C6.04216 5.18677 6.03837 5.18772 6.03457 5.18867C6.0175 5.19057 6.00042 5.19341 5.98429 5.19626C5.97955 5.19626 5.97386 5.19721 5.97006 5.19816C5.96911 5.19816 5.96722 5.19816 5.96627 5.19911C5.94065 5.20385 5.91788 5.21049 5.89511 5.21808C5.89321 5.21808 5.89037 5.21903 5.88847 5.21998C5.88562 5.22093 5.88373 5.22282 5.88088 5.22377C5.85621 5.23326 5.8325 5.24275 5.81068 5.25508L4.53369 5.99698C4.55456 5.98465 4.57828 5.97516 4.6039 5.96568C4.60864 5.96378 4.61338 5.96188 4.61813 5.96093C4.6409 5.95334 4.66367 5.9467 4.68928 5.94196C4.69497 5.94101 4.70162 5.94006 4.70731 5.93911C4.72344 5.93627 4.74051 5.93342 4.75759 5.93152C4.76613 5.93152 4.77562 5.92963 4.78415 5.92963C4.79839 5.92868 4.81262 5.92773 4.8278 5.92773C4.83823 5.92773 4.84867 5.92773 4.8591 5.92773C4.87239 5.92773 4.88567 5.92773 4.8999 5.92868C4.91128 5.92868 4.92362 5.92962 4.935 5.93057C4.94828 5.93152 4.96157 5.93342 4.97485 5.93437C4.98813 5.93627 5.00046 5.93722 5.01375 5.93911C5.02608 5.94101 5.03936 5.94291 5.05264 5.94575C5.06687 5.9486 5.08111 5.9505 5.09534 5.95334C5.10862 5.95619 5.12095 5.95904 5.13423 5.96188C5.14941 5.96568 5.16459 5.96947 5.18072 5.97327C5.194 5.97706 5.20729 5.98086 5.22057 5.98465C5.2367 5.98939 5.25283 5.99414 5.2699 5.99983C5.28318 6.00457 5.29742 6.00837 5.3107 6.01311C5.32777 6.01881 5.34485 6.02545 5.36288 6.03114C5.37711 6.03683 5.39134 6.04157 5.40557 6.04727C5.4236 6.05391 5.44162 6.0615 5.45965 6.06909C5.47483 6.07478 5.48906 6.08142 5.50424 6.08806C5.52321 6.0966 5.54219 6.10514 5.56116 6.11368C5.57634 6.12127 5.59247 6.12791 5.6086 6.1355C5.62757 6.14499 5.64749 6.15447 5.66647 6.16491C5.68355 6.17345 5.69967 6.18199 5.71675 6.19147C5.74996 6.2095 5.78316 6.22752 5.81732 6.24745C5.84673 6.26453 5.87709 6.28255 5.9065 6.30153C5.92263 6.31196 5.93875 6.32145 5.95583 6.33188C5.98145 6.34801 6.00801 6.36604 6.03363 6.38312L6.03742 6.38217Z" stroke="#1C1E2D" stroke-width="0.3" stroke-miterlimit="10"/>
<path d="M5.82064 6.24811C6.50088 6.64089 7.39268 7.43971 8.43912 8.89601C7.04924 9.0146 5.8899 9.67586 5.08538 10.8077C3.67842 7.69018 4.06929 6.26329 4.53701 5.9967C4.75996 5.86957 5.20207 5.89044 5.82064 6.24716" fill="#F2F2F4"/>
<path d="M5.82064 6.24811C6.50088 6.64089 7.39268 7.43971 8.43912 8.89601C7.04924 9.0146 5.8899 9.67586 5.08538 10.8077C3.67842 7.69018 4.06929 6.26329 4.53701 5.9967C4.75996 5.86957 5.20207 5.89044 5.82064 6.24716V6.24811Z" stroke="#1C1E2D" stroke-width="0.3" stroke-miterlimit="10"/>
<path d="M19.2638 14.6429C19.2638 14.6363 19.2638 14.6296 19.2638 14.623C19.2638 14.6012 19.2648 14.5803 19.2657 14.5585C19.2657 14.5414 19.2667 14.5243 19.2667 14.5072C19.2667 14.4997 19.2667 14.4921 19.2667 14.4845C19.2667 14.4636 19.2667 14.4437 19.2667 14.4228C19.2667 14.4067 19.2667 14.3905 19.2667 14.3754C19.2667 14.3659 19.2657 14.3573 19.2657 14.3479C19.2657 14.3289 19.2638 14.3109 19.2629 14.2919C19.2629 14.2786 19.2619 14.2644 19.261 14.2511C19.261 14.2397 19.2591 14.2283 19.2581 14.2179C19.2572 14.1999 19.2553 14.1809 19.2534 14.1629C19.2534 14.1524 19.2515 14.141 19.2505 14.1296C19.2496 14.1154 19.2477 14.1021 19.2458 14.0879C19.2439 14.0708 19.242 14.0537 19.2401 14.0367C19.2391 14.0291 19.2382 14.0205 19.2373 14.012C19.2354 13.9949 19.2325 13.9779 19.2297 13.9598C19.2278 13.9446 19.2259 13.9285 19.223 13.9133C19.223 13.9086 19.2221 13.9029 19.2211 13.8982C19.2173 13.8754 19.2135 13.8536 19.2097 13.8308C19.2078 13.8185 19.2059 13.8061 19.2031 13.7947C19.2031 13.7928 19.2031 13.79 19.2021 13.7881C19.1955 13.7521 19.1879 13.716 19.1803 13.6809C19.1803 13.6809 19.1803 13.6809 19.1803 13.68C19.1794 13.6752 19.1784 13.6705 19.1765 13.6657C19.1699 13.6363 19.1633 13.6069 19.1557 13.5775C19.1557 13.5746 19.1538 13.5708 19.1528 13.568C19.15 13.5566 19.1471 13.5452 19.1433 13.5329C19.1386 13.5149 19.1338 13.4968 19.1291 13.4798C19.1272 13.4731 19.1253 13.4665 19.1234 13.4598C19.1196 13.4466 19.1158 13.4342 19.112 13.4209C19.1082 13.4096 19.1054 13.3972 19.1016 13.3858C19.0978 13.3745 19.0949 13.364 19.0911 13.3526C19.0874 13.3422 19.0845 13.3318 19.0807 13.3213C19.0788 13.3147 19.0769 13.308 19.0741 13.3024C19.0674 13.2824 19.0598 13.2625 19.0532 13.2426C19.0513 13.2369 19.0494 13.2312 19.0475 13.2265C19.0475 13.2255 19.0475 13.2236 19.0466 13.2227C19.038 13.1989 19.0295 13.1752 19.02 13.1525C19.0181 13.1477 19.0162 13.143 19.0143 13.1373C19.0115 13.1297 19.0086 13.123 19.0058 13.1155C19.002 13.105 18.9982 13.0955 18.9934 13.0851C18.9877 13.0709 18.9811 13.0566 18.9754 13.0424C18.9735 13.0377 18.9716 13.0329 18.9697 13.0282C18.9697 13.0263 18.9678 13.0244 18.9669 13.0225C18.9583 13.0026 18.9488 12.9836 18.9403 12.9637C18.9384 12.9589 18.9356 12.9542 18.9337 12.9494C18.9308 12.9437 18.928 12.938 18.9251 12.9324C18.9213 12.9248 18.9175 12.9162 18.9137 12.9086C18.908 12.8973 18.9024 12.8868 18.8967 12.8764C18.8919 12.8678 18.8872 12.8584 18.8834 12.8498C18.8815 12.846 18.8796 12.8432 18.8777 12.8394C18.8663 12.8185 18.8549 12.7986 18.8445 12.7787C18.8426 12.7749 18.8407 12.7711 18.8378 12.7682C18.8359 12.7654 18.834 12.7625 18.8321 12.7597C18.8084 12.7198 18.7838 12.68 18.7553 12.6382C18.7553 12.6373 18.7534 12.6354 18.7525 12.6345C18.7525 12.6345 18.7525 12.6335 18.7515 12.6326C18.7316 12.6031 18.7098 12.5728 18.6879 12.5424C18.686 12.5396 18.6841 12.5367 18.6822 12.5348C18.6737 12.5225 18.6642 12.5111 18.6547 12.4988C18.6471 12.4893 18.6405 12.4798 18.6329 12.4694C18.631 12.4675 18.6301 12.4646 18.6282 12.4627C18.612 12.4419 18.595 12.4219 18.5779 12.4011C18.576 12.3992 18.575 12.3973 18.5731 12.3954C18.5542 12.3726 18.5342 12.3498 18.5143 12.3271C18.5124 12.3252 18.5105 12.3233 18.5096 12.3214C18.502 12.3128 18.4944 12.3043 18.4868 12.2958C18.4745 12.2825 18.4631 12.2692 18.4508 12.2559C18.4479 12.2521 18.4441 12.2493 18.4403 12.2455C18.4299 12.2341 18.4194 12.2237 18.409 12.2123C18.3986 12.2018 18.3891 12.1914 18.3796 12.181C18.3749 12.1762 18.3701 12.1724 18.3663 12.1677C18.354 12.1553 18.3417 12.143 18.3284 12.1307C18.3189 12.1212 18.3103 12.1127 18.3009 12.1032C18.2961 12.0984 18.2904 12.0937 18.2857 12.0889C18.2714 12.0757 18.2563 12.0614 18.2411 12.0481C18.2316 12.0396 18.2231 12.0311 18.2126 12.0216C18.2079 12.0168 18.2022 12.013 18.1974 12.0083C18.1813 11.9941 18.1652 11.9798 18.1491 11.9656C18.1386 11.9571 18.1291 11.9476 18.1187 11.939C18.114 11.9352 18.1092 11.9315 18.1045 11.9277C18.0874 11.9134 18.0703 11.8992 18.0523 11.8859C18.0409 11.8774 18.0305 11.8679 18.0191 11.8593C18.0143 11.8556 18.0105 11.8527 18.0058 11.8499C17.9878 11.8366 17.9698 11.8223 17.9517 11.8091C17.9394 11.7996 17.928 11.791 17.9157 11.7816C17.9119 11.7787 17.9071 11.7759 17.9033 11.773C17.8853 11.7597 17.8673 11.7474 17.8493 11.7351C17.836 11.7256 17.8227 11.7161 17.8094 11.7066C17.8056 11.7038 17.8009 11.7009 17.7971 11.6981C17.7791 11.6857 17.761 11.6743 17.743 11.662C17.7288 11.6525 17.7145 11.643 17.7003 11.6336C17.6965 11.6307 17.6918 11.6288 17.688 11.626C17.67 11.6146 17.651 11.6032 17.633 11.5918C17.6178 11.5823 17.6035 11.5738 17.5884 11.5643C17.5798 11.5596 17.5703 11.5539 17.5618 11.5491C17.5324 11.532 17.502 11.515 17.4717 11.4988C17.465 11.495 17.4574 11.4912 17.4499 11.4874C17.4318 11.478 17.4138 11.4685 17.3967 11.4599C17.3815 11.4523 17.3664 11.4438 17.3502 11.4362C17.3407 11.4315 17.3313 11.4277 17.3218 11.4229C17.3028 11.4134 17.2829 11.4049 17.2639 11.3954C17.2506 11.3888 17.2373 11.3831 17.2241 11.3764C17.2127 11.3717 17.2003 11.367 17.189 11.3613C17.1681 11.3518 17.1472 11.3432 17.1263 11.3347C17.114 11.33 17.1026 11.3243 17.0912 11.3195C17.078 11.3138 17.0647 11.3091 17.0514 11.3043C17.0286 11.2958 17.0058 11.2873 16.9831 11.2787C16.9717 11.2749 16.9613 11.2702 16.9499 11.2664C16.9356 11.2617 16.9214 11.2569 16.9072 11.2522C16.8825 11.2436 16.8569 11.2351 16.8313 11.2275C16.8199 11.2237 16.8095 11.2199 16.7981 11.2171C16.7848 11.2133 16.7706 11.2095 16.7563 11.2057C16.7279 11.1971 16.6994 11.1895 16.6709 11.182C16.6586 11.1791 16.6472 11.1753 16.6349 11.1725C16.6226 11.1696 16.6102 11.1668 16.5979 11.1639C16.5647 11.1563 16.5324 11.1488 16.4983 11.1421C16.4841 11.1393 16.4708 11.1355 16.4565 11.1326C16.447 11.1307 16.4366 11.1298 16.4271 11.1279C16.3873 11.1203 16.3465 11.1136 16.3066 11.108C16.2915 11.1061 16.2763 11.1023 16.2602 11.1004C16.2545 11.1004 16.2497 11.1004 16.244 11.0985C16.1776 11.0899 16.1103 11.0823 16.0429 11.0776C16.041 11.0776 16.0391 11.0776 16.0372 11.0776C15.9879 11.0738 15.9385 11.0719 15.8883 11.071C15.874 11.071 15.8607 11.071 15.8465 11.071C15.8237 11.071 15.8019 11.07 15.7791 11.07C15.763 11.07 15.7459 11.07 15.7298 11.071C15.708 11.071 15.6871 11.071 15.6653 11.0729C15.6283 11.0738 15.5913 11.0766 15.5543 11.0785C15.5334 11.0795 15.5135 11.0814 15.4926 11.0823C15.485 11.0823 15.4775 11.0823 15.4699 11.0842C15.448 11.0861 15.4253 11.0899 15.4035 11.0918C15.3684 11.0956 15.3342 11.0994 15.2991 11.1042C15.2697 11.108 15.2393 11.1136 15.209 11.1184C15.1739 11.1241 15.1388 11.1298 15.1037 11.1364C15.0942 11.1383 15.0847 11.1393 15.0752 11.1412C15.0297 11.1497 14.9841 11.1601 14.9376 11.1706L13.6606 11.9125C13.7166 11.8992 13.7716 11.8888 13.8267 11.8783C13.8618 11.8717 13.8969 11.866 13.932 11.8603C13.9623 11.8556 13.9927 11.8508 14.0221 11.8461C14.0572 11.8413 14.0914 11.8375 14.1265 11.8337C14.1568 11.8309 14.1872 11.8271 14.2166 11.8242C14.2375 11.8223 14.2574 11.8214 14.2783 11.8204C14.3153 11.8176 14.3532 11.8157 14.3893 11.8148C14.4111 11.8148 14.4329 11.8138 14.4538 11.8129C14.4927 11.8129 14.5316 11.8129 14.5705 11.8129C14.5847 11.8129 14.598 11.8129 14.6122 11.8129C14.6644 11.8148 14.7156 11.8167 14.7669 11.8204C14.8352 11.8252 14.9025 11.8328 14.968 11.8413C14.9889 11.8442 15.0097 11.847 15.0306 11.8508C15.0714 11.8565 15.1112 11.8631 15.1511 11.8707C15.1748 11.8755 15.1985 11.8802 15.2222 11.885C15.2555 11.8916 15.2887 11.8992 15.3219 11.9068C15.3465 11.9125 15.3712 11.9191 15.3949 11.9248C15.4234 11.9324 15.4518 11.94 15.4803 11.9485C15.505 11.9561 15.5306 11.9628 15.5552 11.9713C15.5809 11.9789 15.6055 11.9874 15.6302 11.996C15.6558 12.0045 15.6814 12.013 15.7061 12.0225C15.7289 12.0311 15.7516 12.0396 15.7744 12.0481C15.8 12.0576 15.8256 12.0681 15.8503 12.0785C15.8712 12.087 15.892 12.0956 15.9129 12.1051C15.9385 12.1165 15.9632 12.1278 15.9879 12.1392C16.0078 12.1487 16.0268 12.1572 16.0457 12.1667C16.0714 12.1791 16.096 12.1914 16.1207 12.2037C16.1387 12.2132 16.1567 12.2218 16.1748 12.2312C16.2127 12.2512 16.2497 12.2711 16.2858 12.2929C16.3095 12.3071 16.3332 12.3214 16.3569 12.3356C16.3749 12.347 16.3939 12.3584 16.4119 12.3698C16.4309 12.3811 16.4489 12.3935 16.467 12.4058C16.485 12.4181 16.503 12.4295 16.5211 12.4419C16.5381 12.4542 16.5552 12.4656 16.5723 12.4779C16.5903 12.4902 16.6083 12.5035 16.6264 12.5168C16.6425 12.5291 16.6586 12.5405 16.6747 12.5529C16.6928 12.5661 16.7108 12.5804 16.7288 12.5937C16.744 12.606 16.7592 12.6183 16.7744 12.6307C16.7914 12.6449 16.8095 12.6591 16.8265 12.6734C16.8417 12.6857 16.856 12.698 16.8711 12.7113C16.8873 12.7255 16.9043 12.7398 16.9195 12.754C16.9337 12.7673 16.9489 12.7806 16.9632 12.7929C16.9783 12.8062 16.9926 12.8204 17.0068 12.8337C17.021 12.847 17.0353 12.8612 17.0495 12.8754C17.0618 12.8878 17.0751 12.9001 17.0874 12.9134C17.1017 12.9286 17.1159 12.9428 17.1301 12.958C17.1406 12.9694 17.152 12.9798 17.1614 12.9912C17.1776 13.0083 17.1927 13.0244 17.207 13.0415C17.2146 13.05 17.2222 13.0585 17.2297 13.0671C17.2516 13.0917 17.2734 13.1174 17.2943 13.142C17.2962 13.1439 17.2971 13.1458 17.299 13.1477C17.318 13.1705 17.337 13.1933 17.354 13.216C17.3616 13.2255 17.3683 13.235 17.3759 13.2445C17.3872 13.2597 17.3986 13.2739 17.4091 13.2891C17.4309 13.3194 17.4527 13.3498 17.4726 13.3792C17.4736 13.3811 17.4755 13.383 17.4764 13.3849C17.5039 13.4266 17.5295 13.4665 17.5533 13.5063C17.5571 13.513 17.5609 13.5196 17.5646 13.5253C17.5779 13.5481 17.5903 13.5718 17.6035 13.5965C17.6083 13.605 17.6121 13.6135 17.6168 13.6221C17.6263 13.6411 17.6358 13.6591 17.6453 13.679C17.6481 13.6847 17.651 13.6904 17.6538 13.6961C17.6662 13.7217 17.6785 13.7483 17.6899 13.7748C17.6918 13.7796 17.6937 13.7843 17.6956 13.7881C17.706 13.8118 17.7155 13.8365 17.7259 13.8612C17.7288 13.8687 17.7316 13.8754 17.7345 13.883C17.7459 13.9124 17.7572 13.9418 17.7686 13.9722C17.7705 13.9769 17.7724 13.9826 17.7743 13.9873C17.7838 14.0139 17.7923 14.0405 17.8018 14.067C17.8056 14.0775 17.8085 14.0879 17.8123 14.0983C17.8199 14.1211 17.8265 14.1439 17.8331 14.1666C17.8369 14.179 17.8407 14.1923 17.8445 14.2046C17.8512 14.2293 17.8578 14.253 17.8644 14.2786C17.8673 14.29 17.8701 14.3014 17.873 14.3128C17.8815 14.345 17.8891 14.3782 17.8958 14.4114C17.8967 14.4162 17.8977 14.4209 17.8986 14.4256C17.9071 14.4636 17.9147 14.5025 17.9223 14.5414C17.9242 14.5528 17.9261 14.5651 17.929 14.5774C17.9337 14.605 17.9384 14.6325 17.9432 14.6609C17.9451 14.6761 17.9479 14.6913 17.9498 14.7074C17.9536 14.733 17.9565 14.7577 17.9603 14.7833C17.9622 14.8004 17.9641 14.8175 17.966 14.8345C17.9688 14.8592 17.9707 14.8839 17.9735 14.9095C17.9754 14.9275 17.9764 14.9456 17.9783 14.9636C17.9802 14.9882 17.9811 15.0139 17.983 15.0385C17.984 15.0575 17.9849 15.0755 17.9859 15.0945C17.9859 15.1192 17.9878 15.1438 17.9878 15.1694C17.9878 15.1894 17.9878 15.2102 17.9878 15.2302C17.9878 15.2548 17.9878 15.2795 17.9878 15.3042C17.9878 15.326 17.9878 15.3469 17.9859 15.3687C17.9859 15.3924 17.984 15.4161 17.9821 15.4398C17.9811 15.4645 17.9792 15.4882 17.9773 15.5129C17.9754 15.5347 17.9735 15.5575 17.9717 15.5793C17.9688 15.6068 17.966 15.6353 17.9631 15.6628C17.9603 15.6846 17.9574 15.7055 17.9546 15.7273C17.9508 15.7577 17.946 15.788 17.9413 15.8193C17.9375 15.8402 17.9337 15.8611 17.9299 15.8819C17.9233 15.918 17.9157 15.954 17.9081 15.9901C17.9043 16.0091 17.9005 16.028 17.8958 16.047C17.8815 16.1068 17.8663 16.1675 17.8483 16.2282C17.835 16.2728 17.8208 16.3174 17.8056 16.362C17.8009 16.3753 17.7961 16.3886 17.7914 16.4018C17.781 16.4322 17.7696 16.4635 17.7572 16.4939C17.7487 16.5147 17.7402 16.5366 17.7316 16.5574C17.7202 16.584 17.7098 16.6115 17.6975 16.6381C17.688 16.6589 17.6785 16.6808 17.669 16.7016C17.6586 16.7235 17.6481 16.7453 17.6377 16.7671C17.6178 16.8069 17.5969 16.8477 17.576 16.8876C17.5665 16.9056 17.5571 16.9236 17.5466 16.9417C17.5172 16.9938 17.4859 17.046 17.4536 17.0982C17.4508 17.103 17.448 17.1077 17.4451 17.1124C17.428 17.14 17.4081 17.1675 17.3901 17.194C17.3759 17.2149 17.3616 17.2367 17.3474 17.2576C17.3265 17.2861 17.3047 17.3145 17.2829 17.3439C17.2677 17.3639 17.2544 17.3828 17.2392 17.4027C17.2136 17.435 17.1871 17.4663 17.1605 17.4986C17.1472 17.5147 17.1349 17.5299 17.1216 17.546C17.0808 17.5934 17.0381 17.6399 16.9935 17.6864L18.2705 16.9445C18.3151 16.898 18.3578 16.8515 18.3986 16.8041C18.4119 16.7889 18.4242 16.7728 18.4375 16.7567C18.464 16.7254 18.4916 16.6931 18.5162 16.6608C18.5314 16.6409 18.5456 16.621 18.5608 16.6011C18.5826 16.5726 18.6045 16.5442 18.6244 16.5157C18.6396 16.4939 18.6538 16.473 18.668 16.4512C18.686 16.4237 18.705 16.3971 18.723 16.3696C18.723 16.3696 18.723 16.3686 18.724 16.3677C18.7268 16.3639 18.7287 16.3592 18.7316 16.3554C18.7648 16.3032 18.7951 16.251 18.8246 16.1988C18.835 16.1808 18.8445 16.1628 18.854 16.1447C18.8758 16.1049 18.8967 16.0641 18.9156 16.0243C18.9204 16.0138 18.927 16.0034 18.9318 15.9929C18.9375 15.9816 18.9422 15.9702 18.9469 15.9588C18.9564 15.9379 18.9659 15.917 18.9754 15.8952C18.9868 15.8687 18.9982 15.8411 19.0096 15.8146C19.0181 15.7937 19.0266 15.7728 19.0352 15.751C19.039 15.7396 19.0447 15.7292 19.0485 15.7178C19.056 15.6979 19.0627 15.6789 19.0693 15.659C19.0741 15.6457 19.0788 15.6324 19.0836 15.6191C19.0987 15.5755 19.113 15.5309 19.1253 15.4873C19.1253 15.4873 19.1253 15.4863 19.1253 15.4854C19.1433 15.4247 19.1585 15.3649 19.1727 15.3042C19.1746 15.2975 19.1765 15.2918 19.1775 15.2852C19.1803 15.2729 19.1822 15.2596 19.1851 15.2472C19.1927 15.2112 19.2003 15.1742 19.2069 15.1381C19.2088 15.1277 19.2116 15.1173 19.2135 15.1068C19.2154 15.0964 19.2164 15.086 19.2183 15.0765C19.223 15.0461 19.2278 15.0148 19.2316 14.9844C19.2335 14.9712 19.2363 14.9569 19.2373 14.9437C19.2382 14.9361 19.2391 14.9275 19.2401 14.9199C19.2439 14.8924 19.2458 14.864 19.2486 14.8364C19.2505 14.8213 19.2524 14.8051 19.2534 14.79C19.2534 14.7833 19.2534 14.7767 19.2543 14.77C19.2562 14.7454 19.2572 14.7217 19.2591 14.697C19.26 14.6799 19.2619 14.6628 19.2619 14.6458" fill="#BD8AEB"/>
<path d="M19.2638 14.6429C19.2638 14.6363 19.2638 14.6296 19.2638 14.623C19.2638 14.6012 19.2648 14.5803 19.2657 14.5585C19.2657 14.5414 19.2667 14.5243 19.2667 14.5072C19.2667 14.4996 19.2667 14.4921 19.2667 14.4845C19.2667 14.4636 19.2667 14.4437 19.2667 14.4228C19.2667 14.4067 19.2667 14.3905 19.2667 14.3754C19.2667 14.3659 19.2657 14.3573 19.2657 14.3479C19.2657 14.3289 19.2638 14.3109 19.2629 14.2919C19.2629 14.2786 19.2619 14.2644 19.261 14.2511C19.261 14.2397 19.2591 14.2283 19.2581 14.2179C19.2572 14.1999 19.2553 14.1809 19.2534 14.1629C19.2534 14.1524 19.2515 14.141 19.2505 14.1296C19.2496 14.1154 19.2477 14.1021 19.2458 14.0879C19.2439 14.0708 19.242 14.0537 19.2401 14.0367C19.2391 14.0291 19.2382 14.0205 19.2373 14.012C19.2354 13.9949 19.2325 13.9779 19.2297 13.9598C19.2278 13.9446 19.2259 13.9285 19.223 13.9133C19.223 13.9086 19.2221 13.9029 19.2211 13.8982C19.2173 13.8754 19.2135 13.8536 19.2097 13.8308C19.2078 13.8185 19.2059 13.8061 19.2031 13.7947C19.2031 13.7928 19.2031 13.79 19.2021 13.7881C19.1955 13.7521 19.1879 13.716 19.1803 13.6809C19.1803 13.6809 19.1803 13.6809 19.1803 13.68C19.1794 13.6752 19.1784 13.6705 19.1765 13.6657C19.1699 13.6363 19.1633 13.6069 19.1557 13.5775C19.1557 13.5746 19.1538 13.5708 19.1528 13.568C19.15 13.5566 19.1471 13.5452 19.1433 13.5329C19.1386 13.5149 19.1338 13.4968 19.1291 13.4798C19.1272 13.4731 19.1253 13.4665 19.1234 13.4598C19.1196 13.4466 19.1158 13.4342 19.112 13.4209C19.1082 13.4096 19.1054 13.3972 19.1016 13.3858C19.0978 13.3745 19.0949 13.364 19.0911 13.3526C19.0874 13.3422 19.0845 13.3318 19.0807 13.3213C19.0788 13.3147 19.0769 13.308 19.0741 13.3024C19.0674 13.2824 19.0598 13.2625 19.0532 13.2426C19.0513 13.2369 19.0494 13.2312 19.0475 13.2265C19.0475 13.2255 19.0475 13.2236 19.0466 13.2227C19.038 13.1989 19.0295 13.1752 19.02 13.1525C19.0181 13.1477 19.0162 13.143 19.0143 13.1373C19.0115 13.1297 19.0086 13.123 19.0058 13.1155C19.002 13.105 18.9982 13.0955 18.9934 13.0851C18.9877 13.0709 18.9811 13.0566 18.9754 13.0424C18.9735 13.0377 18.9716 13.0329 18.9697 13.0282C18.9697 13.0263 18.9678 13.0244 18.9669 13.0225C18.9583 13.0026 18.9488 12.9836 18.9403 12.9637C18.9384 12.9589 18.9356 12.9542 18.9337 12.9494C18.9308 12.9437 18.928 12.938 18.9251 12.9324C18.9213 12.9248 18.9175 12.9162 18.9137 12.9086C18.908 12.8973 18.9024 12.8868 18.8967 12.8764C18.8919 12.8678 18.8872 12.8584 18.8834 12.8498C18.8815 12.846 18.8796 12.8432 18.8777 12.8394C18.8663 12.8185 18.8549 12.7986 18.8445 12.7787C18.8426 12.7749 18.8407 12.7711 18.8378 12.7682C18.8359 12.7654 18.834 12.7625 18.8321 12.7597C18.8084 12.7198 18.7838 12.68 18.7553 12.6382C18.7553 12.6373 18.7534 12.6354 18.7525 12.6345C18.7525 12.6345 18.7525 12.6335 18.7515 12.6326C18.7316 12.6031 18.7098 12.5728 18.6879 12.5424C18.686 12.5396 18.6841 12.5367 18.6822 12.5348C18.6737 12.5225 18.6642 12.5111 18.6547 12.4988C18.6471 12.4893 18.6405 12.4798 18.6329 12.4694C18.631 12.4675 18.6301 12.4646 18.6282 12.4627C18.612 12.4419 18.595 12.4219 18.5779 12.4011C18.576 12.3992 18.575 12.3973 18.5731 12.3954C18.5542 12.3726 18.5342 12.3498 18.5143 12.3271C18.5124 12.3252 18.5105 12.3233 18.5096 12.3214C18.502 12.3128 18.4944 12.3043 18.4868 12.2958C18.4745 12.2825 18.4631 12.2692 18.4508 12.2559C18.4479 12.2521 18.4441 12.2493 18.4403 12.2455C18.4299 12.2341 18.4194 12.2237 18.409 12.2123C18.3986 12.2018 18.3891 12.1914 18.3796 12.181C18.3749 12.1762 18.3701 12.1724 18.3663 12.1677C18.354 12.1553 18.3417 12.143 18.3284 12.1307C18.3189 12.1212 18.3103 12.1127 18.3009 12.1032C18.2961 12.0984 18.2904 12.0937 18.2857 12.0889C18.2714 12.0757 18.2563 12.0614 18.2411 12.0481C18.2316 12.0396 18.2231 12.0311 18.2126 12.0216C18.2079 12.0168 18.2022 12.013 18.1974 12.0083C18.1813 11.9941 18.1652 11.9798 18.1491 11.9656C18.1386 11.9571 18.1291 11.9476 18.1187 11.939C18.114 11.9352 18.1092 11.9315 18.1045 11.9277C18.0874 11.9134 18.0703 11.8992 18.0523 11.8859C18.0409 11.8774 18.0305 11.8679 18.0191 11.8593C18.0143 11.8556 18.0105 11.8527 18.0058 11.8499C17.9878 11.8366 17.9698 11.8223 17.9517 11.8091C17.9394 11.7996 17.928 11.791 17.9157 11.7816C17.9119 11.7787 17.9071 11.7759 17.9033 11.773C17.8853 11.7597 17.8673 11.7474 17.8493 11.7351C17.836 11.7256 17.8227 11.7161 17.8094 11.7066C17.8056 11.7038 17.8009 11.7009 17.7971 11.6981C17.7791 11.6857 17.761 11.6743 17.743 11.662C17.7288 11.6525 17.7145 11.643 17.7003 11.6336C17.6965 11.6307 17.6918 11.6288 17.688 11.626C17.67 11.6146 17.651 11.6032 17.633 11.5918C17.6178 11.5823 17.6035 11.5738 17.5884 11.5643C17.5798 11.5596 17.5703 11.5539 17.5618 11.5491C17.5324 11.532 17.502 11.515 17.4717 11.4988C17.465 11.495 17.4574 11.4912 17.4499 11.4874C17.4318 11.478 17.4138 11.4685 17.3967 11.4599C17.3815 11.4523 17.3664 11.4438 17.3502 11.4362C17.3407 11.4315 17.3313 11.4277 17.3218 11.4229C17.3028 11.4134 17.2829 11.4049 17.2639 11.3954C17.2506 11.3888 17.2373 11.3831 17.2241 11.3764C17.2127 11.3717 17.2003 11.367 17.189 11.3613C17.1681 11.3518 17.1472 11.3432 17.1263 11.3347C17.114 11.33 17.1026 11.3243 17.0912 11.3195C17.078 11.3138 17.0647 11.3091 17.0514 11.3043C17.0286 11.2958 17.0058 11.2873 16.9831 11.2787C16.9717 11.2749 16.9613 11.2702 16.9499 11.2664C16.9356 11.2617 16.9214 11.2569 16.9072 11.2522C16.8825 11.2436 16.8569 11.2351 16.8313 11.2275C16.8199 11.2237 16.8095 11.2199 16.7981 11.2171C16.7848 11.2133 16.7706 11.2095 16.7563 11.2057C16.7279 11.1971 16.6994 11.1895 16.6709 11.182C16.6586 11.1791 16.6472 11.1753 16.6349 11.1725C16.6226 11.1696 16.6102 11.1668 16.5979 11.1639C16.5647 11.1563 16.5324 11.1488 16.4983 11.1421C16.4841 11.1393 16.4708 11.1355 16.4565 11.1326C16.447 11.1307 16.4366 11.1298 16.4271 11.1279C16.3873 11.1203 16.3465 11.1136 16.3066 11.108C16.2915 11.1061 16.2763 11.1023 16.2602 11.1004C16.2545 11.1004 16.2497 11.1004 16.244 11.0985C16.1776 11.0899 16.1103 11.0823 16.0429 11.0776C16.041 11.0776 16.0391 11.0776 16.0372 11.0776C15.9879 11.0738 15.9385 11.0719 15.8883 11.071C15.874 11.071 15.8607 11.071 15.8465 11.071C15.8237 11.071 15.8019 11.07 15.7791 11.07C15.763 11.07 15.7459 11.07 15.7298 11.071C15.708 11.071 15.6871 11.071 15.6653 11.0729C15.6283 11.0738 15.5913 11.0766 15.5543 11.0785C15.5334 11.0795 15.5135 11.0814 15.4926 11.0823C15.485 11.0823 15.4775 11.0823 15.4699 11.0842C15.448 11.0861 15.4253 11.0899 15.4035 11.0918C15.3684 11.0956 15.3342 11.0994 15.2991 11.1042C15.2697 11.108 15.2393 11.1136 15.209 11.1184C15.1739 11.1241 15.1388 11.1298 15.1037 11.1364C15.0942 11.1383 15.0847 11.1393 15.0752 11.1412C15.0297 11.1497 14.9841 11.1601 14.9376 11.1706L13.6606 11.9125C13.7166 11.8992 13.7716 11.8888 13.8267 11.8783C13.8618 11.8717 13.8969 11.866 13.932 11.8603C13.9623 11.8556 13.9927 11.8508 14.0221 11.8461C14.0572 11.8413 14.0914 11.8375 14.1265 11.8337C14.1568 11.8309 14.1872 11.8271 14.2166 11.8242C14.2375 11.8223 14.2574 11.8214 14.2783 11.8204C14.3153 11.8176 14.3532 11.8157 14.3893 11.8148C14.4111 11.8148 14.4329 11.8138 14.4538 11.8129C14.4927 11.8129 14.5316 11.8129 14.5705 11.8129C14.5847 11.8129 14.598 11.8129 14.6122 11.8129C14.6644 11.8148 14.7156 11.8167 14.7669 11.8204C14.8352 11.8252 14.9025 11.8328 14.968 11.8413C14.9889 11.8442 15.0097 11.847 15.0306 11.8508C15.0714 11.8565 15.1112 11.8631 15.1511 11.8707C15.1748 11.8755 15.1985 11.8802 15.2222 11.885C15.2555 11.8916 15.2887 11.8992 15.3219 11.9068C15.3465 11.9125 15.3712 11.9191 15.3949 11.9248C15.4234 11.9324 15.4518 11.94 15.4803 11.9485C15.505 11.9561 15.5306 11.9628 15.5552 11.9713C15.5809 11.9789 15.6055 11.9874 15.6302 11.996C15.6558 12.0045 15.6814 12.013 15.7061 12.0225C15.7289 12.0311 15.7516 12.0396 15.7744 12.0481C15.8 12.0576 15.8256 12.0681 15.8503 12.0785C15.8712 12.087 15.892 12.0956 15.9129 12.1051C15.9385 12.1165 15.9632 12.1278 15.9879 12.1392C16.0078 12.1487 16.0268 12.1572 16.0457 12.1667C16.0714 12.1791 16.096 12.1914 16.1207 12.2037C16.1387 12.2132 16.1567 12.2218 16.1748 12.2312C16.2127 12.2512 16.2497 12.2711 16.2858 12.2929C16.3095 12.3071 16.3332 12.3214 16.3569 12.3356C16.3749 12.347 16.3939 12.3584 16.4119 12.3698C16.4309 12.3811 16.4489 12.3935 16.467 12.4058C16.485 12.4181 16.503 12.4295 16.5211 12.4419C16.5381 12.4542 16.5552 12.4656 16.5723 12.4779C16.5903 12.4903 16.6083 12.5035 16.6264 12.5168C16.6425 12.5291 16.6586 12.5405 16.6747 12.5529C16.6928 12.5661 16.7108 12.5804 16.7288 12.5937C16.744 12.606 16.7592 12.6183 16.7744 12.6307C16.7914 12.6449 16.8095 12.6591 16.8265 12.6734C16.8417 12.6857 16.856 12.698 16.8711 12.7113C16.8873 12.7255 16.9043 12.7398 16.9195 12.754C16.9337 12.7673 16.9489 12.7806 16.9632 12.7929C16.9783 12.8062 16.9926 12.8204 17.0068 12.8337C17.021 12.847 17.0353 12.8612 17.0495 12.8754C17.0618 12.8878 17.0751 12.9001 17.0874 12.9134C17.1017 12.9286 17.1159 12.9428 17.1301 12.958C17.1406 12.9694 17.152 12.9798 17.1614 12.9912C17.1776 13.0083 17.1927 13.0244 17.207 13.0415C17.2146 13.05 17.2222 13.0585 17.2297 13.0671C17.2516 13.0917 17.2734 13.1174 17.2943 13.142C17.2962 13.1439 17.2971 13.1458 17.299 13.1477C17.318 13.1705 17.337 13.1933 17.354 13.216C17.3616 13.2255 17.3683 13.235 17.3759 13.2445C17.3872 13.2597 17.3986 13.2739 17.4091 13.2891C17.4309 13.3194 17.4527 13.3498 17.4726 13.3792C17.4736 13.3811 17.4755 13.383 17.4764 13.3849C17.5039 13.4266 17.5295 13.4665 17.5533 13.5063C17.5571 13.513 17.5609 13.5196 17.5646 13.5253C17.5779 13.5481 17.5903 13.5718 17.6035 13.5965C17.6083 13.605 17.6121 13.6135 17.6168 13.6221C17.6263 13.6411 17.6358 13.6591 17.6453 13.679C17.6481 13.6847 17.651 13.6904 17.6538 13.6961C17.6662 13.7217 17.6785 13.7483 17.6899 13.7748C17.6918 13.7796 17.6937 13.7843 17.6956 13.7881C17.706 13.8118 17.7155 13.8365 17.7259 13.8612C17.7288 13.8687 17.7316 13.8754 17.7345 13.883C17.7459 13.9124 17.7572 13.9418 17.7686 13.9722C17.7705 13.9769 17.7724 13.9826 17.7743 13.9873C17.7838 14.0139 17.7923 14.0405 17.8018 14.067C17.8056 14.0775 17.8085 14.0879 17.8123 14.0983C17.8199 14.1211 17.8265 14.1439 17.8331 14.1666C17.8369 14.179 17.8407 14.1923 17.8445 14.2046C17.8512 14.2293 17.8578 14.253 17.8644 14.2786C17.8673 14.29 17.8701 14.3014 17.873 14.3128C17.8815 14.345 17.8891 14.3782 17.8958 14.4114C17.8967 14.4162 17.8977 14.4209 17.8986 14.4256C17.9071 14.4636 17.9147 14.5025 17.9223 14.5414C17.9242 14.5528 17.9261 14.5651 17.929 14.5774C17.9337 14.605 17.9384 14.6325 17.9432 14.6609C17.9451 14.6761 17.9479 14.6913 17.9498 14.7074C17.9536 14.733 17.9565 14.7577 17.9603 14.7833C17.9622 14.8004 17.9641 14.8175 17.966 14.8345C17.9688 14.8592 17.9707 14.8839 17.9735 14.9095C17.9754 14.9275 17.9764 14.9456 17.9783 14.9636C17.9802 14.9882 17.9811 15.0139 17.983 15.0385C17.984 15.0575 17.9849 15.0755 17.9859 15.0945C17.9859 15.1192 17.9878 15.1438 17.9878 15.1694C17.9878 15.1894 17.9878 15.2102 17.9878 15.2302C17.9878 15.2548 17.9878 15.2795 17.9878 15.3042C17.9878 15.326 17.9878 15.3469 17.9859 15.3687C17.9859 15.3924 17.984 15.4161 17.9821 15.4398C17.9811 15.4645 17.9792 15.4882 17.9773 15.5129C17.9754 15.5347 17.9735 15.5575 17.9717 15.5793C17.9688 15.6068 17.966 15.6353 17.9631 15.6628C17.9603 15.6846 17.9574 15.7055 17.9546 15.7273C17.9508 15.7577 17.946 15.788 17.9413 15.8193C17.9375 15.8402 17.9337 15.8611 17.9299 15.8819C17.9233 15.918 17.9157 15.954 17.9081 15.9901C17.9043 16.0091 17.9005 16.028 17.8958 16.047C17.8815 16.1068 17.8663 16.1675 17.8483 16.2282C17.835 16.2728 17.8208 16.3174 17.8056 16.362C17.8009 16.3753 17.7961 16.3886 17.7914 16.4018C17.781 16.4322 17.7696 16.4635 17.7572 16.4939C17.7487 16.5147 17.7402 16.5366 17.7316 16.5574C17.7202 16.584 17.7098 16.6115 17.6975 16.6381C17.688 16.6589 17.6785 16.6808 17.669 16.7016C17.6586 16.7235 17.6481 16.7453 17.6377 16.7671C17.6178 16.8069 17.5969 16.8477 17.576 16.8876C17.5665 16.9056 17.5571 16.9236 17.5466 16.9417C17.5172 16.9938 17.4859 17.046 17.4536 17.0982C17.4508 17.103 17.448 17.1077 17.4451 17.1124C17.428 17.14 17.4081 17.1675 17.3901 17.194C17.3759 17.2149 17.3616 17.2367 17.3474 17.2576C17.3265 17.2861 17.3047 17.3145 17.2829 17.3439C17.2677 17.3639 17.2544 17.3828 17.2392 17.4027C17.2136 17.435 17.1871 17.4663 17.1605 17.4986C17.1472 17.5147 17.1349 17.5299 17.1216 17.546C17.0808 17.5934 17.0381 17.6399 16.9935 17.6864L18.2705 16.9445C18.3151 16.898 18.3578 16.8515 18.3986 16.8041C18.4119 16.7889 18.4242 16.7728 18.4375 16.7567C18.464 16.7254 18.4916 16.6931 18.5162 16.6608C18.5314 16.6409 18.5456 16.621 18.5608 16.6011C18.5826 16.5726 18.6045 16.5442 18.6244 16.5157C18.6396 16.4939 18.6538 16.473 18.668 16.4512C18.686 16.4237 18.705 16.3971 18.723 16.3696C18.723 16.3696 18.723 16.3686 18.724 16.3677C18.7268 16.3639 18.7287 16.3592 18.7316 16.3554C18.7648 16.3032 18.7951 16.251 18.8246 16.1988C18.835 16.1808 18.8445 16.1628 18.854 16.1447C18.8758 16.1049 18.8967 16.0641 18.9156 16.0243C18.9204 16.0138 18.927 16.0034 18.9318 15.9929C18.9375 15.9816 18.9422 15.9702 18.9469 15.9588C18.9564 15.9379 18.9659 15.917 18.9754 15.8952C18.9868 15.8687 18.9982 15.8411 19.0096 15.8146C19.0181 15.7937 19.0266 15.7728 19.0352 15.751C19.039 15.7396 19.0447 15.7292 19.0485 15.7178C19.056 15.6979 19.0627 15.6789 19.0693 15.659C19.0741 15.6457 19.0788 15.6324 19.0836 15.6191C19.0987 15.5755 19.113 15.5309 19.1253 15.4873C19.1253 15.4873 19.1253 15.4863 19.1253 15.4854C19.1433 15.4247 19.1585 15.3649 19.1727 15.3042C19.1746 15.2975 19.1765 15.2918 19.1775 15.2852C19.1803 15.2729 19.1822 15.2596 19.1851 15.2472C19.1927 15.2112 19.2003 15.1742 19.2069 15.1381C19.2088 15.1277 19.2116 15.1173 19.2135 15.1068C19.2154 15.0964 19.2164 15.086 19.2183 15.0765C19.223 15.0461 19.2278 15.0148 19.2316 14.9844C19.2335 14.9712 19.2363 14.9569 19.2373 14.9437C19.2382 14.9361 19.2391 14.9275 19.2401 14.9199C19.2439 14.8924 19.2458 14.864 19.2486 14.8364C19.2505 14.8213 19.2524 14.8051 19.2534 14.79C19.2534 14.7833 19.2534 14.7767 19.2543 14.77C19.2562 14.7454 19.2572 14.7217 19.2591 14.697C19.26 14.6799 19.2619 14.6628 19.2619 14.6458L19.2638 14.6429Z" stroke="#1C1E2D" stroke-width="0.3" stroke-linecap="round" stroke-linejoin="round"/>
<path d="M16.2887 12.2913C16.9073 12.648 17.3484 13.1385 17.5695 13.5208C18.0344 14.3253 18.4157 16.1991 16.9955 17.6829C16.1995 15.627 15.0478 13.6318 13.6636 11.9118C14.7148 11.6661 15.6085 11.8985 16.2877 12.2913" fill="#F2F2F4"/>
<path d="M16.2887 12.2913C16.9073 12.648 17.3484 13.1385 17.5695 13.5208C18.0344 14.3253 18.4157 16.1991 16.9955 17.6829C16.1995 15.627 15.0478 13.6318 13.6636 11.9118C14.7148 11.6661 15.6085 11.8985 16.2877 12.2913H16.2887Z" stroke="#1C1E2D" stroke-width="0.3" stroke-miterlimit="10"/>
<path d="M8.00129 18.8965C8.70524 19.3035 9.27543 20.2893 9.27258 21.0985L9.26879 22.5501C9.26689 23.3593 8.42632 24.4921 7.72236 24.0861L5.46535 21.8224C4.76044 21.4154 4.19121 20.4297 4.19406 19.6204L3.60205 18.6271C3.60395 17.8178 4.77278 17.0323 5.47768 17.4393L8.00224 18.8965H8.00129Z" fill="#FDA4AF"/>
<path d="M8.00129 18.8965C8.70524 19.3035 9.27543 20.2893 9.27258 21.0985L9.26879 22.5501C9.26689 23.3593 8.42632 24.4921 7.72236 24.0861L5.46535 21.8224C4.76044 21.4154 4.19121 20.4297 4.19406 19.6204L3.60205 18.6271C3.60395 17.8178 4.77278 17.0323 5.47768 17.4393L8.00224 18.8965H8.00129Z" stroke="#1C1E2D" stroke-width="0.3" stroke-miterlimit="10"/>
<path d="M7.37948 19.6277C8.08344 20.0347 8.65362 21.0205 8.65077 21.8297L8.64698 23.2813C8.64508 24.0905 8.07205 24.4169 7.36715 24.0099L4.84259 22.5527C4.13769 22.1457 3.56845 21.1599 3.5713 20.3507L3.57509 18.8991C3.57699 18.0899 4.15002 17.7626 4.85493 18.1696L7.37948 19.6268V19.6277Z" fill="#BD8AEB"/>
<path d="M7.37948 19.6277C8.08344 20.0347 8.65362 21.0205 8.65077 21.8297L8.64698 23.2813C8.64508 24.0905 8.07205 24.4169 7.36715 24.0099L4.84259 22.5527C4.13769 22.1457 3.56845 21.1599 3.5713 20.3507L3.57509 18.8991C3.57699 18.0899 4.15002 17.7626 4.85493 18.1696L7.37948 19.6268V19.6277Z" stroke="#1C1E2D" stroke-width="0.3" stroke-miterlimit="10"/>
<path d="M7.31553 20.9548C7.53943 21.0421 7.72064 21.2537 7.71969 21.4282L7.714 22.4604C7.714 22.6341 7.53089 22.7043 7.30699 22.617C7.08309 22.5297 6.90189 22.3181 6.90284 22.1436L6.90853 21.1114C6.90853 20.9377 7.09163 20.8675 7.31553 20.9548Z" fill="#F2F2F4"/>
<path d="M7.31553 20.9548C7.53943 21.0421 7.72064 21.2537 7.71969 21.4282L7.714 22.4604C7.714 22.6341 7.53089 22.7043 7.30699 22.617C7.08309 22.5297 6.90189 22.3181 6.90284 22.1436L6.90853 21.1114C6.90853 20.9377 7.09163 20.8675 7.31553 20.9548Z" stroke="#1C1E2D" stroke-width="0.3" stroke-miterlimit="10"/>
<path d="M4.91414 19.6109C5.13804 19.6935 5.31924 19.8946 5.31829 20.0597L5.3126 21.0397C5.3126 21.2048 5.1295 21.2712 4.9056 21.1887C4.6817 21.1052 4.49954 20.905 4.50049 20.739L4.50618 19.7589C4.50618 19.5939 4.68929 19.5274 4.91414 19.61" fill="#F2F2F4"/>
<path d="M4.91414 19.6109C5.13804 19.6935 5.31924 19.8946 5.31829 20.0597L5.3126 21.0397C5.3126 21.2048 5.1295 21.2712 4.9056 21.1887C4.6817 21.1052 4.49954 20.905 4.50049 20.739L4.50618 19.7589C4.50618 19.5939 4.68929 19.5274 4.91414 19.61V19.6109Z" stroke="#1C1E2D" stroke-width="0.3" stroke-miterlimit="10"/>
<path d="M20.2604 5.09627C19.9369 4.9976 19.5792 5.03365 19.2557 5.13991C18.9018 5.2566 18.5811 5.45204 18.2633 5.64653C18.0897 5.75278 14.8811 7.60659 14.6828 7.72139C14.586 7.77736 14.4883 7.83334 14.3916 7.88931C14.309 7.93675 14.1648 7.98893 14.1069 8.06198C14.1819 8.1616 14.4712 8.16255 14.5851 8.16349C14.7578 8.16349 14.9304 8.13503 15.0946 8.08475C15.4257 7.98419 15.7274 7.80582 16.0253 7.63031C16.271 7.48516 16.5157 7.34 16.7615 7.19485C16.8184 7.16164 19.9482 5.36001 20.3505 5.12852C20.3211 5.11714 20.2907 5.1067 20.2604 5.09721" fill="#1A1E2E"/>
<path d="M20.1036 5.0723C20.0931 5.0685 20.0827 5.06566 20.0723 5.06186C19.7895 5.01063 19.4898 5.04953 19.2137 5.14061C18.8598 5.2573 18.5391 5.45274 18.2213 5.64723C18.0477 5.75348 14.8391 7.60729 14.6408 7.72209C14.544 7.77806 14.4463 7.83404 14.3496 7.89001C14.267 7.93745 14.1228 7.98963 14.0649 8.06268C14.0754 8.07596 14.0896 8.0883 14.1067 8.09778C14.1959 8.10822 14.2509 8.14807 14.416 8.09778C14.7471 7.99722 18.7374 5.42902 20.1026 5.0723" fill="#524EDF"/>
<path d="M20.1036 5.0723C20.0931 5.0685 20.0827 5.06566 20.0723 5.06186C19.7895 5.01063 19.4898 5.04953 19.2137 5.14061C18.8598 5.2573 18.5391 5.45274 18.2213 5.64723C18.0477 5.75348 14.8391 7.60729 14.6408 7.72209C14.544 7.77806 14.4463 7.83404 14.3496 7.89001C14.267 7.93745 14.1228 7.98963 14.0649 8.06268C14.0754 8.07596 14.0896 8.0883 14.1067 8.09778C14.1959 8.10822 14.2509 8.14807 14.416 8.09778C14.7471 7.99722 18.7374 5.42902 20.1026 5.0723H20.1036Z" stroke="#1A1E2E" stroke-width="0.3" stroke-linecap="round" stroke-linejoin="round"/>
<path d="M36.3562 29.7799L29.2155 25.6592C28.8784 25.4666 28.6032 25.1708 28.445 24.8268C28.2868 24.4828 28.2524 24.1251 28.3556 23.8155L32.552 10.9787L18.7107 19.0206L14.5144 31.8575C14.4112 32.167 14.4456 32.5316 14.6038 32.8687C14.762 33.2127 15.0372 33.5085 15.3743 33.7011L22.515 37.8218C22.804 37.9869 23.0516 38.0282 23.2167 37.9319C27.8327 35.249 32.4419 32.5729 37.051 29.89C36.8859 29.9863 36.6452 29.945 36.3494 29.7799H36.3562Z" fill="#1C1E2C"/>
<path d="M37.7344 29.0366L33.5104 10.9096L19.4697 18.6832C19.4697 18.6832 23.9826 38.2274 23.7212 38.4888C23.6868 38.5232 23.6455 38.5576 23.5973 38.5852C28.2134 35.9022 32.8225 33.2262 37.4317 30.5432C37.4729 30.5157 37.5142 30.4882 37.5555 30.4469C37.8169 30.1855 37.8788 29.6902 37.7344 29.0435V29.0366Z" fill="#94B4F8"/>
<path fill-rule="evenodd" clip-rule="evenodd" d="M33.5779 10.7534L37.8355 29.025V29.0324C37.9785 29.6812 37.9259 30.2205 37.6264 30.5201C37.5779 30.5686 37.5294 30.6009 37.4889 30.6278L37.4816 30.6327C34.2328 32.5238 30.9839 34.4114 27.7327 36.3004C26.3735 37.0901 25.014 37.8801 23.6539 38.6706C23.6514 38.6721 23.6489 38.6735 23.6465 38.6749L23.5434 38.4961C23.5453 38.495 23.5473 38.4939 23.5492 38.4927C23.5773 38.4761 23.6032 38.4561 23.6266 38.4347C23.6268 38.4286 23.6269 38.4208 23.6267 38.4112C23.6259 38.3717 23.6212 38.3133 23.6119 38.2357C23.5936 38.0811 23.5589 37.86 23.5098 37.5808C23.4117 37.0229 23.2571 36.2393 23.064 35.305C22.6779 33.4368 22.1384 30.9699 21.5907 28.5106C21.043 26.0515 20.4871 23.6005 20.0681 21.7642C19.8586 20.8461 19.6834 20.0817 19.5605 19.5468C19.499 19.2794 19.4507 19.0693 19.4177 18.9261L19.3673 18.7075C19.3673 18.7074 19.3671 18.7066 19.4677 18.6834L19.3671 18.7066L19.3496 18.6308L33.5779 10.7534ZM19.5857 18.736L19.6188 18.8798C19.6518 19.023 19.7002 19.2331 19.7616 19.5006C19.8845 20.0356 20.0598 20.8001 20.2693 21.7183C20.6883 23.5548 21.2443 26.0062 21.7921 28.4658C22.3399 30.9252 22.8797 33.3934 23.2661 35.2632C23.4593 36.198 23.6144 36.9841 23.7131 37.5451C23.7624 37.8253 23.7978 38.0509 23.8169 38.2114C23.8221 38.2552 23.8262 38.295 23.8289 38.3302C25.0958 37.5939 26.3621 36.8581 27.628 36.1226C30.8786 34.2338 34.1268 32.3465 37.375 30.4558C37.4154 30.4288 37.448 30.4066 37.4805 30.3741C37.702 30.1525 37.7744 29.7057 37.6316 29.0662L37.6291 29.0551V29.0487L33.4389 11.0662L19.5857 18.736Z" fill="#1C1E2C"/>
<path d="M18.3257 18.1745L32.1669 10.1326L33.5084 10.9099L19.6672 18.9519L18.3257 18.1745Z" fill="white"/>
<path fill-rule="evenodd" clip-rule="evenodd" d="M32.1116 10.0342C32.1468 10.0138 32.1903 10.0137 32.2255 10.0342L33.567 10.8115C33.602 10.8318 33.6235 10.8692 33.6236 10.9097C33.6236 10.9501 33.6021 10.9876 33.5671 11.0079L19.7259 19.0498C19.6907 19.0703 19.6472 19.0703 19.6119 19.0499L18.2705 18.2725C18.2355 18.2522 18.2139 18.2148 18.2139 18.1744C18.2138 18.1339 18.2354 18.0965 18.2704 18.0762L32.1116 10.0342ZM32.1687 10.2636L18.5535 18.1742L19.6688 18.8204L33.2839 10.9099L32.1687 10.2636Z" fill="#1C1E2C"/>
<path d="M23.8903 37.079C24.0416 37.7256 23.9797 38.2278 23.7114 38.4823C23.45 38.7438 23.0235 38.7231 22.5144 38.4273L15.3737 34.3066C14.8646 34.0108 14.4381 33.543 14.1767 32.9789C13.9153 32.4148 13.8533 31.8438 14.0116 31.376L18.3249 18.1746L19.6664 18.9519L23.8903 37.079ZM23.2849 37.877C23.4431 37.7187 23.4775 37.3954 23.3812 36.9689L19.2743 19.3303L18.7102 19.007L14.5138 31.8438C14.4106 32.1534 14.445 32.518 14.6032 32.8551C14.7614 33.199 15.0366 33.4948 15.3737 33.6874L22.5144 37.8082C22.8515 38.0008 23.1267 38.0214 23.2849 37.8632" fill="#94B4F8"/>
<path fill-rule="evenodd" clip-rule="evenodd" d="M18.2524 17.9799L19.7825 18.8666L24.0192 37.0486C24.0972 37.382 24.1221 37.6854 24.0895 37.9435C24.057 38.2007 23.966 38.4213 23.8042 38.5754C23.4768 38.9014 22.9731 38.8434 22.4507 38.5399M13.8892 31.3342L14.0132 31.3754L13.8894 31.3335C13.8893 31.3337 13.8892 31.3339 13.8892 31.3342ZM18.4007 18.368L14.1374 31.416L14.137 31.4173C13.9924 31.8449 14.0454 32.3805 14.2969 32.9233C14.5473 33.4637 14.9556 33.9108 15.4408 34.1928C15.4407 34.1928 15.4408 34.1929 15.4408 34.1928L22.5814 38.3135C23.0763 38.6011 23.4253 38.5847 23.6206 38.3893L23.6231 38.3869C23.7289 38.2865 23.8026 38.1292 23.8302 37.9107C23.8578 37.6923 23.838 37.4214 23.7646 37.1081L19.5535 19.036L18.4007 18.368ZM18.6374 18.8131L19.3903 19.2446L23.5103 36.9395C23.5606 37.1618 23.5784 37.3643 23.5601 37.5367C23.5419 37.7082 23.4865 37.8612 23.379 37.9688L23.372 37.9618C23.2614 38.0682 23.1156 38.1083 22.9589 38.097C22.802 38.0856 22.6297 38.023 22.4512 37.921L15.3105 33.8003C15.3104 33.8003 15.3105 33.8003 15.3105 33.8003C14.9509 33.5948 14.6564 33.279 14.4863 32.9095C14.3166 32.5478 14.2759 32.1487 14.3913 31.8022C14.3912 31.8023 14.3913 31.8021 14.3913 31.8022L18.6374 18.8131ZM23.2009 37.7769C23.2484 37.7253 23.2863 37.6394 23.3002 37.5091C23.3145 37.3738 23.3015 37.2014 23.2554 36.9974C23.2554 36.9973 23.2555 36.9976 23.2554 36.9974L19.1615 19.4148L18.7861 19.1996L14.6396 31.8838L14.6394 31.8845C14.5486 32.1569 14.5766 32.4867 14.7231 32.7989L14.7236 32.7998C14.8699 33.118 15.1258 33.3937 15.4402 33.5733L22.5809 37.6941C22.5808 37.694 22.581 37.6941 22.5809 37.6941C22.7395 37.7846 22.8734 37.8287 22.9778 37.8363C23.0792 37.8436 23.1474 37.8169 23.1941 37.7702L23.2009 37.7769Z" fill="#1C1E2C"/>
<path d="M20.8926 19.2542L33.014 12.2029L36.9696 29.1673L24.8482 36.2186L20.8926 19.2542Z" fill="white"/>
<path fill-rule="evenodd" clip-rule="evenodd" d="M33.0582 12.0985C33.0913 12.1127 33.1156 12.1418 33.1238 12.1769L37.0794 29.1413C37.0907 29.1899 37.069 29.2402 37.0259 29.2652L24.9045 36.3165C24.8734 36.3346 24.8355 36.3369 24.8025 36.3226C24.7694 36.3084 24.7451 36.2793 24.7369 36.2442L20.7813 19.2798C20.77 19.2312 20.7917 19.181 20.8348 19.1559L32.9561 12.1046C32.9873 12.0865 33.0251 12.0842 33.0582 12.0985ZM21.0214 19.3099L24.9231 36.0431L36.8392 29.1112L32.9375 12.378L21.0214 19.3099Z" fill="#1F3596"/>
<path d="M33.014 12.2029L20.8926 19.2542L21.8763 23.4781L34.0046 16.4337L33.014 12.2029Z" fill="#94B4F8"/>
<path fill-rule="evenodd" clip-rule="evenodd" d="M33.0832 12.0438L34.1231 16.4848L21.8081 23.6377L20.7754 19.2036L33.0832 12.0438ZM21.011 19.3053L21.9458 23.3191L33.8873 16.3831L32.9459 12.3625L21.011 19.3053Z" fill="#1C1E2C"/>
<path d="M21.3671 14.7345C20.8511 14.4387 20.3833 14.4112 20.0462 14.6038L19.9155 14.6795C19.5784 14.8721 19.3721 15.2848 19.3721 15.8696C19.3721 16.3374 19.5028 16.8602 19.7367 17.3555L19.9637 17.2248C19.7573 16.7708 19.6335 16.2961 19.6335 15.8696C19.6335 15.3674 19.8055 15.0028 20.0738 14.8102C20.3833 14.6657 20.7892 14.707 21.2295 14.9615C22.1788 15.5119 22.9493 16.8464 22.9493 17.9403C22.9493 18.5663 22.681 19.0134 22.2408 19.1304L22.3164 19.3024C22.4196 19.2748 22.5159 19.2267 22.6054 19.1648C22.5847 19.1785 22.5641 19.1992 22.5366 19.2129L22.6673 19.1373C23.0112 18.9378 23.2107 18.5112 23.2107 17.9471C23.2107 16.7708 22.3852 15.333 21.3602 14.7414L21.3671 14.7345Z" fill="white"/>
<path d="M24.5536 12.8909C24.0376 12.595 23.5699 12.5675 23.2328 12.7602L23.1021 12.8358C22.765 13.0284 22.5586 13.4412 22.5586 14.0259C22.5586 14.4937 22.6893 15.0166 22.9232 15.5119L23.1502 15.3812C22.9438 14.9271 22.82 14.4525 22.82 14.0259C22.82 13.5238 22.992 13.1592 23.2603 12.9665C23.5699 12.8221 23.9757 12.8633 24.416 13.1179C25.3654 13.6682 26.1358 15.0028 26.1358 16.0966C26.1358 16.7226 25.8676 17.1698 25.4273 17.2868L25.5029 17.4587C25.6061 17.4312 25.7024 17.3831 25.7919 17.3211C25.7712 17.3349 25.7506 17.3555 25.7231 17.3693L25.8538 17.2936C26.1978 17.0941 26.3973 16.6676 26.3973 16.1035C26.3973 14.9271 25.5717 13.4894 24.5467 12.8977L24.5536 12.8909Z" fill="white"/>
<path d="M27.7372 11.0472C27.2212 10.7514 26.7534 10.7239 26.4164 10.9165L26.2857 10.9922C25.9486 11.1848 25.7422 11.5976 25.7422 12.1823C25.7422 12.6501 25.8729 13.1729 26.1068 13.6683L26.3338 13.5375C26.1274 13.0835 26.0036 12.6088 26.0036 12.1823C26.0036 11.6801 26.1756 11.3155 26.4439 11.1229C26.7534 10.9784 27.1593 11.0197 27.5996 11.2742C28.549 11.8246 29.3194 13.1592 29.3194 14.253C29.3194 14.879 29.0511 15.3262 28.6109 15.4431L28.6865 15.6151C28.7897 15.5876 28.886 15.5394 28.9755 15.4775C28.9548 15.4913 28.9342 15.5119 28.9067 15.5257L29.0374 15.45C29.3814 15.2505 29.5809 14.824 29.5809 14.2599C29.5809 13.0835 28.7553 11.6457 27.7303 11.0541L27.7372 11.0472Z" fill="white"/>
<path d="M30.9232 9.19665C30.4073 8.90083 29.9395 8.87332 29.6024 9.06594L29.4717 9.14161C29.1346 9.33423 28.9282 9.74699 28.9282 10.3317C28.9282 10.7995 29.0589 11.3224 29.2928 11.8177L29.5198 11.687C29.3135 11.2329 29.1896 10.7583 29.1896 10.3317C29.1896 9.82954 29.3616 9.46494 29.6299 9.27232C29.9395 9.12785 30.3454 9.16913 30.7856 9.42366C31.735 9.97401 32.5055 11.3086 32.5055 12.4024C32.5055 13.0284 32.2372 13.4756 31.7969 13.5925L31.8726 13.7645C31.9758 13.737 32.0721 13.6888 32.1615 13.6269C32.1409 13.6407 32.1202 13.6613 32.0927 13.6751L32.2234 13.5994C32.5674 13.3999 32.7669 12.9734 32.7669 12.4093C32.7669 11.2329 31.9414 9.79515 30.9163 9.20353L30.9232 9.19665Z" fill="white"/>
<path d="M30.5427 25.0126L28.0524 26.4847L27.2544 22.88L29.7516 21.4147L30.5427 25.0126Z" fill="#94B4F8"/>
<path d="M34.1339 22.8935L31.6505 24.3588L30.8594 20.7609L33.3497 19.3025L34.1339 22.8935Z" fill="#504ECD"/>
<path d="M26.9388 27.1447L24.4348 28.6238L23.6299 25.0053L26.1408 23.5331L26.9388 27.1447Z" fill="#94B4F8"/>
<path d="M31.6379 29.9791L29.1476 31.4582L28.3564 27.8603L30.8468 26.3881L31.6379 29.9791Z" fill="#94B4F8"/>
<path d="M35.2139 27.8469L32.7374 29.3191L31.9531 25.7281L34.4297 24.2628L35.2139 27.8469Z" fill="#94B4F8"/>
<path d="M28.0399 32.1122L25.5358 33.5981L24.7378 30.0002L27.2419 28.5143L28.0399 32.1122Z" fill="#94B4F8"/>
</g>
<defs>
<clipPath id="clip0_1378_79037">
<rect width="40" height="40" fill="white"/>
</clipPath>
</defs>
</svg>
