<svg width="40" height="40" viewBox="0 0 40 40" fill="none" xmlns="http://www.w3.org/2000/svg">
<g clip-path="url(#clip0_1378_79763)">
<path d="M26.7233 17.3402L22.3881 18.37V11.3292L27.1236 6.18881V5.38511L26.34 5L11.7247 20.8983L3.80389 22.7736L3.64207 22.8155V23.5689L4.06792 23.795V29.22L2.31341 31.1288L2.14307 31.313L3.32694 32.0497L12.4828 22.1039L27.3109 18.5793L27.4728 18.5374V17.7421L26.7318 17.3486L26.7233 17.3402ZM10.098 22.6648L5.52434 27.6377V23.7531L10.098 22.6648ZM21.0168 18.6965L14.101 20.3374L21.0168 12.8194V18.6965Z" fill="white"/>
<mask id="mask0_1378_79763" style="mask-type:luminance" maskUnits="userSpaceOnUse" x="2" y="5" width="26" height="28">
<path d="M26.7233 17.3402L22.3881 18.37V11.3292L27.1236 6.18881V5.38511L26.34 5L11.7247 20.8983L3.80389 22.7736L3.64207 22.8155V23.5689L4.06792 23.795V29.22L2.31341 31.1288L2.14307 31.313L3.32694 32.0497L12.4828 22.1039L27.3109 18.5793L27.4728 18.5374V17.7421L26.7318 17.3486L26.7233 17.3402ZM10.098 22.6648L5.52434 27.6377V23.7531L10.098 22.6648ZM21.0168 18.6965L14.101 20.3374L21.0168 12.8194V18.6965Z" fill="white"/>
</mask>
<g mask="url(#mask0_1378_79763)">
<path d="M27.5404 17.7505L4.45063 23.1253L4.43359 24.0462L27.5404 18.5458V17.7505Z" fill="#FF7478"/>
<path d="M4.68164 29.7221V23.9706L5.52483 23.7529L5.53335 28.7845L4.68164 29.7221Z" fill="#FF7478"/>
<path d="M3.32683 32.0414L2.78174 31.7483L27.1235 5.38513V6.18884L3.32683 32.0414Z" fill="#FF7478"/>
<path d="M21.3734 19.2152L22.4125 18.9389L22.387 11.3289L21.3394 12.4842L21.3734 19.2152Z" fill="#FF7478"/>
</g>
<path d="M36.8488 12.3336L35.5968 11.6136L33.919 10.6006L32.1559 9.71318L30.4781 8.74204L28.8002 7.77089L27.1224 6.84161L26.1344 6.28906C24.4991 8.53274 22.9064 10.768 21.2712 12.9699C19.3378 15.6321 17.3959 18.1688 15.3774 20.8395C13.2651 23.5436 10.5993 24.6068 7.28616 23.8869C6.63887 23.7194 5.94898 23.4599 5.13135 23.2087L8.23155 24.8999L9.56873 25.7036L11.3743 26.6747L13.0096 27.6459L14.6023 28.5333L16.97 29.8477L18.2646 30.6095C18.3072 30.6095 18.3924 30.6095 18.435 30.6514C18.5627 30.6932 18.7331 30.7351 18.8693 30.777H18.9119C22.1825 31.4969 24.8483 30.4421 27.0031 27.6877C28.9791 25.0673 30.9636 22.4469 32.8543 19.86C34.5322 17.5326 36.2526 15.2052 37.9305 12.928L36.8574 12.3336H36.8488Z" fill="#6B91FC"/>
<mask id="mask1_1378_79763" style="mask-type:luminance" maskUnits="userSpaceOnUse" x="5" y="6" width="33" height="25">
<path d="M36.8488 12.3336L35.5968 11.6136L33.919 10.6006L32.1559 9.71318L30.4781 8.74204L28.8002 7.77089L27.1224 6.84161L26.1344 6.28906C24.4991 8.53274 22.9064 10.768 21.2712 12.9699C19.3378 15.6321 17.3959 18.1688 15.3774 20.8395C13.2651 23.5436 10.5993 24.6068 7.28616 23.8869C6.63887 23.7194 5.94898 23.4599 5.13135 23.2087L8.23155 24.8999L9.56873 25.7036L11.3743 26.6747L13.0096 27.6459L14.6023 28.5333L16.97 29.8477L18.2646 30.6095C18.3072 30.6095 18.3924 30.6095 18.435 30.6514C18.5627 30.6932 18.7331 30.7351 18.8693 30.777H18.9119C22.1825 31.4969 24.8483 30.4421 27.0031 27.6877C28.9791 25.0673 30.9636 22.4469 32.8543 19.86C34.5322 17.5326 36.2526 15.2052 37.9305 12.928L36.8574 12.3336H36.8488Z" fill="white"/>
</mask>
<g mask="url(#mask1_1378_79763)">
<path fill-rule="evenodd" clip-rule="evenodd" d="M26.1646 9.61355C26.7362 8.8231 27.3097 8.02985 27.8896 7.23425L28.4668 7.65497C27.8904 8.44582 27.3184 9.23693 26.7475 10.0265C25.7023 11.472 24.6608 12.9123 23.6028 14.3368C22.0411 16.4873 20.4735 18.5564 18.8671 20.6767C18.4825 21.1844 18.0956 21.695 17.7061 22.2104L17.7027 22.2149L17.7027 22.2149C16.6154 23.6068 15.371 24.5947 13.9534 25.1364C12.5344 25.6786 10.9679 25.7638 9.25415 25.3914L9.24732 25.3899L9.24056 25.3882C8.83997 25.2845 8.40975 25.142 7.95599 24.9917C7.66963 24.8969 7.3739 24.7989 7.07031 24.7057L7.28005 24.0229C7.62156 24.1278 7.93035 24.2303 8.21913 24.3262C8.6471 24.4683 9.03115 24.5959 9.4127 24.6949C11.0093 25.0407 12.43 24.9539 13.6984 24.4691C14.9694 23.9835 16.1134 23.0884 17.138 21.7774C17.528 21.2613 17.9151 20.7505 18.2996 20.2429C19.906 18.1226 21.4686 16.0601 23.026 13.9155L23.0283 13.9125L23.0283 13.9125C24.0842 12.4907 25.121 11.0568 26.1646 9.61355Z" fill="#2C5AE7"/>
<path fill-rule="evenodd" clip-rule="evenodd" d="M28.7037 11.0198C29.2752 10.2294 29.8488 9.43611 30.4287 8.6405L31.0059 9.06122C30.4295 9.85208 29.8575 10.6432 29.2865 11.4328C28.2413 12.8782 27.1998 14.3186 26.1419 15.7431C24.5802 17.8935 23.0126 19.9626 21.4062 22.083C21.0215 22.5906 20.6347 23.1012 20.2452 23.6166L20.2417 23.6211L20.2417 23.6211C19.1545 25.013 17.91 26.0009 16.4925 26.5426C15.0735 27.0849 13.5069 27.1701 11.7932 26.7976L11.7864 26.7962L11.7796 26.7944C11.379 26.6908 10.9488 26.5483 10.4951 26.398C10.2087 26.3031 9.91296 26.2052 9.60938 26.1119L9.81911 25.4291C10.1606 25.534 10.4694 25.6366 10.7582 25.7325C11.1862 25.8746 11.5702 26.0021 11.9518 26.1011C13.5484 26.447 14.969 26.3601 16.2375 25.8754C17.5085 25.3897 18.6525 24.4947 19.6771 23.1837C20.0671 22.6675 20.4542 22.1567 20.8387 21.6491C22.4451 19.5288 24.0077 17.4663 25.5651 15.3218L25.5673 15.3187L25.5673 15.3187C26.6233 13.8969 27.6601 12.463 28.7037 11.0198Z" fill="#2C5AE7"/>
<path fill-rule="evenodd" clip-rule="evenodd" d="M31.2398 12.4268C31.8114 11.6363 32.3849 10.8431 32.9648 10.0475L33.542 10.4682C32.9656 11.2591 32.3936 12.0502 31.8227 12.8398C30.7775 14.2852 29.736 15.7256 28.678 17.1501C27.1163 19.3005 25.5487 21.3696 23.9423 23.4899C23.5577 23.9976 23.1708 24.5082 22.7813 25.0236L22.7779 25.0281L22.7778 25.0281C21.6906 26.42 20.4462 27.4079 19.0286 27.9496C17.6096 28.4918 16.0431 28.577 14.3293 28.2046L14.3225 28.2031L14.3158 28.2014C13.9152 28.0978 13.4849 27.9553 13.0312 27.805C12.7448 27.7101 12.4491 27.6122 12.1455 27.5189L12.3552 26.8361C12.6968 26.941 13.0055 27.0436 13.2943 27.1394C13.7223 27.2816 14.1063 27.4091 14.4879 27.5081C16.0845 27.854 17.5052 27.7671 18.7736 27.2824C20.0446 26.7967 21.1886 25.9016 22.2132 24.5906C22.6033 24.0745 22.9903 23.5636 23.3749 23.0561C24.9813 20.9358 26.5438 18.8733 28.1012 16.7288L28.1035 16.7257L28.1035 16.7257C29.1594 15.3039 30.1962 13.87 31.2398 12.4268Z" fill="#2C5AE7"/>
<path fill-rule="evenodd" clip-rule="evenodd" d="M33.7789 13.833C34.3504 13.0426 34.924 12.2493 35.5039 11.4537L36.0811 11.8744C35.5047 12.6653 34.9327 13.4564 34.3617 14.246C33.3166 15.6914 32.2751 17.1318 31.2172 18.5562C29.6554 20.7067 28.0878 22.7758 26.4814 24.8962C26.0968 25.4038 25.7099 25.9145 25.3204 26.4298L25.3169 26.4344L25.3169 26.4344C24.2297 27.8263 22.9852 28.8142 21.5677 29.3559C20.1487 29.8981 18.5821 29.9833 16.8684 29.6109L16.8616 29.6094L16.8548 29.6076C16.4542 29.504 16.024 29.3615 15.5702 29.2112C15.2839 29.1164 14.9882 29.0184 14.6846 28.9252L14.8943 28.2424C15.2358 28.3473 15.5446 28.4498 15.8334 28.5457C16.2614 28.6878 16.6454 28.8153 17.027 28.9144C18.6236 29.2602 20.0442 29.1733 21.3127 28.6886C22.5837 28.2029 23.7277 27.3079 24.7523 25.9968C25.1423 25.4808 25.5294 24.9699 25.9139 24.4624C27.5203 22.3421 29.0829 20.2796 30.6403 18.135L30.6425 18.1319L30.6425 18.1319C31.6985 16.7102 32.7353 15.2763 33.7789 13.833Z" fill="#2C5AE7"/>
</g>
<path d="M16.5462 29.9567L18.0026 29.6971C18.0026 29.6971 7.88431 24.0126 4.86928 22.221C4.64783 22.087 4.00905 22.2461 3.84723 22.447C3.72799 22.5977 3.69392 23.0917 3.84723 23.2005C6.18942 24.8498 15.8733 30.032 15.8733 30.032L15.9414 30.0739L16.5462 30.4171V29.965V29.9567Z" fill="#6B91FC"/>
<path d="M38.4671 23.8706L34.132 24.9004V17.8596L38.8674 12.7192V11.9155L38.0839 11.5304L23.4601 27.4287L15.5392 29.304L15.3774 29.3459V30.0993L15.8033 30.3254V35.7504L14.0488 37.6592L13.8784 37.8434L15.0623 38.5801L24.2181 28.6342L39.0463 25.1097L39.2081 25.0678V24.2725L38.4671 23.879V23.8706ZM21.8419 29.1952L17.2682 34.1681V30.2835L21.8419 29.1952ZM32.7607 25.2269L25.8449 26.8678L32.7607 19.3498V25.2269Z" fill="white"/>
<mask id="mask2_1378_79763" style="mask-type:luminance" maskUnits="userSpaceOnUse" x="13" y="11" width="27" height="28">
<path d="M38.4671 23.8706L34.132 24.9004V17.8596L38.8674 12.7192V11.9155L38.0839 11.5304L23.4601 27.4287L15.5392 29.304L15.3774 29.3459V30.0993L15.8033 30.3254V35.7504L14.0488 37.6592L13.8784 37.8434L15.0623 38.5801L24.2181 28.6342L39.0463 25.1097L39.2081 25.0678V24.2725L38.4671 23.879V23.8706ZM21.8419 29.1952L17.2682 34.1681V30.2835L21.8419 29.1952ZM32.7607 25.2269L25.8449 26.8678L32.7607 19.3498V25.2269Z" fill="white"/>
</mask>
<g mask="url(#mask2_1378_79763)">
<path d="M39.2843 24.2725L16.1946 29.6472L16.186 30.5682L39.2843 25.0678V24.2725Z" fill="#FF7478"/>
<path d="M16.4258 36.2525V30.5009L17.269 30.2749L17.2775 35.3064L16.4258 36.2525Z" fill="#FF7478"/>
<path d="M15.071 38.5717L14.5259 38.2787L38.8676 11.9071V12.7108L15.071 38.5717Z" fill="#FF7478"/>
<path d="M33.1176 25.7372L34.1566 25.4693L34.1311 17.8508L33.0835 19.0062L33.1176 25.7372Z" fill="#FF7478"/>
</g>
</g>
<g clip-path="url(#clip1_1378_79763)">
<path d="M13.2027 0.801392L11.0479 1.6718L2.23242 14.8672L3.22647 15.6273L5.39909 14.7337L4.40504 13.9735L13.2027 0.801392Z" fill="white" stroke="#1C1E2C" stroke-width="0.3" stroke-linejoin="round"/>
<path d="M5.3982 14.7339L3.22559 15.6275L12.0411 2.43217L14.1958 1.56177L5.3982 14.7339Z" fill="#B9E14A" stroke="#1C1E2C" stroke-width="0.3" stroke-linejoin="round"/>
<path d="M11.0464 1.67147L12.0404 2.40261L14.1952 1.56122L13.2071 0.830078L11.0464 1.67147Z" fill="#B9E14A" stroke="#1C1E2C" stroke-width="0.3" stroke-linejoin="round"/>
<path d="M7.38787 3.51217L8.11406 2.64757L7.07239 1.92803C6.74501 1.69592 6.25096 1.66691 5.66168 1.90482C4.48906 2.37484 3.39977 3.70946 3.2331 4.87581C3.16168 5.37484 3.27477 5.75201 3.51287 5.99573L3.63787 6.11758L4.61406 6.8023L5.28668 6.00153C6.24501 5.5141 7.10215 4.49283 7.38787 3.50637V3.51217Z" fill="white" stroke="#1C1E2C" stroke-width="0.3" stroke-linejoin="round"/>
<path d="M8.47309 3.86012C8.30047 5.02646 7.21714 6.34948 6.05047 6.8253C4.8838 7.30112 4.06833 6.74406 4.23499 5.57191C4.40166 4.39977 5.49095 3.07095 6.66356 2.60093C7.83618 2.13091 8.63975 2.69377 8.47309 3.86012Z" fill="#B9E14A" stroke="#1C1E2C" stroke-width="0.3" stroke-linejoin="round"/>
<path d="M12.926 10.3579L13.6521 9.49327L12.6105 8.77373C12.2831 8.54162 11.789 8.51261 11.1998 8.75052C10.0271 9.22054 8.93786 10.5552 8.77119 11.7215C8.69976 12.2205 8.81286 12.5977 9.05095 12.8414L9.17595 12.9633L10.1521 13.648L10.8248 12.8472C11.7831 12.3598 12.6402 11.3385 12.926 10.3521V10.3579Z" fill="white" stroke="#1C1E2C" stroke-width="0.3" stroke-linejoin="round"/>
<path d="M14.0058 10.7058C13.8332 11.8722 12.7499 13.1952 11.5832 13.671C10.4165 14.1468 9.60104 13.5898 9.76771 12.4176C9.93437 11.2513 11.0237 9.91665 12.1963 9.44663C13.3689 8.97661 14.1725 9.53947 14.0058 10.7058Z" fill="#B9E14A" stroke="#1C1E2C" stroke-width="0.3" stroke-linejoin="round"/>
</g>
<defs>
<clipPath id="clip0_1378_79763">
<rect width="37.1429" height="33.5714" fill="white" transform="translate(2.14307 5)"/>
</clipPath>
<clipPath id="clip1_1378_79763">
<rect width="12.1429" height="15" fill="white" transform="translate(2.14307 0.714233)"/>
</clipPath>
</defs>
</svg>
