<svg width="40" height="40" viewBox="0 0 40 40" fill="none" xmlns="http://www.w3.org/2000/svg">
<path d="M33.3143 4.28683L29.4215 6.53683V2.04398C29.4215 1.83683 29.2857 1.59398 29.1215 1.50112C28.9572 1.40826 28.6786 1.40826 28.5 1.51541L9.25003 12.6225C8.50717 13.0511 8.13574 13.6154 8.13574 14.1797V32.9368C8.13574 33.5011 8.50717 34.0654 9.25003 34.494L9.2786 34.5083C10.7643 35.3654 13.1786 35.3654 14.6643 34.5083L33.9143 23.394C34.0929 23.294 34.2357 23.044 34.2357 22.8368V4.45112C34.2357 4.45112 34.0857 4.36541 33.9357 4.27969C33.7715 4.18683 33.4929 4.18683 33.3143 4.29398V4.28683Z" fill="#EFA7AF" stroke="#1C1E2C" stroke-width="0.3" stroke-miterlimit="10"/>
<path d="M9.63577 15.2797L8.77148 14.7797L28.2143 3.70111L31.4143 5.5154L14.3001 15.294C12.8501 16.1225 11.0786 16.1154 9.62863 15.2868L9.63577 15.2797Z" fill="#F1F1F3" stroke="#1C1E2C" stroke-width="0.3" stroke-linejoin="round"/>
<path d="M9.25004 15.7368C7.77147 14.8797 7.77147 13.4797 9.25004 12.6297L28.5 1.50828C28.6786 1.40828 28.9572 1.40113 29.1215 1.49399C29.2858 1.58685 29.2786 1.75113 29.1 1.85113L10.3858 12.6583C10.2072 12.7583 9.92147 12.9226 9.75718 13.044C8.88576 13.694 8.80718 14.5654 9.55718 15.1797C9.71433 15.3083 10.0072 15.4726 10.1929 15.5511C11.2643 16.0011 12.8 15.9511 13.9429 15.4368C14.1286 15.3511 14.4143 15.1868 14.5929 15.0797L33.3 4.2797C33.4786 4.1797 33.7572 4.17256 33.9215 4.26542C34.0858 4.35828 34.0786 4.52256 33.9 4.62256L14.65 15.7368C13.1715 16.594 10.7429 16.594 9.26433 15.7368L9.23576 15.7226L9.25004 15.7368Z" fill="#00DABF"/>
<path d="M9.25004 15.7368C7.77147 14.8797 7.77147 13.4797 9.25004 12.6297L28.5 1.50828C28.6786 1.40828 28.9572 1.40113 29.1215 1.49399C29.2858 1.58685 29.2786 1.75113 29.1 1.85113L10.3858 12.6583C10.2072 12.7583 9.92147 12.9226 9.75718 13.044C8.88576 13.694 8.80718 14.5654 9.55718 15.1797C9.71433 15.3083 10.0072 15.4726 10.1929 15.5511C11.2643 16.0011 12.8 15.9511 13.9429 15.4368C14.1286 15.3511 14.4143 15.1868 14.5929 15.0797L33.3 4.2797C33.4786 4.1797 33.7572 4.17256 33.9215 4.26542C34.0858 4.35828 34.0786 4.52256 33.9 4.62256L14.65 15.7368C13.1715 16.594 10.7429 16.594 9.26433 15.7368L9.23576 15.7226L9.25004 15.7368Z" fill="#94B4F8" stroke="#1C1E2C" stroke-width="0.3" stroke-miterlimit="10"/>
<path d="M36.643 11.0011V15.2726C36.643 15.4369 36.5287 15.6369 36.3859 15.7154L28.593 20.2154C28.593 20.2154 28.5859 20.2154 28.5787 20.2226C27.993 20.5583 27.4573 20.6011 27.0645 20.4011C26.943 20.3369 26.4859 20.0726 26.3787 20.0011C26.0287 19.7726 25.8145 19.3226 25.8145 18.694C25.8145 17.394 26.7287 15.8011 27.8787 15.0726L35.1787 10.8583C35.193 10.8511 35.2073 10.844 35.2145 10.8297C35.3145 10.7511 35.3002 10.6369 35.1787 10.5583L34.2287 10.0083V9.31543L36.3787 10.5583C36.5073 10.6297 36.6145 10.8011 36.6287 10.9511C36.6287 10.9654 36.6287 10.9869 36.6287 11.0011H36.643Z" fill="#504ECD" stroke="#1C1E2C" stroke-width="0.3" stroke-miterlimit="10"/>
<path opacity="0.3" d="M36.643 11.0011V15.2726C36.643 15.4369 36.5287 15.6369 36.3859 15.7154L28.593 20.2154C28.593 20.2154 28.5859 20.2154 28.5787 20.2226C27.993 20.5583 27.4573 20.6011 27.0645 20.4011C26.943 20.3369 26.4859 20.0726 26.3787 20.0011C26.0287 19.7726 25.8145 19.3226 25.8145 18.694C25.8145 17.394 26.7287 15.8011 27.8787 15.0726L35.1787 10.8583C35.193 10.8511 35.2073 10.844 35.2145 10.8297C35.3145 10.7511 35.3002 10.6369 35.1787 10.5583L34.2287 10.0083V9.31543L36.3787 10.5583C36.5073 10.6297 36.6145 10.8011 36.6287 10.9511C36.6287 10.9654 36.6287 10.9869 36.6287 11.0011H36.643Z" fill="#504ECD" stroke="#1C1E2C" stroke-width="0.3" stroke-miterlimit="10"/>
<path d="M36.6431 11.0011V15.2725C36.6431 15.4368 36.5288 15.6368 36.386 15.7154L28.5931 20.2154C28.5931 20.2154 28.586 20.2154 28.5788 20.2225C27.8146 20.6583 27.136 20.6011 26.7503 20.1511C26.536 19.9011 26.4146 19.5225 26.4146 19.044C26.4146 17.7011 27.3931 16.0511 28.5931 15.3511L36.036 11.0511L36.3788 10.8511C36.5074 10.7797 36.6074 10.8225 36.6288 10.9511C36.6288 10.9654 36.6288 10.9868 36.6288 11.0011H36.6431Z" fill="#ED5D7F" stroke="#1C1E2C" stroke-width="0.3" stroke-miterlimit="10"/>
<path d="M30.0502 16.544L29.786 16.3868C29.6217 16.2797 29.386 16.2797 29.1217 16.4297C28.6217 16.7154 28.2217 17.4154 28.2217 17.994C28.2217 18.2797 28.3217 18.4797 28.486 18.5797L28.786 18.7511C28.9502 18.844 29.1717 18.8297 29.4217 18.6868C29.9217 18.4011 30.3217 17.7011 30.3217 17.1225C30.3217 16.8297 30.2145 16.6297 30.0502 16.5368V16.544Z" fill="#F1F1F3" stroke="#1C1E2C" stroke-width="0.3" stroke-linejoin="round"/>
<path d="M29.0716 4.15826L9.64307 15.3868" stroke="#1C1E2C" stroke-width="0.3" stroke-linejoin="round"/>
<path d="M30.1931 4.82257L11.1431 15.8297" stroke="#1C1E2C" stroke-width="0.3" stroke-linejoin="round"/>
<path d="M12.5499 38.6583C17.5086 38.6583 21.5284 36.3366 21.5284 33.4726C21.5284 30.6086 17.5086 28.2869 12.5499 28.2869C7.59113 28.2869 3.57129 30.6086 3.57129 33.4726C3.57129 36.3366 7.59113 38.6583 12.5499 38.6583Z" fill="#B9E14A"/>
<path d="M12.5499 38.6583C17.5086 38.6583 21.5284 36.3366 21.5284 33.4726C21.5284 30.6086 17.5086 28.2869 12.5499 28.2869C7.59113 28.2869 3.57129 30.6086 3.57129 33.4726C3.57129 36.3366 7.59113 38.6583 12.5499 38.6583Z" stroke="#1C1E2C" stroke-width="0.3" stroke-miterlimit="10"/>
<path d="M12.564 36.6512C17.5227 36.6512 21.5426 34.3294 21.5426 31.4654C21.5426 28.6014 17.5227 26.2797 12.564 26.2797C7.60529 26.2797 3.58545 28.6014 3.58545 31.4654C3.58545 34.3294 7.60529 36.6512 12.564 36.6512Z" fill="#6B8FFA"/>
<path d="M12.564 36.6512C17.5227 36.6512 21.5426 34.3294 21.5426 31.4654C21.5426 28.6014 17.5227 26.2797 12.564 26.2797C7.60529 26.2797 3.58545 28.6014 3.58545 31.4654C3.58545 34.3294 7.60529 36.6512 12.564 36.6512Z" stroke="#1C1E2C" stroke-width="0.3" stroke-miterlimit="10"/>
<path d="M12.55 35.0297C16.2108 35.0297 19.1785 33.3156 19.1785 31.2011C19.1785 29.0867 16.2108 27.3726 12.55 27.3726C8.8891 27.3726 5.92139 29.0867 5.92139 31.2011C5.92139 33.3156 8.8891 35.0297 12.55 35.0297Z" fill="#F1F1F3"/>
<path d="M12.55 35.0297C16.2108 35.0297 19.1785 33.3156 19.1785 31.2011C19.1785 29.0867 16.2108 27.3726 12.55 27.3726C8.8891 27.3726 5.92139 29.0867 5.92139 31.2011C5.92139 33.3156 8.8891 35.0297 12.55 35.0297Z" stroke="#1C1E2C" stroke-width="0.3" stroke-miterlimit="10"/>
<path d="M3.58545 33.8226V31.6655C3.58545 31.6655 3.75688 33.1298 4.51402 33.7726" fill="#B9E14A"/>
<path d="M3.58545 33.8226V31.6655C3.58545 31.6655 3.75688 33.1298 4.51402 33.7726" stroke="black" stroke-width="0.3" stroke-miterlimit="10"/>
<path d="M21.514 33.8226V31.6655C21.514 31.6655 21.3426 33.1298 20.5854 33.7726" fill="#B9E14A"/>
<path d="M21.514 33.8226V31.6655C21.514 31.6655 21.3426 33.1298 20.5854 33.7726" stroke="black" stroke-width="0.3" stroke-miterlimit="10"/>
<path d="M12.5499 35.194C17.5086 35.194 21.5284 32.8723 21.5284 30.0083C21.5284 27.1443 17.5086 24.8226 12.5499 24.8226C7.59113 24.8226 3.57129 27.1443 3.57129 30.0083C3.57129 32.8723 7.59113 35.194 12.5499 35.194Z" fill="#B9E14A"/>
<path d="M12.5499 35.194C17.5086 35.194 21.5284 32.8723 21.5284 30.0083C21.5284 27.1443 17.5086 24.8226 12.5499 24.8226C7.59113 24.8226 3.57129 27.1443 3.57129 30.0083C3.57129 32.8723 7.59113 35.194 12.5499 35.194Z" stroke="#1C1E2C" stroke-width="0.3" stroke-miterlimit="10"/>
<path d="M12.564 33.1869C17.5227 33.1869 21.5426 30.8651 21.5426 28.0011C21.5426 25.1372 17.5227 22.8154 12.564 22.8154C7.60529 22.8154 3.58545 25.1372 3.58545 28.0011C3.58545 30.8651 7.60529 33.1869 12.564 33.1869Z" fill="#6B8FFA"/>
<path d="M12.564 33.1869C17.5227 33.1869 21.5426 30.8651 21.5426 28.0011C21.5426 25.1372 17.5227 22.8154 12.564 22.8154C7.60529 22.8154 3.58545 25.1372 3.58545 28.0011C3.58545 30.8651 7.60529 33.1869 12.564 33.1869Z" stroke="#1C1E2C" stroke-width="0.3" stroke-miterlimit="10"/>
<path d="M12.55 31.5654C16.2108 31.5654 19.1785 29.8513 19.1785 27.7368C19.1785 25.6224 16.2108 23.9083 12.55 23.9083C8.8891 23.9083 5.92139 25.6224 5.92139 27.7368C5.92139 29.8513 8.8891 31.5654 12.55 31.5654Z" fill="#F1F1F3"/>
<path d="M12.55 31.5654C16.2108 31.5654 19.1785 29.8513 19.1785 27.7368C19.1785 25.6224 16.2108 23.9083 12.55 23.9083C8.8891 23.9083 5.92139 25.6224 5.92139 27.7368C5.92139 29.8513 8.8891 31.5654 12.55 31.5654Z" stroke="#1C1E2C" stroke-width="0.3" stroke-miterlimit="10"/>
<path d="M3.58545 30.3655V28.2083C3.58545 28.2083 3.75688 29.6726 4.51402 30.3155" fill="#B9E14A"/>
<path d="M3.58545 30.3655V28.2083C3.58545 28.2083 3.75688 29.6726 4.51402 30.3155" stroke="black" stroke-width="0.3" stroke-miterlimit="10"/>
<path d="M21.514 30.3655V28.2083C21.514 28.2083 21.3426 29.6726 20.5854 30.3155" fill="#B9E14A"/>
<path d="M21.514 30.3655V28.2083C21.514 28.2083 21.3426 29.6726 20.5854 30.3155" stroke="black" stroke-width="0.3" stroke-miterlimit="10"/>
<path d="M12.5499 31.7297C17.5086 31.7297 21.5284 29.408 21.5284 26.544C21.5284 23.68 17.5086 21.3583 12.5499 21.3583C7.59113 21.3583 3.57129 23.68 3.57129 26.544C3.57129 29.408 7.59113 31.7297 12.5499 31.7297Z" fill="#B9E14A"/>
<path d="M12.5499 31.7297C17.5086 31.7297 21.5284 29.408 21.5284 26.544C21.5284 23.68 17.5086 21.3583 12.5499 21.3583C7.59113 21.3583 3.57129 23.68 3.57129 26.544C3.57129 29.408 7.59113 31.7297 12.5499 31.7297Z" stroke="#1C1E2C" stroke-width="0.3" stroke-miterlimit="10"/>
<path d="M12.564 29.7226C17.5227 29.7226 21.5426 27.4008 21.5426 24.5368C21.5426 21.6729 17.5227 19.3511 12.564 19.3511C7.60529 19.3511 3.58545 21.6729 3.58545 24.5368C3.58545 27.4008 7.60529 29.7226 12.564 29.7226Z" fill="#6B8FFA"/>
<path d="M12.564 29.7226C17.5227 29.7226 21.5426 27.4008 21.5426 24.5368C21.5426 21.6729 17.5227 19.3511 12.564 19.3511C7.60529 19.3511 3.58545 21.6729 3.58545 24.5368C3.58545 27.4008 7.60529 29.7226 12.564 29.7226Z" stroke="#1C1E2C" stroke-width="0.3" stroke-miterlimit="10"/>
<path d="M12.55 28.1011C16.2108 28.1011 19.1785 26.387 19.1785 24.2725C19.1785 22.1581 16.2108 20.444 12.55 20.444C8.8891 20.444 5.92139 22.1581 5.92139 24.2725C5.92139 26.387 8.8891 28.1011 12.55 28.1011Z" fill="#F1F1F3"/>
<path d="M12.55 28.1011C16.2108 28.1011 19.1785 26.387 19.1785 24.2725C19.1785 22.1581 16.2108 20.444 12.55 20.444C8.8891 20.444 5.92139 22.1581 5.92139 24.2725C5.92139 26.387 8.8891 28.1011 12.55 28.1011Z" stroke="#1C1E2C" stroke-width="0.3" stroke-miterlimit="10"/>
<path d="M3.58545 26.9012V24.744C3.58545 24.744 3.75688 26.2083 4.51402 26.8512" fill="#B9E14A"/>
<path d="M3.58545 26.9012V24.744C3.58545 24.744 3.75688 26.2083 4.51402 26.8512" stroke="black" stroke-width="0.3" stroke-miterlimit="10"/>
<path d="M21.514 26.9012V24.744C21.514 24.744 21.3426 26.2083 20.5854 26.8512" fill="#B9E14A"/>
<path d="M21.514 26.9012V24.744C21.514 24.744 21.3426 26.2083 20.5854 26.8512" stroke="black" stroke-width="0.3" stroke-miterlimit="10"/>
<path d="M12.6644 21.3012L11.1715 22.1654C11.6429 22.1369 12.1287 22.194 12.6001 22.4083L13.5858 21.8369L14.0358 22.1012L13.0572 22.6654C13.8929 23.2512 13.7501 24.0226 12.6287 24.7154C14.0715 24.7297 15.7644 24.8226 17.4644 24.9226L16.6001 25.4297C15.0429 25.344 13.5858 25.2726 11.8287 25.2369L11.2644 24.9083L11.7644 24.6154C12.7429 24.044 12.8572 23.5012 12.2929 23.1083L10.2287 24.3083L9.77866 24.044L11.8144 22.8583C11.1644 22.6297 10.4215 22.7512 9.6358 23.2083L8.99294 23.5797L8.40723 23.2369L12.2144 21.0297L12.6644 21.294V21.3012Z" fill="black"/>
</svg>
