<svg width="40" height="40" viewBox="0 0 40 40" fill="none" xmlns="http://www.w3.org/2000/svg">
<path d="M14.122 10.4371C14.122 13.2027 11.384 19.4624 9.44801 20.5594C9.44801 20.5594 7.44751 19.4716 6.82062 18.983C6.13843 18.4575 5.71436 17.4066 5.71436 15.9684C5.71436 13.1935 7.28157 10.0591 9.21754 8.95282C10.0565 8.47344 10.8308 8.46422 11.4393 8.82376C12.2229 9.29392 14.1312 10.4371 14.1312 10.4371H14.122Z" fill="#EC7278"/>
<path fill-rule="evenodd" clip-rule="evenodd" d="M11.3857 8.91556C10.8177 8.58007 10.0852 8.58082 9.27188 9.04559C8.3285 9.58467 7.46515 10.6251 6.83699 11.8825C6.20955 13.1385 5.82268 14.5996 5.82268 15.9682C5.82268 17.39 6.24236 18.4012 6.88719 18.8979C7.19358 19.1367 7.84392 19.5273 8.42404 19.8613C8.71268 20.0275 8.98183 20.1785 9.17885 20.2879C9.27735 20.3426 9.35778 20.3869 9.41357 20.4175L9.44725 20.436C9.89587 20.1619 10.3995 19.5969 10.9074 18.8437C11.4321 18.0656 11.9531 17.0995 12.4146 16.0796C13.3272 14.0624 13.9979 11.8558 14.0157 10.4918L13.0252 9.89838C12.4504 9.55391 11.7775 9.15069 11.3857 8.91556ZM14.1874 10.3449L13.1354 9.71456C12.5603 9.37 11.8874 8.96669 11.4956 8.73163L11.495 8.73126C10.8462 8.34786 10.0299 8.36564 9.16557 8.85954C8.17298 9.42673 7.28474 10.5067 6.6453 11.7867C6.00514 13.0682 5.6084 14.5618 5.6084 15.9682C5.6084 17.4224 6.03676 18.5131 6.75617 19.0674C7.07675 19.3172 7.74042 19.715 8.31713 20.047C8.60698 20.2139 8.87713 20.3654 9.0748 20.4752C9.17364 20.5301 9.25439 20.5746 9.31046 20.6054L9.37522 20.6409L9.39763 20.6531L9.45027 20.6817L9.50202 20.6524C10.0088 20.3652 10.5544 19.7505 11.0851 18.9636C11.6182 18.173 12.1448 17.1957 12.6098 16.1679C13.5146 14.1682 14.1955 11.9569 14.229 10.544H14.5198L14.1874 10.3449Z" fill="#1C1E2C"/>
<path d="M15.1177 13.4695C15.1177 16.2351 13.5597 19.3696 11.6238 20.4666C9.6878 21.5729 8.12059 20.2269 8.11137 17.4612C8.10215 14.6956 9.67858 11.5519 11.6146 10.4457C13.5505 9.34861 15.1177 10.7038 15.1177 13.4695Z" fill="#EFA7AF"/>
<path fill-rule="evenodd" clip-rule="evenodd" d="M14.0233 10.5905C13.4314 10.0793 12.6068 10.0076 11.6687 10.5391C10.7254 11.0782 9.85981 12.1209 9.23053 13.3794C8.60193 14.6367 8.21515 16.0975 8.2197 17.4612C8.22425 18.8282 8.61419 19.8194 9.21593 20.3349C9.80868 20.8427 10.6334 20.9102 11.5718 20.3739L11.5721 20.3737C12.5152 19.8393 13.3762 18.8015 14.002 17.5463C14.6272 16.2926 15.0118 14.8339 15.0118 13.4698C15.0118 12.103 14.6241 11.1093 14.0233 10.5905ZM14.1633 10.4283C14.8302 11.0042 15.2261 12.071 15.2261 13.4698C15.2261 14.8714 14.8317 16.3627 14.1938 17.6419C13.5567 18.9196 12.6708 19.9974 11.6779 20.5601C10.6805 21.13 9.75363 21.0777 9.07652 20.4976C8.40836 19.9253 8.01007 18.8607 8.00541 17.462C8.00074 16.06 8.39757 14.5662 9.03887 13.2836C9.67946 12.0024 10.57 10.9202 11.5626 10.353L11.5629 10.3528C12.5607 9.78736 13.4876 9.84474 14.1633 10.4283Z" fill="#1C1E2C"/>
<path d="M11.1329 35.8579L8.92041 34.4751L25.4407 2.81738L27.7454 4.83632L11.1329 35.8579Z" fill="#94B4F8"/>
<path fill-rule="evenodd" clip-rule="evenodd" d="M25.41 2.64719L27.8813 4.81205L11.1745 36.0097L8.78076 34.5136L25.41 2.64719ZM25.4738 2.988L9.06246 34.437L11.0938 35.7066L27.612 4.86102L25.4738 2.988Z" fill="#1C1E2C"/>
<path d="M28.0318 12.3128L25.6256 13.6957L25.6349 5.74898L20.1035 8.90185V5.4171L25.6349 2.27346L28.0502 0.899841V4.37537L28.0318 12.3128Z" fill="#EC7278"/>
<path d="M28.1581 0.715683V4.3754L28.1395 12.375L25.519 13.881L25.5282 5.93354L19.9971 9.08628V5.35479L28.1581 0.715683Z" fill="#1C1E2C"/>
<path d="M25.4688 5.54617L27.838 6.88291L27.8288 14.7743L25.4688 13.4283V5.54617Z" fill="#504ECD"/>
<path fill-rule="evenodd" clip-rule="evenodd" d="M25.3628 5.36273L27.9464 6.82041L27.9369 14.9586L25.3628 13.4906V5.36273ZM25.5771 5.72967V13.3661L27.7231 14.59L27.732 6.94547L25.5771 5.72967Z" fill="#1C1E2C"/>
<path d="M30.2537 2.2733V5.75805L30.2445 13.6955L27.8292 15.0784L27.8384 10.2753L13.6505 37.4711L11.1245 35.8485L25.3862 8.52372L22.307 10.2753V6.79978L27.8476 3.64692L30.2537 2.2733Z" fill="#B9E14A"/>
<path fill-rule="evenodd" clip-rule="evenodd" d="M30.3615 2.08914V5.75843L30.3522 13.7581L27.7223 15.2637L27.731 10.7143L13.6919 37.625L10.9849 35.8862L25.1234 8.7972L22.2005 10.4599V6.73786L27.7951 3.55425L30.3615 2.08914ZM30.1472 2.45822L27.9014 3.74035L22.4148 6.86247V10.0915L25.6502 8.25099L11.2654 35.8117L13.6104 37.3179L27.947 9.83706L27.9373 14.8937L30.1381 13.6337L30.1472 5.75843V2.45822Z" fill="#1C1E2C"/>
<path d="M20.1035 5.54588L22.4728 6.88262L30.2627 2.46676L27.8843 1.13002L20.1035 5.54588Z" fill="white"/>
<path fill-rule="evenodd" clip-rule="evenodd" d="M27.8838 1.00726L30.4805 2.46665L22.4727 7.006L19.8857 5.54644L27.8838 1.00726ZM27.8843 1.25336L20.3209 5.54589L22.4724 6.75982L30.0446 2.46745L27.8843 1.25336Z" fill="#1C1E2C"/>
<path d="M22.3068 10.2847L20.1035 9.03092V5.54617L22.3068 6.79072V10.2847Z" fill="#504ECD"/>
<path fill-rule="evenodd" clip-rule="evenodd" d="M19.9971 5.36273L22.4147 6.72832V10.4691L19.9971 9.09336V5.36273ZM20.2114 5.72988V8.96874L22.2004 10.1006V6.85339L20.2114 5.72988Z" fill="#1C1E2C"/>
<path d="M31.9789 23.2942C31.9789 26.0599 29.2409 32.3195 27.3049 33.4166C27.3049 33.4166 25.3044 32.3287 24.6776 31.8401C23.9954 31.3147 23.5713 30.2637 23.5713 28.8256C23.5713 26.0507 25.1385 22.9162 27.0745 21.81C27.9134 21.3306 28.6878 21.3214 29.2962 21.6809C30.0798 22.1511 31.9881 23.2942 31.9881 23.2942H31.9789Z" fill="#EC7278"/>
<path fill-rule="evenodd" clip-rule="evenodd" d="M29.2426 21.7727C28.6746 21.4372 27.9422 21.438 27.1288 21.9027C26.1854 22.4418 25.3221 23.4822 24.6939 24.7397C24.0665 25.9957 23.6796 27.4567 23.6796 28.8253C23.6796 30.2472 24.0993 31.2583 24.7441 31.755C25.0505 31.9938 25.7008 32.3845 26.281 32.7185C26.5696 32.8846 26.8388 33.0356 27.0358 33.145C27.1343 33.1998 27.2147 33.2441 27.2705 33.2747L27.3042 33.2931C27.7528 33.0191 28.2565 32.454 28.7643 31.7009C29.2891 30.9228 29.81 29.9566 30.2715 28.9367C31.1842 26.9195 31.8548 24.7129 31.8726 23.3489L30.8822 22.7555C30.3073 22.4111 29.6345 22.0078 29.2426 21.7727ZM32.0444 23.202L30.9923 22.5717C30.4173 22.2272 29.7443 21.8238 29.3525 21.5888L29.3519 21.5884C28.7031 21.205 27.8868 21.2228 27.0225 21.7167C26.0299 22.2839 25.1417 23.3638 24.5022 24.6439C23.8621 25.9254 23.4653 27.419 23.4653 28.8253C23.4653 30.2795 23.8937 31.3702 24.6131 31.9246C24.9337 32.1744 25.5974 32.5722 26.1741 32.9042C26.4639 33.071 26.7341 33.2226 26.9317 33.3324C27.0306 33.3873 27.1113 33.4318 27.1674 33.4625L27.2322 33.498L27.2546 33.5102L27.3072 33.5389L27.359 33.5095C27.8657 33.2224 28.4113 32.6077 28.942 31.8207C29.4751 31.0302 30.0017 30.0528 30.4667 29.025C31.3715 27.0253 32.0525 24.8141 32.086 23.4011H32.3767L32.0444 23.202Z" fill="#1C1E2C"/>
<path d="M32.9664 26.3266C32.9664 29.0923 31.4084 32.2267 29.4724 33.3237C27.5364 34.43 25.9692 33.0841 25.96 30.3184C25.9508 27.5527 27.5272 24.4091 29.4632 23.3028C31.3992 22.2058 32.9664 23.5609 32.9664 26.3266Z" fill="#EFA7AF"/>
<path fill-rule="evenodd" clip-rule="evenodd" d="M31.8714 23.4477C31.2796 22.9365 30.455 22.8648 29.5169 23.3963C28.5736 23.9354 27.708 24.9781 27.0787 26.2366C26.4501 27.4938 26.0633 28.9547 26.0678 30.3184C26.0724 31.6854 26.4623 32.6766 27.0641 33.1921C27.6568 33.6998 28.4815 33.7674 29.4199 33.2311L29.4203 33.2309C30.3634 32.6965 31.2243 31.6586 31.8502 30.4035C32.4753 29.1498 32.8599 27.691 32.8599 26.327C32.8599 24.9602 32.4722 23.9665 31.8714 23.4477ZM32.0115 23.2855C32.6783 23.8614 33.0742 24.9281 33.0742 26.327C33.0742 27.7286 32.6798 29.2199 32.042 30.4991C31.4049 31.7768 30.5189 32.8546 29.5261 33.4173C28.5286 33.9872 27.6018 33.9348 26.9247 33.3548C26.2565 32.7824 25.8582 31.7179 25.8536 30.3191C25.8489 28.9172 26.2457 27.4234 26.887 26.1408C27.5276 24.8596 28.4181 23.7774 29.4107 23.2102L29.4111 23.21C30.4089 22.6445 31.3358 22.7019 32.0115 23.2855Z" fill="#1C1E2C"/>
</svg>
