<svg width="40" height="40" viewBox="0 0 40 40" fill="none" xmlns="http://www.w3.org/2000/svg">
<g clip-path="url(#clip0_1378_78179)">
<path d="M25.4325 27.3486L18.0182 23.07C17.6682 22.87 17.3825 22.5629 17.2182 22.2057C17.0539 21.8486 17.0182 21.4771 17.1253 21.1557L21.4825 7.82715L7.11106 16.1771L2.75391 29.5057C2.64677 29.8271 2.68249 30.2057 2.84677 30.5557C3.01106 30.9129 3.29677 31.22 3.64677 31.42L11.0611 35.6986C11.3611 35.87 11.6182 35.9129 11.7896 35.8129C16.5825 33.0271 21.3682 30.2486 26.1539 27.4629C25.9825 27.5629 25.7325 27.52 25.4253 27.3486H25.4325Z" fill="#1C1E2C"/>
<path d="M26.8608 26.5774L22.4751 7.756L7.89648 15.8274C7.89648 15.8274 12.5822 36.1203 12.3108 36.3917C12.2751 36.4274 12.2322 36.4631 12.1822 36.4917C16.9751 33.706 21.7608 30.9274 26.5465 28.1417C26.5893 28.1131 26.6322 28.0846 26.6751 28.0417C26.9465 27.7703 27.0108 27.256 26.8608 26.5846V26.5774Z" fill="#94B4F8"/>
<path fill-rule="evenodd" clip-rule="evenodd" d="M22.5467 7.59346L26.9674 26.565V26.5727C27.1159 27.2464 27.0613 27.8064 26.7503 28.1174C26.6999 28.1677 26.6496 28.2013 26.6076 28.2293L26.6 28.2344C23.2268 30.1979 19.8534 32.1577 16.4776 34.1192C15.0664 34.9391 13.6548 35.7593 12.2426 36.5801C12.24 36.5817 12.2375 36.5831 12.2349 36.5846L12.1279 36.399C12.1299 36.3978 12.1319 36.3966 12.1339 36.3955C12.1631 36.3782 12.1899 36.3574 12.2143 36.3352C12.2145 36.3288 12.2146 36.3208 12.2144 36.3108C12.2136 36.2697 12.2086 36.2092 12.1991 36.1285C12.18 35.968 12.144 35.7385 12.093 35.4486C11.9912 34.8694 11.8307 34.0557 11.6301 33.0856C11.2292 31.1458 10.6691 28.5844 10.1004 26.031C9.53166 23.4776 8.95447 20.9327 8.51945 19.0261C8.30194 18.0729 8.11998 17.2792 7.99239 16.7238C7.9286 16.4461 7.8784 16.228 7.84416 16.0793L7.79183 15.8523C7.79179 15.8522 7.79161 15.8514 7.89601 15.8273L7.79161 15.8514L7.77344 15.7727L22.5467 7.59346ZM8.01856 15.8819L8.05297 16.0312C8.08723 16.1799 8.13744 16.3981 8.20124 16.6758C8.32885 17.2313 8.51083 18.0251 8.72837 18.9785C9.16344 20.8853 9.74071 23.4306 10.3095 25.9844C10.8783 28.5381 11.4387 31.1008 11.84 33.0422C12.0406 34.0128 12.2016 34.829 12.3041 35.4115C12.3552 35.7024 12.3921 35.9367 12.4118 36.1033C12.4173 36.1488 12.4215 36.1901 12.4244 36.2266C13.7397 35.4622 15.0545 34.6982 16.369 33.9345C19.7441 31.9734 23.1167 30.0138 26.4893 28.0506C26.5313 28.0226 26.5651 27.9995 26.5988 27.9658C26.8289 27.7358 26.9041 27.2718 26.7557 26.6078L26.7532 26.5963V26.5896L22.4024 7.9183L8.01856 15.8819Z" fill="#1C1E2C"/>
<path d="M6.71045 15.2989L21.0819 6.94893L22.4747 7.75607L8.10331 16.1061L6.71045 15.2989Z" fill="white"/>
<path fill-rule="evenodd" clip-rule="evenodd" d="M21.0238 6.84685C21.0604 6.82561 21.1055 6.82558 21.1421 6.84679L22.535 7.65393C22.5713 7.67499 22.5937 7.71382 22.5938 7.75583C22.5938 7.79785 22.5714 7.8367 22.5351 7.85781L8.16367 16.2078C8.12711 16.2291 8.08196 16.2291 8.04537 16.2079L6.65252 15.4007C6.61616 15.3797 6.59377 15.3408 6.59375 15.2988C6.59373 15.2568 6.61607 15.218 6.6524 15.1969L21.0238 6.84685ZM21.0831 7.08502L6.94644 15.2986L8.10439 15.9696L22.2411 7.75604L21.0831 7.08502Z" fill="#1C1E2C"/>
<path d="M12.4898 34.9271C12.6469 35.5985 12.5826 36.12 12.3041 36.3843C12.0326 36.6557 11.5898 36.6343 11.0612 36.3271L3.64693 32.0485C3.11836 31.7414 2.6755 31.2557 2.40408 30.67C2.13265 30.0843 2.06836 29.4914 2.23265 29.0057L6.71122 15.2985L8.10408 16.1057L12.4898 34.9271ZM11.8612 35.7557C12.0255 35.5914 12.0612 35.2557 11.9612 34.8128L7.69693 16.4985L7.11122 16.1628L2.75408 29.4914C2.64693 29.8128 2.68265 30.1914 2.84693 30.5414C3.01122 30.8985 3.29693 31.2057 3.64693 31.4057L11.0612 35.6842C11.4112 35.8843 11.6969 35.9057 11.8612 35.7414" fill="#94B4F8"/>
<path fill-rule="evenodd" clip-rule="evenodd" d="M6.63441 15.0977L8.22307 16.0183L12.6221 34.8967C12.7031 35.2429 12.729 35.558 12.6951 35.8259C12.6614 36.0931 12.5668 36.322 12.3989 36.4821C12.0589 36.8206 11.5359 36.7603 10.9935 36.4452M2.104 28.9634L2.23279 29.0062L2.10423 28.9628C2.10416 28.963 2.10408 28.9632 2.104 28.9634ZM6.78832 15.5006L2.3618 29.0484L2.36135 29.0497C2.21115 29.4938 2.2662 30.0499 2.52736 30.6135C2.78737 31.1745 3.21129 31.6388 3.71504 31.9316C3.71496 31.9316 3.71511 31.9317 3.71504 31.9316L11.1292 36.2101C11.6431 36.5087 12.0054 36.4917 12.2083 36.2889L12.2108 36.2863C12.3206 36.1821 12.3972 36.0187 12.4258 35.7919C12.4545 35.5652 12.4339 35.2839 12.3578 34.9586L7.98537 16.1942L6.78832 15.5006ZM7.03418 15.9627L7.81585 16.4108L12.0938 34.7835C12.1459 35.0144 12.1644 35.2246 12.1454 35.4036C12.1265 35.5817 12.069 35.7406 11.9573 35.8522L11.9501 35.845C11.8352 35.9554 11.6839 35.9971 11.5212 35.9854C11.3582 35.9736 11.1793 35.9085 10.994 35.8027L3.57975 31.5241C3.5797 31.5241 3.57979 31.5241 3.57975 31.5241C3.20639 31.3107 2.90059 30.9828 2.72399 30.5991C2.54785 30.2236 2.50555 29.8092 2.62535 29.4494C2.62532 29.4495 2.62539 29.4493 2.62535 29.4494L7.03418 15.9627ZM11.7724 35.653C11.8218 35.5994 11.8612 35.5102 11.8755 35.375C11.8904 35.2344 11.8769 35.0555 11.8291 34.8437C11.829 34.8436 11.8291 34.8438 11.8291 34.8437L7.57831 16.5875L7.18855 16.3641L2.88322 29.5341L2.88297 29.5349C2.78869 29.8177 2.81776 30.1601 2.96993 30.4843L2.97038 30.4852C3.12236 30.8156 3.38798 31.1019 3.71441 31.2884L11.1287 35.567C11.1286 35.567 11.1288 35.567 11.1287 35.567C11.2933 35.661 11.4324 35.7068 11.5408 35.7146C11.6461 35.7223 11.7168 35.6946 11.7654 35.646L11.7724 35.653Z" fill="#1C1E2C"/>
<path d="M9.375 16.4202L21.9607 9.09877L26.0679 26.7131L13.4821 34.0345L9.375 16.4202Z" fill="white"/>
<path fill-rule="evenodd" clip-rule="evenodd" d="M22.0081 8.99053C22.0424 9.00534 22.0677 9.03556 22.0762 9.07198L26.1833 26.6863C26.1951 26.7367 26.1725 26.7889 26.1278 26.8149L13.5421 34.1363C13.5098 34.1551 13.4704 34.1575 13.4361 34.1427C13.4018 34.1278 13.3765 34.0976 13.368 34.0612L9.2609 16.4469C9.24914 16.3965 9.27167 16.3443 9.31642 16.3183L21.9021 8.99686C21.9344 8.97806 21.9738 8.97571 22.0081 8.99053ZM9.51024 16.4782L13.5614 33.8524L25.934 26.6549L21.8828 9.28079L9.51024 16.4782Z" fill="#1F3596"/>
<path d="M21.9607 9.09877L9.375 16.4202L10.3964 20.8059L22.9893 13.4916L21.9607 9.09877Z" fill="#94B4F8"/>
<path fill-rule="evenodd" clip-rule="evenodd" d="M22.0318 8.93344L23.1114 13.5445L10.3247 20.9714L9.25244 16.3675L22.0318 8.93344ZM9.49706 16.4731L10.4677 20.6406L22.8666 13.4389L21.8892 9.26431L9.49706 16.4731Z" fill="#1C1E2C"/>
<path d="M9.86733 11.7273C9.33161 11.4202 8.8459 11.3916 8.4959 11.5916L8.36018 11.6702C8.01018 11.8702 7.7959 12.2988 7.7959 12.9059C7.7959 13.3916 7.93161 13.9345 8.17447 14.4488L8.41018 14.313C8.1959 13.8416 8.06733 13.3488 8.06733 12.9059C8.06733 12.3845 8.2459 12.0059 8.52447 11.8059C8.8459 11.6559 9.26733 11.6988 9.72447 11.963C10.7102 12.5345 11.5102 13.9202 11.5102 15.0559C11.5102 15.7059 11.2316 16.1702 10.7745 16.2916L10.853 16.4702C10.9602 16.4416 11.0602 16.3916 11.153 16.3273C11.1316 16.3416 11.1102 16.363 11.0816 16.3773L11.2173 16.2988C11.5745 16.0916 11.7816 15.6488 11.7816 15.063C11.7816 13.8416 10.9245 12.3488 9.86018 11.7345L9.86733 11.7273Z" fill="white"/>
<path d="M13.1735 9.81313C12.6378 9.50599 12.1521 9.47742 11.8021 9.67742L11.6663 9.75599C11.3163 9.95599 11.1021 10.3846 11.1021 10.9917C11.1021 11.4774 11.2378 12.0203 11.4806 12.5346L11.7163 12.3988C11.5021 11.9274 11.3735 11.4346 11.3735 10.9917C11.3735 10.4703 11.5521 10.0917 11.8306 9.8917C12.1521 9.7417 12.5735 9.78456 13.0306 10.0488C14.0163 10.6203 14.8163 12.006 14.8163 13.1417C14.8163 13.7917 14.5378 14.256 14.0806 14.3774L14.1592 14.556C14.2663 14.5274 14.3663 14.4774 14.4592 14.4131C14.4378 14.4274 14.4163 14.4488 14.3878 14.4631L14.5235 14.3846C14.8806 14.1774 15.0878 13.7346 15.0878 13.1488C15.0878 11.9274 14.2306 10.4346 13.1663 9.82027L13.1735 9.81313Z" fill="white"/>
<path d="M16.4831 7.89907C15.9473 7.59193 15.4616 7.56335 15.1116 7.76335L14.9759 7.84193C14.6259 8.04193 14.4116 8.4705 14.4116 9.07764C14.4116 9.56335 14.5473 10.1062 14.7902 10.6205L15.0259 10.4848C14.8116 10.0134 14.6831 9.5205 14.6831 9.07764C14.6831 8.55621 14.8616 8.17764 15.1402 7.97764C15.4616 7.82764 15.8831 7.8705 16.3402 8.13478C17.3259 8.70621 18.1259 10.0919 18.1259 11.2276C18.1259 11.8776 17.8473 12.3419 17.3902 12.4634L17.4688 12.6419C17.5759 12.6134 17.6759 12.5634 17.7688 12.4991C17.7473 12.5134 17.7259 12.5348 17.6973 12.5491L17.8331 12.4705C18.1902 12.2634 18.3973 11.8205 18.3973 11.2348C18.3973 10.0134 17.5402 8.5205 16.4759 7.90621L16.4831 7.89907Z" fill="white"/>
<path d="M19.7892 5.97733C19.2535 5.67019 18.7678 5.64162 18.4178 5.84162L18.2821 5.92019C17.9321 6.12019 17.7178 6.54876 17.7178 7.1559C17.7178 7.64162 17.8535 8.18447 18.0963 8.69876L18.3321 8.56305C18.1178 8.09162 17.9892 7.59876 17.9892 7.1559C17.9892 6.63447 18.1678 6.2559 18.4463 6.0559C18.7678 5.9059 19.1892 5.94876 19.6463 6.21305C20.6321 6.78447 21.4321 8.17019 21.4321 9.3059C21.4321 9.9559 21.1535 10.4202 20.6963 10.5416L20.7749 10.7202C20.8821 10.6916 20.9821 10.6416 21.0749 10.5773C21.0535 10.5916 21.0321 10.613 21.0035 10.6273L21.1392 10.5488C21.4963 10.3416 21.7035 9.89876 21.7035 9.31305C21.7035 8.09162 20.8463 6.59876 19.7821 5.98447L19.7892 5.97733Z" fill="white"/>
<path d="M19.3967 22.3992L16.811 23.9278L15.9824 20.1849L18.5753 18.6635L19.3967 22.3992Z" fill="#94B4F8"/>
<path d="M23.1266 20.199L20.548 21.7204L19.7266 17.9847L22.3123 16.4704L23.1266 20.199Z" fill="#504ECD"/>
<path d="M15.654 24.6136L13.054 26.1493L12.2183 22.3921L14.8254 20.8636L15.654 24.6136Z" fill="#94B4F8"/>
<path d="M20.5331 27.556L17.9474 29.0917L17.126 25.356L19.7117 23.8274L20.5331 27.556Z" fill="#94B4F8"/>
<path d="M24.248 25.3418L21.6766 26.8704L20.8623 23.1418L23.4337 21.6204L24.248 25.3418Z" fill="#94B4F8"/>
<path d="M16.7962 29.7702L14.1962 31.313L13.3677 27.5773L15.9677 26.0344L16.7962 29.7702Z" fill="#94B4F8"/>
<path d="M20.0112 37.6859L23.6805 39.8143L36.3787 32.4481L32.7095 30.3585L20.0112 37.6859Z" fill="#383D4C"/>
<path d="M32.6761 30.3197L20.0111 37.697L20 31.8273L22.0785 27.0052L23.9353 28.0361L26.5348 22.3438L29.1398 23.7849L32.7259 16.7125L32.6761 30.3197Z" fill="#2137A5"/>
<path d="M36.3787 32.4479L23.7082 39.8308L23.7026 33.9611L25.7811 29.1334L27.6379 30.1699L30.2374 24.4776L32.8425 25.9187L36.4286 18.8463L36.3787 32.4479Z" fill="#94B4F8"/>
<path fill-rule="evenodd" clip-rule="evenodd" d="M36.4519 18.7425C36.5002 18.7542 36.5342 18.7974 36.534 18.8471L36.4841 32.4488C36.484 32.4867 36.4637 32.5218 36.4309 32.5409L23.7604 39.9238C23.7273 39.9431 23.6863 39.9432 23.6531 39.9241C23.6198 39.905 23.5993 39.8696 23.5993 39.8313L23.5938 33.9616C23.5937 33.947 23.5967 33.9326 23.6025 33.9191L25.681 29.0915C25.693 29.0636 25.7162 29.0422 25.7449 29.0324C25.7736 29.0227 25.8051 29.0255 25.8316 29.0403L27.587 30.0202L30.1382 24.4335C30.1506 24.4064 30.1738 24.3856 30.2021 24.3763C30.2305 24.3669 30.2614 24.3698 30.2876 24.3843L32.7954 25.7716L36.3313 18.7982C36.3537 18.7539 36.4037 18.7309 36.4519 18.7425ZM36.318 19.2982L32.9363 25.9676C32.9231 25.9935 32.9 26.013 32.8722 26.0215C32.8444 26.0301 32.8143 26.027 32.7889 26.0129L30.2851 24.6278L27.7336 30.2148C27.7212 30.2421 27.698 30.2628 27.6695 30.2722C27.6411 30.2815 27.6101 30.2785 27.584 30.2639L25.8308 29.2853L23.8081 33.9836L23.8134 39.6449L36.27 32.3867L36.318 19.2982Z" fill="#1C1E2C"/>
<path d="M23.7025 33.9615L20 31.8331L20.0111 37.6862L23.7025 39.8257V33.9615Z" fill="#504ECD"/>
<path fill-rule="evenodd" clip-rule="evenodd" d="M19.8911 31.6476L23.8082 33.8994V40.0114L19.9027 37.7478L19.8911 31.6476ZM20.1061 32.0183L20.1167 37.6242L23.594 39.6395V34.0233L20.1061 32.0183Z" fill="#1C1E2C"/>
<path d="M32.7267 16.7125L36.4292 18.8464L32.8431 25.9188L29.1406 23.7849L32.7267 16.7125Z" fill="#504ECD"/>
<path fill-rule="evenodd" clip-rule="evenodd" d="M32.6817 16.5632L36.5701 18.8043L32.887 26.0681L28.9985 23.827L32.6817 16.5632ZM32.7706 16.8617L29.2815 23.7428L32.7981 25.7695L36.2871 18.8885L32.7706 16.8617Z" fill="#1C1E2C"/>
<path d="M26.5336 22.3437L30.2361 24.4777L27.6366 30.17L23.9341 28.036L26.5336 22.3437Z" fill="#504ECD"/>
<path fill-rule="evenodd" clip-rule="evenodd" d="M26.4863 22.1924L30.3753 24.4338L27.6863 30.3219L23.7974 28.0805L26.4863 22.1924ZM26.5834 22.4956L24.0733 27.9922L27.5893 30.0186L30.0994 24.5221L26.5834 22.4956Z" fill="#1C1E2C"/>
<path d="M22.0785 27.0054L25.781 29.1338L23.7025 33.9615L20 31.8331L22.0785 27.0054Z" fill="#504ECD"/>
<path fill-rule="evenodd" clip-rule="evenodd" d="M22.0271 26.8527L25.9166 29.0886L23.7528 34.1143L19.8633 31.8785L22.0271 26.8527ZM22.1288 27.1583L20.1356 31.7878L23.6511 33.8087L25.6443 29.1792L22.1288 27.1583Z" fill="#1C1E2C"/>
<path d="M35.5135 12.5555L33.6456 16.7402L32.0105 15.7813L31.9329 15.737C31.9329 15.737 31.9052 15.7259 31.8941 15.7092C31.6114 15.5042 31.4341 15.0608 31.4341 14.4677C31.4341 13.3314 32.0826 12.0345 32.8696 11.5855C33.18 11.4026 33.4627 11.386 33.6955 11.5024C33.7232 11.5079 33.7398 11.5134 33.7565 11.5301L35.519 12.5499L35.5135 12.5555Z" fill="white"/>
<path fill-rule="evenodd" clip-rule="evenodd" d="M33.6488 11.598C33.4561 11.5016 33.2124 11.5083 32.9252 11.6776L32.9239 11.6783C32.5553 11.8886 32.2088 12.3051 31.9538 12.8164C31.6995 13.3263 31.5424 13.9183 31.5424 14.4675C31.5424 15.0457 31.716 15.4466 31.9582 15.6223C31.9645 15.6268 31.9703 15.6321 31.9754 15.6379C31.9795 15.6396 31.9834 15.6415 31.9873 15.6437L32.0659 15.6886L33.5977 16.587L35.3806 12.5927L33.704 11.6226C33.6975 11.6188 33.6915 11.6144 33.6859 11.6095C33.6836 11.6089 33.6804 11.6081 33.6757 11.6072C33.6663 11.6053 33.6573 11.6022 33.6488 11.598ZM35.6056 12.6145L33.7446 16.7836C33.7322 16.8114 33.7085 16.8327 33.6795 16.842C33.6505 16.8513 33.6189 16.8478 33.5926 16.8324L31.958 15.8738L31.8856 15.8324L31.8841 15.8317C31.8792 15.8294 31.8724 15.8261 31.8649 15.8216C31.856 15.8165 31.8381 15.8055 31.8215 15.7877C31.5051 15.5503 31.3281 15.0685 31.3281 14.4675C31.3281 13.8803 31.4953 13.2558 31.762 12.7208C32.0279 12.1877 32.3989 11.7314 32.8171 11.4926C33.1453 11.2994 33.462 11.2708 33.732 11.4001C33.7594 11.4065 33.7908 11.4171 33.8212 11.4428L35.5739 12.457C35.6027 12.4736 35.6221 12.5028 35.6264 12.5358C35.6301 12.5639 35.6225 12.5922 35.6056 12.6145ZM31.9845 15.6496C31.9844 15.6494 31.9846 15.6497 31.9845 15.6496V15.6496Z" fill="#1C1E2C"/>
<path d="M31.8892 15.7143C31.8892 15.7143 31.9172 15.7423 31.9284 15.7423L31.8892 15.7199V15.7143Z" fill="#3251BF"/>
<path d="M36.0186 13.8414C36.0186 14.9776 35.3756 16.2635 34.5886 16.7125C33.8015 17.1615 33.1586 16.6072 33.1641 15.4709C33.1696 14.3347 33.807 13.0433 34.5996 12.5943C35.3922 12.1453 36.0241 12.7052 36.0241 13.8414H36.0186Z" fill="#B9E14A"/>
<path fill-rule="evenodd" clip-rule="evenodd" d="M35.5396 12.7036C35.3245 12.5146 35.02 12.4797 34.6536 12.6872C34.2824 12.8975 33.9374 13.3124 33.6838 13.8223C33.431 14.3306 33.2751 14.9215 33.2724 15.4711C33.2697 16.0232 33.4251 16.4091 33.6506 16.605C33.867 16.793 34.1732 16.8265 34.5367 16.6191C34.9054 16.4088 35.2505 15.995 35.504 15.4865C35.7568 14.9796 35.9126 14.3903 35.9126 13.8411V13.7339H35.9162C35.8975 13.2381 35.7492 12.8878 35.5396 12.7036ZM36.1251 13.9482H36.1324V13.8411C36.1324 13.2575 35.9707 12.7971 35.681 12.5426C35.382 12.2798 34.9743 12.2593 34.548 12.5008C34.1266 12.7394 33.7566 13.1947 33.492 13.7269C33.2266 14.2605 33.061 14.8835 33.0581 15.4701C33.0553 16.0543 33.2186 16.5136 33.51 16.7667C33.8104 17.0276 34.2193 17.0469 34.6428 16.8052C35.0611 16.5666 35.4311 16.113 35.6958 15.5822C35.9451 15.0822 36.1064 14.5032 36.1251 13.9482Z" fill="#1C1E2C"/>
<path d="M33.753 11.5354C33.753 11.5354 33.7194 11.513 33.6914 11.5074H33.697L33.7474 11.5354H33.753Z" fill="#3251BF"/>
<path d="M30.5804 17.1837L28.7125 21.3684L27.0774 20.4095L26.9998 20.3652C26.9998 20.3652 26.9721 20.3541 26.961 20.3374C26.6783 20.1324 26.501 19.689 26.501 19.0959C26.501 17.9596 27.1495 16.6627 27.9365 16.2137C28.2469 16.0308 28.5296 16.0142 28.7624 16.1306C28.7901 16.1361 28.8067 16.1417 28.8234 16.1583L30.5859 17.1781L30.5804 17.1837Z" fill="white"/>
<path fill-rule="evenodd" clip-rule="evenodd" d="M28.7157 16.2262C28.523 16.1298 28.2793 16.1365 27.9921 16.3058L27.9908 16.3066C27.6222 16.5168 27.2757 16.9333 27.0207 17.4446C26.7664 17.9545 26.6093 18.5465 26.6093 19.0957C26.6093 19.6739 26.7829 20.0748 27.0251 20.2505C27.0314 20.2551 27.0372 20.2603 27.0423 20.2661C27.0464 20.2678 27.0503 20.2697 27.0542 20.2719L27.1328 20.3168L28.6646 21.2152L30.4475 17.2209L28.7709 16.2508C28.7644 16.247 28.7584 16.2426 28.7528 16.2377C28.7505 16.2371 28.7473 16.2363 28.7426 16.2354C28.7332 16.2335 28.7242 16.2304 28.7157 16.2262ZM30.6725 17.2427L28.8115 21.4118C28.7991 21.4396 28.7754 21.4609 28.7464 21.4702C28.7174 21.4795 28.6858 21.476 28.6595 21.4606L27.0249 20.502L26.9525 20.4606L26.951 20.4599C26.9461 20.4576 26.9393 20.4543 26.9318 20.4499C26.9229 20.4447 26.905 20.4337 26.8884 20.4159C26.572 20.1785 26.395 19.6967 26.395 19.0957C26.395 18.5085 26.5621 17.884 26.8289 17.349C27.0948 16.8159 27.4658 16.3596 27.884 16.1208C28.2122 15.9276 28.5288 15.899 28.7989 16.0283C28.8263 16.0347 28.8577 16.0453 28.8881 16.071L30.6408 17.0852C30.6696 17.1018 30.689 17.131 30.6933 17.164C30.697 17.1921 30.6894 17.2204 30.6725 17.2427ZM27.0514 20.2778C27.0513 20.2776 27.0515 20.2779 27.0514 20.2778V20.2778Z" fill="#1C1E2C"/>
<path d="M26.9561 20.3425C26.9561 20.3425 26.9841 20.3705 26.9953 20.3705L26.9561 20.3481V20.3425Z" fill="#3251BF"/>
<path d="M31.0855 18.4696C31.0855 19.6058 30.4425 20.8917 29.6555 21.3407C28.8684 21.7897 28.2254 21.2354 28.231 20.0991C28.2365 18.9629 28.8739 17.6715 29.6665 17.2225C30.4591 16.7735 31.091 17.3334 31.091 18.4696H31.0855Z" fill="#B9E14A"/>
<path fill-rule="evenodd" clip-rule="evenodd" d="M30.6065 17.3318C30.3914 17.1428 30.0869 17.1079 29.7205 17.3154C29.3493 17.5257 29.0043 17.9406 28.7507 18.4505C28.4979 18.9588 28.342 19.5497 28.3393 20.0993C28.3366 20.6514 28.492 21.0374 28.7174 21.2332C28.9339 21.4212 29.2401 21.4547 29.6036 21.2473C29.9723 21.037 30.3174 20.6232 30.5709 20.1148C30.8237 19.6078 30.9795 19.0185 30.9795 18.4693V18.3621H30.9831C30.9644 17.8663 30.8161 17.516 30.6065 17.3318ZM31.192 18.5764H31.1993V18.4693C31.1993 17.8857 31.0376 17.4253 30.7479 17.1708C30.4489 16.9081 30.0412 16.8875 29.6149 17.129C29.1935 17.3677 28.8235 17.8229 28.5589 18.3551C28.2935 18.8887 28.1279 19.5117 28.125 20.0983C28.1222 20.6825 28.2855 21.1418 28.5769 21.3949C28.8773 21.6558 29.2862 21.6751 29.7097 21.4334C30.128 21.1948 30.498 20.7412 30.7627 20.2104C31.012 19.7104 31.1733 19.1314 31.192 18.5764Z" fill="#1C1E2C"/>
<path d="M28.8199 16.1636C28.8199 16.1636 28.7863 16.1412 28.7583 16.1356H28.7639L28.8143 16.1636H28.8199Z" fill="#3251BF"/>
<path d="M25.137 22.6761L23.2691 26.8608L21.6341 25.902L21.5565 25.8576C21.5565 25.8576 21.5287 25.8465 21.5177 25.8299C21.235 25.6248 21.0576 25.1814 21.0576 24.5884C21.0576 23.4521 21.7061 22.1551 22.4932 21.7062C22.8036 21.5233 23.0862 21.5066 23.319 21.623C23.3467 21.6286 23.3634 21.6341 23.38 21.6507L25.1426 22.6706L25.137 22.6761Z" fill="white"/>
<path fill-rule="evenodd" clip-rule="evenodd" d="M23.2723 21.7186C23.0796 21.6223 22.836 21.629 22.5487 21.7982L22.5474 21.799C22.1788 22.0093 21.8323 22.4257 21.5773 22.9371C21.3231 23.447 21.1659 24.039 21.1659 24.5881C21.1659 25.1664 21.3396 25.5672 21.5818 25.743C21.5881 25.7475 21.5938 25.7527 21.599 25.7585C21.603 25.7602 21.607 25.7622 21.6108 25.7644L21.6894 25.8093L23.2213 26.7076L25.0041 22.7134L23.3275 21.7432C23.3211 21.7395 23.315 21.7351 23.3095 21.7301C23.3072 21.7295 23.3039 21.7288 23.2992 21.7279C23.2899 21.726 23.2808 21.7229 23.2723 21.7186ZM25.2291 22.7351L23.3682 26.9043C23.3557 26.9321 23.3321 26.9533 23.303 26.9626C23.274 26.9719 23.2424 26.9684 23.2161 26.953L21.5816 25.9945L21.5091 25.9531L21.5077 25.9524C21.5027 25.9501 21.496 25.9467 21.4884 25.9423C21.4796 25.9372 21.4617 25.9261 21.445 25.9083C21.1287 25.6709 20.9517 25.1891 20.9517 24.5881C20.9517 24.001 21.1188 23.3764 21.3855 22.8415C21.6514 22.3084 22.0225 21.852 22.4406 21.6132C22.7688 21.4201 23.0855 21.3914 23.3555 21.5208C23.383 21.5271 23.4144 21.5378 23.4447 21.5635L25.1974 22.5776C25.2262 22.5943 25.2456 22.6234 25.25 22.6564C25.2537 22.6846 25.246 22.7128 25.2291 22.7351ZM21.608 25.7702C21.6079 25.7701 21.6081 25.7704 21.608 25.7702V25.7702Z" fill="#1C1E2C"/>
<path d="M21.5181 25.8294C21.5181 25.8294 21.5461 25.8574 21.5573 25.8574L21.5181 25.835V25.8294Z" fill="#3251BF"/>
<path d="M25.6421 23.9565C25.6421 25.0927 24.9992 26.3786 24.2121 26.8276C23.425 27.2765 22.7821 26.7223 22.7876 25.586C22.7932 24.4498 23.4306 23.1583 24.2232 22.7094C25.0158 22.2604 25.6476 22.8202 25.6476 23.9565H25.6421Z" fill="#B9E14A"/>
<path fill-rule="evenodd" clip-rule="evenodd" d="M25.1631 22.8186C24.948 22.6297 24.6435 22.5948 24.2772 22.8023C23.906 23.0125 23.561 23.4275 23.3074 23.9374C23.0546 24.4457 22.8986 25.0366 22.896 25.5862C22.8933 26.1383 23.0487 26.5242 23.2741 26.72C23.4906 26.9081 23.7967 26.9415 24.1602 26.7342C24.5289 26.5239 24.874 26.1101 25.1275 25.6016C25.3804 25.0947 25.5361 24.5054 25.5361 23.9562V23.849H25.5397C25.5211 23.3532 25.3727 23.0029 25.1631 22.8186ZM25.7486 24.0633H25.756V23.9562C25.756 23.3726 25.5942 22.9122 25.3045 22.6577C25.0055 22.3949 24.5978 22.3744 24.1716 22.6158C23.7502 22.8545 23.3802 23.3098 23.1155 23.8419C22.8501 24.3756 22.6845 24.9986 22.6817 25.5852C22.6788 26.1694 22.8421 26.6287 23.1336 26.8818C23.4339 27.1427 23.8428 27.1619 24.2664 26.9203C24.6847 26.6817 25.0546 26.2281 25.3193 25.6973C25.5687 25.1972 25.73 24.6182 25.7486 24.0633Z" fill="#1C1E2C"/>
<path d="M23.3819 21.6512C23.3819 21.6512 23.3483 21.6288 23.3203 21.6232H23.3259L23.3763 21.6512H23.3819Z" fill="#3251BF"/>
</g>
<defs>
<clipPath id="clip0_1378_78179">
<rect width="35.6286" height="39.0143" fill="white" transform="translate(2.14307 0.714279)"/>
</clipPath>
</defs>
</svg>
