<svg width="40" height="40" viewBox="0 0 40 40" fill="none" xmlns="http://www.w3.org/2000/svg">
<g clip-path="url(#clip0_1378_79301)">
<path d="M11.9882 13.0943V16.7691H13.8258C16.2803 16.7691 18.3163 15.0005 18.7218 12.6683C18.739 12.5951 18.7476 12.5263 18.7563 12.4531C18.7865 12.2379 18.7994 12.0228 18.7994 11.8033V8.12854H16.9618C14.214 8.12854 11.9839 10.3532 11.9839 13.0943H11.9882Z" fill="#494B57"/>
<path d="M27.0944 25.5257C27.0944 26.4293 26.8571 27.0275 26.5854 27.1867L20.6196 30.6463C20.8914 30.4871 21.1286 29.889 21.1286 28.9854C21.1286 28.6497 21.2667 28.4346 21.4867 28.3055L27.4524 24.8458C27.2281 24.9749 27.0944 25.1901 27.0901 25.5257H27.0944Z" fill="#FF7478"/>
<path d="M25.4018 15.9174L25.1646 15.7711L25.3112 15.6851C25.3112 15.7496 25.3457 15.8271 25.4018 15.9174Z" fill="#EFA7AF"/>
<path d="M23.0559 16.4424C22.9265 16.5156 22.7928 16.593 22.6677 16.6662C22.4606 16.5457 22.2881 16.2488 22.2881 16.0035C22.4132 15.9304 22.5426 15.8572 22.6677 15.7841H22.672C22.8834 15.9088 23.0559 16.2015 23.0559 16.4424Z" fill="#EFA7AF"/>
<path d="M24.2377 15.1946L23.9702 15.0311L23.9788 15.0225C24.0608 15.087 24.1471 15.1429 24.2333 15.1946H24.2377Z" fill="#EFA7AF"/>
<path d="M27.5681 13.8219L27.3438 13.9553C27.4214 13.908 27.4947 13.8649 27.5681 13.8219Z" fill="#EFA7AF"/>
<path d="M23.0557 16.4425C23.0557 16.4941 23.0471 16.5372 23.0341 16.5716C23.0298 16.5845 23.0255 16.5974 23.0169 16.6103C23.0083 16.6318 22.991 16.6534 22.9694 16.6749C22.9004 16.7351 22.7926 16.7351 22.6675 16.6663C22.7926 16.5931 22.9263 16.5157 23.0557 16.4425Z" fill="#EFA7AF"/>
<path d="M27.5681 13.8219L27.3438 13.9553C27.4214 13.908 27.4947 13.8649 27.5681 13.8219Z" fill="#EFA7AF"/>
<path d="M22.4469 15.7407C22.4469 15.7407 22.4124 15.7536 22.3994 15.7622C22.408 15.7536 22.421 15.7493 22.4296 15.745C22.4339 15.745 22.4382 15.745 22.4469 15.745V15.7407Z" fill="#494949"/>
<path d="M23.9837 15.0265H23.9708L23.8198 14.9361L23.8371 14.9275H23.8414C23.8888 14.9662 23.932 14.9963 23.9794 15.0222L23.9837 15.0265Z" fill="#494949"/>
<path d="M26.0104 16.2919L25.8594 16.3822V16.3779L26.0104 16.2919Z" fill="#EFA7AF"/>
<path d="M26.3435 16.0979C26.3435 16.0979 26.3305 16.1108 26.3219 16.1151L26.0156 16.2915L26.3219 16.1108L26.3435 16.0979Z" fill="#EFA7AF"/>
<path d="M24.2381 15.1942L23.9707 15.0306H23.9836C24.0656 15.0866 24.1519 15.1425 24.2381 15.1942Z" fill="#494949"/>
<path d="M27.5681 13.8218L27.3438 13.9552C27.4214 13.9078 27.4947 13.8648 27.5681 13.8218Z" fill="#494949"/>
<path d="M18.4548 13.7911L18.4117 13.8169C18.2952 13.8857 18.1831 13.9503 18.0709 14.0148C17.8596 13.8943 17.687 13.5974 17.687 13.3564C17.8164 13.2833 17.9415 13.2101 18.0709 13.1327H18.0752C18.2866 13.2532 18.4548 13.5458 18.4548 13.7868V13.7911Z" fill="#EFA7AF"/>
<path d="M19.3368 12.4017L19.3287 12.4098H19.3247C19.3247 12.4098 19.3287 12.4017 19.3328 12.4017H19.3368Z" fill="#EFA7AF"/>
<path d="M20.5524 11.6958L20.5351 11.9755L20.4963 12.608L20.41 12.6597L20.3496 12.0831L20.3237 11.8335C20.4014 11.7862 20.4747 11.7388 20.5524 11.6958Z" fill="#EFA7AF"/>
<path d="M18.0709 13.1334C17.9415 13.2108 17.8164 13.284 17.687 13.3571C17.687 13.3356 17.687 13.3141 17.6913 13.2969C17.6913 13.2969 17.6913 13.284 17.6956 13.2797C17.6956 13.2668 17.7 13.2539 17.7043 13.241C17.7043 13.2324 17.7086 13.2281 17.7129 13.2194C17.7215 13.1936 17.7345 13.1721 17.7517 13.1506C17.7647 13.1377 17.7776 13.1248 17.7949 13.1162C17.8035 13.1119 17.8078 13.1076 17.8164 13.1033C17.8854 13.0731 17.9717 13.0817 18.0709 13.1334Z" fill="#EFA7AF"/>
<path d="M20.563 11.5109L20.5501 11.6959C20.4724 11.7389 20.3991 11.7863 20.3215 11.8293L20.3042 11.6572L20.563 11.5109Z" fill="#EFA7AF"/>
<path d="M19.3368 12.4017L19.3287 12.4098H19.3247C19.3247 12.4098 19.3287 12.4017 19.3328 12.4017H19.3368Z" fill="#494949"/>
<path d="M20.5625 11.511L20.5496 11.696V11.7003L20.321 11.8337V11.8294L20.3037 11.6573L20.5625 11.511Z" fill="#494949"/>
<path d="M18.4532 13.7911C18.4532 13.817 18.4532 13.8385 18.4489 13.8557C18.4489 13.8772 18.4446 13.8944 18.436 13.9116C18.4317 13.9288 18.4274 13.946 18.4187 13.959C18.4101 13.9762 18.4058 13.9848 18.3929 13.9977C18.3885 14.0106 18.3756 14.0192 18.367 14.0278H18.3583C18.3583 14.0278 18.3454 14.0407 18.3368 14.045C18.3238 14.0536 18.3109 14.0579 18.298 14.0622C18.2376 14.0794 18.1556 14.0665 18.0693 14.0149C18.1815 13.9504 18.2936 13.8858 18.4101 13.817C18.4231 13.8084 18.4403 13.7997 18.4532 13.7911Z" fill="#EFA7AF"/>
<path d="M20.494 12.6082L20.481 12.8061L20.425 12.8362L20.4077 12.6598C20.4379 12.6426 20.4638 12.6254 20.494 12.6082Z" fill="#EFA7AF"/>
<path d="M20.5494 11.7007L20.5322 11.9761L20.4933 12.6086V12.6129L20.4804 12.8066L20.4243 12.8367L20.4071 12.6603V12.656L20.3467 12.0837L20.3208 11.8341L20.5494 11.7007Z" fill="#494949"/>
<path d="M19.3368 12.4017L19.3287 12.4098H19.3247C19.3247 12.4098 19.3287 12.4017 19.3328 12.4017H19.3368Z" fill="#EFA7AF"/>
<path d="M19.9754 8.56323L19.9624 8.68802C19.5354 10.2027 18.5648 11.0246 17.6201 11.4721C17.5942 11.4893 17.564 11.5022 17.5338 11.5151L16.1104 10.8051L16.2441 10.7277L19.9754 8.56323Z" fill="#EFA7AF"/>
<path d="M20.6395 10.2716L20.5618 11.5066V11.5109L20.5489 11.6959V11.7002L20.5316 11.9756L20.3461 12.0832L20.3202 11.8336V11.8293L20.303 11.6572L20.1865 10.5341L20.6395 10.2716Z" fill="#EFA7AF"/>
<path d="M20.7982 8.18457L20.1511 10.1941L19.9829 8.55894L20.6903 8.15015L20.7982 8.18457Z" fill="#EFA7AF"/>
<path d="M20.9061 10.1169L20.6387 10.2718L20.7249 8.85608L20.9018 10.0911C20.9018 10.0911 20.9018 10.1083 20.9018 10.1169H20.9061Z" fill="#EFA7AF"/>
<path d="M20.6399 10.2721L20.5623 11.5071V11.5114L20.5494 11.6964V11.7007L20.5321 11.9761L20.4933 12.6086V12.613L20.4803 12.8066L20.4243 12.8367L20.407 12.6603V12.656L20.3466 12.0837L20.3207 11.8341V11.8298L20.3035 11.6577L20.187 10.5346L20.6399 10.2721Z" fill="#EFA7AF"/>
<path d="M26.0104 16.2919L25.8594 16.3822V16.3779L26.0104 16.2919Z" fill="#EFA7AF"/>
<path d="M25.4018 15.9173L25.1646 15.771L25.3112 15.6849C25.3112 15.7495 25.3457 15.8269 25.4018 15.9173Z" fill="#EFA7AF"/>
<path d="M26.6023 16.137L26.4599 16.2188C26.4254 16.3177 26.3952 16.4124 26.3693 16.5114L26.1666 16.3866L26.0156 16.2919L26.3219 16.1112L26.3435 16.0983C26.378 16.0768 26.434 16.0725 26.5031 16.094H26.5074C26.5333 16.1026 26.5678 16.1155 26.6023 16.137Z" fill="#EFA7AF"/>
<path d="M27.5681 13.8219L27.3438 13.9553C27.4214 13.908 27.4947 13.8649 27.5681 13.8219Z" fill="#EFA7AF"/>
<path d="M30.7548 18.3485L29.2968 19.1919C29.258 18.9208 29.2407 18.6497 29.2407 18.37V13.7271H30.6642C30.6728 13.9637 30.6815 14.209 30.6858 14.4629C30.7203 15.6118 30.7462 16.9156 30.7548 18.3485Z" fill="#EFA7AF"/>
<path d="M25.3112 15.6849L25.1646 15.771L25.4018 15.9173C25.3457 15.8269 25.3112 15.7495 25.3112 15.6849Z" fill="#6A6FE3"/>
<path d="M25.8594 16.3778V16.3821L26.0104 16.2917L25.8594 16.3778Z" fill="#6A6FE3"/>
<path d="M26.3693 16.5113C26.3952 16.4123 26.4254 16.3176 26.4599 16.2186L26.6023 16.1369C26.5678 16.1154 26.5333 16.1025 26.5074 16.0939H26.5031C26.434 16.0723 26.378 16.0766 26.3435 16.0982L26.3219 16.1111L26.0156 16.2918L26.1666 16.3865L26.3693 16.5113Z" fill="#6A6FE3"/>
<path d="M13.4756 24.2735V24.1984L13.5123 24.2662C13.5107 24.2668 13.5086 24.2677 13.5062 24.2685C13.4974 24.2714 13.4868 24.2735 13.4756 24.2735ZM13.5414 24.2582L13.5397 24.2506C14.3502 23.776 15.2653 23.2438 16.1836 22.7097C16.776 22.3652 17.3696 22.0199 17.9372 21.6889C18.0618 21.6184 18.1837 21.5479 18.3045 21.4777C18.3711 21.559 18.4398 21.6381 18.5106 21.7152C18.5339 21.7461 18.5632 21.7848 18.5982 21.8204C18.6005 21.823 18.6028 21.8257 18.6051 21.8283C18.6291 21.8556 18.654 21.8841 18.6821 21.9126C18.6941 21.9272 18.706 21.9385 18.7141 21.9462C18.7195 21.9512 18.7231 21.9544 18.7259 21.9569C18.7272 21.9582 18.7284 21.9592 18.7295 21.9603L18.7304 21.9614L18.7308 21.9619C18.7333 21.9651 18.7434 21.9781 18.753 21.9878L18.7969 22.0316H18.7974C18.8101 22.0447 18.8223 22.0569 18.8336 22.0682L18.835 22.0695L18.8789 22.1133H18.8793C18.8921 22.1265 18.9043 22.1386 18.9156 22.15L18.9169 22.1513L18.9934 22.2275C19.0882 22.3265 19.1909 22.4199 19.2873 22.503L19.3295 22.5393H19.3335C19.4243 22.6176 19.5144 22.6924 19.6004 22.7633L19.6004 22.7633L19.6034 22.7656C19.828 22.9414 20.0534 23.0958 20.2709 23.2242L20.2709 23.2242L20.2723 23.225C20.3854 23.2901 20.5026 23.3533 20.6219 23.4039C20.7427 23.4618 20.8626 23.5104 20.981 23.5542L20.981 23.5542L20.9825 23.5547C21.5843 23.7697 22.1654 23.812 22.7137 23.6889L22.7437 23.6822L22.7686 23.6642L22.8198 23.6272V23.6355L23.0452 23.5044L24.1624 22.8547L24.1625 22.8546L24.5385 22.6361C25.0709 23.3833 25.3562 24.0701 25.3562 24.614C25.3562 25.0734 25.4137 25.5282 25.5069 25.9222L25.5535 26.1189L25.7282 26.0174C25.8467 25.9486 25.9646 25.8801 26.0816 25.8121C26.5866 25.5186 27.0748 25.2348 27.5262 24.9766L27.5273 24.9759C27.6584 24.8994 27.836 24.8545 28.0531 24.8402C28.269 24.8259 28.5147 24.8424 28.7746 24.8807C29.2945 24.9574 29.8554 25.1188 30.3194 25.2767L30.3851 25.299L30.4447 25.2634C30.4868 25.2382 30.5271 25.2135 30.5661 25.1896C30.6062 25.165 30.6449 25.1412 30.6829 25.1187C33.0389 26.4876 34.1017 28.0782 34.5803 29.6613C34.9943 31.0305 34.9746 32.3989 34.9567 33.6481C34.9535 33.8693 34.9504 34.0867 34.9497 34.2997L34.9493 34.4502H34.9541V35.1561L29.1381 38.5289L11.6456 28.4517V27.5963C11.6499 26.6229 11.8667 25.9177 12.2055 25.3942C12.5444 24.8705 13.0132 24.5165 13.5414 24.2582Z" fill="#6A6FE3" stroke="black" stroke-width="0.3"/>
<path d="M23.0393 16.4292C23.0393 16.455 23.0393 16.4765 23.035 16.4937C23.035 16.5153 23.0307 16.5325 23.0221 16.5497C23.0177 16.5669 23.0134 16.5841 23.0048 16.597C22.9962 16.6142 22.9919 16.6228 22.9789 16.6357C22.9746 16.6487 22.9617 16.6573 22.953 16.6659H22.9444C22.9444 16.6659 22.9315 16.6788 22.9228 16.6831C22.9099 16.6917 22.897 16.696 22.884 16.7003C22.8236 16.7175 22.7417 16.7046 22.6554 16.653C22.444 16.5325 22.2715 16.2356 22.2715 15.9946C22.2715 15.9731 22.2715 15.9516 22.2758 15.9344C22.2758 15.9344 22.2758 15.9214 22.2801 15.9171C22.2801 15.9042 22.2844 15.8913 22.2887 15.8784C22.2887 15.8698 22.2931 15.8655 22.2974 15.8569C22.306 15.8311 22.3189 15.8096 22.3362 15.788C22.3491 15.7751 22.3621 15.7622 22.3793 15.7536C22.388 15.7493 22.3923 15.745 22.4009 15.7407C22.4699 15.7106 22.5562 15.7192 22.6554 15.7708H22.6597C22.8711 15.8913 23.0393 16.1839 23.0393 16.4249V16.4292Z" fill="#494949"/>
<path d="M23.0559 16.4423C23.0559 16.4939 23.0473 16.5369 23.0343 16.5714C23.03 16.5843 23.0257 16.5972 23.0171 16.6101C23.0085 16.6316 22.9912 16.6531 22.9696 16.6746C22.9006 16.7349 22.7928 16.7349 22.6677 16.666C22.4606 16.5455 22.2881 16.2486 22.2881 16.0034C22.2881 15.9431 22.2967 15.8958 22.3183 15.8528C22.3269 15.8355 22.3355 15.8183 22.3485 15.8054C22.3485 15.8011 22.3528 15.8011 22.3528 15.8011C22.3657 15.7839 22.383 15.771 22.4002 15.7624C22.4089 15.7538 22.4218 15.7495 22.4304 15.7452C22.4347 15.7452 22.4391 15.7452 22.4477 15.7452C22.4649 15.7409 22.4822 15.7366 22.4995 15.7366C22.5512 15.7366 22.6073 15.7538 22.6677 15.7882H22.672C22.8834 15.913 23.0559 16.2056 23.0559 16.4466V16.4423Z" fill="#494949"/>
<mask id="path-42-inside-1_1378_79301" fill="white">
<path fill-rule="evenodd" clip-rule="evenodd" d="M24.7175 28.6975L24.7173 28.6976V28.7019C24.7158 28.7003 24.7142 28.6987 24.7127 28.6971L22.0093 30.6896C21.0948 31.3652 19.7878 31.0209 19.3262 29.9839L16.8056 24.3362L16.8027 24.3346L16.8054 24.3356L16.8027 24.3297L16.8261 24.3426C17.042 24.4117 18.6887 24.8416 18.9466 21.9636L22.5505 22.9711C22.5505 22.9711 22.5505 22.971 22.5505 22.971L26.6196 21.49C27.6592 24.8205 30.6874 24.9453 30.6874 24.9453L24.718 28.6972L24.7182 28.6979L24.7175 28.6975Z"/>
</mask>
<path fill-rule="evenodd" clip-rule="evenodd" d="M24.7175 28.6975L24.7173 28.6976V28.7019C24.7158 28.7003 24.7142 28.6987 24.7127 28.6971L22.0093 30.6896C21.0948 31.3652 19.7878 31.0209 19.3262 29.9839L16.8056 24.3362L16.8027 24.3346L16.8054 24.3356L16.8027 24.3297L16.8261 24.3426C17.042 24.4117 18.6887 24.8416 18.9466 21.9636L22.5505 22.9711C22.5505 22.9711 22.5505 22.971 22.5505 22.971L26.6196 21.49C27.6592 24.8205 30.6874 24.9453 30.6874 24.9453L24.718 28.6972L24.7182 28.6979L24.7175 28.6975Z" fill="#FF7478"/>
<path d="M24.7173 28.6976L24.5577 28.4435L24.4173 28.5318V28.6976H24.7173ZM24.7175 28.6975L24.8623 28.4348L24.7076 28.3494L24.5579 28.4434L24.7175 28.6975ZM24.7173 28.7019L24.5022 28.911L25.0173 29.441V28.7019H24.7173ZM24.7127 28.6971L24.9281 28.4883L24.7456 28.3001L24.5347 28.4556L24.7127 28.6971ZM22.0093 30.6896L21.8313 30.4481L21.831 30.4483L22.0093 30.6896ZM19.3262 29.9839L19.6003 29.8619L19.6002 29.8616L19.3262 29.9839ZM16.8056 24.3362L17.0796 24.2139L17.0386 24.122L16.9504 24.0735L16.8056 24.3362ZM16.8027 24.3346L16.9062 24.053L16.6579 24.5973L16.8027 24.3346ZM16.8054 24.3356L16.7019 24.6171L17.369 24.8623L17.0793 24.2133L16.8054 24.3356ZM16.8027 24.3297L16.9476 24.067L16.1643 23.6352L16.5288 24.452L16.8027 24.3297ZM16.8261 24.3426L16.6813 24.6053L16.7068 24.6194L16.7346 24.6283L16.8261 24.3426ZM18.9466 21.9636L19.0274 21.6747L18.68 21.5776L18.6478 21.9368L18.9466 21.9636ZM22.5505 22.9711L22.4697 23.26L22.8632 23.37L22.8504 22.9617L22.5505 22.9711ZM22.5505 22.971L22.4479 22.6891L22.2421 22.764L22.2507 22.9829L22.5505 22.971ZM26.6196 21.49L26.906 21.4006L26.8124 21.1006L26.517 21.2081L26.6196 21.49ZM30.6874 24.9453L30.847 25.1993L31.6648 24.6854L30.6997 24.6456L30.6874 24.9453ZM24.718 28.6972L24.5583 28.4432L24.3505 28.5738L24.4374 28.8034L24.718 28.6972ZM24.7182 28.6979L24.5734 28.9606L25.2876 29.3543L24.9988 28.5917L24.7182 28.6979ZM24.8769 28.9516L24.8771 28.9515L24.5579 28.4434L24.5577 28.4435L24.8769 28.9516ZM25.0173 28.7019V28.6976H24.4173V28.7019H25.0173ZM24.4973 28.9059C24.4989 28.9076 24.5005 28.9093 24.5022 28.911L24.9325 28.4928C24.931 28.4913 24.9295 28.4898 24.9281 28.4883L24.4973 28.9059ZM22.1873 30.9311L24.8907 28.9386L24.5347 28.4556L21.8313 30.4481L22.1873 30.9311ZM19.0521 30.1059C19.5918 31.3185 21.1191 31.7202 22.1875 30.9309L21.831 30.4483C21.0705 31.0101 19.9837 30.7234 19.6003 29.8619L19.0521 30.1059ZM16.5317 24.4585L19.0522 30.1062L19.6002 29.8616L17.0796 24.2139L16.5317 24.4585ZM16.6579 24.5973L16.6608 24.5989L16.9504 24.0735L16.9475 24.0719L16.6579 24.5973ZM16.9088 24.054L16.9062 24.053L16.6992 24.6162L16.7019 24.6171L16.9088 24.054ZM16.5288 24.452L16.5314 24.4578L17.0793 24.2133L17.0767 24.2074L16.5288 24.452ZM16.9709 24.0798L16.9476 24.067L16.6579 24.5924L16.6813 24.6053L16.9709 24.0798ZM18.6478 21.9368C18.5235 23.3236 18.0755 23.8145 17.7328 23.9918C17.3695 24.1798 17.0011 24.0836 16.9176 24.0569L16.7346 24.6283C16.867 24.6707 17.4299 24.824 18.0085 24.5247C18.6075 24.2148 19.1118 23.4815 19.2454 21.9904L18.6478 21.9368ZM22.6313 22.6822L19.0274 21.6747L18.8658 22.2525L22.4697 23.26L22.6313 22.6822ZM22.5505 22.971C22.2507 22.9829 22.2507 22.9829 22.2507 22.9829C22.2507 22.9829 22.2507 22.9829 22.2507 22.9829C22.2507 22.9829 22.2507 22.9829 22.2507 22.9829C22.2507 22.9829 22.2507 22.9829 22.2507 22.9829C22.2507 22.9829 22.2507 22.9829 22.2507 22.9828C22.2507 22.9828 22.2507 22.9828 22.2507 22.9828C22.2507 22.9827 22.2507 22.9827 22.2507 22.9826C22.2507 22.9825 22.2507 22.9824 22.2507 22.9823C22.2507 22.9821 22.2507 22.9819 22.2507 22.9817C22.2507 22.9813 22.2507 22.9809 22.2507 22.9806L22.8504 22.9617C22.8503 22.9612 22.8503 22.9608 22.8503 22.9604C22.8503 22.9602 22.8503 22.96 22.8503 22.9598C22.8503 22.9596 22.8503 22.9595 22.8503 22.9594C22.8503 22.9594 22.8503 22.9593 22.8503 22.9593C22.8503 22.9593 22.8503 22.9592 22.8503 22.9592C22.8503 22.9592 22.8503 22.9592 22.8503 22.9592C22.8503 22.9592 22.8503 22.9592 22.8503 22.9592C22.8503 22.9591 22.8503 22.9591 22.8503 22.9591C22.8503 22.9591 22.8503 22.9591 22.8503 22.9591C22.8503 22.9591 22.8503 22.9591 22.5505 22.971ZM26.517 21.2081L22.4479 22.6891L22.6531 23.2529L26.7222 21.7719L26.517 21.2081ZM30.6874 24.9453C30.6997 24.6456 30.6999 24.6456 30.7 24.6456C30.7 24.6456 30.7002 24.6456 30.7002 24.6456C30.7003 24.6456 30.7004 24.6456 30.7005 24.6456C30.7005 24.6456 30.7004 24.6456 30.7001 24.6456C30.6995 24.6456 30.6982 24.6455 30.6962 24.6454C30.6922 24.6452 30.6855 24.6447 30.6761 24.644C30.6574 24.6426 30.6283 24.64 30.5901 24.6355C30.5134 24.6265 30.4003 24.6101 30.2603 24.5803C29.9798 24.5208 29.5942 24.4085 29.1785 24.1988C28.353 23.7823 27.3982 22.9774 26.906 21.4006L26.3333 21.5794C26.8807 23.3332 27.9598 24.2559 28.9082 24.7345C29.3794 24.9722 29.8159 25.0993 30.1357 25.1673C30.2958 25.2013 30.4274 25.2206 30.5204 25.2314C30.5669 25.2369 30.6039 25.2402 30.6301 25.2422C30.6432 25.2432 30.6536 25.2439 30.6611 25.2444C30.6649 25.2446 30.6679 25.2447 30.6703 25.2449C30.6714 25.2449 30.6724 25.245 30.6732 25.245C30.6736 25.245 30.6739 25.245 30.6742 25.245C30.6744 25.2451 30.6746 25.2451 30.6747 25.2451C30.6749 25.2451 30.675 25.2451 30.6874 24.9453ZM24.8776 28.9512L30.847 25.1993L30.5277 24.6913L24.5583 28.4432L24.8776 28.9512ZM24.9988 28.5917L24.9985 28.5909L24.4374 28.8034L24.4377 28.8041L24.9988 28.5917ZM24.5727 28.9602L24.5734 28.9606L24.8631 28.4352L24.8623 28.4348L24.5727 28.9602Z" fill="black" mask="url(#path-42-inside-1_1378_79301)"/>
<path d="M22.9737 23.3742V23.3355L22.8831 23.3957L22.6804 23.542C22.7623 23.5248 22.84 23.499 22.9176 23.4732C22.9392 23.4689 22.9608 23.4603 22.9823 23.4517C23.1764 23.3828 23.3619 23.2882 23.5431 23.172C23.5517 23.1677 23.5604 23.1634 23.569 23.1548C23.5776 23.1505 23.5862 23.1462 23.5949 23.1419C23.5949 23.1419 23.5992 23.1419 23.6035 23.1333C23.6035 23.129 23.6078 23.129 23.6121 23.1246C23.776 23.0128 23.9356 22.8794 24.0866 22.7245L22.9737 23.3742ZM16.2445 10.7276L15.4378 10.293C15.399 10.8222 15.3817 11.3902 15.3904 12.0056C15.6017 12.0056 16.5421 11.9626 17.5342 11.515C17.5644 11.5021 17.5946 11.4892 17.6205 11.472L16.2445 10.7276ZM19.333 12.4015C19.333 12.4015 19.3287 12.4058 19.3244 12.4058H19.3287L19.3373 12.4015H19.333ZM18.6256 21.6186C18.5264 21.511 18.4315 21.3991 18.3409 21.2829C18.233 21.1452 18.1252 21.0032 18.0174 20.8569C18.0174 20.8655 18.0174 20.8699 18.013 20.8785C18.1166 21.0205 18.2244 21.1582 18.3323 21.2872C18.4272 21.4034 18.5221 21.5153 18.6213 21.6229C18.6515 21.6573 18.6773 21.6874 18.7075 21.7176C18.6773 21.6874 18.6515 21.653 18.6256 21.6186Z" fill="#EFA7AF"/>
<path d="M17.8678 20.3988V20.4368C17.1216 19.3874 16.5415 18.0273 16.1462 16.6052C15.7216 15.0775 15.5131 13.4891 15.5371 12.1561C16.3147 12.1411 17.3227 11.8527 18.1971 11.2997C19.0815 10.7405 19.8468 9.89913 20.0886 8.7742C20.2191 8.85726 20.3335 8.98565 20.4341 9.15127C20.5719 9.378 20.6757 9.66131 20.7562 9.95551C20.8365 10.2487 20.8917 10.5453 20.9356 10.7964C20.9421 10.8335 20.9483 10.8698 20.9544 10.9051C20.9687 10.9878 20.982 11.0646 20.9945 11.1313C21.0119 11.2239 21.0297 11.3081 21.0502 11.3684C21.1724 11.7494 21.4385 12.231 21.7925 12.7434C22.1484 13.2586 22.5991 13.8132 23.0975 14.3403C24.0886 15.3884 25.2902 16.3504 26.3267 16.6548L26.475 16.6983L26.5141 16.5488C26.5369 16.4616 26.5634 16.3771 26.594 16.2882L26.6036 16.275C26.6182 16.2551 26.6398 16.2258 26.6677 16.1889C26.7236 16.115 26.8045 16.0108 26.9038 15.8903C27.1032 15.6485 27.3745 15.3442 27.6668 15.0867C27.9636 14.8251 28.2629 14.6292 28.5185 14.5771C28.642 14.552 28.7478 14.5619 28.839 14.607C28.9253 14.6497 29.0134 14.7311 29.0932 14.8769C29.0999 15.0482 29.1092 15.2275 29.1189 15.4139C29.1544 16.0972 29.1948 16.8767 29.131 17.7144C29.1295 17.7163 29.128 17.7182 29.1265 17.72C29.11 17.7409 29.0935 17.7651 29.0773 17.7907C29.0449 17.842 29.0079 17.9081 28.9667 17.9843C28.9324 18.0479 28.8958 18.1173 28.8557 18.1936C28.7955 18.3077 28.7274 18.4371 28.6467 18.5851C28.3829 19.069 28.0123 19.6998 27.507 20.3479C26.4963 21.6442 24.9529 23.0023 22.6558 23.3941C21.5425 23.5819 20.3364 23.0587 19.4912 22.2786L19.4481 22.2388H19.4444C19.4256 22.2213 19.4069 22.204 19.3883 22.1867C19.2721 22.0791 19.1594 21.9745 19.0558 21.8615L19.0112 21.8128H19.0037C18.9946 21.8032 18.9858 21.7935 18.977 21.7833L18.9321 21.7311H18.9263C18.6408 21.4309 18.3891 21.1095 18.1387 20.7682L17.8678 20.3988Z" fill="#EFA7AF" stroke="black" stroke-width="0.3"/>
<path d="M18.1114 14.2584C18.1114 14.3013 18.1114 14.3371 18.1043 14.3657C18.1043 14.4014 18.0971 14.43 18.0828 14.4586C18.0756 14.4872 18.0685 14.5158 18.0541 14.5372C18.0398 14.5658 18.0326 14.5801 18.0111 14.6015C18.004 14.623 17.9825 14.6373 17.9681 14.6516H17.9538C17.9538 14.6516 17.9323 14.673 17.918 14.6802C17.8965 14.6945 17.875 14.7016 17.8535 14.7088C17.7532 14.7374 17.617 14.7159 17.4737 14.6301C17.1226 14.43 16.8359 13.9368 16.8359 13.5365C16.8359 13.5007 16.8359 13.465 16.8431 13.4364C16.8431 13.4364 16.8431 13.4149 16.8503 13.4078C16.8503 13.3864 16.8574 13.3649 16.8646 13.3435C16.8646 13.3292 16.8718 13.322 16.8789 13.3077C16.8933 13.2648 16.9148 13.2291 16.9434 13.1933C16.9649 13.1719 16.9864 13.1505 17.0151 13.1362C17.0294 13.129 17.0366 13.1219 17.0509 13.1147C17.1656 13.0647 17.3089 13.079 17.4737 13.1648H17.4809C17.832 13.3649 18.1114 13.851 18.1114 14.2513V14.2584Z" fill="#494949"/>
<path d="M22.4249 16.8401C22.4249 16.883 22.4249 16.9187 22.4178 16.9473C22.4178 16.9831 22.4106 17.0117 22.3963 17.0402C22.3891 17.0688 22.3819 17.0974 22.3676 17.1189C22.3533 17.1475 22.3461 17.1618 22.3246 17.1832C22.3174 17.2047 22.2959 17.219 22.2816 17.2333H22.2673C22.2673 17.2333 22.2458 17.2547 22.2314 17.2618C22.21 17.2761 22.1885 17.2833 22.167 17.2904C22.0666 17.319 21.9305 17.2976 21.7872 17.2118C21.436 17.0117 21.1494 16.5184 21.1494 16.1181C21.1494 16.0824 21.1494 16.0466 21.1566 16.0181C21.1566 16.0181 21.1566 15.9966 21.1637 15.9895C21.1637 15.968 21.1709 15.9466 21.1781 15.9251C21.1781 15.9108 21.1852 15.9037 21.1924 15.8894C21.2067 15.8465 21.2282 15.8108 21.2569 15.775C21.2784 15.7536 21.2999 15.7321 21.3286 15.7178C21.3429 15.7107 21.3501 15.7035 21.3644 15.6964C21.479 15.6463 21.6224 15.6606 21.7872 15.7464H21.7943C22.1455 15.9466 22.4249 16.4327 22.4249 16.833V16.8401Z" fill="#494949"/>
<path d="M19.3328 13.2625C19.3328 13.2625 19.3287 13.2665 19.3247 13.2665H19.3287L19.3368 13.2625H19.3328Z" fill="#E1696F"/>
<path d="M31.2744 5.87379C30.0062 3.50712 22.3064 -2.7452 15.7411 5.1767C15.7583 5.1724 15.7756 5.16809 15.7929 5.16379C15.0984 5.97276 14.7317 7.23355 14.7015 8.7138C14.6713 9.9875 14.887 11.4247 15.3529 12.8705H15.396C15.6074 12.8705 16.5477 12.8275 17.5399 12.38C17.5701 12.3671 17.6003 12.3542 17.6261 12.337C18.5708 11.8894 19.5414 11.0676 19.9684 9.5529L19.9814 9.42811V9.36787L19.99 9.4238L20.1582 11.059L20.1928 11.3989L20.3092 12.522L20.3265 12.6941L20.3524 12.948L20.4127 13.5203L20.43 13.701L20.4861 13.6709L20.499 13.4773L20.5378 12.8404L20.5551 12.565L20.568 12.3757L20.6457 11.1364L20.732 9.72071L20.9088 10.9557C20.9088 10.9557 20.9088 10.9729 20.9088 10.9815C20.9433 11.2182 20.9865 11.4548 21.0468 11.6872C21.0727 11.8034 21.1072 11.9196 21.1461 12.0358C21.159 12.0874 21.1719 12.139 21.1935 12.1864C21.2151 12.2681 21.241 12.3413 21.2712 12.4144C21.3272 12.5822 21.3963 12.7458 21.4739 12.9093C21.4912 12.9566 21.5127 13.0082 21.5386 13.0556C21.5817 13.1416 21.6249 13.232 21.6723 13.3181C21.7802 13.5203 21.8966 13.7182 22.0217 13.9119C22.5049 14.6391 23.1174 15.2802 23.8378 15.788H23.8421C23.8895 15.831 23.9327 15.8612 23.9801 15.887C24.0621 15.9515 24.1483 16.0075 24.2346 16.0591L24.6358 16.3087L24.7048 16.3474L24.8601 16.4464L25.162 16.6357L25.3993 16.782L26.0075 17.1564H26.0118L26.1628 17.251L26.3655 17.3758C26.3914 17.2769 26.4216 17.1822 26.4561 17.0832C26.4561 17.0832 26.5295 16.967 26.5036 16.9584C26.7149 16.4249 27.0643 15.9472 27.5173 15.5815C27.6424 15.4782 27.7718 15.3835 27.9098 15.3018C27.94 15.2802 27.9745 15.2587 28.0047 15.2415C28.1428 15.1641 28.2851 15.1296 28.4275 15.1296C28.7855 15.1296 29.1219 15.3577 29.2384 15.7019V17.1478C29.2384 17.1478 29.2729 17.1133 29.2902 17.0918C29.7215 16.6142 30.2133 16.0161 30.6835 15.3276C30.8474 15.0952 31.007 14.8499 31.158 14.5918C32.4866 12.3972 32.7066 8.5675 31.2701 5.8781L31.2744 5.87379Z" fill="#494B57"/>
<path d="M37.8555 20.4312V25.0742H35.5305C32.429 25.0742 29.8537 22.8366 29.3404 19.8933C29.3189 19.8029 29.3059 19.7126 29.2973 19.6222C29.2585 19.3511 29.2412 19.08 29.2412 18.8003V14.1573H31.5663C35.0387 14.1573 37.8555 16.9672 37.8555 20.4312Z" fill="#494B57"/>
</g>
<path d="M10.0682 38.7703C14.4452 38.7703 17.9934 36.722 17.9934 34.1954C17.9934 31.6688 14.4452 29.6206 10.0682 29.6206C5.69129 29.6206 2.14307 31.6688 2.14307 34.1954C2.14307 36.722 5.69129 38.7703 10.0682 38.7703Z" fill="#B9E14A"/>
<path d="M10.0682 38.7703C14.4452 38.7703 17.9934 36.722 17.9934 34.1954C17.9934 31.6688 14.4452 29.6206 10.0682 29.6206C5.69129 29.6206 2.14307 31.6688 2.14307 34.1954C2.14307 36.722 5.69129 38.7703 10.0682 38.7703Z" stroke="#1C1E2C" stroke-width="0.3" stroke-miterlimit="10"/>
<path d="M10.0848 37.0013C14.4618 37.0013 18.01 34.9531 18.01 32.4265C18.01 29.8999 14.4618 27.8517 10.0848 27.8517C5.70789 27.8517 2.15967 29.8999 2.15967 32.4265C2.15967 34.9531 5.70789 37.0013 10.0848 37.0013Z" fill="#728DF2"/>
<path d="M10.0848 37.0013C14.4618 37.0013 18.01 34.9531 18.01 32.4265C18.01 29.8999 14.4618 27.8517 10.0848 27.8517C5.70789 27.8517 2.15967 29.8999 2.15967 32.4265C2.15967 34.9531 5.70789 37.0013 10.0848 37.0013Z" stroke="#1C1E2C" stroke-width="0.3" stroke-miterlimit="10"/>
<path d="M10.0691 35.564C13.3001 35.564 15.9194 34.0525 15.9194 32.1881C15.9194 30.3237 13.3001 28.8123 10.0691 28.8123C6.83803 28.8123 4.21875 30.3237 4.21875 32.1881C4.21875 34.0525 6.83803 35.564 10.0691 35.564Z" fill="#F1F1F3"/>
<path d="M10.0691 35.564C13.3001 35.564 15.9194 34.0525 15.9194 32.1881C15.9194 30.3237 13.3001 28.8123 10.0691 28.8123C6.83803 28.8123 4.21875 30.3237 4.21875 32.1881C4.21875 34.0525 6.83803 35.564 10.0691 35.564Z" stroke="#1C1E2C" stroke-width="0.3" stroke-miterlimit="10"/>
<path d="M10.0682 35.683C14.4452 35.683 17.9934 33.6348 17.9934 31.1082C17.9934 28.5815 14.4452 26.5333 10.0682 26.5333C5.69129 26.5333 2.14307 28.5815 2.14307 31.1082C2.14307 33.6348 5.69129 35.683 10.0682 35.683Z" fill="#B9E14A"/>
<path d="M10.0682 35.683C14.4452 35.683 17.9934 33.6348 17.9934 31.1082C17.9934 28.5815 14.4452 26.5333 10.0682 26.5333C5.69129 26.5333 2.14307 28.5815 2.14307 31.1082C2.14307 33.6348 5.69129 35.683 10.0682 35.683Z" stroke="#1C1E2C" stroke-width="0.3" stroke-miterlimit="10"/>
<path d="M10.0848 33.9141C14.4618 33.9141 18.01 31.8658 18.01 29.3392C18.01 26.8126 14.4618 24.7644 10.0848 24.7644C5.70789 24.7644 2.15967 26.8126 2.15967 29.3392C2.15967 31.8658 5.70789 33.9141 10.0848 33.9141Z" fill="#728DF2"/>
<path d="M10.0848 33.9141C14.4618 33.9141 18.01 31.8658 18.01 29.3392C18.01 26.8126 14.4618 24.7644 10.0848 24.7644C5.70789 24.7644 2.15967 26.8126 2.15967 29.3392C2.15967 31.8658 5.70789 33.9141 10.0848 33.9141Z" stroke="#1C1E2C" stroke-width="0.3" stroke-miterlimit="10"/>
<path d="M10.0691 32.4857C13.3001 32.4857 15.9194 30.9743 15.9194 29.1099C15.9194 27.2454 13.3001 25.734 10.0691 25.734C6.83803 25.734 4.21875 27.2454 4.21875 29.1099C4.21875 30.9743 6.83803 32.4857 10.0691 32.4857Z" fill="#F1F1F3"/>
<path d="M10.0691 32.4857C13.3001 32.4857 15.9194 30.9743 15.9194 29.1099C15.9194 27.2454 13.3001 25.734 10.0691 25.734C6.83803 25.734 4.21875 27.2454 4.21875 29.1099C4.21875 30.9743 6.83803 32.4857 10.0691 32.4857Z" stroke="#1C1E2C" stroke-width="0.3" stroke-miterlimit="10"/>
<path d="M10.0765 32.6138C14.4535 32.6138 18.0017 30.5656 18.0017 28.0389C18.0017 25.5123 14.4535 23.4641 10.0765 23.4641C5.69959 23.4641 2.15137 25.5123 2.15137 28.0389C2.15137 30.5656 5.69959 32.6138 10.0765 32.6138Z" fill="#B9E14A"/>
<path d="M10.0765 32.6138C14.4535 32.6138 18.0017 30.5656 18.0017 28.0389C18.0017 25.5123 14.4535 23.4641 10.0765 23.4641C5.69959 23.4641 2.15137 25.5123 2.15137 28.0389C2.15137 30.5656 5.69959 32.6138 10.0765 32.6138Z" stroke="#1C1E2C" stroke-width="0.3" stroke-miterlimit="10"/>
<path d="M10.0931 30.8449C14.4701 30.8449 18.0183 28.7966 18.0183 26.27C18.0183 23.7434 14.4701 21.6952 10.0931 21.6952C5.71619 21.6952 2.16797 23.7434 2.16797 26.27C2.16797 28.7966 5.71619 30.8449 10.0931 30.8449Z" fill="#728DF2"/>
<path d="M10.0931 30.8449C14.4701 30.8449 18.0183 28.7966 18.0183 26.27C18.0183 23.7434 14.4701 21.6952 10.0931 21.6952C5.71619 21.6952 2.16797 23.7434 2.16797 26.27C2.16797 28.7966 5.71619 30.8449 10.0931 30.8449Z" stroke="#1C1E2C" stroke-width="0.3" stroke-miterlimit="10"/>
<path d="M10.0774 29.4075C13.3084 29.4075 15.9277 27.896 15.9277 26.0316C15.9277 24.1672 13.3084 22.6558 10.0774 22.6558C6.84634 22.6558 4.22705 24.1672 4.22705 26.0316C4.22705 27.896 6.84634 29.4075 10.0774 29.4075Z" fill="#F1F1F3"/>
<path d="M10.0774 29.4075C13.3084 29.4075 15.9277 27.896 15.9277 26.0316C15.9277 24.1672 13.3084 22.6558 10.0774 22.6558C6.84634 22.6558 4.22705 24.1672 4.22705 26.0316C4.22705 27.896 6.84634 29.4075 10.0774 29.4075Z" stroke="#1C1E2C" stroke-width="0.3" stroke-miterlimit="10"/>
<defs>
<clipPath id="clip0_1378_79301">
<rect width="26.3605" height="37.415" fill="white" transform="translate(11.4956 1.28699)"/>
</clipPath>
</defs>
</svg>
