<svg width="40" height="40" viewBox="0 0 40 40" fill="none" xmlns="http://www.w3.org/2000/svg">
<g clip-path="url(#clip0_1378_78377)">
<path d="M25.2755 25.733L17.4377 21.2051C17.0651 20.9902 16.7714 20.6678 16.5923 20.2881C16.4203 19.9155 16.3845 19.5143 16.492 19.1776L21.0986 5.07812L5.90305 13.9046L1.29637 28.0041C1.18174 28.3479 1.21757 28.742 1.39667 29.1145C1.56862 29.4942 1.86952 29.8166 2.24207 30.0316L10.0799 34.5594C10.4023 34.7457 10.6673 34.7815 10.8465 34.6812C15.9117 31.7367 20.9769 28.7921 26.0421 25.8548C25.8629 25.9622 25.5907 25.9192 25.2755 25.733Z" fill="#1C1E2C"/>
<path d="M26.7859 24.9165L22.1506 5.01395L6.73291 13.5467C6.73291 13.5467 11.6906 35.0039 11.3969 35.2905C11.3539 35.3335 11.3109 35.3693 11.2608 35.3908C16.326 32.4463 21.3912 29.5017 26.4564 26.5643C26.5065 26.5357 26.5495 26.4999 26.5925 26.464C26.8791 26.1775 26.9507 25.633 26.7859 24.9237V24.9165Z" fill="#EC7278"/>
<path fill-rule="evenodd" clip-rule="evenodd" d="M22.2223 4.85142L26.8926 24.9041V24.9114C27.0559 25.6239 26.9938 26.2137 26.6678 26.5397L26.6609 26.5466L26.658 26.5484C26.6167 26.5829 26.5676 26.6237 26.5094 26.6571C21.4675 29.5809 16.4256 32.5119 11.3837 35.4429C11.359 35.4606 11.3321 35.4765 11.3025 35.4892L11.2065 35.2981L11.2164 35.2923C11.233 35.2827 11.2495 35.273 11.2661 35.2634C11.2773 35.2549 11.289 35.2449 11.3014 35.2333C11.3018 35.2261 11.302 35.2166 11.3018 35.2045C11.3011 35.1609 11.296 35.0967 11.286 35.0114C11.2662 34.8416 11.2285 34.5988 11.1748 34.2923C11.0677 33.6798 10.8984 32.8194 10.6867 31.7937C10.2634 29.7426 9.67135 27.0343 9.07002 24.3343C8.46871 21.6345 7.85822 18.9436 7.39805 16.9276C7.16796 15.9196 6.97546 15.0804 6.84048 14.4931C6.77299 14.1995 6.71988 13.9689 6.68365 13.8117L6.62811 13.5709C6.62807 13.5708 6.62805 13.5707 6.73245 13.5466L6.62811 13.5709L6.60986 13.492L22.2223 4.85142ZM6.85502 13.6012L6.89246 13.7636C6.9287 13.9208 6.98182 14.1515 7.04932 14.4451C7.18432 15.0325 7.37685 15.8718 7.60696 16.8799C8.06718 18.8961 8.67776 21.5874 9.27918 24.2877C9.88056 26.9879 10.4729 29.6976 10.8965 31.7504C11.1083 32.7766 11.2782 33.6396 11.3859 34.2554C11.4397 34.563 11.4784 34.8106 11.4989 34.9866C11.5047 35.0362 11.5091 35.081 11.5121 35.1204C16.4754 32.2351 21.4388 29.3499 26.4022 26.4715C26.4416 26.449 26.4773 26.42 26.5196 26.3848C26.7623 26.1384 26.8432 25.6453 26.6811 24.9478L26.6783 24.9359V24.9287L22.078 5.17624L6.85502 13.6012ZM11.4713 35.3671C11.4711 35.3672 11.4714 35.3669 11.4713 35.3671L11.3964 35.2904L11.4722 35.3662C11.472 35.3663 11.4714 35.3669 11.4713 35.3671Z" fill="#1C1E2C"/>
<path d="M5.47998 12.9945L20.6756 4.16085L22.1514 5.01341L6.95584 13.8399L5.47998 12.9945Z" fill="white"/>
<path fill-rule="evenodd" clip-rule="evenodd" d="M20.617 4.05963C20.6535 4.0384 20.6986 4.03834 20.7352 4.05947L22.2111 4.91203C22.2475 4.93306 22.2699 4.97189 22.27 5.01394C22.27 5.05599 22.2477 5.09487 22.2113 5.11599L7.0157 13.9425C6.97932 13.9636 6.93443 13.9637 6.89793 13.9428L5.42207 13.0974C5.38553 13.0765 5.36293 13.0377 5.36279 12.9955C5.36266 12.9534 5.38501 12.9144 5.42142 12.8933L20.617 4.05963ZM20.6764 4.29774L5.71645 12.9944L6.9561 13.7045L21.917 5.01436L20.6764 4.29774Z" fill="#1C1E2C"/>
<path d="M11.5918 33.7497C11.7565 34.459 11.6849 35.0106 11.3983 35.29C11.1117 35.5766 10.6389 35.5551 10.0801 35.2327L2.24227 30.7048C1.68345 30.3825 1.21777 29.8666 0.931197 29.2505C0.644623 28.6343 0.580144 28.0111 0.744924 27.4881L5.48056 12.9946L6.95642 13.8471L11.5918 33.7497ZM10.9326 34.6237C11.1117 34.4518 11.1476 34.1008 11.0401 33.6279L6.52656 14.2627L5.91042 13.9044L1.30374 28.0039C1.18911 28.3478 1.22494 28.7418 1.40404 29.1144C1.57599 29.4941 1.87689 29.8165 2.24944 30.0314L10.0872 34.5593C10.4598 34.7742 10.7607 34.7957 10.9326 34.6166" fill="#94B4F8"/>
<path fill-rule="evenodd" clip-rule="evenodd" d="M5.40256 12.7936L7.07427 13.7593L11.723 33.7192C11.8078 34.0845 11.8337 34.4166 11.798 34.6984C11.7623 34.9795 11.6641 35.2194 11.4927 35.3869C11.1378 35.7411 10.5846 35.6813 10.0113 35.3505L2.17347 30.8227C2.17345 30.8226 2.1735 30.8227 2.17347 30.8227C1.58927 30.4856 1.10488 29.9481 0.807161 29.308C0.509706 28.6684 0.437343 28.0098 0.614502 27.4475L0.614933 27.4462L5.40256 12.7936ZM5.55661 13.196L0.873385 27.5291C0.873314 27.5293 0.873456 27.5289 0.873385 27.5291C0.721249 28.0127 0.777707 28.601 1.05327 29.1935C1.32869 29.7857 1.77571 30.2798 2.30911 30.5875L10.1469 35.1154C10.6909 35.4292 11.0831 35.4126 11.3014 35.1943L11.3026 35.1931C11.4174 35.0812 11.4981 34.9058 11.5287 34.6643C11.5592 34.4231 11.5385 34.1246 11.4586 33.7807C11.4586 33.7807 11.4586 33.7808 11.4586 33.7807L6.83661 13.9355L5.55661 13.196ZM5.83256 13.703L6.64445 14.175L11.1715 33.5981C11.2272 33.8435 11.2478 34.0653 11.2278 34.2533C11.2079 34.4408 11.146 34.6063 11.0256 34.7219L11.0222 34.7183C10.9038 34.8369 10.7463 34.8831 10.5749 34.8713C10.4036 34.8596 10.2149 34.7904 10.0184 34.6771L2.18064 30.1492C1.78564 29.9213 1.46461 29.5787 1.28008 29.172C1.0887 28.7732 1.0468 28.3433 1.17387 27.9616C1.17382 27.9618 1.17392 27.9615 1.17387 27.9616L5.83256 13.703ZM10.844 34.5326L10.8377 34.5261C10.8964 34.4697 10.942 34.3738 10.9579 34.2246C10.9737 34.0759 10.9585 33.8859 10.9069 33.6586C10.9068 33.6585 10.9069 33.6588 10.9069 33.6586L6.40671 14.3508L5.98632 14.1064L1.43177 28.0463L1.43151 28.0471C1.32965 28.3526 1.35918 28.7101 1.52538 29.0558L1.52673 29.0586C1.68619 29.4108 1.96664 29.7124 2.31628 29.9141L10.1541 34.442C10.3302 34.5436 10.4782 34.5926 10.5935 34.6006C10.7051 34.6082 10.781 34.5778 10.8338 34.5229L10.844 34.5326Z" fill="#1C1E2C"/>
<path d="M8.29541 14.1701L21.6068 6.43973L25.9484 25.0599L12.637 32.7974L8.29541 14.1701Z" fill="white"/>
<path fill-rule="evenodd" clip-rule="evenodd" d="M21.6542 6.33151C21.6885 6.34633 21.7138 6.37655 21.7222 6.41294L26.0638 25.0331C26.0756 25.0835 26.0531 25.1357 26.0083 25.1618L12.6969 32.8993C12.6646 32.918 12.6253 32.9204 12.591 32.9056C12.5566 32.8907 12.5314 32.8605 12.5229 32.8241L8.18131 14.1968C8.16955 14.1463 8.19211 14.0941 8.2369 14.0681L21.5483 6.33779C21.5806 6.31902 21.6199 6.31669 21.6542 6.33151ZM8.43066 14.2282L12.7163 32.6154L25.8145 25.0018L21.5289 6.62164L8.43066 14.2282Z" fill="#1F3596"/>
<path d="M21.6068 6.43973L8.29541 14.1701L9.37723 18.8126L22.6886 11.0751L21.6068 6.43973Z" fill="#EC7278"/>
<path fill-rule="evenodd" clip-rule="evenodd" d="M21.6775 6.27441L22.8102 11.1279L9.30506 18.9781L8.17236 14.1173L21.6775 6.27441ZM8.41702 14.223L9.44797 18.6472L22.5655 11.0223L21.5346 6.60517L8.41702 14.223Z" fill="#1C1E2C"/>
<path d="M8.82641 9.21231C8.26043 8.88275 7.74459 8.85409 7.37205 9.06902L7.22876 9.15499C6.86338 9.36992 6.63412 9.82128 6.62695 10.4661C6.62695 10.9819 6.77024 11.5479 7.02816 12.0995L7.27891 11.9563C7.04965 11.4548 6.92069 10.9389 6.92069 10.4732C6.92069 9.92158 7.10696 9.52038 7.4007 9.30545C7.73743 9.14783 8.18162 9.19082 8.66879 9.47023C9.71479 10.072 10.5602 11.5407 10.553 12.7372C10.553 13.425 10.2593 13.9121 9.7721 14.0411L9.85808 14.2274C9.97271 14.1987 10.0802 14.1414 10.1733 14.0769C10.1518 14.0912 10.1232 14.1127 10.1017 14.1271L10.245 14.0411C10.6247 13.819 10.8396 13.3533 10.8468 12.7372C10.8468 11.4476 9.93688 9.86427 8.81208 9.21947L8.82641 9.21231Z" fill="white"/>
<path d="M12.3225 7.18457C11.7565 6.85501 11.2407 6.82635 10.8681 7.04129L10.7249 7.12726C10.3595 7.34219 10.1302 7.79354 10.123 8.43833C10.123 8.95417 10.2663 9.52015 10.5243 10.0718L10.775 9.92852C10.5457 9.42702 10.4168 8.91118 10.4168 8.4455C10.4168 7.89384 10.6031 7.49264 10.8968 7.27771C11.2335 7.12009 11.6777 7.16308 12.1649 7.44249C13.2109 8.04429 14.0563 9.51299 14.0491 10.7094C14.0491 11.3972 13.7554 11.8844 13.2682 12.0133L13.3542 12.1996C13.4688 12.171 13.5763 12.1136 13.6694 12.0492C13.6479 12.0635 13.6193 12.085 13.5978 12.0993L13.741 12.0133C14.1208 11.7913 14.3357 11.3256 14.3429 10.7094C14.3429 9.41985 13.433 7.83653 12.3082 7.19174L12.3225 7.18457Z" fill="white"/>
<path d="M15.8186 5.16446C15.2526 4.8349 14.7368 4.80624 14.3642 5.02117L14.2209 5.10714C13.8556 5.32207 13.6263 5.77343 13.6191 6.41822C13.6191 6.93405 13.7624 7.50004 14.0203 8.05169L14.2711 7.90841C14.0418 7.4069 13.9129 6.89107 13.9129 6.42538C13.9129 5.87373 14.0992 5.47252 14.3929 5.25759C14.7296 5.09998 15.1738 5.14296 15.661 5.42237C16.707 6.02418 17.5524 7.49287 17.5452 8.68932C17.5452 9.3771 17.2515 9.86427 16.7643 9.99323L16.8503 10.1795C16.9649 10.1508 17.0724 10.0935 17.1655 10.0291C17.144 10.0434 17.1153 10.0649 17.0939 10.0792L17.2371 9.99323C17.6168 9.77114 17.8318 9.30546 17.8389 8.68932C17.8389 7.39974 16.9291 5.81641 15.8043 5.17162L15.8186 5.16446Z" fill="white"/>
<path d="M19.3147 3.13669C18.7487 2.80713 18.2329 2.77848 17.8603 2.99341L17.717 3.07938C17.3517 3.29431 17.1224 3.74566 17.1152 4.38329C17.1152 4.89913 17.2585 5.46511 17.5164 6.01676L17.7672 5.87348C17.5379 5.37197 17.409 4.85614 17.409 4.39046C17.409 3.8388 17.5952 3.4376 17.889 3.22267C18.2257 3.06505 18.6699 3.10804 19.1571 3.38745C20.2031 3.98925 21.0485 5.45795 21.0413 6.65439C21.0413 7.34217 20.7476 7.82935 20.2604 7.9583L20.3464 8.14458C20.461 8.11592 20.5685 8.05861 20.6616 7.99413C20.6401 8.00846 20.6114 8.02995 20.5899 8.04428L20.7332 7.9583C21.1129 7.73621 21.3279 7.27053 21.335 6.65439C21.335 5.36481 20.4252 3.78149 19.3004 3.13669H19.3147Z" fill="white"/>
<path d="M18.8984 20.5028L16.1545 22.1147L15.2876 18.1529L18.0244 16.5409L18.8984 20.5028Z" fill="#94B4F8"/>
<path d="M22.8306 18.1747L20.1081 19.7795L19.2412 15.832L21.9708 14.2271L22.8306 18.1747Z" fill="#504ECD"/>
<path d="M14.9355 22.8387L12.1844 24.465L11.3032 20.496L14.0615 18.8768L14.9355 22.8387Z" fill="#504ECD"/>
<path d="M20.0939 25.948L17.3571 27.5743L16.4902 23.6196L19.227 22.0076L20.0939 25.948Z" fill="#94B4F8"/>
<path d="M24.0207 23.6124L21.3054 25.2243L20.4385 21.2839L23.1609 19.6791L24.0207 23.6124Z" fill="#94B4F8"/>
<path d="M16.1405 28.2976L13.3965 29.9239L12.5225 25.9692L15.2736 24.3429L16.1405 28.2976Z" fill="#94B4F8"/>
<path d="M28.8892 37.1469C32.6152 37.1469 35.6358 35.4035 35.6358 33.2529C35.6358 31.1024 32.6152 29.359 28.8892 29.359C25.1631 29.359 22.1426 31.1024 22.1426 33.2529C22.1426 35.4035 25.1631 37.1469 28.8892 37.1469Z" fill="#B9E14A"/>
<path fill-rule="evenodd" clip-rule="evenodd" d="M24.1734 30.592C22.9687 31.2873 22.2509 32.2319 22.2509 33.2527C22.2509 34.2734 22.9687 35.218 24.1734 35.9133C25.3752 36.607 27.0427 37.0395 28.8904 37.0395C30.738 37.0395 32.4055 36.607 33.6074 35.9133C34.8121 35.218 35.5298 34.2734 35.5298 33.2527C35.5298 32.2319 34.8121 31.2873 33.6074 30.592C32.4055 29.8983 30.738 29.4658 28.8904 29.4658C27.0427 29.4658 25.3752 29.8983 24.1734 30.592ZM24.0662 30.4064C25.3062 29.6908 27.012 29.2515 28.8904 29.2515C30.7688 29.2515 32.4746 29.6908 33.7145 30.4064C34.9516 31.1204 35.7441 32.1229 35.7441 33.2527C35.7441 34.3824 34.9516 35.3849 33.7145 36.0989C32.4746 36.8146 30.7688 37.2538 28.8904 37.2538C27.012 37.2538 25.3062 36.8146 24.0662 36.0989C22.8292 35.3849 22.0366 34.3824 22.0366 33.2527C22.0366 32.1229 22.8292 31.1204 24.0662 30.4064Z" fill="#1C1E2C"/>
<path d="M28.9033 35.6451C32.6294 35.6451 35.65 33.9017 35.65 31.7511C35.65 29.6005 32.6294 27.8571 28.9033 27.8571C25.1773 27.8571 22.1567 29.6005 22.1567 31.7511C22.1567 33.9017 25.1773 35.6451 28.9033 35.6451Z" fill="#6B8FFA"/>
<path fill-rule="evenodd" clip-rule="evenodd" d="M24.1875 29.0902C22.9828 29.7855 22.2651 30.73 22.2651 31.7508C22.2651 32.7716 22.9828 33.7162 24.1875 34.4115C25.3894 35.1052 27.0569 35.5377 28.9045 35.5377C30.7522 35.5377 32.4197 35.1052 33.6216 34.4115C34.8263 33.7162 35.544 32.7716 35.544 31.7508C35.544 30.73 34.8263 29.7855 33.6216 29.0902C32.4197 28.3965 30.7522 27.964 28.9045 27.964C27.0569 27.964 25.3894 28.3965 24.1875 29.0902ZM24.0804 28.9046C25.3203 28.1889 27.0261 27.7497 28.9045 27.7497C30.7829 27.7497 32.4888 28.1889 33.7287 28.9046C34.9658 29.6186 35.7583 30.621 35.7583 31.7508C35.7583 32.8806 34.9658 33.8831 33.7287 34.5971C32.4888 35.3127 30.7829 35.752 28.9045 35.752C27.0261 35.752 25.3203 35.3127 24.0804 34.5971C22.8433 33.8831 22.0508 32.8806 22.0508 31.7508C22.0508 30.621 22.8433 29.6186 24.0804 28.9046Z" fill="#1C1E2C"/>
<path d="M28.8882 34.4269C31.6383 34.4269 33.8677 33.1385 33.8677 31.5491C33.8677 29.9597 31.6383 28.6712 28.8882 28.6712C26.1381 28.6712 23.9087 29.9597 23.9087 31.5491C23.9087 33.1385 26.1381 34.4269 28.8882 34.4269Z" fill="white"/>
<path fill-rule="evenodd" clip-rule="evenodd" d="M25.4219 29.6066C24.5371 30.118 24.017 30.8085 24.017 31.5488C24.017 32.2891 24.5371 32.9796 25.4219 33.491C26.304 34.0008 27.5297 34.3195 28.8894 34.3195C30.249 34.3195 31.4747 34.0008 32.3568 33.491C33.2417 32.9796 33.7617 32.2891 33.7617 31.5488C33.7617 30.8085 33.2417 30.118 32.3568 29.6066C31.4747 29.0968 30.249 28.778 28.8894 28.778C27.5297 28.778 26.304 29.0968 25.4219 29.6066ZM25.3147 29.421C26.2349 28.8893 27.4989 28.5638 28.8894 28.5638C30.2798 28.5638 31.5439 28.8893 32.464 29.421C33.3813 29.9512 33.976 30.6997 33.976 31.5488C33.976 32.3979 33.3813 33.1463 32.464 33.6765C31.5439 34.2083 30.2798 34.5338 28.8894 34.5338C27.4989 34.5338 26.2349 34.2083 25.3147 33.6765C24.3974 33.1463 23.8027 32.3979 23.8027 31.5488C23.8027 30.6997 24.3974 29.9512 25.3147 29.421Z" fill="#1C1E2C"/>
<path d="M22.1567 33.5242V31.9022C22.1567 31.9022 22.283 33.0003 22.851 33.4863" fill="#B9E14A"/>
<path fill-rule="evenodd" clip-rule="evenodd" d="M22.2651 32.7647V33.5246H22.0508V31.9026L22.2637 31.8904L22.2644 31.8904L22.2644 31.8904L22.2644 31.8904L22.2644 31.8908L22.2647 31.8928L22.2657 31.9012C22.2667 31.9088 22.2683 31.9203 22.2705 31.9351C22.2748 31.9649 22.2818 32.0083 22.2918 32.0621C22.312 32.1697 22.3447 32.3182 22.3945 32.4811C22.4955 32.8114 22.6617 33.1828 22.9218 33.4053L22.7825 33.5681C22.5387 33.3595 22.3745 33.0524 22.2651 32.7647Z" fill="black"/>
<path d="M35.6244 33.5242V31.9022C35.6244 31.9022 35.4982 33.0003 34.9302 33.4863" fill="#B9E14A"/>
<path fill-rule="evenodd" clip-rule="evenodd" d="M35.5184 31.8904L35.5178 31.8904L35.5178 31.8904L35.5178 31.8904L35.5177 31.8908L35.5175 31.8928L35.5164 31.9012C35.5154 31.9088 35.5139 31.9203 35.5117 31.9351C35.5073 31.9649 35.5004 32.0083 35.4903 32.0621C35.4702 32.1697 35.4375 32.3182 35.3877 32.4811C35.2866 32.8114 35.1204 33.1828 34.8604 33.4053L34.9997 33.5681C35.2435 33.3595 35.4076 33.0524 35.5171 32.7647V33.5246H35.7314V31.9026L35.5184 31.8904Z" fill="black"/>
<path d="M28.9725 32.767C33.5333 32.767 37.2306 30.633 37.2306 28.0006C37.2306 25.3682 33.5333 23.2343 28.9725 23.2343C24.4116 23.2343 20.7144 25.3682 20.7144 28.0006C20.7144 30.633 24.4116 32.767 28.9725 32.767Z" fill="#B9E14A"/>
<path fill-rule="evenodd" clip-rule="evenodd" d="M23.1878 24.7228C21.7096 25.576 20.8227 26.7387 20.8227 28.0004C20.8227 29.2621 21.7096 30.4247 23.1878 31.2779C24.6632 32.1295 26.7086 32.6596 28.9736 32.6596C31.2387 32.6596 33.284 32.1295 34.7595 31.2779C36.2377 30.4247 37.1246 29.2621 37.1246 28.0004C37.1246 26.7387 36.2377 25.576 34.7595 24.7228C33.284 23.8713 31.2387 23.3411 28.9736 23.3411C26.7086 23.3411 24.6632 23.8713 23.1878 24.7228ZM23.0807 24.5372C24.5942 23.6637 26.6779 23.1268 28.9736 23.1268C31.2694 23.1268 33.3531 23.6637 34.8666 24.5372C36.3772 25.4091 37.3389 26.6297 37.3389 28.0004C37.3389 29.3711 36.3772 30.5916 34.8666 31.4635C33.3531 32.337 31.2694 32.8739 28.9736 32.8739C26.6779 32.8739 24.5942 32.337 23.0807 31.4635C21.5701 30.5916 20.6084 29.3711 20.6084 28.0004C20.6084 26.6297 21.5701 25.4091 23.0807 24.5372Z" fill="#1C1E2C"/>
<path d="M28.9891 30.9207C33.5499 30.9207 37.2472 28.7867 37.2472 26.1543C37.2472 23.5219 33.5499 21.388 28.9891 21.388C24.4282 21.388 20.731 23.5219 20.731 26.1543C20.731 28.7867 24.4282 30.9207 28.9891 30.9207Z" fill="#6B8FFA"/>
<path fill-rule="evenodd" clip-rule="evenodd" d="M23.2044 22.8765C21.7262 23.7297 20.8393 24.8924 20.8393 26.154C20.8393 27.4157 21.7262 28.5784 23.2044 29.4316C24.6798 30.2832 26.7252 30.8133 28.9902 30.8133C31.2553 30.8133 33.3007 30.2832 34.7761 29.4316C36.2543 28.5784 37.1412 27.4157 37.1412 26.154C37.1412 24.8924 36.2543 23.7297 34.7761 22.8765C33.3007 22.0249 31.2553 21.4948 28.9902 21.4948C26.7252 21.4948 24.6798 22.0249 23.2044 22.8765ZM23.0973 22.6909C24.6108 21.8174 26.6945 21.2805 28.9902 21.2805C31.286 21.2805 33.3697 21.8174 34.8832 22.6909C36.3938 23.5628 37.3555 24.7834 37.3555 26.154C37.3555 27.5247 36.3938 28.7453 34.8832 29.6172C33.3697 30.4907 31.286 31.0276 28.9902 31.0276C26.6945 31.0276 24.6108 30.4907 23.0973 29.6172C21.5867 28.7453 20.625 27.5247 20.625 26.154C20.625 24.7834 21.5867 23.5628 23.0973 22.6909Z" fill="#1C1E2C"/>
<path d="M28.9745 29.437C32.3407 29.437 35.0696 27.8599 35.0696 25.9144C35.0696 23.9689 32.3407 22.3917 28.9745 22.3917C25.6083 22.3917 22.8794 23.9689 22.8794 25.9144C22.8794 27.8599 25.6083 29.437 28.9745 29.437Z" fill="white"/>
<path fill-rule="evenodd" clip-rule="evenodd" d="M33.1771 28.2197C34.2477 27.601 34.8553 26.7783 34.8553 25.9144C34.8553 25.0505 34.2477 24.2277 33.1771 23.609C32.1122 22.9935 30.6268 22.606 28.9745 22.606C27.3222 22.606 25.8368 22.9935 24.7718 23.609C23.7013 24.2277 23.0937 25.0505 23.0937 25.9144C23.0937 26.7783 23.7013 27.601 24.7718 28.2197C25.8368 28.8352 27.3222 29.2227 28.9745 29.2227C30.6268 29.2227 32.1122 28.8352 33.1771 28.2197ZM35.0696 25.9144C35.0696 27.8599 32.3407 29.437 28.9745 29.437C25.6083 29.437 22.8794 27.8599 22.8794 25.9144C22.8794 23.9689 25.6083 22.3917 28.9745 22.3917C32.3407 22.3917 35.0696 23.9689 35.0696 25.9144Z" fill="black"/>
<path d="M20.731 28.3245V26.3391C20.731 26.3391 20.8855 27.6833 21.5807 28.2781" fill="#B9E14A"/>
<path fill-rule="evenodd" clip-rule="evenodd" d="M20.8393 27.2576V28.3248H20.625V26.3395L20.838 26.3273L20.8387 26.3278L20.839 26.3303L20.8403 26.3409C20.8415 26.3503 20.8434 26.3644 20.8461 26.3828C20.8515 26.4195 20.8601 26.4729 20.8725 26.5391C20.8973 26.6715 20.9374 26.8541 20.9988 27.0546C21.1228 27.46 21.3279 27.9201 21.6516 28.1971L21.5122 28.3599C21.1816 28.077 20.9712 27.6425 20.8393 27.2576Z" fill="black"/>
<path d="M37.2169 28.3245V26.3391C37.2169 26.3391 37.0624 27.6833 36.3672 28.2781" fill="#B9E14A"/>
<path fill-rule="evenodd" clip-rule="evenodd" d="M37.1109 26.3273L37.1103 26.3278L37.11 26.3303L37.1086 26.3409C37.1074 26.3503 37.1055 26.3644 37.1028 26.3828C37.0974 26.4195 37.0889 26.4729 37.0765 26.5391C37.0517 26.6715 37.0115 26.8541 36.9502 27.0546C36.8262 27.46 36.6211 27.9201 36.2974 28.1971L36.4367 28.3599C36.7673 28.077 36.9778 27.6425 37.1096 27.2576V28.3248H37.3239V26.3395L37.1109 26.3273Z" fill="black"/>
<path d="M28.9188 26.9586C34.6335 26.9586 39.2663 24.2847 39.2663 20.9863C39.2663 17.6878 34.6335 15.014 28.9188 15.014C23.204 15.014 18.5713 17.6878 18.5713 20.9863C18.5713 24.2847 23.204 26.9586 28.9188 26.9586Z" fill="#B9E14A"/>
<path fill-rule="evenodd" clip-rule="evenodd" d="M21.6567 16.8557C19.8004 17.9271 18.6796 19.3913 18.6796 20.986C18.6796 22.5807 19.8004 24.0448 21.6567 25.1162C23.5102 26.186 26.0779 26.8511 28.92 26.8511C31.762 26.8511 34.3297 26.186 36.1832 25.1162C38.0395 24.0448 39.1603 22.5807 39.1603 20.986C39.1603 19.3913 38.0395 17.9271 36.1832 16.8557C34.3297 15.7859 31.762 15.1208 28.92 15.1208C26.0779 15.1208 23.5102 15.7859 21.6567 16.8557ZM21.5496 16.6701C23.4412 15.5784 26.0472 14.9065 28.92 14.9065C31.7927 14.9065 34.3987 15.5784 36.2903 16.6701C38.179 17.7602 39.3746 19.2823 39.3746 20.986C39.3746 22.6897 38.179 24.2117 36.2903 25.3018C34.3987 26.3936 31.7927 27.0654 28.92 27.0654C26.0472 27.0654 23.4412 26.3936 21.5496 25.3018C19.6609 24.2117 18.4653 22.6897 18.4653 20.986C18.4653 19.2823 19.6609 17.7602 21.5496 16.6701Z" fill="#1C1E2C"/>
<path d="M28.9383 24.6448C34.6531 24.6448 39.2858 21.9709 39.2858 18.6725C39.2858 15.3741 34.6531 12.7002 28.9383 12.7002C23.2235 12.7002 18.5908 15.3741 18.5908 18.6725C18.5908 21.9709 23.2235 24.6448 28.9383 24.6448Z" fill="#6B8FFA"/>
<path fill-rule="evenodd" clip-rule="evenodd" d="M21.6763 14.542C19.8199 15.6134 18.6991 17.0775 18.6991 18.6722C18.6991 20.2669 19.8199 21.7311 21.6763 22.8025C23.5298 23.8723 26.0975 24.5374 28.9395 24.5374C31.7815 24.5374 34.3492 23.8723 36.2027 22.8025C38.059 21.7311 39.1798 20.2669 39.1798 18.6722C39.1798 17.0775 38.059 15.6134 36.2027 14.542C34.3492 13.4722 31.7815 12.8071 28.9395 12.8071C26.0975 12.8071 23.5298 13.4722 21.6763 14.542ZM21.5692 14.3564C23.4607 13.2646 26.0667 12.5928 28.9395 12.5928C31.8122 12.5928 34.4183 13.2646 36.3098 14.3564C38.1985 15.4465 39.3941 16.9685 39.3941 18.6722C39.3941 20.3759 38.1985 21.898 36.3098 22.9881C34.4183 24.0798 31.8122 24.7517 28.9395 24.7517C26.0667 24.7517 23.4607 24.0798 21.5692 22.9881C19.6804 21.898 18.4849 20.3759 18.4849 18.6722C18.4849 16.9685 19.6804 15.4465 21.5692 14.3564Z" fill="#1C1E2C"/>
<path d="M28.918 22.7864C33.1359 22.7864 36.5552 20.8102 36.5552 18.3725C36.5552 15.9347 33.1359 13.9586 28.918 13.9586C24.7001 13.9586 21.2808 15.9347 21.2808 18.3725C21.2808 20.8102 24.7001 22.7864 28.918 22.7864Z" fill="white"/>
<path fill-rule="evenodd" clip-rule="evenodd" d="M23.5724 15.3439C22.2066 16.1332 21.3891 17.2077 21.3891 18.3722C21.3891 19.5366 22.2066 20.6111 23.5724 21.4005C24.9355 22.1883 26.8256 22.6789 28.9191 22.6789C31.0127 22.6789 32.9028 22.1883 34.2658 21.4005C35.6317 20.6111 36.4492 19.5366 36.4492 18.3722C36.4492 17.2077 35.6317 16.1332 34.2658 15.3439C32.9028 14.5561 31.0127 14.0654 28.9191 14.0654C26.8256 14.0654 24.9355 14.5561 23.5724 15.3439ZM23.4652 15.1583C24.8663 14.3486 26.7948 13.8511 28.9191 13.8511C31.0435 13.8511 32.972 14.3486 34.3731 15.1583C35.7714 15.9665 36.6635 17.0989 36.6635 18.3722C36.6635 19.6455 35.7714 20.7779 34.3731 21.586C32.972 22.3958 31.0435 22.8932 28.9191 22.8932C26.7948 22.8932 24.8663 22.3958 23.4652 21.586C22.0669 20.7779 21.1748 19.6455 21.1748 18.3722C21.1748 17.0989 22.0669 15.9665 23.4652 15.1583Z" fill="#1C1E2C"/>
<path d="M18.5908 21.3925V18.9049C18.5908 18.9049 18.7844 20.5891 19.6556 21.3344" fill="#B9E14A"/>
<path fill-rule="evenodd" clip-rule="evenodd" d="M18.6991 19.8839V21.3922H18.4849V18.9045L18.6979 18.8923L18.6985 18.8931L18.6989 18.8963L18.7006 18.9098C18.7022 18.9217 18.7046 18.9396 18.708 18.9627C18.7148 19.009 18.7256 19.0763 18.7412 19.1596C18.7724 19.3262 18.8229 19.556 18.9002 19.8085C19.0559 20.3177 19.3148 20.9005 19.7264 21.2527L19.5871 21.4155C19.1313 21.0256 18.8585 20.4007 18.6991 19.8839Z" fill="black"/>
<path d="M39.2483 21.3925V18.9049C39.2483 18.9049 39.0548 20.5891 38.1836 21.3344" fill="#B9E14A"/>
<path fill-rule="evenodd" clip-rule="evenodd" d="M39.1422 18.8923L39.1416 18.8931L39.1412 18.8964L39.1395 18.9098C39.138 18.9217 39.1356 18.9396 39.1322 18.9627C39.1253 19.009 39.1146 19.0763 39.099 19.1596C39.0678 19.3263 39.0172 19.5561 38.94 19.8085C38.7843 20.3177 38.5254 20.9005 38.1138 21.2527L38.2531 21.4155C38.7088 21.0256 38.9816 20.4007 39.141 19.8839V21.3922H39.3553V18.9045L39.1422 18.8923Z" fill="black"/>
</g>
<defs>
<clipPath id="clip0_1378_78377">
<rect width="38.45" height="37.2786" fill="white" transform="translate(0.714355 1.42857)"/>
</clipPath>
</defs>
</svg>
