<svg width="40" height="40" viewBox="0 0 40 40" fill="none" xmlns="http://www.w3.org/2000/svg">
<g clip-path="url(#clip0_1378_78311)">
<g clip-path="url(#clip1_1378_78311)">
<path d="M26.8303 25.6647L19.016 21.1504C18.6446 20.9361 18.3517 20.6147 18.1731 20.2361C18.0017 19.8647 17.966 19.4647 18.0731 19.129L22.666 5.07185L7.51599 13.8718L2.92313 27.929C2.80884 28.2718 2.84456 28.6647 3.02313 29.0361C3.19456 29.4147 3.49456 29.7361 3.86599 29.9504L11.6803 34.4647C12.0017 34.6504 12.266 34.6861 12.4446 34.5861C17.4946 31.6504 22.5446 28.7147 27.5946 25.7861C27.416 25.8933 27.1446 25.8504 26.8303 25.6647Z" fill="#1C1E2C"/>
<path d="M28.3303 24.8505L23.7088 5.00767L8.3374 13.5148C8.3374 13.5148 13.2803 34.9077 12.9874 35.1934C12.9445 35.2362 12.9017 35.272 12.8517 35.2934C17.9017 32.3577 22.9517 29.422 28.0017 26.4934C28.0517 26.4648 28.0945 26.4291 28.1374 26.3934C28.4231 26.1077 28.4945 25.5648 28.3303 24.8577V24.8505Z" fill="#EC7278"/>
<path d="M12.9078 35.3859L12.8007 35.2002C12.8007 35.2002 12.865 35.1573 12.8864 35.1288C12.9507 34.3716 10.1435 21.8431 8.22211 13.5359L8.20068 13.4573L23.7793 4.84305L23.8078 4.97877L28.4364 24.8216C28.6078 25.5645 28.5293 26.1502 28.215 26.4573C28.165 26.5073 28.115 26.5431 28.0578 26.5788L12.915 35.3788L12.9078 35.3859ZM8.45783 13.5716C10.1864 21.0573 12.9507 33.2145 13.0793 35.0431L27.9507 26.4002C27.9935 26.3788 28.0293 26.3502 28.065 26.3145C28.3221 26.0573 28.3864 25.5502 28.2293 24.8788L23.6364 5.17162L8.45783 13.5716Z" fill="#1C1E2C"/>
<path d="M7.09521 12.9638L22.2381 4.15667L23.7095 5.00667L8.5595 13.8067L7.09521 12.9638Z" fill="white"/>
<path d="M8.55837 13.9284C8.55837 13.9284 8.51551 13.9284 8.50123 13.9141L7.0298 13.0641C6.99408 13.0427 6.97266 13.0069 6.97266 12.9641C6.97266 12.9212 6.99408 12.8855 7.0298 12.8641L22.1798 4.05695C22.2155 4.03552 22.2584 4.03552 22.2941 4.05695L23.7655 4.90695C23.8012 4.92837 23.8227 4.96409 23.8227 5.00695C23.8227 5.0498 23.8012 5.08552 23.7655 5.10695L8.62266 13.9069C8.62266 13.9069 8.58694 13.9212 8.56551 13.9212L8.55837 13.9284ZM7.32266 12.9641L8.55837 13.6784L23.4727 5.00695L22.2369 4.29266L7.32266 12.9641Z" fill="#1C1E2C"/>
<path d="M13.1859 33.6575C13.3502 34.3646 13.2788 34.9146 12.993 35.1932C12.7073 35.4789 12.2359 35.4575 11.6788 35.136L3.86447 30.6218C3.30732 30.3003 2.84304 29.786 2.55732 29.1718C2.27161 28.5575 2.20732 27.936 2.37161 27.4146L7.09304 12.9646L8.56447 13.8146L13.1859 33.6575ZM12.5288 34.5289C12.7073 34.3575 12.743 34.0075 12.6359 33.536L8.1359 14.2289L7.52161 13.8718L2.92161 27.9289C2.80732 28.2718 2.84304 28.6646 3.02161 29.036C3.19304 29.4146 3.49304 29.736 3.86447 29.9503L11.6788 34.4646C12.0502 34.6789 12.3502 34.7003 12.5216 34.5218" fill="#94B4F8"/>
<path d="M12.4794 35.5287C12.2223 35.5287 11.9294 35.4358 11.608 35.2501L3.79372 30.7358C3.21514 30.4001 2.72943 29.8644 2.42943 29.2216C2.12943 28.5716 2.06514 27.9144 2.23657 27.3644L7.01514 12.7644L8.67943 13.7216L8.69372 13.7787L13.3223 33.6216C13.4937 34.3787 13.4151 34.9644 13.0937 35.2859C12.9294 35.443 12.7294 35.5216 12.4866 35.5216L12.4794 35.5287ZM7.16514 13.1573L2.49372 27.4501C2.33657 27.9359 2.40086 28.5216 2.67229 29.1073C2.94372 29.7001 3.39372 30.193 3.92943 30.5001L11.7437 35.0144C12.0366 35.1787 12.5723 35.4144 12.8937 35.093C13.1437 34.843 13.2009 34.343 13.0509 33.6787L8.43657 13.893L7.16514 13.1573ZM12.2151 34.7716C12.058 34.7716 11.858 34.7216 11.608 34.5787L3.79372 30.0644C3.40086 29.8358 3.08657 29.493 2.89372 29.093C2.708 28.6858 2.66514 28.2573 2.78657 27.8859L7.43657 13.6787L8.24372 14.143L8.258 14.2001L12.758 33.5073C12.8794 34.0287 12.8294 34.4144 12.6151 34.6287C12.5437 34.7001 12.4151 34.7859 12.2151 34.7859V34.7716ZM7.59372 14.0716L3.05086 27.9716C2.95086 28.2787 2.98657 28.6359 3.14372 28.9859C3.308 29.3359 3.58657 29.643 3.92943 29.8358L11.7437 34.3501C12.0509 34.5287 12.3009 34.5573 12.4294 34.4287C12.5723 34.293 12.5937 33.9787 12.5009 33.5644L8.01514 14.3144L7.59372 14.0716Z" fill="#1C1E2C"/>
<path d="M9.90283 14.1357L23.1743 6.42857L27.4957 24.9929L14.2243 32.7071L9.90283 14.1357Z" fill="white"/>
<path d="M14.2228 32.8216C14.2228 32.8216 14.1942 32.8216 14.1799 32.8145C14.1442 32.8002 14.1228 32.7716 14.1156 32.7359L9.78706 14.1645C9.77277 14.1145 9.7942 14.0645 9.8442 14.0359L23.1085 6.3216C23.1085 6.3216 23.1799 6.30018 23.2156 6.3216C23.2513 6.33589 23.2728 6.36446 23.2799 6.40018L27.6085 24.9716C27.6228 25.0216 27.6013 25.0716 27.5513 25.1002L14.2799 32.8145C14.2799 32.8145 14.2442 32.8287 14.2228 32.8287V32.8216ZM10.0299 14.193L14.3013 32.5287L27.3656 24.9359L23.0942 6.60018L10.0299 14.193Z" fill="#1F3596"/>
<path d="M23.1738 6.42857L9.90234 14.1357L10.9809 18.7643L24.2523 11.05L23.1738 6.42857Z" fill="#EC7278"/>
<path d="M10.9084 18.9284L9.77979 14.0784L9.85121 14.0355L23.2441 6.25697L24.3726 11.107L24.3012 11.1498L10.9012 18.9355L10.9084 18.9284ZM10.0226 14.1855L11.0512 18.5927L24.1298 10.9927L23.1012 6.58554L10.0226 14.1927V14.1855Z" fill="#1C1E2C"/>
<path d="M10.4214 9.19333C9.85709 8.86476 9.3428 8.83618 8.97137 9.05047L8.82851 9.13618C8.46423 9.35047 8.23566 9.80047 8.22852 10.4433C8.22852 10.9576 8.37137 11.5219 8.62852 12.0719L8.87852 11.929C8.64994 11.429 8.52137 10.9148 8.52137 10.4505C8.52137 9.90047 8.70709 9.50047 8.99994 9.28618C9.33566 9.12904 9.77851 9.1719 10.2642 9.45047C11.3071 10.0505 12.1499 11.5148 12.1428 12.7076C12.1428 13.3933 11.8499 13.879 11.3642 14.0076L11.4499 14.1933C11.5642 14.1648 11.6714 14.1076 11.7642 14.0433C11.7428 14.0576 11.7142 14.079 11.6928 14.0933L11.8357 14.0076C12.2142 13.7862 12.4285 13.3219 12.4357 12.7076C12.4357 11.4219 11.5285 9.84333 10.4071 9.20047L10.4214 9.19333Z" fill="white"/>
<path d="M13.9062 7.17184C13.342 6.84327 12.8277 6.8147 12.4562 7.02899L12.3134 7.1147C11.9491 7.32899 11.7205 7.77899 11.7134 8.42184C11.7134 8.93613 11.8562 9.50041 12.1134 10.0504L12.3634 9.90756C12.1348 9.40756 12.0062 8.89327 12.0062 8.42899C12.0062 7.87899 12.192 7.47899 12.4848 7.2647C12.8205 7.10756 13.2634 7.15041 13.7491 7.42899C14.792 8.02899 15.6348 9.49327 15.6277 10.6861C15.6277 11.3718 15.3348 11.8576 14.8491 11.9861L14.9348 12.1718C15.0491 12.1433 15.1562 12.0861 15.2491 12.0218C15.2277 12.0361 15.1991 12.0576 15.1777 12.0718L15.3205 11.9861C15.6991 11.7647 15.9134 11.3004 15.9205 10.6861C15.9205 9.40041 15.0134 7.82184 13.892 7.17899L13.9062 7.17184Z" fill="white"/>
<path d="M17.394 5.15734C16.8297 4.82876 16.3155 4.80019 15.944 5.01448L15.8012 5.10019C15.4369 5.31448 15.2083 5.76448 15.2012 6.40734C15.2012 6.92162 15.344 7.48591 15.6012 8.03591L15.8512 7.89305C15.6226 7.39305 15.494 6.87876 15.494 6.41448C15.494 5.86448 15.6797 5.46448 15.9726 5.25019C16.3083 5.09305 16.7512 5.13591 17.2369 5.41448C18.2797 6.01448 19.1226 7.47876 19.1155 8.67162C19.1155 9.35734 18.8226 9.84305 18.3369 9.97162L18.4226 10.1573C18.5369 10.1288 18.644 10.0716 18.7369 10.0073C18.7155 10.0216 18.6869 10.043 18.6655 10.0573L18.8083 9.97162C19.1869 9.75019 19.4012 9.28591 19.4083 8.67162C19.4083 7.38591 18.5012 5.80734 17.3797 5.16448L17.394 5.15734Z" fill="white"/>
<path d="M20.8789 3.13585C20.3146 2.80728 19.8003 2.77871 19.4289 2.99299L19.286 3.07871C18.9217 3.29299 18.6932 3.74299 18.686 4.37871C18.686 4.89299 18.8289 5.45728 19.086 6.00728L19.336 5.86442C19.1075 5.36442 18.9789 4.85014 18.9789 4.38585C18.9789 3.83585 19.1646 3.43585 19.4575 3.22157C19.7932 3.06442 20.236 3.10728 20.7217 3.38585C21.7646 3.98585 22.6075 5.45014 22.6003 6.64299C22.6003 7.32871 22.3075 7.81442 21.8217 7.94299L21.9075 8.12871C22.0217 8.10014 22.1289 8.04299 22.2217 7.97871C22.2003 7.99299 22.1717 8.01442 22.1503 8.02871L22.2932 7.94299C22.6717 7.72157 22.886 7.25728 22.8932 6.64299C22.8932 5.35728 21.986 3.77871 20.8646 3.13585H20.8789Z" fill="white"/>
<path d="M20.4667 20.4504L17.7381 22.0576L16.8667 18.1076L19.6024 16.5004L20.4667 20.4504Z" fill="#94B4F8"/>
<path d="M24.3935 18.1287L21.6792 19.7287L20.8149 15.7929L23.5364 14.1929L24.3935 18.1287Z" fill="#94B4F8"/>
<path d="M16.5233 22.7787L13.7733 24.4001L12.9019 20.4429L15.6447 18.8287L16.5233 22.7787Z" fill="#504ECD"/>
<path d="M21.6593 25.8789L18.9378 27.5003L18.0664 23.5575L20.795 21.9503L21.6593 25.8789Z" fill="#94B4F8"/>
<path d="M25.5731 23.5503L22.8659 25.1575L22.0088 21.2289L24.7231 19.6289L25.5731 23.5503Z" fill="#94B4F8"/>
<path d="M17.7241 28.2216L14.9884 29.843L14.1099 25.9002L16.8527 24.2787L17.7241 28.2216Z" fill="#94B4F8"/>
<path d="M35.3863 23.4144L21.6291 32.2358C21.3148 32.4144 20.4077 31.7572 20.1791 31.6501C19.6577 31.3929 19.3005 30.9929 19.2934 30.3286L19.272 24.1501C19.272 22.9501 19.9148 21.8429 20.9577 21.2501L35.0863 13.2644C35.6434 12.9501 36.2148 13.1358 36.6934 13.4215C36.9934 13.6001 37.7077 14.0786 37.7077 14.0786L37.0577 20.5358C37.0577 21.7215 36.4148 22.8215 35.3863 23.4144Z" fill="#1B1E2D"/>
<path d="M36.5705 24.0076L22.4705 32.0719C21.5848 32.5791 20.4848 31.9433 20.4848 30.9219L20.4634 24.7433C20.4634 23.5433 21.1062 22.4362 22.1491 21.8433L36.2777 13.8576C37.1634 13.3576 38.2634 14.0005 38.2562 15.0148L38.242 21.1291C38.242 22.3148 37.5991 23.4148 36.5705 24.0076Z" fill="#6B8FFA"/>
<path d="M21.8146 32.3575C21.5646 32.3575 21.3217 32.2933 21.0931 32.1647C20.6431 31.9075 20.3789 31.4433 20.3789 30.929L20.3574 24.7504C20.3574 23.5147 21.0217 22.3647 22.1003 21.7575L36.2289 13.7718C36.6789 13.5218 37.2146 13.5218 37.6574 13.7861C38.1003 14.0504 38.3717 14.5075 38.3646 15.029L38.3503 21.1433C38.3503 22.3647 37.686 23.5075 36.6217 24.1147L22.5217 32.179C22.3003 32.3075 22.0574 32.3718 21.8074 32.3718L21.8146 32.3575ZM36.936 13.8004C36.7288 13.8004 36.5217 13.8504 36.336 13.9575L22.2074 21.9433C21.2003 22.5147 20.5717 23.5861 20.5789 24.7504L20.6003 30.929C20.6003 31.3647 20.8289 31.7647 21.2074 31.979C21.586 32.2004 22.0431 32.2004 22.4217 31.979L36.5217 23.9147C37.5146 23.3433 38.136 22.279 38.1431 21.129L38.1574 15.0147C38.1574 14.5718 37.936 14.179 37.5503 13.9575C37.3574 13.8433 37.1431 13.7861 36.936 13.7861V13.8004Z" fill="#1C1E2C"/>
<path d="M34.9062 21.3221L24.1848 27.4435C23.7419 27.6935 23.1919 27.3792 23.1919 26.8649V26.0864C23.1919 25.3721 23.5705 24.7078 24.1919 24.3507L34.9133 18.2507C35.3562 18.0007 35.9062 18.3221 35.9062 18.8292V19.5935C35.9062 20.3078 35.5205 20.9649 34.899 21.3221H34.9062Z" fill="#1C1E2C"/>
<path d="M23.8574 27.6433C23.7217 27.6433 23.5931 27.6076 23.4717 27.5361C23.2288 27.3933 23.0859 27.1504 23.0859 26.8718V26.0933C23.0859 25.3361 23.4859 24.6361 24.1431 24.2647L34.8645 18.1647C35.1074 18.029 35.3931 18.029 35.6359 18.1647C35.8788 18.3076 36.0217 18.5576 36.0217 18.829V19.5933C36.0217 20.3433 35.6145 21.0433 34.9645 21.4147L24.2431 27.5361C24.1217 27.6076 23.9931 27.6361 23.8574 27.6361V27.6433ZM35.2502 18.279C35.1574 18.279 35.0645 18.3004 34.9717 18.3504L24.2502 24.4504C23.6574 24.7861 23.2931 25.4147 23.3002 26.0933V26.8718C23.3002 27.0718 23.4074 27.2504 23.5859 27.3504C23.7574 27.4504 23.9645 27.4504 24.1431 27.3504L34.8645 21.229C35.4502 20.8933 35.8145 20.2718 35.8145 19.5933V18.829C35.8145 18.629 35.7145 18.4504 35.5431 18.3504C35.4574 18.3004 35.3574 18.2718 35.2645 18.2718L35.2502 18.279Z" fill="#383D4C"/>
<path d="M37.6273 25.5714L37.5988 34.4357L27.5631 40.2928L27.6202 31.3071C27.6345 28.9142 26.3559 26.6928 24.2773 25.4999L34.2631 19.7642C36.3559 20.9428 37.6416 23.1642 37.6345 25.5642L37.6273 25.5714Z" fill="#B9E14A"/>
<path d="M27.45 40.4787L27.5071 31.3073C27.5214 28.9573 26.2643 26.7645 24.2214 25.593L24.0571 25.5002L24.2214 25.4073L34.2571 19.6359L34.3071 19.6645C36.4286 20.8645 37.7428 23.1216 37.7357 25.5573L37.7071 34.4859L37.6571 34.5145L27.4571 40.4645L27.45 40.4787ZM24.4857 25.5073C26.5 26.7359 27.7357 28.943 27.7214 31.3073L27.6643 40.1002L37.4857 34.3716L37.5143 25.5645C37.5143 23.2287 36.2714 21.0573 34.25 19.8859L24.4786 25.5002L24.4857 25.5073Z" fill="#1C1E2C"/>
<path d="M34.9588 25.8141L33.5088 26.6498C33.7659 26.7927 33.9445 27.0998 34.0016 27.657L34.9588 27.107V27.7355L34.0088 28.2855C33.9159 29.6213 33.2088 30.857 32.0802 31.557C32.7659 32.1784 33.5088 33.0355 34.2516 33.907L33.4088 34.3927C32.7231 33.607 32.0802 32.8784 31.2588 32.0927V31.307L31.7445 31.0284C32.6945 30.4784 33.2088 29.6141 33.2659 28.707L31.2588 29.8641V29.2355L33.2445 28.0927C33.1231 27.4284 32.6588 27.3355 31.8874 27.7784L31.2588 28.1427V27.3213L34.9659 25.1855V25.8141H34.9588Z" fill="black"/>
</g>
</g>
<defs>
<clipPath id="clip0_1378_78311">
<rect width="40" height="40" fill="white"/>
</clipPath>
<clipPath id="clip1_1378_78311">
<rect width="36.2214" height="37.6214" fill="white" transform="translate(2.14307 2.85714)"/>
</clipPath>
</defs>
</svg>
