<svg width="40" height="40" viewBox="0 0 40 40" fill="none" xmlns="http://www.w3.org/2000/svg">
<g clip-path="url(#clip0_1378_79235)">
<path d="M14.6445 27.1883L6.42871 31.6931L12.7853 35.338L17.4444 32.7513L21.1702 34.8604L18.1572 36.5506L24.0729 39.9236L32.5386 35.1176L16.5405 26.1522L14.6445 27.1883Z" fill="#728DF2" stroke="#1C1E2C" stroke-width="0.3" stroke-miterlimit="10"/>
<path d="M12.7852 35.3388L17.4442 32.752V20.1711L12.7852 22.5374V35.3388Z" fill="#6262C9" stroke="#1C1E2C" stroke-width="0.3" stroke-miterlimit="10"/>
<path d="M17.4443 20.1711V32.752L21.1701 34.8611V22.2802L17.4443 20.1711Z" fill="#728DF2" stroke="#1C1E2C" stroke-width="0.3" stroke-miterlimit="10"/>
<path d="M23.3967 35.1553L17.8999 31.966L17.8926 30.5844L23.3967 33.7664V35.1553Z" fill="#7471E0"/>
<path d="M23.3967 32.789L17.8926 29.6144V28.2328L23.3967 31.4001V32.789Z" fill="#7471E0"/>
<path d="M23.3968 30.4222L17.8853 27.2623V25.8734L23.3968 29.0333V30.4222Z" fill="#7471E0"/>
<path d="M23.3968 28.0559L17.8853 24.9033L17.8779 23.5218L23.3894 26.667L23.3968 28.0559Z" fill="#7471E0"/>
<path d="M14.6445 14.6074L6.42871 19.1121L12.7853 22.7571L17.4444 20.1704L21.1702 22.2794L18.1572 23.9696L24.0729 27.3427L32.5386 22.5366L16.5405 13.5712L14.6445 14.6074Z" fill="#A6BDFD" stroke="#1C1E2C" stroke-width="0.3" stroke-miterlimit="10"/>
<path d="M6.42871 31.693V19.112L12.7853 22.757V35.3379L6.42871 31.693Z" fill="#89A7FD" stroke="#1C1E2C" stroke-width="0.3" stroke-miterlimit="10"/>
<path d="M24.0728 39.9236V27.3426L32.5384 22.5366V35.1175L24.0728 39.9236Z" fill="#6262C9" stroke="#1C1E2C" stroke-width="0.3" stroke-miterlimit="10"/>
<path d="M18.1572 36.5508V23.9698L24.0729 27.3429V39.9239L18.1572 36.5508Z" fill="#89A7FD" stroke="#1C1E2C" stroke-width="0.3" stroke-miterlimit="10"/>
<path d="M23.2206 38.4764L18.7232 35.8529L18.7158 34.4714L23.2132 37.0875L23.2206 38.4764Z" fill="#7471E0"/>
<path d="M23.2132 36.1102L18.7158 33.494V32.1125L23.2132 34.7213V36.1102Z" fill="#7471E0"/>
<path d="M23.2132 33.7433L18.7085 31.1345V29.753L23.2132 32.3544V33.7433Z" fill="#7471E0"/>
<path d="M23.2133 31.3777L18.7085 28.7837L18.7012 27.4021L23.2133 29.9888V31.3777Z" fill="#7471E0"/>
<path d="M12.2342 34.0011L6.87698 30.8632L6.86963 29.4963L12.2342 32.6342V34.0011Z" fill="#7471E0"/>
<path d="M12.2269 31.6632L6.86233 28.54L6.85498 27.1732L12.2195 30.2963L12.2269 31.6632Z" fill="#7471E0"/>
<path d="M12.2195 29.3267L6.855 26.2182L6.84766 24.8514L12.2122 27.9599L12.2195 29.3267Z" fill="#7471E0"/>
<path d="M12.2122 26.9969L6.84036 23.8957L6.83301 22.5289L12.2049 25.6227L12.2122 26.9969Z" fill="#7471E0"/>
<path d="M14.721 4.43504L12.5369 3.27877L10.6504 1.60183L12.5031 0.601074L19.0351 4.02933L19.0621 6.73407L16.8375 5.55751L16.9389 14.4088L14.8225 13.2593L14.7143 4.43504H14.721Z" fill="#6262C9" stroke="#1C1E2C" stroke-width="0.3" stroke-linejoin="round"/>
<path d="M16.8444 5.55768L14.9917 6.55843L15.0931 15.4097L16.9459 14.4089L16.8444 5.55768Z" fill="#6262C9" stroke="#1C1E2C" stroke-width="0.3" stroke-linejoin="round"/>
<path d="M12.8683 5.43632L10.6842 4.28005L10.6504 1.60236L17.1823 5.03061L17.2094 7.73535L14.9847 6.55879L15.0862 15.41L12.9697 14.2605L12.8615 5.43632H12.8683Z" fill="#B9E14A" stroke="#1C1E2C" stroke-width="0.3" stroke-linejoin="round"/>
<path d="M17.2092 7.73442L19.0619 6.73367L19.0349 4.02893L17.1821 5.02968L17.2092 7.73442Z" fill="#6262C9" stroke="#1C1E2C" stroke-width="0.3" stroke-linejoin="round"/>
<path d="M23.2679 6.25379C25.9997 7.6873 27.3453 10.933 27.3724 14.1584C27.3994 17.3838 26.1485 19.3921 23.3829 17.8909L20.1034 16.1126L18.1289 5.51674L19.9817 4.51599L23.2679 6.24026V6.25379ZM22.2131 14.51L23.3558 15.1253C24.742 15.8691 25.5128 14.537 25.2018 12.9683C24.8637 11.2576 23.9441 10.9533 23.3017 9.00586L22.159 8.40405L22.2198 14.5168L22.2131 14.51Z" fill="#6262C9" stroke="#1C1E2C" stroke-width="0.3" stroke-linejoin="round"/>
<path d="M21.4083 7.24719C24.1401 8.68071 25.4857 11.9264 25.5128 15.1518C25.5398 18.3772 24.2889 20.3855 21.5233 18.8843L18.2438 17.106L18.1221 5.5094L21.4083 7.23367V7.24719ZM20.3535 15.5034L21.4962 16.1187C22.8824 16.8625 23.3557 15.5643 23.3422 13.9617C23.3287 12.3591 22.7742 10.7025 21.4421 9.99927L20.2994 9.39746L20.3602 15.5102L20.3535 15.5034Z" fill="#B9E14A" stroke="#1C1E2C" stroke-width="0.3" stroke-linejoin="round"/>
<path d="M33.3699 14.8211C32.8222 13.9285 32.2745 14.9969 31.5104 13.0292C31.2872 12.4612 30.442 12.7181 30.4488 13.3402C30.4488 14.1449 30.9829 14.5438 31.7606 15.078C33.3293 16.1667 34.986 17.9856 34.9995 20.7039C35.013 23.4221 33.3225 23.6047 31.5577 22.6648C30.1445 21.9143 28.4608 20.7715 27.3654 18.4792L29.2384 17.2756C30.016 18.8106 30.8815 19.48 31.5442 19.8316C32.2745 20.2238 32.5382 20.2982 32.5382 19.6423C32.5382 19.054 32.3218 18.2561 31.4563 17.6746C29.7388 16.5183 26.8176 14.3748 26.7974 11.4604L28.8192 10.2636C29.4345 9.66855 30.4555 9.7835 31.4968 10.3312C32.6802 10.9533 33.6133 11.8459 34.4721 13.2929L33.3766 14.8143L33.3699 14.8211Z" fill="#6262C9" stroke="#1C1E2C" stroke-width="0.3" stroke-linejoin="round"/>
<path d="M31.5173 15.8213C30.9696 14.9287 30.3475 14.3945 29.6578 14.0294C29.1168 13.7454 28.5894 13.7184 28.5962 14.3404C28.5962 15.1451 29.1304 15.5441 29.908 16.0782C31.4767 17.1669 33.1334 18.9858 33.1469 21.7041C33.1604 24.4224 31.47 24.6049 29.7051 23.665C28.2919 22.9145 27.2844 22.0016 26.189 19.7161L27.3858 18.2826C28.1634 19.8175 29.0289 20.487 29.6916 20.8386C30.4219 21.2308 30.929 21.1226 30.9223 20.4667C30.9223 19.8784 30.4625 19.2698 29.5969 18.6883C27.8794 17.532 26.3986 16.0918 26.3715 13.1774C26.3512 10.6958 27.9673 10.4727 29.6307 11.3449C30.8141 11.967 31.7472 12.8596 32.606 14.3066L31.5105 15.828L31.5173 15.8213Z" fill="#B9E14A" stroke="#1C1E2C" stroke-width="0.3" stroke-miterlimit="10"/>
<path d="M31.5176 15.8223L33.3703 14.8215L34.4725 13.3001L32.613 14.3009L31.5176 15.8223Z" fill="#6262C9" stroke="#1C1E2C" stroke-width="0.3" stroke-linejoin="round"/>
</g>
<defs>
<clipPath id="clip0_1378_79235">
<rect width="40" height="40" fill="white"/>
</clipPath>
</defs>
</svg>
